<svg width="161" height="58" viewBox="0 0 161 58" fill="none" xmlns="http://www.w3.org/2000/svg">
<path d="M27.7654 28L34.5454 8.2H40.8454L47.6254 28H42.9454L37.9354 11.62H37.4854L32.4454 28H27.7654ZM31.5754 24.1V21.16H44.4454V24.1H31.5754ZM50.094 28V20.38V12.25H53.664L53.694 17.62H54.264C54.424 16.28 54.694 15.19 55.074 14.35C55.474 13.51 56.024 12.89 56.724 12.49C57.424 12.09 58.294 11.89 59.334 11.89C59.514 11.89 59.704 11.9 59.904 11.92C60.124 11.92 60.374 11.95 60.654 12.01L60.474 16.6C60.174 16.46 59.844 16.36 59.484 16.3C59.124 16.24 58.804 16.21 58.524 16.21C57.744 16.21 57.074 16.39 56.514 16.75C55.954 17.11 55.494 17.63 55.134 18.31C54.794 18.97 54.564 19.78 54.444 20.74V28H50.094ZM70.1833 28.42C68.6033 28.42 67.2133 28.11 66.0133 27.49C64.8133 26.85 63.8733 25.92 63.1933 24.7C62.5133 23.46 62.1733 21.92 62.1733 20.08C62.1733 18.24 62.5133 16.71 63.1933 15.49C63.8933 14.27 64.8433 13.36 66.0433 12.76C67.2633 12.14 68.6433 11.83 70.1833 11.83C71.7633 11.83 73.1533 12.14 74.3533 12.76C75.5733 13.38 76.5233 14.31 77.2033 15.55C77.9033 16.77 78.2533 18.3 78.2533 20.14C78.2533 22 77.8933 23.55 77.1733 24.79C76.4733 26.01 75.5133 26.92 74.2933 27.52C73.0933 28.12 71.7233 28.42 70.1833 28.42ZM70.3333 25.21C71.1133 25.21 71.7633 25.03 72.2833 24.67C72.8233 24.31 73.2233 23.77 73.4833 23.05C73.7633 22.31 73.9033 21.42 73.9033 20.38C73.9033 19.28 73.7533 18.35 73.4533 17.59C73.1733 16.81 72.7533 16.22 72.1933 15.82C71.6333 15.4 70.9233 15.19 70.0633 15.19C69.3233 15.19 68.6833 15.37 68.1433 15.73C67.6033 16.07 67.1933 16.61 66.9133 17.35C66.6333 18.07 66.4933 18.96 66.4933 20.02C66.4933 21.72 66.8333 23.01 67.5133 23.89C68.1933 24.77 69.1333 25.21 70.3333 25.21ZM81.3245 28V18.1V6.55H85.6745V11.47C85.6745 11.87 85.6545 12.29 85.6145 12.73C85.5945 13.17 85.5445 13.62 85.4645 14.08C85.4045 14.52 85.3345 14.97 85.2545 15.43C85.1945 15.89 85.1245 16.35 85.0445 16.81H85.7045C85.9845 15.79 86.3345 14.91 86.7545 14.17C87.1945 13.43 87.7545 12.86 88.4345 12.46C89.1145 12.04 89.9745 11.83 91.0145 11.83C92.8545 11.83 94.2345 12.48 95.1545 13.78C96.0745 15.06 96.5345 17.03 96.5345 19.69V28H92.1845V20.35C92.1845 18.67 91.9345 17.43 91.4345 16.63C90.9545 15.81 90.2245 15.4 89.2445 15.4C88.4445 15.4 87.7845 15.64 87.2645 16.12C86.7445 16.6 86.3545 17.25 86.0945 18.07C85.8345 18.87 85.6845 19.77 85.6445 20.77V28H81.3245ZM103.94 28.42C103.06 28.42 102.28 28.25 101.6 27.91C100.92 27.55 100.39 27.04 100.01 26.38C99.6303 25.72 99.4403 24.9 99.4403 23.92C99.4403 23.06 99.6003 22.34 99.9203 21.76C100.26 21.18 100.75 20.71 101.39 20.35C102.03 19.99 102.82 19.69 103.76 19.45C104.7 19.21 105.77 19 106.97 18.82C107.61 18.72 108.13 18.63 108.53 18.55C108.95 18.45 109.26 18.3 109.46 18.1C109.66 17.88 109.76 17.57 109.76 17.17C109.76 16.61 109.56 16.13 109.16 15.73C108.76 15.33 108.13 15.13 107.27 15.13C106.69 15.13 106.15 15.23 105.65 15.43C105.17 15.63 104.75 15.93 104.39 16.33C104.05 16.73 103.8 17.24 103.64 17.86L99.8303 16.69C100.07 15.87 100.41 15.16 100.85 14.56C101.31 13.96 101.86 13.46 102.5 13.06C103.14 12.64 103.87 12.33 104.69 12.13C105.51 11.93 106.4 11.83 107.36 11.83C108.9 11.83 110.15 12.08 111.11 12.58C112.09 13.06 112.82 13.82 113.3 14.86C113.78 15.88 114.02 17.2 114.02 18.82V21.52C114.02 22.22 114.03 22.93 114.05 23.65C114.09 24.37 114.13 25.1 114.17 25.84C114.23 26.56 114.29 27.28 114.35 28H110.54C110.46 27.5 110.38 26.93 110.3 26.29C110.24 25.63 110.19 24.97 110.15 24.31H109.61C109.33 25.07 108.93 25.76 108.41 26.38C107.89 27 107.25 27.5 106.49 27.88C105.75 28.24 104.9 28.42 103.94 28.42ZM105.77 25.3C106.15 25.3 106.53 25.23 106.91 25.09C107.31 24.95 107.69 24.76 108.05 24.52C108.43 24.26 108.77 23.94 109.07 23.56C109.39 23.18 109.65 22.75 109.85 22.27L109.79 19.75L110.48 19.9C110.12 20.16 109.7 20.37 109.22 20.53C108.74 20.67 108.24 20.78 107.72 20.86C107.22 20.94 106.72 21.03 106.22 21.13C105.72 21.23 105.27 21.36 104.87 21.52C104.49 21.68 104.18 21.9 103.94 22.18C103.72 22.44 103.61 22.81 103.61 23.29C103.61 23.91 103.81 24.4 104.21 24.76C104.61 25.12 105.13 25.3 105.77 25.3ZM121.431 28.42C120.551 28.42 119.771 28.25 119.091 27.91C118.411 27.55 117.881 27.04 117.501 26.38C117.121 25.72 116.931 24.9 116.931 23.92C116.931 23.06 117.091 22.34 117.411 21.76C117.751 21.18 118.241 20.71 118.881 20.35C119.521 19.99 120.311 19.69 121.251 19.45C122.191 19.21 123.261 19 124.461 18.82C125.101 18.72 125.621 18.63 126.021 18.55C126.441 18.45 126.751 18.3 126.951 18.1C127.151 17.88 127.251 17.57 127.251 17.17C127.251 16.61 127.051 16.13 126.651 15.73C126.251 15.33 125.621 15.13 124.761 15.13C124.181 15.13 123.641 15.23 123.141 15.43C122.661 15.63 122.241 15.93 121.881 16.33C121.541 16.73 121.291 17.24 121.131 17.86L117.321 16.69C117.561 15.87 117.901 15.16 118.341 14.56C118.801 13.96 119.351 13.46 119.991 13.06C120.631 12.64 121.361 12.33 122.181 12.13C123.001 11.93 123.891 11.83 124.851 11.83C126.391 11.83 127.641 12.08 128.601 12.58C129.581 13.06 130.311 13.82 130.791 14.86C131.271 15.88 131.511 17.2 131.511 18.82V21.52C131.511 22.22 131.521 22.93 131.541 23.65C131.581 24.37 131.621 25.1 131.661 25.84C131.721 26.56 131.781 27.28 131.841 28H128.031C127.951 27.5 127.871 26.93 127.791 26.29C127.731 25.63 127.681 24.97 127.641 24.31H127.101C126.821 25.07 126.421 25.76 125.901 26.38C125.381 27 124.741 27.5 123.981 27.88C123.241 28.24 122.391 28.42 121.431 28.42ZM123.261 25.3C123.641 25.3 124.021 25.23 124.401 25.09C124.801 24.95 125.181 24.76 125.541 24.52C125.921 24.26 126.261 23.94 126.561 23.56C126.881 23.18 127.141 22.75 127.341 22.27L127.281 19.75L127.971 19.9C127.611 20.16 127.191 20.37 126.711 20.53C126.231 20.67 125.731 20.78 125.211 20.86C124.711 20.94 124.211 21.03 123.711 21.13C123.211 21.23 122.761 21.36 122.361 21.52C121.981 21.68 121.671 21.9 121.431 22.18C121.211 22.44 121.101 22.81 121.101 23.29C121.101 23.91 121.301 24.4 121.701 24.76C122.101 25.12 122.621 25.3 123.261 25.3Z" fill="black"/>
<path d="M5.552 52.708C5.01867 52.708 4.56 52.6013 4.176 52.388C3.80267 52.1747 3.49867 51.8867 3.264 51.524C3.04 51.1507 2.86933 50.7293 2.752 50.26H2.496L2.576 52.5H1.264V48.42V41.3H2.736V43.892C2.736 44.1693 2.72 44.4627 2.688 44.772C2.66667 45.0707 2.62933 45.38 2.576 45.7C2.53333 46.02 2.48533 46.3293 2.432 46.628H2.72C2.83733 46.18 3.008 45.7587 3.232 45.364C3.456 44.9693 3.75467 44.6493 4.128 44.404C4.512 44.1587 4.98667 44.036 5.552 44.036C6.256 44.036 6.85333 44.2227 7.344 44.596C7.84533 44.9587 8.22933 45.4653 8.496 46.116C8.76267 46.7667 8.896 47.524 8.896 48.388C8.896 49.22 8.76267 49.9613 8.496 50.612C8.24 51.2627 7.86133 51.7747 7.36 52.148C6.86933 52.5213 6.26667 52.708 5.552 52.708ZM5.2 51.428C5.65867 51.428 6.048 51.3053 6.368 51.06C6.688 50.8147 6.93333 50.4627 7.104 50.004C7.28533 49.5453 7.376 49.012 7.376 48.404C7.376 47.8067 7.29067 47.2787 7.12 46.82C6.94933 46.3507 6.704 45.9827 6.384 45.716C6.064 45.4387 5.66933 45.3 5.2 45.3C4.85867 45.3 4.55467 45.3693 4.288 45.508C4.02133 45.636 3.78667 45.812 3.584 46.036C3.392 46.26 3.232 46.5053 3.104 46.772C2.976 47.0387 2.88 47.3053 2.816 47.572C2.752 47.8387 2.72 48.084 2.72 48.308V48.5C2.72 48.82 2.77333 49.1507 2.88 49.492C2.99733 49.8333 3.16267 50.1533 3.376 50.452C3.58933 50.74 3.85067 50.9747 4.16 51.156C4.46933 51.3373 4.816 51.428 5.2 51.428ZM13.865 55.284C13.4277 55.284 12.9957 55.2307 12.569 55.124C12.153 55.028 11.769 54.8787 11.417 54.676C11.065 54.4733 10.777 54.212 10.553 53.892L11.289 52.836C11.5343 53.1987 11.881 53.476 12.329 53.668C12.777 53.86 13.2677 53.956 13.801 53.956C14.3983 53.956 14.8943 53.8227 15.289 53.556C15.6943 53.3 15.9983 52.9 16.201 52.356C16.4037 51.8013 16.5103 51.1133 16.521 50.292L16.697 48.628H16.393C16.2757 49.4067 16.089 50.0307 15.833 50.5C15.5877 50.9587 15.2783 51.2893 14.905 51.492C14.5423 51.6947 14.121 51.796 13.641 51.796C13.0437 51.796 12.537 51.6467 12.121 51.348C11.7157 51.0387 11.4063 50.5907 11.193 50.004C10.9797 49.4067 10.873 48.6813 10.873 47.828V44.228H12.329V47.508C12.329 48.5427 12.473 49.3053 12.761 49.796C13.0597 50.276 13.5023 50.516 14.089 50.516C14.409 50.516 14.697 50.436 14.953 50.276C15.209 50.116 15.4277 49.8813 15.609 49.572C15.801 49.2627 15.9503 48.8733 16.057 48.404C16.1743 47.924 16.249 47.3693 16.281 46.74V44.228H17.737V50.372C17.737 51.0227 17.689 51.6093 17.593 52.132C17.497 52.6547 17.3423 53.108 17.129 53.492C16.9263 53.8867 16.6703 54.2173 16.361 54.484C16.0517 54.7507 15.689 54.948 15.273 55.076C14.857 55.2147 14.3877 55.284 13.865 55.284Z" fill="#5A5A5A"/>
<path d="M39.6414 40.9466C41.0073 40.9466 42.1147 39.8393 42.1147 38.4733C42.1147 37.1073 41.0073 36 39.6414 36C38.2754 36 37.168 37.1073 37.168 38.4733C37.168 39.8393 38.2754 40.9466 39.6414 40.9466Z" fill="#FF1616"/>
<path d="M31.4214 45.7997C32.7586 45.7997 33.8427 44.7157 33.8427 43.3784C33.8427 42.0411 32.7586 40.957 31.4214 40.957C30.0841 40.957 29 42.0411 29 43.3784C29 44.7157 30.0841 45.7997 31.4214 45.7997Z" fill="#FF1616"/>
<path d="M31.4214 53.9679C32.7586 53.9679 33.8427 52.8839 33.8427 51.5466C33.8427 50.2093 32.7586 49.1252 31.4214 49.1252C30.0841 49.1252 29 50.2093 29 51.5466C29 52.8839 30.0841 53.9679 31.4214 53.9679Z" fill="#FF1616"/>
<path d="M39.6417 57.9999C40.979 57.9999 42.0631 56.9158 42.0631 55.5786C42.0631 54.2413 40.979 53.1572 39.6417 53.1572C38.3044 53.1572 37.2203 54.2413 37.2203 55.5786C37.2203 56.9158 38.3044 57.9999 39.6417 57.9999Z" fill="#FF1616"/>
<path d="M47.1134 53.9679C48.4507 53.9679 49.5347 52.8839 49.5347 51.5466C49.5347 50.2093 48.4507 49.1252 47.1134 49.1252C45.7761 49.1252 44.692 50.2093 44.692 51.5466C44.692 52.8839 45.7761 53.9679 47.1134 53.9679Z" fill="#FF1616"/>
<path d="M47.1134 45.7997C48.4507 45.7997 49.5347 44.7157 49.5347 43.3784C49.5347 42.0411 48.4507 40.957 47.1134 40.957C45.7761 40.957 44.692 42.0411 44.692 43.3784C44.692 44.7157 45.7761 45.7997 47.1134 45.7997Z" fill="#FF1616"/>
<path d="M37.9166 46.0596C38.657 46.0596 39.2572 45.4594 39.2572 44.719C39.2572 43.9786 38.657 43.3784 37.9166 43.3784C37.1762 43.3784 36.576 43.9786 36.576 44.719C36.576 45.4594 37.1762 46.0596 37.9166 46.0596Z" fill="#38B6FF"/>
<path d="M36.5759 48.7407C37.3163 48.7407 37.9165 48.1405 37.9165 47.4001C37.9165 46.6598 37.3163 46.0596 36.5759 46.0596C35.8356 46.0596 35.2354 46.6598 35.2354 47.4001C35.2354 48.1405 35.8356 48.7407 36.5759 48.7407Z" fill="#38B6FF"/>
<path d="M37.9166 51.3594C38.657 51.3594 39.2572 50.7592 39.2572 50.0188C39.2572 49.2784 38.657 48.6782 37.9166 48.6782C37.1762 48.6782 36.576 49.2784 36.576 50.0188C36.576 50.7592 37.1762 51.3594 37.9166 51.3594Z" fill="#38B6FF"/>
<path d="M41.346 51.3594C42.0863 51.3594 42.6865 50.7592 42.6865 50.0188C42.6865 49.2784 42.0863 48.6782 41.346 48.6782C40.6056 48.6782 40.0054 49.2784 40.0054 50.0188C40.0054 50.7592 40.6056 51.3594 41.346 51.3594Z" fill="#38B6FF"/>
<path d="M42.6864 48.7407C43.4268 48.7407 44.027 48.1405 44.027 47.4001C44.027 46.6598 43.4268 46.0596 42.6864 46.0596C41.946 46.0596 41.3458 46.6598 41.3458 47.4001C41.3458 48.1405 41.946 48.7407 42.6864 48.7407Z" fill="#38B6FF"/>
<path d="M41.346 46.0596C42.0863 46.0596 42.6865 45.4594 42.6865 44.719C42.6865 43.9786 42.0863 43.3784 41.346 43.3784C40.6056 43.3784 40.0054 43.9786 40.0054 44.719C40.0054 45.4594 40.6056 46.0596 41.346 46.0596Z" fill="#38B6FF"/>
<path d="M58.9107 52.5V41.94H62.7827C63.3694 41.94 63.9027 41.9933 64.3827 42.1C64.8734 42.2067 65.2894 42.372 65.6307 42.596C65.9721 42.8093 66.2334 43.092 66.4147 43.444C66.6067 43.796 66.7027 44.2173 66.7027 44.708C66.7027 45.1133 66.6227 45.4707 66.4627 45.78C66.3027 46.0893 66.0467 46.34 65.6947 46.532C65.3534 46.724 64.9001 46.8733 64.3347 46.98V47.156C65.3161 47.2413 66.0254 47.508 66.4627 47.956C66.9107 48.404 67.1347 48.9907 67.1347 49.716C67.1347 50.3133 66.9907 50.82 66.7027 51.236C66.4254 51.6413 65.9934 51.956 65.4067 52.18C64.8307 52.3933 64.0841 52.5 63.1667 52.5H58.9107ZM60.3187 51.252H63.3107C64.1107 51.252 64.7027 51.1187 65.0867 50.852C65.4814 50.5747 65.6787 50.1533 65.6787 49.588C65.6787 48.9373 65.4067 48.452 64.8627 48.132C64.3294 47.8013 63.5187 47.636 62.4307 47.636H60.3187V51.252ZM60.3187 46.548H62.1427C63.1881 46.548 63.9667 46.4093 64.4787 46.132C64.9907 45.844 65.2467 45.4173 65.2467 44.852C65.2467 44.2867 65.0227 43.8653 64.5747 43.588C64.1374 43.3107 63.4707 43.172 62.5747 43.172H60.3187V46.548ZM69.3304 52.5V44.228H70.7864V52.5H69.3304ZM70.0664 42.788C69.725 42.788 69.469 42.7187 69.2984 42.58C69.1277 42.4413 69.0424 42.2333 69.0424 41.956C69.0424 41.6787 69.1277 41.4707 69.2984 41.332C69.469 41.1933 69.7197 41.124 70.0504 41.124C70.3917 41.124 70.6477 41.1933 70.8184 41.332C70.989 41.4707 71.0744 41.6787 71.0744 41.956C71.0744 42.2227 70.989 42.4307 70.8184 42.58C70.6477 42.7187 70.397 42.788 70.0664 42.788ZM76.4024 55.3C75.5277 55.3 74.8077 55.2307 74.2424 55.092C73.6877 54.964 73.277 54.7613 73.0104 54.484C72.7437 54.2173 72.6104 53.8813 72.6104 53.476C72.6104 52.9853 72.8024 52.58 73.1864 52.26C73.5704 51.94 74.1517 51.7267 74.9304 51.62V51.332C74.365 51.332 73.9384 51.2627 73.6504 51.124C73.3624 50.9853 73.2184 50.7773 73.2184 50.5C73.2184 50.212 73.3624 49.972 73.6504 49.78C73.9384 49.5773 74.4077 49.3907 75.0584 49.22V48.916C74.4077 48.9053 73.9117 48.7133 73.5704 48.34C73.229 47.956 73.0584 47.46 73.0584 46.852C73.0584 46.308 73.2024 45.8387 73.4904 45.444C73.789 45.0387 74.2157 44.7293 74.7704 44.516C75.3357 44.292 76.0077 44.18 76.7864 44.18H80.6904V45.412L78.1304 45.012V45.316C78.749 45.444 79.2237 45.6627 79.5544 45.972C79.885 46.2707 80.0504 46.676 80.0504 47.188C80.0504 47.6467 79.917 48.0467 79.6504 48.388C79.3837 48.7293 78.989 48.996 78.4664 49.188C77.9544 49.3693 77.3197 49.46 76.5624 49.46C76.413 49.46 76.253 49.4547 76.0824 49.444C75.9224 49.4227 75.709 49.3907 75.4424 49.348C75.1544 49.5293 74.9197 49.6947 74.7384 49.844C74.5677 49.9933 74.4824 50.1267 74.4824 50.244C74.4824 50.3613 74.5624 50.4573 74.7224 50.532C74.893 50.596 75.0957 50.6387 75.3304 50.66C75.565 50.6813 75.7837 50.692 75.9864 50.692H77.8584C78.0717 50.692 78.3384 50.7133 78.6584 50.756C78.989 50.7987 79.3144 50.8893 79.6344 51.028C79.965 51.1667 80.2424 51.38 80.4664 51.668C80.6904 51.956 80.8024 52.356 80.8024 52.868C80.8024 53.444 80.6317 53.9133 80.2904 54.276C79.949 54.6387 79.453 54.9 78.8024 55.06C78.1517 55.22 77.3517 55.3 76.4024 55.3ZM76.4344 54.1C77.149 54.1 77.725 54.052 78.1624 53.956C78.6104 53.8707 78.9357 53.732 79.1384 53.54C79.3517 53.348 79.4584 53.1027 79.4584 52.804C79.4584 52.5267 79.3837 52.3133 79.2344 52.164C79.0957 52.004 78.9197 51.892 78.7064 51.828C78.493 51.764 78.2797 51.7267 78.0664 51.716C77.853 51.6947 77.6717 51.684 77.5224 51.684H75.6504C75.0317 51.8227 74.605 52.0147 74.3704 52.26C74.1357 52.5053 74.0184 52.7667 74.0184 53.044C74.0184 53.3427 74.125 53.5667 74.3384 53.716C74.5517 53.8653 74.8397 53.9667 75.2024 54.02C75.5757 54.0733 75.9864 54.1 76.4344 54.1ZM76.6264 48.516C77.2984 48.516 77.805 48.3773 78.1464 48.1C78.4877 47.8227 78.6584 47.4493 78.6584 46.98C78.6584 46.4787 78.4824 46.068 78.1304 45.748C77.789 45.4173 77.2717 45.252 76.5784 45.252C75.9064 45.252 75.389 45.4067 75.0264 45.716C74.6744 46.0253 74.4984 46.4253 74.4984 46.916C74.4984 47.236 74.5784 47.5187 74.7384 47.764C74.909 47.9987 75.149 48.1853 75.4584 48.324C75.7784 48.452 76.1677 48.516 76.6264 48.516ZM87.5697 52.5V51.236H90.6897C91.4151 51.236 92.0124 51.0707 92.4817 50.74C92.9511 50.3987 93.2977 49.9293 93.5217 49.332C93.7564 48.7347 93.8737 48.0413 93.8737 47.252C93.8737 46.5587 93.7991 45.956 93.6497 45.444C93.5111 44.932 93.2924 44.516 92.9937 44.196C92.6951 43.8653 92.3164 43.62 91.8577 43.46C91.4097 43.2893 90.8764 43.204 90.2577 43.204H87.5697V41.94H90.2257C91.4204 41.94 92.3964 42.148 93.1537 42.564C93.9111 42.98 94.4711 43.5773 94.8337 44.356C95.1964 45.1347 95.3777 46.0627 95.3777 47.14C95.3777 47.8547 95.2977 48.5 95.1377 49.076C94.9884 49.652 94.7697 50.1533 94.4817 50.58C94.2044 51.0067 93.8737 51.364 93.4897 51.652C93.1057 51.9293 92.6791 52.1427 92.2097 52.292C91.7404 52.4307 91.2497 52.5 90.7377 52.5H87.5697ZM86.7857 52.5V41.94H88.2577V52.5H86.7857ZM97.6425 52.5V48.02V44.228H98.9545L98.8265 47.108H99.0985C99.1945 46.4787 99.3438 45.9347 99.5465 45.476C99.7491 45.0173 100.016 44.66 100.346 44.404C100.688 44.148 101.109 44.02 101.61 44.02C101.717 44.02 101.84 44.0307 101.978 44.052C102.117 44.0627 102.277 44.1 102.458 44.164L102.378 45.684C102.218 45.62 102.058 45.5773 101.898 45.556C101.738 45.524 101.584 45.508 101.434 45.508C101.018 45.508 100.656 45.6413 100.346 45.908C100.048 46.1747 99.7971 46.5373 99.5945 46.996C99.3918 47.444 99.2265 47.9507 99.0985 48.516V52.5H97.6425ZM107.46 52.708C106.671 52.708 105.972 52.5373 105.364 52.196C104.767 51.844 104.297 51.3427 103.956 50.692C103.625 50.0413 103.46 49.252 103.46 48.324C103.46 47.364 103.636 46.5693 103.988 45.94C104.351 45.3 104.831 44.82 105.428 44.5C106.025 44.18 106.692 44.02 107.428 44.02C108.196 44.02 108.879 44.1907 109.476 44.532C110.084 44.8627 110.564 45.3533 110.916 46.004C111.268 46.644 111.444 47.4387 111.444 48.388C111.444 49.3373 111.268 50.132 110.916 50.772C110.575 51.412 110.1 51.8973 109.492 52.228C108.895 52.548 108.217 52.708 107.46 52.708ZM107.524 51.508C108.036 51.508 108.473 51.3853 108.836 51.14C109.209 50.884 109.492 50.5267 109.684 50.068C109.887 49.6093 109.988 49.0653 109.988 48.436C109.988 47.7853 109.881 47.2253 109.668 46.756C109.465 46.276 109.172 45.908 108.788 45.652C108.404 45.3853 107.94 45.252 107.396 45.252C106.905 45.252 106.473 45.3693 106.1 45.604C105.727 45.8387 105.439 46.1853 105.236 46.644C105.033 47.092 104.932 47.6413 104.932 48.292C104.932 49.2947 105.161 50.084 105.62 50.66C106.089 51.2253 106.724 51.508 107.524 51.508ZM113.517 55.092V48.372V44.228H114.829L114.749 46.356H114.989C115.117 45.8867 115.293 45.4813 115.517 45.14C115.752 44.788 116.051 44.516 116.413 44.324C116.776 44.1213 117.213 44.02 117.725 44.02C118.483 44.02 119.112 44.212 119.613 44.596C120.125 44.9693 120.509 45.4867 120.765 46.148C121.021 46.7987 121.149 47.54 121.149 48.372C121.149 49.204 121.021 49.9453 120.765 50.596C120.509 51.2467 120.131 51.764 119.629 52.148C119.139 52.5213 118.536 52.708 117.821 52.708C117.245 52.708 116.765 52.5907 116.381 52.356C116.008 52.1107 115.709 51.7907 115.485 51.396C115.261 51.0013 115.085 50.5907 114.957 50.164H114.685C114.749 50.452 114.803 50.7507 114.845 51.06C114.888 51.3693 114.92 51.6787 114.941 51.988C114.973 52.2867 114.989 52.5747 114.989 52.852V55.092H113.517ZM117.453 51.444C117.923 51.444 118.317 51.3107 118.637 51.044C118.957 50.7667 119.203 50.3933 119.373 49.924C119.544 49.4547 119.629 48.9267 119.629 48.34C119.629 47.7107 119.539 47.172 119.357 46.724C119.187 46.276 118.941 45.9293 118.621 45.684C118.301 45.428 117.912 45.3 117.453 45.3C117.059 45.3 116.707 45.3907 116.397 45.572C116.099 45.7427 115.843 45.9773 115.629 46.276C115.416 46.564 115.251 46.884 115.133 47.236C115.027 47.5773 114.973 47.9187 114.973 48.26V48.452C114.973 48.6653 115.005 48.9053 115.069 49.172C115.133 49.428 115.229 49.6893 115.357 49.956C115.485 50.2227 115.645 50.468 115.837 50.692C116.04 50.916 116.275 51.0973 116.541 51.236C116.808 51.3747 117.112 51.444 117.453 51.444ZM126.371 52.708C125.795 52.708 125.283 52.644 124.835 52.516C124.387 52.3987 124.013 52.228 123.715 52.004C123.416 51.7693 123.187 51.492 123.027 51.172C122.867 50.852 122.781 50.5 122.771 50.116L124.003 49.796C123.981 50.148 124.067 50.4573 124.259 50.724C124.461 50.98 124.744 51.1773 125.107 51.316C125.48 51.4547 125.928 51.524 126.451 51.524C127.08 51.524 127.565 51.4173 127.907 51.204C128.259 50.9907 128.435 50.6973 128.435 50.324C128.435 50.0253 128.339 49.796 128.147 49.636C127.955 49.4653 127.688 49.332 127.347 49.236C127.016 49.1293 126.621 49.0333 126.163 48.948C125.779 48.8627 125.395 48.7667 125.011 48.66C124.627 48.5533 124.275 48.4147 123.955 48.244C123.645 48.0627 123.395 47.828 123.203 47.54C123.011 47.252 122.915 46.8947 122.915 46.468C122.915 45.9667 123.048 45.5347 123.315 45.172C123.581 44.8093 123.96 44.5267 124.451 44.324C124.941 44.1213 125.528 44.02 126.211 44.02C126.893 44.02 127.475 44.1267 127.955 44.34C128.435 44.5427 128.813 44.8307 129.091 45.204C129.368 45.5773 129.523 46.0147 129.555 46.516L128.291 46.836C128.28 46.484 128.184 46.1853 128.003 45.94C127.832 45.6947 127.587 45.5133 127.267 45.396C126.947 45.268 126.573 45.204 126.147 45.204C125.581 45.204 125.133 45.3107 124.803 45.524C124.472 45.7373 124.307 46.0307 124.307 46.404C124.307 46.6813 124.403 46.9053 124.595 47.076C124.797 47.2467 125.069 47.38 125.411 47.476C125.752 47.572 126.131 47.668 126.547 47.764C126.973 47.8493 127.379 47.9453 127.763 48.052C128.157 48.1587 128.509 48.2973 128.819 48.468C129.128 48.6387 129.373 48.868 129.555 49.156C129.736 49.4333 129.827 49.7907 129.827 50.228C129.827 50.772 129.683 51.2307 129.395 51.604C129.107 51.9667 128.701 52.244 128.179 52.436C127.667 52.6173 127.064 52.708 126.371 52.708ZM135.942 52.5V41.94H138.214L141.718 50.964H141.798L145.286 41.94H147.478V52.5H146.086L146.182 43.428H146.054L142.422 52.5H140.982L137.382 43.412H137.254L137.35 52.5H135.942ZM154.319 52.708C153.455 52.708 152.682 52.5107 151.999 52.116C151.327 51.7107 150.799 51.108 150.415 50.308C150.031 49.508 149.839 48.4947 149.839 47.268C149.839 46.404 149.946 45.636 150.159 44.964C150.373 44.2813 150.682 43.7 151.087 43.22C151.503 42.74 152.01 42.372 152.607 42.116C153.205 41.86 153.898 41.732 154.687 41.732C155.274 41.732 155.802 41.8067 156.271 41.956C156.751 42.1053 157.167 42.3187 157.519 42.596C157.871 42.8733 158.154 43.2147 158.367 43.62C158.591 44.0253 158.73 44.484 158.783 44.996L157.375 45.396C157.333 44.82 157.178 44.3613 156.911 44.02C156.645 43.668 156.314 43.412 155.919 43.252C155.525 43.092 155.103 43.012 154.655 43.012C154.005 43.012 153.434 43.156 152.943 43.444C152.453 43.732 152.069 44.1907 151.791 44.82C151.514 45.4387 151.375 46.244 151.375 47.236C151.375 48.0147 151.461 48.6707 151.631 49.204C151.802 49.7373 152.031 50.1693 152.319 50.5C152.607 50.82 152.943 51.0547 153.327 51.204C153.722 51.3427 154.138 51.412 154.575 51.412C155.141 51.412 155.626 51.3053 156.031 51.092C156.437 50.8787 156.762 50.5587 157.007 50.132C157.263 49.6947 157.423 49.1453 157.487 48.484H155.071V47.316H158.943V48.9V52.5H157.743L158.047 49.62H157.807C157.669 50.3133 157.45 50.8893 157.151 51.348C156.863 51.796 156.485 52.1373 156.015 52.372C155.557 52.596 154.991 52.708 154.319 52.708Z" fill="black"/>
</svg>
