<svg width="161" height="58" viewBox="0 0 161 58" fill="none" xmlns="http://www.w3.org/2000/svg">
<path d="M0.54 28L7.32 8.2H13.62L20.4 28H15.72L10.71 11.62H10.26L5.22 28H0.54ZM4.35 24.1V21.16H17.22V24.1H4.35ZM22.8687 28V20.38V12.25H26.4387L26.4687 17.62H27.0387C27.1987 16.28 27.4687 15.19 27.8487 14.35C28.2487 13.51 28.7987 12.89 29.4987 12.49C30.1987 12.09 31.0687 11.89 32.1087 11.89C32.2887 11.89 32.4787 11.9 32.6787 11.92C32.8987 11.92 33.1487 11.95 33.4287 12.01L33.2487 16.6C32.9487 16.46 32.6187 16.36 32.2587 16.3C31.8987 16.24 31.5787 16.21 31.2987 16.21C30.5187 16.21 29.8487 16.39 29.2887 16.75C28.7287 17.11 28.2687 17.63 27.9087 18.31C27.5687 18.97 27.3387 19.78 27.2187 20.74V28H22.8687ZM42.9579 28.42C41.3779 28.42 39.9879 28.11 38.7879 27.49C37.5879 26.85 36.6479 25.92 35.9679 24.7C35.2879 23.46 34.9479 21.92 34.9479 20.08C34.9479 18.24 35.2879 16.71 35.9679 15.49C36.6679 14.27 37.6179 13.36 38.8179 12.76C40.0379 12.14 41.4179 11.83 42.9579 11.83C44.5379 11.83 45.9279 12.14 47.1279 12.76C48.3479 13.38 49.2979 14.31 49.9779 15.55C50.6779 16.77 51.0279 18.3 51.0279 20.14C51.0279 22 50.6679 23.55 49.9479 24.79C49.2479 26.01 48.2879 26.92 47.0679 27.52C45.8679 28.12 44.4979 28.42 42.9579 28.42ZM43.1079 25.21C43.8879 25.21 44.5379 25.03 45.0579 24.67C45.5979 24.31 45.9979 23.77 46.2579 23.05C46.5379 22.31 46.6779 21.42 46.6779 20.38C46.6779 19.28 46.5279 18.35 46.2279 17.59C45.9479 16.81 45.5279 16.22 44.9679 15.82C44.4079 15.4 43.6979 15.19 42.8379 15.19C42.0979 15.19 41.4579 15.37 40.9179 15.73C40.3779 16.07 39.9679 16.61 39.6879 17.35C39.4079 18.07 39.2679 18.96 39.2679 20.02C39.2679 21.72 39.6079 23.01 40.2879 23.89C40.9679 24.77 41.9079 25.21 43.1079 25.21ZM54.0991 28V18.1V6.55H58.4491V11.47C58.4491 11.87 58.4291 12.29 58.3891 12.73C58.3691 13.17 58.3191 13.62 58.2391 14.08C58.1791 14.52 58.1091 14.97 58.0291 15.43C57.9691 15.89 57.8991 16.35 57.8191 16.81H58.4791C58.7591 15.79 59.1091 14.91 59.5291 14.17C59.9691 13.43 60.5291 12.86 61.2091 12.46C61.8891 12.04 62.7491 11.83 63.7891 11.83C65.6291 11.83 67.0091 12.48 67.9291 13.78C68.8491 15.06 69.3091 17.03 69.3091 19.69V28H64.9591V20.35C64.9591 18.67 64.7091 17.43 64.2091 16.63C63.7291 15.81 62.9991 15.4 62.0191 15.4C61.2191 15.4 60.5591 15.64 60.0391 16.12C59.5191 16.6 59.1291 17.25 58.8691 18.07C58.6091 18.87 58.4591 19.77 58.4191 20.77V28H54.0991ZM76.7149 28.42C75.8349 28.42 75.0549 28.25 74.3749 27.91C73.6949 27.55 73.1649 27.04 72.7849 26.38C72.4049 25.72 72.2149 24.9 72.2149 23.92C72.2149 23.06 72.3749 22.34 72.6949 21.76C73.0349 21.18 73.5249 20.71 74.1649 20.35C74.8049 19.99 75.5949 19.69 76.5349 19.45C77.4749 19.21 78.5449 19 79.7449 18.82C80.3849 18.72 80.9049 18.63 81.3049 18.55C81.7249 18.45 82.0349 18.3 82.2349 18.1C82.4349 17.88 82.5349 17.57 82.5349 17.17C82.5349 16.61 82.3349 16.13 81.9349 15.73C81.5349 15.33 80.9049 15.13 80.0449 15.13C79.4649 15.13 78.9249 15.23 78.4249 15.43C77.9449 15.63 77.5249 15.93 77.1649 16.33C76.8249 16.73 76.5749 17.24 76.4149 17.86L72.6049 16.69C72.8449 15.87 73.1849 15.16 73.6249 14.56C74.0849 13.96 74.6349 13.46 75.2749 13.06C75.9149 12.64 76.6449 12.33 77.4649 12.13C78.2849 11.93 79.1749 11.83 80.1349 11.83C81.6749 11.83 82.9249 12.08 83.8849 12.58C84.8649 13.06 85.5949 13.82 86.0749 14.86C86.5549 15.88 86.7949 17.2 86.7949 18.82V21.52C86.7949 22.22 86.8049 22.93 86.8249 23.65C86.8649 24.37 86.9049 25.1 86.9449 25.84C87.0049 26.56 87.0649 27.28 87.1249 28H83.3149C83.2349 27.5 83.1549 26.93 83.0749 26.29C83.0149 25.63 82.9649 24.97 82.9249 24.31H82.3849C82.1049 25.07 81.7049 25.76 81.1849 26.38C80.6649 27 80.0249 27.5 79.2649 27.88C78.5249 28.24 77.6749 28.42 76.7149 28.42ZM78.5449 25.3C78.9249 25.3 79.3049 25.23 79.6849 25.09C80.0849 24.95 80.4649 24.76 80.8249 24.52C81.2049 24.26 81.5449 23.94 81.8449 23.56C82.1649 23.18 82.4249 22.75 82.6249 22.27L82.5649 19.75L83.2549 19.9C82.8949 20.16 82.4749 20.37 81.9949 20.53C81.5149 20.67 81.0149 20.78 80.4949 20.86C79.9949 20.94 79.4949 21.03 78.9949 21.13C78.4949 21.23 78.0449 21.36 77.6449 21.52C77.2649 21.68 76.9549 21.9 76.7149 22.18C76.4949 22.44 76.3849 22.81 76.3849 23.29C76.3849 23.91 76.5849 24.4 76.9849 24.76C77.3849 25.12 77.9049 25.3 78.5449 25.3ZM94.2052 28.42C93.3252 28.42 92.5452 28.25 91.8652 27.91C91.1852 27.55 90.6552 27.04 90.2752 26.38C89.8952 25.72 89.7052 24.9 89.7052 23.92C89.7052 23.06 89.8652 22.34 90.1852 21.76C90.5252 21.18 91.0152 20.71 91.6552 20.35C92.2952 19.99 93.0852 19.69 94.0252 19.45C94.9652 19.21 96.0352 19 97.2352 18.82C97.8752 18.72 98.3952 18.63 98.7952 18.55C99.2152 18.45 99.5252 18.3 99.7252 18.1C99.9252 17.88 100.025 17.57 100.025 17.17C100.025 16.61 99.8252 16.13 99.4252 15.73C99.0252 15.33 98.3952 15.13 97.5352 15.13C96.9552 15.13 96.4152 15.23 95.9152 15.43C95.4352 15.63 95.0152 15.93 94.6552 16.33C94.3152 16.73 94.0652 17.24 93.9052 17.86L90.0952 16.69C90.3352 15.87 90.6752 15.16 91.1152 14.56C91.5752 13.96 92.1252 13.46 92.7652 13.06C93.4052 12.64 94.1352 12.33 94.9552 12.13C95.7752 11.93 96.6652 11.83 97.6252 11.83C99.1652 11.83 100.415 12.08 101.375 12.58C102.355 13.06 103.085 13.82 103.565 14.86C104.045 15.88 104.285 17.2 104.285 18.82V21.52C104.285 22.22 104.295 22.93 104.315 23.65C104.355 24.37 104.395 25.1 104.435 25.84C104.495 26.56 104.555 27.28 104.615 28H100.805C100.725 27.5 100.645 26.93 100.565 26.29C100.505 25.63 100.455 24.97 100.415 24.31H99.8752C99.5952 25.07 99.1952 25.76 98.6752 26.38C98.1552 27 97.5152 27.5 96.7552 27.88C96.0152 28.24 95.1652 28.42 94.2052 28.42ZM96.0352 25.3C96.4152 25.3 96.7952 25.23 97.1752 25.09C97.5752 24.95 97.9552 24.76 98.3152 24.52C98.6952 24.26 99.0352 23.94 99.3352 23.56C99.6552 23.18 99.9152 22.75 100.115 22.27L100.055 19.75L100.745 19.9C100.385 20.16 99.9652 20.37 99.4852 20.53C99.0052 20.67 98.5052 20.78 97.9852 20.86C97.4852 20.94 96.9852 21.03 96.4852 21.13C95.9852 21.23 95.5352 21.36 95.1352 21.52C94.7552 21.68 94.4452 21.9 94.2052 22.18C93.9852 22.44 93.8752 22.81 93.8752 23.29C93.8752 23.91 94.0752 24.4 94.4752 24.76C94.8752 25.12 95.3952 25.3 96.0352 25.3Z" fill="black"/>
<path d="M5.552 52.708C5.01867 52.708 4.56 52.6013 4.176 52.388C3.80267 52.1747 3.49867 51.8867 3.264 51.524C3.04 51.1507 2.86933 50.7293 2.752 50.26H2.496L2.576 52.5H1.264V48.42V41.3H2.736V43.892C2.736 44.1693 2.72 44.4627 2.688 44.772C2.66667 45.0707 2.62933 45.38 2.576 45.7C2.53333 46.02 2.48533 46.3293 2.432 46.628H2.72C2.83733 46.18 3.008 45.7587 3.232 45.364C3.456 44.9693 3.75467 44.6493 4.128 44.404C4.512 44.1587 4.98667 44.036 5.552 44.036C6.256 44.036 6.85333 44.2227 7.344 44.596C7.84533 44.9587 8.22933 45.4653 8.496 46.116C8.76267 46.7667 8.896 47.524 8.896 48.388C8.896 49.22 8.76267 49.9613 8.496 50.612C8.24 51.2627 7.86133 51.7747 7.36 52.148C6.86933 52.5213 6.26667 52.708 5.552 52.708ZM5.2 51.428C5.65867 51.428 6.048 51.3053 6.368 51.06C6.688 50.8147 6.93333 50.4627 7.104 50.004C7.28533 49.5453 7.376 49.012 7.376 48.404C7.376 47.8067 7.29067 47.2787 7.12 46.82C6.94933 46.3507 6.704 45.9827 6.384 45.716C6.064 45.4387 5.66933 45.3 5.2 45.3C4.85867 45.3 4.55467 45.3693 4.288 45.508C4.02133 45.636 3.78667 45.812 3.584 46.036C3.392 46.26 3.232 46.5053 3.104 46.772C2.976 47.0387 2.88 47.3053 2.816 47.572C2.752 47.8387 2.72 48.084 2.72 48.308V48.5C2.72 48.82 2.77333 49.1507 2.88 49.492C2.99733 49.8333 3.16267 50.1533 3.376 50.452C3.58933 50.74 3.85067 50.9747 4.16 51.156C4.46933 51.3373 4.816 51.428 5.2 51.428ZM13.865 55.284C13.4277 55.284 12.9957 55.2307 12.569 55.124C12.153 55.028 11.769 54.8787 11.417 54.676C11.065 54.4733 10.777 54.212 10.553 53.892L11.289 52.836C11.5343 53.1987 11.881 53.476 12.329 53.668C12.777 53.86 13.2677 53.956 13.801 53.956C14.3983 53.956 14.8943 53.8227 15.289 53.556C15.6943 53.3 15.9983 52.9 16.201 52.356C16.4037 51.8013 16.5103 51.1133 16.521 50.292L16.697 48.628H16.393C16.2757 49.4067 16.089 50.0307 15.833 50.5C15.5877 50.9587 15.2783 51.2893 14.905 51.492C14.5423 51.6947 14.121 51.796 13.641 51.796C13.0437 51.796 12.537 51.6467 12.121 51.348C11.7157 51.0387 11.4063 50.5907 11.193 50.004C10.9797 49.4067 10.873 48.6813 10.873 47.828V44.228H12.329V47.508C12.329 48.5427 12.473 49.3053 12.761 49.796C13.0597 50.276 13.5023 50.516 14.089 50.516C14.409 50.516 14.697 50.436 14.953 50.276C15.209 50.116 15.4277 49.8813 15.609 49.572C15.801 49.2627 15.9503 48.8733 16.057 48.404C16.1743 47.924 16.249 47.3693 16.281 46.74V44.228H17.737V50.372C17.737 51.0227 17.689 51.6093 17.593 52.132C17.497 52.6547 17.3423 53.108 17.129 53.492C16.9263 53.8867 16.6703 54.2173 16.361 54.484C16.0517 54.7507 15.689 54.948 15.273 55.076C14.857 55.2147 14.3877 55.284 13.865 55.284Z" fill="#5A5A5A"/>
<path d="M39.6413 40.9466C41.0073 40.9466 42.1146 39.8393 42.1146 38.4733C42.1146 37.1073 41.0073 36 39.6413 36C38.2753 36 37.168 37.1073 37.168 38.4733C37.168 39.8393 38.2753 40.9466 39.6413 40.9466Z" fill="#FF1616"/>
<path d="M31.4214 45.7997C32.7586 45.7997 33.8427 44.7157 33.8427 43.3784C33.8427 42.0411 32.7586 40.957 31.4214 40.957C30.0841 40.957 29 42.0411 29 43.3784C29 44.7157 30.0841 45.7997 31.4214 45.7997Z" fill="#FF1616"/>
<path d="M31.4214 53.9679C32.7586 53.9679 33.8427 52.8839 33.8427 51.5466C33.8427 50.2093 32.7586 49.1252 31.4214 49.1252C30.0841 49.1252 29 50.2093 29 51.5466C29 52.8839 30.0841 53.9679 31.4214 53.9679Z" fill="#FF1616"/>
<path d="M39.6421 57.9999C40.9793 57.9999 42.0634 56.9158 42.0634 55.5786C42.0634 54.2413 40.9793 53.1572 39.6421 53.1572C38.3048 53.1572 37.2207 54.2413 37.2207 55.5786C37.2207 56.9158 38.3048 57.9999 39.6421 57.9999Z" fill="#FF1616"/>
<path d="M47.1137 53.9679C48.451 53.9679 49.5351 52.8839 49.5351 51.5466C49.5351 50.2093 48.451 49.1252 47.1137 49.1252C45.7765 49.1252 44.6924 50.2093 44.6924 51.5466C44.6924 52.8839 45.7765 53.9679 47.1137 53.9679Z" fill="#FF1616"/>
<path d="M47.1137 45.7997C48.451 45.7997 49.5351 44.7157 49.5351 43.3784C49.5351 42.0411 48.451 40.957 47.1137 40.957C45.7765 40.957 44.6924 42.0411 44.6924 43.3784C44.6924 44.7157 45.7765 45.7997 47.1137 45.7997Z" fill="#FF1616"/>
<path d="M37.9168 46.0596C38.6571 46.0596 39.2573 45.4594 39.2573 44.719C39.2573 43.9786 38.6571 43.3784 37.9168 43.3784C37.1764 43.3784 36.5762 43.9786 36.5762 44.719C36.5762 45.4594 37.1764 46.0596 37.9168 46.0596Z" fill="#38B6FF"/>
<path d="M36.5759 48.7407C37.3163 48.7407 37.9165 48.1405 37.9165 47.4001C37.9165 46.6598 37.3163 46.0596 36.5759 46.0596C35.8356 46.0596 35.2354 46.6598 35.2354 47.4001C35.2354 48.1405 35.8356 48.7407 36.5759 48.7407Z" fill="#38B6FF"/>
<path d="M37.9168 51.3594C38.6571 51.3594 39.2573 50.7592 39.2573 50.0188C39.2573 49.2784 38.6571 48.6782 37.9168 48.6782C37.1764 48.6782 36.5762 49.2784 36.5762 50.0188C36.5762 50.7592 37.1764 51.3594 37.9168 51.3594Z" fill="#38B6FF"/>
<path d="M41.3455 51.3594C42.0858 51.3594 42.686 50.7592 42.686 50.0188C42.686 49.2784 42.0858 48.6782 41.3455 48.6782C40.6051 48.6782 40.0049 49.2784 40.0049 50.0188C40.0049 50.7592 40.6051 51.3594 41.3455 51.3594Z" fill="#38B6FF"/>
<path d="M42.6863 48.7407C43.4267 48.7407 44.0269 48.1405 44.0269 47.4001C44.0269 46.6598 43.4267 46.0596 42.6863 46.0596C41.9459 46.0596 41.3457 46.6598 41.3457 47.4001C41.3457 48.1405 41.9459 48.7407 42.6863 48.7407Z" fill="#38B6FF"/>
<path d="M41.3455 46.0596C42.0858 46.0596 42.686 45.4594 42.686 44.719C42.686 43.9786 42.0858 43.3784 41.3455 43.3784C40.6051 43.3784 40.0049 43.9786 40.0049 44.719C40.0049 45.4594 40.6051 46.0596 41.3455 46.0596Z" fill="#38B6FF"/>
<path d="M58.9112 52.5V41.94H62.7832C63.3698 41.94 63.9032 41.9933 64.3832 42.1C64.8738 42.2067 65.2898 42.372 65.6312 42.596C65.9725 42.8093 66.2338 43.092 66.4152 43.444C66.6072 43.796 66.7032 44.2173 66.7032 44.708C66.7032 45.1133 66.6232 45.4707 66.4632 45.78C66.3032 46.0893 66.0472 46.34 65.6952 46.532C65.3538 46.724 64.9005 46.8733 64.3352 46.98V47.156C65.3165 47.2413 66.0258 47.508 66.4632 47.956C66.9112 48.404 67.1352 48.9907 67.1352 49.716C67.1352 50.3133 66.9912 50.82 66.7032 51.236C66.4258 51.6413 65.9938 51.956 65.4072 52.18C64.8312 52.3933 64.0845 52.5 63.1672 52.5H58.9112ZM60.3192 51.252H63.3112C64.1112 51.252 64.7032 51.1187 65.0872 50.852C65.4818 50.5747 65.6792 50.1533 65.6792 49.588C65.6792 48.9373 65.4072 48.452 64.8632 48.132C64.3298 47.8013 63.5192 47.636 62.4312 47.636H60.3192V51.252ZM60.3192 46.548H62.1432C63.1885 46.548 63.9672 46.4093 64.4792 46.132C64.9912 45.844 65.2472 45.4173 65.2472 44.852C65.2472 44.2867 65.0232 43.8653 64.5752 43.588C64.1378 43.3107 63.4712 43.172 62.5752 43.172H60.3192V46.548ZM69.3308 52.5V44.228H70.7868V52.5H69.3308ZM70.0668 42.788C69.7254 42.788 69.4694 42.7187 69.2988 42.58C69.1281 42.4413 69.0428 42.2333 69.0428 41.956C69.0428 41.6787 69.1281 41.4707 69.2988 41.332C69.4694 41.1933 69.7201 41.124 70.0508 41.124C70.3921 41.124 70.6481 41.1933 70.8188 41.332C70.9894 41.4707 71.0748 41.6787 71.0748 41.956C71.0748 42.2227 70.9894 42.4307 70.8188 42.58C70.6481 42.7187 70.3974 42.788 70.0668 42.788ZM76.4028 55.3C75.5281 55.3 74.8081 55.2307 74.2428 55.092C73.6881 54.964 73.2774 54.7613 73.0108 54.484C72.7441 54.2173 72.6108 53.8813 72.6108 53.476C72.6108 52.9853 72.8028 52.58 73.1868 52.26C73.5708 51.94 74.1521 51.7267 74.9308 51.62V51.332C74.3654 51.332 73.9388 51.2627 73.6508 51.124C73.3628 50.9853 73.2188 50.7773 73.2188 50.5C73.2188 50.212 73.3628 49.972 73.6508 49.78C73.9388 49.5773 74.4081 49.3907 75.0588 49.22V48.916C74.4081 48.9053 73.9121 48.7133 73.5708 48.34C73.2294 47.956 73.0588 47.46 73.0588 46.852C73.0588 46.308 73.2028 45.8387 73.4908 45.444C73.7894 45.0387 74.2161 44.7293 74.7708 44.516C75.3361 44.292 76.0081 44.18 76.7868 44.18H80.6908V45.412L78.1308 45.012V45.316C78.7494 45.444 79.2241 45.6627 79.5548 45.972C79.8854 46.2707 80.0508 46.676 80.0508 47.188C80.0508 47.6467 79.9174 48.0467 79.6508 48.388C79.3841 48.7293 78.9894 48.996 78.4668 49.188C77.9548 49.3693 77.3201 49.46 76.5628 49.46C76.4134 49.46 76.2534 49.4547 76.0828 49.444C75.9228 49.4227 75.7094 49.3907 75.4428 49.348C75.1548 49.5293 74.9201 49.6947 74.7388 49.844C74.5681 49.9933 74.4828 50.1267 74.4828 50.244C74.4828 50.3613 74.5628 50.4573 74.7228 50.532C74.8934 50.596 75.0961 50.6387 75.3308 50.66C75.5654 50.6813 75.7841 50.692 75.9868 50.692H77.8588C78.0721 50.692 78.3388 50.7133 78.6588 50.756C78.9894 50.7987 79.3148 50.8893 79.6348 51.028C79.9654 51.1667 80.2428 51.38 80.4668 51.668C80.6908 51.956 80.8028 52.356 80.8028 52.868C80.8028 53.444 80.6321 53.9133 80.2908 54.276C79.9494 54.6387 79.4534 54.9 78.8028 55.06C78.1521 55.22 77.3521 55.3 76.4028 55.3ZM76.4348 54.1C77.1494 54.1 77.7254 54.052 78.1628 53.956C78.6108 53.8707 78.9361 53.732 79.1388 53.54C79.3521 53.348 79.4588 53.1027 79.4588 52.804C79.4588 52.5267 79.3841 52.3133 79.2348 52.164C79.0961 52.004 78.9201 51.892 78.7068 51.828C78.4934 51.764 78.2801 51.7267 78.0668 51.716C77.8534 51.6947 77.6721 51.684 77.5228 51.684H75.6508C75.0321 51.8227 74.6054 52.0147 74.3708 52.26C74.1361 52.5053 74.0188 52.7667 74.0188 53.044C74.0188 53.3427 74.1254 53.5667 74.3388 53.716C74.5521 53.8653 74.8401 53.9667 75.2028 54.02C75.5761 54.0733 75.9868 54.1 76.4348 54.1ZM76.6268 48.516C77.2988 48.516 77.8054 48.3773 78.1468 48.1C78.4881 47.8227 78.6588 47.4493 78.6588 46.98C78.6588 46.4787 78.4828 46.068 78.1308 45.748C77.7894 45.4173 77.2721 45.252 76.5788 45.252C75.9068 45.252 75.3894 45.4067 75.0268 45.716C74.6748 46.0253 74.4988 46.4253 74.4988 46.916C74.4988 47.236 74.5788 47.5187 74.7388 47.764C74.9094 47.9987 75.1494 48.1853 75.4588 48.324C75.7788 48.452 76.1681 48.516 76.6268 48.516ZM87.5702 52.5V51.236H90.6902C91.4155 51.236 92.0128 51.0707 92.4822 50.74C92.9515 50.3987 93.2982 49.9293 93.5222 49.332C93.7568 48.7347 93.8742 48.0413 93.8742 47.252C93.8742 46.5587 93.7995 45.956 93.6502 45.444C93.5115 44.932 93.2928 44.516 92.9942 44.196C92.6955 43.8653 92.3168 43.62 91.8582 43.46C91.4102 43.2893 90.8768 43.204 90.2582 43.204H87.5702V41.94H90.2262C91.4208 41.94 92.3968 42.148 93.1542 42.564C93.9115 42.98 94.4715 43.5773 94.8342 44.356C95.1968 45.1347 95.3782 46.0627 95.3782 47.14C95.3782 47.8547 95.2982 48.5 95.1382 49.076C94.9888 49.652 94.7702 50.1533 94.4822 50.58C94.2048 51.0067 93.8742 51.364 93.4902 51.652C93.1062 51.9293 92.6795 52.1427 92.2102 52.292C91.7408 52.4307 91.2502 52.5 90.7382 52.5H87.5702ZM86.7862 52.5V41.94H88.2582V52.5H86.7862ZM97.6429 52.5V48.02V44.228H98.9549L98.8269 47.108H99.0989C99.1949 46.4787 99.3442 45.9347 99.5469 45.476C99.7496 45.0173 100.016 44.66 100.347 44.404C100.688 44.148 101.11 44.02 101.611 44.02C101.718 44.02 101.84 44.0307 101.979 44.052C102.118 44.0627 102.278 44.1 102.459 44.164L102.379 45.684C102.219 45.62 102.059 45.5773 101.899 45.556C101.739 45.524 101.584 45.508 101.435 45.508C101.019 45.508 100.656 45.6413 100.347 45.908C100.048 46.1747 99.7976 46.5373 99.5949 46.996C99.3922 47.444 99.2269 47.9507 99.0989 48.516V52.5H97.6429ZM107.461 52.708C106.671 52.708 105.973 52.5373 105.365 52.196C104.767 51.844 104.298 51.3427 103.957 50.692C103.626 50.0413 103.461 49.252 103.461 48.324C103.461 47.364 103.637 46.5693 103.989 45.94C104.351 45.3 104.831 44.82 105.429 44.5C106.026 44.18 106.693 44.02 107.429 44.02C108.197 44.02 108.879 44.1907 109.477 44.532C110.085 44.8627 110.565 45.3533 110.917 46.004C111.269 46.644 111.445 47.4387 111.445 48.388C111.445 49.3373 111.269 50.132 110.917 50.772C110.575 51.412 110.101 51.8973 109.493 52.228C108.895 52.548 108.218 52.708 107.461 52.708ZM107.525 51.508C108.037 51.508 108.474 51.3853 108.837 51.14C109.21 50.884 109.493 50.5267 109.685 50.068C109.887 49.6093 109.989 49.0653 109.989 48.436C109.989 47.7853 109.882 47.2253 109.669 46.756C109.466 46.276 109.173 45.908 108.789 45.652C108.405 45.3853 107.941 45.252 107.397 45.252C106.906 45.252 106.474 45.3693 106.101 45.604C105.727 45.8387 105.439 46.1853 105.237 46.644C105.034 47.092 104.933 47.6413 104.933 48.292C104.933 49.2947 105.162 50.084 105.621 50.66C106.09 51.2253 106.725 51.508 107.525 51.508ZM113.518 55.092V48.372V44.228H114.83L114.75 46.356H114.99C115.118 45.8867 115.294 45.4813 115.518 45.14C115.753 44.788 116.051 44.516 116.414 44.324C116.777 44.1213 117.214 44.02 117.726 44.02C118.483 44.02 119.113 44.212 119.614 44.596C120.126 44.9693 120.51 45.4867 120.766 46.148C121.022 46.7987 121.15 47.54 121.15 48.372C121.15 49.204 121.022 49.9453 120.766 50.596C120.51 51.2467 120.131 51.764 119.63 52.148C119.139 52.5213 118.537 52.708 117.822 52.708C117.246 52.708 116.766 52.5907 116.382 52.356C116.009 52.1107 115.71 51.7907 115.486 51.396C115.262 51.0013 115.086 50.5907 114.958 50.164H114.686C114.75 50.452 114.803 50.7507 114.846 51.06C114.889 51.3693 114.921 51.6787 114.942 51.988C114.974 52.2867 114.99 52.5747 114.99 52.852V55.092H113.518ZM117.454 51.444C117.923 51.444 118.318 51.3107 118.638 51.044C118.958 50.7667 119.203 50.3933 119.374 49.924C119.545 49.4547 119.63 48.9267 119.63 48.34C119.63 47.7107 119.539 47.172 119.358 46.724C119.187 46.276 118.942 45.9293 118.622 45.684C118.302 45.428 117.913 45.3 117.454 45.3C117.059 45.3 116.707 45.3907 116.398 45.572C116.099 45.7427 115.843 45.9773 115.63 46.276C115.417 46.564 115.251 46.884 115.134 47.236C115.027 47.5773 114.974 47.9187 114.974 48.26V48.452C114.974 48.6653 115.006 48.9053 115.07 49.172C115.134 49.428 115.23 49.6893 115.358 49.956C115.486 50.2227 115.646 50.468 115.838 50.692C116.041 50.916 116.275 51.0973 116.542 51.236C116.809 51.3747 117.113 51.444 117.454 51.444ZM126.371 52.708C125.795 52.708 125.283 52.644 124.835 52.516C124.387 52.3987 124.014 52.228 123.715 52.004C123.416 51.7693 123.187 51.492 123.027 51.172C122.867 50.852 122.782 50.5 122.771 50.116L124.003 49.796C123.982 50.148 124.067 50.4573 124.259 50.724C124.462 50.98 124.744 51.1773 125.107 51.316C125.48 51.4547 125.928 51.524 126.451 51.524C127.08 51.524 127.566 51.4173 127.907 51.204C128.259 50.9907 128.435 50.6973 128.435 50.324C128.435 50.0253 128.339 49.796 128.147 49.636C127.955 49.4653 127.688 49.332 127.347 49.236C127.016 49.1293 126.622 49.0333 126.163 48.948C125.779 48.8627 125.395 48.7667 125.011 48.66C124.627 48.5533 124.275 48.4147 123.955 48.244C123.646 48.0627 123.395 47.828 123.203 47.54C123.011 47.252 122.915 46.8947 122.915 46.468C122.915 45.9667 123.048 45.5347 123.315 45.172C123.582 44.8093 123.96 44.5267 124.451 44.324C124.942 44.1213 125.528 44.02 126.211 44.02C126.894 44.02 127.475 44.1267 127.955 44.34C128.435 44.5427 128.814 44.8307 129.091 45.204C129.368 45.5773 129.523 46.0147 129.555 46.516L128.291 46.836C128.28 46.484 128.184 46.1853 128.003 45.94C127.832 45.6947 127.587 45.5133 127.267 45.396C126.947 45.268 126.574 45.204 126.147 45.204C125.582 45.204 125.134 45.3107 124.803 45.524C124.472 45.7373 124.307 46.0307 124.307 46.404C124.307 46.6813 124.403 46.9053 124.595 47.076C124.798 47.2467 125.07 47.38 125.411 47.476C125.752 47.572 126.131 47.668 126.547 47.764C126.974 47.8493 127.379 47.9453 127.763 48.052C128.158 48.1587 128.51 48.2973 128.819 48.468C129.128 48.6387 129.374 48.868 129.555 49.156C129.736 49.4333 129.827 49.7907 129.827 50.228C129.827 50.772 129.683 51.2307 129.395 51.604C129.107 51.9667 128.702 52.244 128.179 52.436C127.667 52.6173 127.064 52.708 126.371 52.708ZM135.942 52.5V41.94H138.214L141.718 50.964H141.798L145.286 41.94H147.478V52.5H146.086L146.182 43.428H146.054L142.422 52.5H140.982L137.382 43.412H137.254L137.35 52.5H135.942ZM154.32 52.708C153.456 52.708 152.682 52.5107 152 52.116C151.328 51.7107 150.8 51.108 150.416 50.308C150.032 49.508 149.84 48.4947 149.84 47.268C149.84 46.404 149.946 45.636 150.16 44.964C150.373 44.2813 150.682 43.7 151.088 43.22C151.504 42.74 152.01 42.372 152.608 42.116C153.205 41.86 153.898 41.732 154.688 41.732C155.274 41.732 155.802 41.8067 156.272 41.956C156.752 42.1053 157.168 42.3187 157.52 42.596C157.872 42.8733 158.154 43.2147 158.368 43.62C158.592 44.0253 158.73 44.484 158.784 44.996L157.376 45.396C157.333 44.82 157.178 44.3613 156.912 44.02C156.645 43.668 156.314 43.412 155.92 43.252C155.525 43.092 155.104 43.012 154.656 43.012C154.005 43.012 153.434 43.156 152.944 43.444C152.453 43.732 152.069 44.1907 151.792 44.82C151.514 45.4387 151.376 46.244 151.376 47.236C151.376 48.0147 151.461 48.6707 151.632 49.204C151.802 49.7373 152.032 50.1693 152.32 50.5C152.608 50.82 152.944 51.0547 153.328 51.204C153.722 51.3427 154.138 51.412 154.576 51.412C155.141 51.412 155.626 51.3053 156.032 51.092C156.437 50.8787 156.762 50.5587 157.008 50.132C157.264 49.6947 157.424 49.1453 157.488 48.484H155.072V47.316H158.944V48.9V52.5H157.744L158.048 49.62H157.808C157.669 50.3133 157.45 50.8893 157.152 51.348C156.864 51.796 156.485 52.1373 156.016 52.372C155.557 52.596 154.992 52.708 154.32 52.708Z" fill="black"/>
</svg>
