<svg width="133" height="51" viewBox="0 0 133 51" fill="none" xmlns="http://www.w3.org/2000/svg">
<rect width="133" height="50.0782" rx="10" fill="white"/>
<path fill-rule="evenodd" clip-rule="evenodd" d="M17.6959 43.2103C17.5069 41.9501 17.0028 41.6666 15.9947 41.194C16.7508 40.7529 17.2234 40.0913 17.2234 39.1776C17.2234 37.3818 15.7426 36.6572 14.1359 36.6572H9.63062V46.2348H14.1043C15.9947 46.2348 18.011 45.3842 17.6959 43.2103ZM11.6469 38.4845H13.9783C15.4276 38.4845 15.4906 40.5324 14.0728 40.5324H11.6469V38.4845ZM14.2619 44.4075H11.6469V42.2337H14.2619C16.1837 42.2337 16.0577 44.4075 14.2619 44.4075Z" fill="#055B76"/>
<path fill-rule="evenodd" clip-rule="evenodd" d="M17.0974 19.6446L19.2082 16.7461L19.7753 17.1557C19.5233 17.6913 19.5548 18.1638 20.0273 18.5104L23.9655 21.3774C25.7928 22.7006 25.8873 25.0005 24.6586 26.7018L22.6738 29.4427L22.1067 29.0331C22.4217 28.5291 22.3587 28.0565 21.6971 27.5524L17.7905 24.7484C16.3727 23.7088 16.0577 21.1253 17.0974 19.6446Z" fill="#055B76"/>
<path fill-rule="evenodd" clip-rule="evenodd" d="M26.612 43.2103C26.4229 41.9501 25.9188 41.6666 24.9107 41.194C25.6668 40.7529 26.1394 40.0913 26.1394 39.1776C26.1394 37.3818 24.6586 36.6572 23.0519 36.6572H18.5466V46.2348H23.0204C24.9107 46.2348 26.927 45.3842 26.612 43.2103ZM20.5945 38.4845H22.9258C24.3751 38.4845 24.4381 40.5324 23.0204 40.5324H20.5945V38.4845ZM23.2094 44.4075H20.5945V42.2337H23.2094C25.0997 42.2337 25.0052 44.4075 23.2094 44.4075Z" fill="#055B76"/>
<path fill-rule="evenodd" clip-rule="evenodd" d="M19.3026 8.46009L22.5792 3.92334L23.0833 4.2699C22.4217 5.21505 22.7997 6.22322 23.6189 6.79031L29.3843 10.9805C31.9992 12.8708 32.0937 16.3679 30.424 18.6993L26.7064 23.9292L26.2338 23.5826C27.0214 22.5429 26.8954 20.4951 25.7927 19.676L20.4053 15.7063C18.326 14.2256 17.7589 10.5709 19.3026 8.46009Z" fill="#055B76"/>
<path fill-rule="evenodd" clip-rule="evenodd" d="M18.2945 32.3725H13.9468L14.5139 30.4507H30.739L31.3061 32.3725H26.9584L26.1708 35.0189H19.0821L18.2945 32.3725Z" fill="#055B76"/>
<path fill-rule="evenodd" clip-rule="evenodd" d="M35.5277 43.2101C35.3387 41.9499 34.8346 41.6663 33.8264 41.2252C34.5826 40.7842 35.0551 40.1225 35.0551 39.2089C35.0551 37.4131 33.5744 36.6885 31.9676 36.6885H27.4939V46.2661H31.9676C33.8579 46.2346 35.8743 45.3839 35.5277 43.2101ZM29.5417 38.4843H31.8731C33.3224 38.4843 33.3854 40.5321 31.9676 40.5321H29.5417V38.4843ZM32.1252 44.4073H29.5102V42.2334H32.1252C34.047 42.2334 33.9209 44.4073 32.1252 44.4073Z" fill="#055B76"/>
<path fill-rule="evenodd" clip-rule="evenodd" d="M39.403 44.0925C39.7496 43.998 40.0016 43.809 40.0016 43.4309C40.0016 43.2734 39.9386 43.1159 39.8126 42.9898C39.6236 42.8323 39.403 42.7378 39.151 42.7378H38.1113V45.0062H38.4579V44.1555H39.025L39.6866 45.0062H40.0962L39.403 44.0925ZM38.4579 43.8405V43.0528H39.1195C39.4345 43.0528 39.6236 43.2104 39.6236 43.4309C39.6236 43.6829 39.403 43.8405 39.088 43.8405H38.4579Z" fill="#055B76"/>
<path fill-rule="evenodd" clip-rule="evenodd" d="M38.9934 41.7295C37.7963 41.7295 36.7881 42.7377 36.7881 43.9349V43.9664C36.7881 45.1636 37.7963 46.1717 38.9934 46.1717C40.1906 46.1717 41.1988 45.1636 41.1988 43.9664V43.9349C41.1988 42.7062 40.1906 41.7295 38.9934 41.7295ZM40.9783 43.9349C40.9783 45.0375 40.0646 45.9512 38.9619 45.9512C37.8593 45.9512 36.9771 45.0375 36.9456 43.9664V43.9349C36.9456 42.8322 37.8593 41.9185 38.9619 41.9185C40.0961 41.9185 40.9783 42.8007 40.9783 43.9349Z" fill="#055B76"/>
<path fill-rule="evenodd" clip-rule="evenodd" d="M55.5336 17.5965L54.4309 20.6525H56.6363L55.5336 17.5965ZM55.5336 17.5965L54.4309 20.6525H56.6363L55.5336 17.5965ZM55.5336 17.5965L54.4309 20.6525H56.6363L55.5336 17.5965ZM55.5336 17.5965L54.4309 20.6525H56.6363L55.5336 17.5965ZM55.5336 17.5965L54.4309 20.6525H56.6363L55.5336 17.5965ZM77.8707 17.439H76.2955V19.3608H77.8707C78.5008 19.3608 78.9419 19.0142 78.9419 18.4156C78.9419 17.7855 78.4693 17.439 77.8707 17.439ZM77.8707 17.439H76.2955V19.3608H77.8707C78.5008 19.3608 78.9419 19.0142 78.9419 18.4156C78.9419 17.7855 78.4693 17.439 77.8707 17.439ZM55.5336 17.5965L54.4309 20.6525H56.6363L55.5336 17.5965ZM55.5336 17.5965L54.4309 20.6525H56.6363L55.5336 17.5965ZM77.8707 17.439H76.2955V19.3608H77.8707C78.5008 19.3608 78.9419 19.0142 78.9419 18.4156C78.9419 17.7855 78.4693 17.439 77.8707 17.439ZM90.7878 17.439H89.4961V21.8812H90.7878C92.1741 21.8812 92.9932 20.8731 92.9932 19.6759C93.0247 18.3841 92.2686 17.439 90.7878 17.439ZM77.8707 17.439H76.2955V19.3608H77.8707C78.5008 19.3608 78.9419 19.0142 78.9419 18.4156C78.9419 17.7855 78.4693 17.439 77.8707 17.439ZM55.5336 17.5965L54.4309 20.6525H56.6363L55.5336 17.5965ZM90.7878 17.439H89.4961V21.8812H90.7878C92.1741 21.8812 92.9932 20.8731 92.9932 19.6759C93.0247 18.3841 92.2686 17.439 90.7878 17.439ZM55.5336 17.5965L54.4309 20.6525H56.6363L55.5336 17.5965ZM77.8707 17.439H76.2955V19.3608H77.8707C78.5008 19.3608 78.9419 19.0142 78.9419 18.4156C78.9419 17.7855 78.4693 17.439 77.8707 17.439ZM90.7878 17.439H89.4961V21.8812H90.7878C92.1741 21.8812 92.9932 20.8731 92.9932 19.6759C93.0247 18.3841 92.2686 17.439 90.7878 17.439ZM77.8707 17.439H76.2955V19.3608H77.8707C78.5008 19.3608 78.9419 19.0142 78.9419 18.4156C78.9419 17.7855 78.4693 17.439 77.8707 17.439ZM55.5336 17.5965L54.4309 20.6525H56.6363L55.5336 17.5965ZM90.7878 17.439H89.4961V21.8812H90.7878C92.1741 21.8812 92.9932 20.8731 92.9932 19.6759C93.0247 18.3841 92.2686 17.439 90.7878 17.439ZM55.5336 17.5965L54.4309 20.6525H56.6363L55.5336 17.5965ZM77.8707 17.439H76.2955V19.3608H77.8707C78.5008 19.3608 78.9419 19.0142 78.9419 18.4156C78.9419 17.7855 78.4693 17.439 77.8707 17.439ZM90.7878 17.439H89.4961V21.8812H90.7878C92.1741 21.8812 92.9932 20.8731 92.9932 19.6759C93.0247 18.3841 92.2686 17.439 90.7878 17.439ZM114.102 17.439H112.81V21.8812H114.102C115.488 21.8812 116.339 20.8731 116.339 19.6759C116.339 18.3841 115.551 17.439 114.102 17.439ZM114.102 17.439H112.81V21.8812H114.102C115.488 21.8812 116.339 20.8731 116.339 19.6759C116.339 18.3841 115.551 17.439 114.102 17.439ZM77.8707 17.439H76.2955V19.3608H77.8707C78.5008 19.3608 78.9419 19.0142 78.9419 18.4156C78.9419 17.7855 78.4693 17.439 77.8707 17.439ZM55.5336 17.5965L54.4309 20.6525H56.6363L55.5336 17.5965ZM90.7878 17.439H89.4961V21.8812H90.7878C92.1741 21.8812 92.9932 20.8731 92.9932 19.6759C93.0247 18.3841 92.2686 17.439 90.7878 17.439ZM55.5336 17.5965L54.4309 20.6525H56.6363L55.5336 17.5965ZM77.8707 17.439H76.2955V19.3608H77.8707C78.5008 19.3608 78.9419 19.0142 78.9419 18.4156C78.9419 17.7855 78.4693 17.439 77.8707 17.439ZM90.7878 17.439H89.4961V21.8812H90.7878C92.1741 21.8812 92.9932 20.8731 92.9932 19.6759C93.0247 18.3841 92.2686 17.439 90.7878 17.439ZM114.102 17.439H112.81V21.8812H114.102C115.488 21.8812 116.339 20.8731 116.339 19.6759C116.339 18.3841 115.551 17.439 114.102 17.439ZM114.102 17.439H112.81V21.8812H114.102C115.488 21.8812 116.339 20.8731 116.339 19.6759C116.339 18.3841 115.551 17.439 114.102 17.439ZM77.8707 17.439H76.2955V19.3608H77.8707C78.5008 19.3608 78.9419 19.0142 78.9419 18.4156C78.9419 17.7855 78.4693 17.439 77.8707 17.439ZM55.5336 17.5965L54.4309 20.6525H56.6363L55.5336 17.5965ZM90.7878 17.439H89.4961V21.8812H90.7878C92.1741 21.8812 92.9932 20.8731 92.9932 19.6759C93.0247 18.3841 92.2686 17.439 90.7878 17.439ZM55.5336 17.5965L54.4309 20.6525H56.6363L55.5336 17.5965ZM77.8707 17.439H76.2955V19.3608H77.8707C78.5008 19.3608 78.9419 19.0142 78.9419 18.4156C78.9419 17.7855 78.4693 17.439 77.8707 17.439ZM90.7878 17.439H89.4961V21.8812H90.7878C92.1741 21.8812 92.9932 20.8731 92.9932 19.6759C93.0247 18.3841 92.2686 17.439 90.7878 17.439ZM114.102 17.439H112.81V21.8812H114.102C115.488 21.8812 116.339 20.8731 116.339 19.6759C116.339 18.3841 115.551 17.439 114.102 17.439ZM114.102 17.439H112.81V21.8812H114.102C115.488 21.8812 116.339 20.8731 116.339 19.6759C116.339 18.3841 115.551 17.439 114.102 17.439ZM77.8707 17.439H76.2955V19.3608H77.8707C78.5008 19.3608 78.9419 19.0142 78.9419 18.4156C78.9419 17.7855 78.4693 17.439 77.8707 17.439ZM55.5336 17.5965L54.4309 20.6525H56.6363L55.5336 17.5965ZM90.7878 17.439H89.4961V21.8812H90.7878C92.1741 21.8812 92.9932 20.8731 92.9932 19.6759C93.0247 18.3841 92.2686 17.439 90.7878 17.439ZM55.5336 17.5965L54.4309 20.6525H56.6363L55.5336 17.5965ZM77.8707 17.439H76.2955V19.3608H77.8707C78.5008 19.3608 78.9419 19.0142 78.9419 18.4156C78.9419 17.7855 78.4693 17.439 77.8707 17.439ZM90.7878 17.439H89.4961V21.8812H90.7878C92.1741 21.8812 92.9932 20.8731 92.9932 19.6759C93.0247 18.3841 92.2686 17.439 90.7878 17.439ZM114.102 17.439H112.81V21.8812H114.102C115.488 21.8812 116.339 20.8731 116.339 19.6759C116.339 18.3841 115.551 17.439 114.102 17.439ZM114.102 17.439H112.81V21.8812H114.102C115.488 21.8812 116.339 20.8731 116.339 19.6759C116.339 18.3841 115.551 17.439 114.102 17.439ZM77.8707 17.439H76.2955V19.3608H77.8707C78.5008 19.3608 78.9419 19.0142 78.9419 18.4156C78.9419 17.7855 78.4693 17.439 77.8707 17.439ZM55.5336 17.5965L54.4309 20.6525H56.6363L55.5336 17.5965ZM90.7878 17.439H89.4961V21.8812H90.7878C92.1741 21.8812 92.9932 20.8731 92.9932 19.6759C93.0247 18.3841 92.2686 17.439 90.7878 17.439ZM126.389 0.0795898H6.60605C3.01446 0.0795898 0.0529785 3.04108 0.0529785 6.63268V43.4308C0.0529785 47.0224 3.01446 49.9839 6.60605 49.9839H126.389C129.98 49.9839 132.942 47.0224 132.942 43.4308V6.63268C132.942 3.04108 129.98 0.0795898 126.389 0.0795898ZM95.7342 16.0843H97.2464V23.2044H95.7342V16.0843ZM87.9839 16.0843H90.7878C93.0247 16.0843 94.5685 17.502 94.5685 19.6443C94.5685 21.7867 93.0247 23.2044 90.7878 23.2044H87.9839V16.0843ZM81.7144 16.0843H86.7552V17.4075H83.2266V18.9197H86.6607V20.2429H83.2266V21.8497H86.7552V23.1729H81.7144V16.0843ZM45.1054 48.9757H6.60605C3.58156 48.9757 1.09265 46.4868 1.06114 43.4308V6.63268C1.06114 3.60818 3.55005 1.11926 6.60605 1.08776H45.1054V48.9757ZM56.4472 35.4285H52.6036V28.3083H56.3527C57.7074 28.3083 58.4005 29.1589 58.4005 30.1041C58.4005 30.9862 57.8335 31.5848 57.1718 31.7424C57.928 31.8684 58.5266 32.593 58.5266 33.4752C58.5266 34.5778 57.8019 35.4285 56.4472 35.4285ZM57.4869 23.2044L57.0458 22.0072H53.9898L53.5487 23.2044H51.816L54.5569 16.0843H56.4472L59.1882 23.2044H57.4869ZM66.1823 32.5615C66.1823 34.3258 65.1426 35.523 62.9688 35.523C60.7949 35.523 59.7238 34.2943 59.7238 32.5615V28.2768H61.2675V32.4985C61.2675 33.4752 61.8346 34.1683 62.9373 34.1683C64.04 34.1683 64.6071 33.4752 64.6071 32.4985V28.2768H66.1508V32.5615H66.1823ZM63.4099 23.3305C61.299 23.3305 59.6292 21.8497 59.6292 19.6443C59.6292 17.439 61.2675 15.9582 63.4099 15.9582C64.6386 15.9267 65.8043 16.5883 66.3714 17.691L65.0796 18.3211C64.7646 17.691 64.103 17.2815 63.4099 17.2815C62.1182 17.2815 61.173 18.2581 61.173 19.6128C61.173 20.9361 62.1182 21.9442 63.4099 21.9442C64.103 21.9442 64.7646 21.5347 65.0796 20.9046L66.3714 21.5662C65.8673 22.4798 64.9851 23.3305 63.4099 23.3305ZM70.152 35.5545C68.7972 35.5545 67.8206 35.0819 67.159 34.4203L67.9781 33.2546C68.5767 33.8847 69.3958 34.2313 70.2465 34.1998C71.0656 34.1998 71.4752 33.8217 71.4752 33.4121C71.4752 32.8765 70.8136 32.7505 70.0259 32.5615C68.8603 32.3095 67.3795 31.9944 67.3795 30.3561C67.3795 29.1904 68.4192 28.1823 70.089 28.1823C71.2231 28.1823 72.1683 28.5288 72.8614 29.1589L72.0108 30.2616C71.4437 29.7575 70.7191 29.474 69.9314 29.474C69.2698 29.474 68.9233 29.7575 68.9233 30.1986C68.9233 30.6712 69.5849 30.7972 70.341 30.9862C71.5067 31.2698 73.0189 31.6163 73.0189 33.2231C73.0189 34.5778 72.0738 35.5545 70.152 35.5545ZM70.8136 21.9757C71.5067 21.9757 72.1683 21.5662 72.4834 20.9361L73.7751 21.5662C73.271 22.4483 72.3573 23.299 70.8136 23.299C68.6712 23.3305 67.033 21.8182 67.033 19.6443C67.033 17.4705 68.6712 15.9582 70.8136 15.9582C72.0423 15.9267 73.208 16.5883 73.7751 17.691L72.4834 18.3211C72.1683 17.691 71.5067 17.2815 70.8136 17.2815C69.5219 17.2815 68.5767 18.2581 68.5767 19.6128C68.5767 20.9676 69.5219 21.9757 70.8136 21.9757ZM75.6339 35.4285H74.1216V28.3083H75.6339V35.4285ZM76.2955 23.2044H74.7832V16.0843H78.1228C79.6035 16.0843 80.5172 17.0609 80.5172 18.3841C80.5172 19.6443 79.7295 20.3375 78.9734 20.495L80.5802 23.2044H78.8474L77.4612 20.684H76.3585V23.2044H76.2955ZM83.4471 35.4285H81.9979L78.5954 30.7972V35.4285H77.0831V28.3083H78.6269L81.9349 32.782V28.3083H83.4471V35.4285ZM90.0002 29.6315H86.4716V31.1438H89.9057V32.467H86.4716V34.0737H90.0002V35.397H84.9594V28.2768H90.0002V29.6315ZM93.7808 35.5545C92.4261 35.5545 91.4495 35.0819 90.7563 34.4203L91.5755 33.2546C92.1741 33.8847 92.9932 34.2313 93.8438 34.1998C94.663 34.1998 95.0725 33.8217 95.0725 33.4121C95.0725 32.8765 94.4109 32.7505 93.6233 32.5615C92.4576 32.3095 90.9769 31.9944 90.9769 30.3561C90.9769 29.1904 91.985 28.1823 93.6863 28.1823C94.8205 28.1823 95.7657 28.5288 96.4588 29.1589L95.6081 30.2616C95.041 29.7575 94.2849 29.474 93.5288 29.474C92.8672 29.474 92.5206 29.7575 92.5206 30.1986C92.5206 30.6712 93.1822 30.7972 93.9384 30.9862C95.1041 31.2698 96.6163 31.6163 96.6163 33.2231C96.6163 34.5778 95.7027 35.5545 93.7808 35.5545ZM100.239 35.5545C98.8847 35.5545 97.908 35.0819 97.2464 34.4203L98.0655 33.2546C98.6641 33.8847 99.4833 34.2313 100.334 34.1998C101.153 34.1998 101.563 33.8217 101.563 33.4121C101.563 32.8765 100.901 32.7505 100.113 32.5615C98.9477 32.3095 97.4669 31.9944 97.4669 30.3561C97.4669 29.1904 98.4751 28.1823 100.176 28.1823C101.311 28.1823 102.256 28.5288 102.949 29.1589L102.098 30.2616C101.531 29.7575 100.806 29.474 100.019 29.474C99.3573 29.474 99.0107 29.7575 99.0107 30.1986C99.0107 30.6712 99.6723 30.7972 100.428 30.9862C101.594 31.2698 103.106 31.6163 103.106 33.2231C103.075 34.5778 102.161 35.5545 100.239 35.5545ZM103.957 17.439H101.878V23.2044H100.365V17.439H98.2861V16.1158H103.957V17.439ZM110.037 17.439H106.509V18.9512H109.943V20.2745H106.509V21.8812H110.037V23.2044H104.997V16.0843H110.037V17.439ZM114.102 23.2044H111.298V16.0843H114.102C116.339 16.0843 117.882 17.502 117.882 19.6443C117.851 21.7867 116.307 23.2044 114.102 23.2044ZM114.102 17.439H112.81V21.8812H114.102C115.488 21.8812 116.339 20.8731 116.339 19.6759C116.339 18.3841 115.551 17.439 114.102 17.439ZM93.0247 19.6443C93.0247 18.3841 92.2686 17.4075 90.8194 17.4075H89.5276V21.8497H90.8194C92.2056 21.8812 93.0247 20.8731 93.0247 19.6443ZM78.9419 18.3841C78.9419 17.7855 78.5008 17.439 77.8707 17.439H76.2955V19.3608H77.8707C78.4693 19.3608 78.9419 18.9827 78.9419 18.3841ZM56.8568 30.3876C56.8568 29.9466 56.5102 29.6 56.0692 29.6H54.1158V31.1438H56.0062C56.5102 31.1438 56.8568 30.8287 56.8568 30.3876ZM56.0692 32.467H54.1158V34.1053H56.0692C56.6363 34.1053 56.9828 33.7902 56.9828 33.2861C56.9828 32.845 56.6678 32.467 56.0692 32.467ZM54.4309 20.6525H56.6363L55.5336 17.5965L54.4309 20.6525ZM90.7878 17.439H89.4961V21.8812H90.7878C92.1741 21.8812 92.9932 20.8731 92.9932 19.6759C93.0247 18.3841 92.2686 17.439 90.7878 17.439ZM55.5336 17.5965L54.4309 20.6525H56.6363L55.5336 17.5965ZM77.8707 17.439H76.2955V19.3608H77.8707C78.5008 19.3608 78.9419 19.0142 78.9419 18.4156C78.9419 17.7855 78.4693 17.439 77.8707 17.439ZM114.102 17.439H112.81V21.8812H114.102C115.488 21.8812 116.339 20.8731 116.339 19.6759C116.339 18.3841 115.551 17.439 114.102 17.439ZM114.102 17.439H112.81V21.8812H114.102C115.488 21.8812 116.339 20.8731 116.339 19.6759C116.339 18.3841 115.551 17.439 114.102 17.439ZM90.7878 17.439H89.4961V21.8812H90.7878C92.1741 21.8812 92.9932 20.8731 92.9932 19.6759C93.0247 18.3841 92.2686 17.439 90.7878 17.439ZM77.8707 17.439H76.2955V19.3608H77.8707C78.5008 19.3608 78.9419 19.0142 78.9419 18.4156C78.9419 17.7855 78.4693 17.439 77.8707 17.439ZM55.5336 17.5965L54.4309 20.6525H56.6363L55.5336 17.5965ZM90.7878 17.439H89.4961V21.8812H90.7878C92.1741 21.8812 92.9932 20.8731 92.9932 19.6759C93.0247 18.3841 92.2686 17.439 90.7878 17.439ZM55.5336 17.5965L54.4309 20.6525H56.6363L55.5336 17.5965ZM77.8707 17.439H76.2955V19.3608H77.8707C78.5008 19.3608 78.9419 19.0142 78.9419 18.4156C78.9419 17.7855 78.4693 17.439 77.8707 17.439ZM114.102 17.439H112.81V21.8812H114.102C115.488 21.8812 116.339 20.8731 116.339 19.6759C116.339 18.3841 115.551 17.439 114.102 17.439ZM114.102 17.439H112.81V21.8812H114.102C115.488 21.8812 116.339 20.8731 116.339 19.6759C116.339 18.3841 115.551 17.439 114.102 17.439ZM90.7878 17.439H89.4961V21.8812H90.7878C92.1741 21.8812 92.9932 20.8731 92.9932 19.6759C93.0247 18.3841 92.2686 17.439 90.7878 17.439ZM77.8707 17.439H76.2955V19.3608H77.8707C78.5008 19.3608 78.9419 19.0142 78.9419 18.4156C78.9419 17.7855 78.4693 17.439 77.8707 17.439ZM55.5336 17.5965L54.4309 20.6525H56.6363L55.5336 17.5965ZM90.7878 17.439H89.4961V21.8812H90.7878C92.1741 21.8812 92.9932 20.8731 92.9932 19.6759C93.0247 18.3841 92.2686 17.439 90.7878 17.439ZM55.5336 17.5965L54.4309 20.6525H56.6363L55.5336 17.5965ZM77.8707 17.439H76.2955V19.3608H77.8707C78.5008 19.3608 78.9419 19.0142 78.9419 18.4156C78.9419 17.7855 78.4693 17.439 77.8707 17.439ZM114.102 17.439H112.81V21.8812H114.102C115.488 21.8812 116.339 20.8731 116.339 19.6759C116.339 18.3841 115.551 17.439 114.102 17.439ZM114.102 17.439H112.81V21.8812H114.102C115.488 21.8812 116.339 20.8731 116.339 19.6759C116.339 18.3841 115.551 17.439 114.102 17.439ZM90.7878 17.439H89.4961V21.8812H90.7878C92.1741 21.8812 92.9932 20.8731 92.9932 19.6759C93.0247 18.3841 92.2686 17.439 90.7878 17.439ZM77.8707 17.439H76.2955V19.3608H77.8707C78.5008 19.3608 78.9419 19.0142 78.9419 18.4156C78.9419 17.7855 78.4693 17.439 77.8707 17.439ZM55.5336 17.5965L54.4309 20.6525H56.6363L55.5336 17.5965ZM90.7878 17.439H89.4961V21.8812H90.7878C92.1741 21.8812 92.9932 20.8731 92.9932 19.6759C93.0247 18.3841 92.2686 17.439 90.7878 17.439ZM55.5336 17.5965L54.4309 20.6525H56.6363L55.5336 17.5965ZM77.8707 17.439H76.2955V19.3608H77.8707C78.5008 19.3608 78.9419 19.0142 78.9419 18.4156C78.9419 17.7855 78.4693 17.439 77.8707 17.439ZM114.102 17.439H112.81V21.8812H114.102C115.488 21.8812 116.339 20.8731 116.339 19.6759C116.339 18.3841 115.551 17.439 114.102 17.439ZM114.102 17.439H112.81V21.8812H114.102C115.488 21.8812 116.339 20.8731 116.339 19.6759C116.339 18.3841 115.551 17.439 114.102 17.439ZM90.7878 17.439H89.4961V21.8812H90.7878C92.1741 21.8812 92.9932 20.8731 92.9932 19.6759C93.0247 18.3841 92.2686 17.439 90.7878 17.439ZM77.8707 17.439H76.2955V19.3608H77.8707C78.5008 19.3608 78.9419 19.0142 78.9419 18.4156C78.9419 17.7855 78.4693 17.439 77.8707 17.439ZM55.5336 17.5965L54.4309 20.6525H56.6363L55.5336 17.5965ZM90.7878 17.439H89.4961V21.8812H90.7878C92.1741 21.8812 92.9932 20.8731 92.9932 19.6759C93.0247 18.3841 92.2686 17.439 90.7878 17.439ZM55.5336 17.5965L54.4309 20.6525H56.6363L55.5336 17.5965ZM77.8707 17.439H76.2955V19.3608H77.8707C78.5008 19.3608 78.9419 19.0142 78.9419 18.4156C78.9419 17.7855 78.4693 17.439 77.8707 17.439ZM90.7878 17.439H89.4961V21.8812H90.7878C92.1741 21.8812 92.9932 20.8731 92.9932 19.6759C93.0247 18.3841 92.2686 17.439 90.7878 17.439ZM77.8707 17.439H76.2955V19.3608H77.8707C78.5008 19.3608 78.9419 19.0142 78.9419 18.4156C78.9419 17.7855 78.4693 17.439 77.8707 17.439ZM55.5336 17.5965L54.4309 20.6525H56.6363L55.5336 17.5965ZM90.7878 17.439H89.4961V21.8812H90.7878C92.1741 21.8812 92.9932 20.8731 92.9932 19.6759C93.0247 18.3841 92.2686 17.439 90.7878 17.439ZM55.5336 17.5965L54.4309 20.6525H56.6363L55.5336 17.5965ZM77.8707 17.439H76.2955V19.3608H77.8707C78.5008 19.3608 78.9419 19.0142 78.9419 18.4156C78.9419 17.7855 78.4693 17.439 77.8707 17.439ZM90.7878 17.439H89.4961V21.8812H90.7878C92.1741 21.8812 92.9932 20.8731 92.9932 19.6759C93.0247 18.3841 92.2686 17.439 90.7878 17.439ZM77.8707 17.439H76.2955V19.3608H77.8707C78.5008 19.3608 78.9419 19.0142 78.9419 18.4156C78.9419 17.7855 78.4693 17.439 77.8707 17.439ZM55.5336 17.5965L54.4309 20.6525H56.6363L55.5336 17.5965ZM55.5336 17.5965L54.4309 20.6525H56.6363L55.5336 17.5965ZM77.8707 17.439H76.2955V19.3608H77.8707C78.5008 19.3608 78.9419 19.0142 78.9419 18.4156C78.9419 17.7855 78.4693 17.439 77.8707 17.439ZM77.8707 17.439H76.2955V19.3608H77.8707C78.5008 19.3608 78.9419 19.0142 78.9419 18.4156C78.9419 17.7855 78.4693 17.439 77.8707 17.439ZM55.5336 17.5965L54.4309 20.6525H56.6363L55.5336 17.5965ZM55.5336 17.5965L54.4309 20.6525H56.6363L55.5336 17.5965ZM55.5336 17.5965L54.4309 20.6525H56.6363L55.5336 17.5965Z" fill="#055B76"/>
<path fill-rule="evenodd" clip-rule="evenodd" d="M39.403 44.0923C39.7496 43.9978 40.0016 43.8087 40.0016 43.4307C40.0016 43.2731 39.9386 43.1156 39.8126 42.9896C39.6235 42.8321 39.403 42.7375 39.151 42.7375H38.1113V45.0059H38.4578V44.1553H39.0249L39.6865 45.0059H40.0961L39.403 44.0923ZM38.4578 43.8402V43.0526H39.1194C39.4345 43.0526 39.6235 43.2101 39.6235 43.4307C39.6235 43.6827 39.403 43.8402 39.0879 43.8402H38.4578ZM39.403 44.0923C39.7496 43.9978 40.0016 43.8087 40.0016 43.4307C40.0016 43.2731 39.9386 43.1156 39.8126 42.9896C39.6235 42.8321 39.403 42.7375 39.151 42.7375H38.1113V45.0059H38.4578V44.1553H39.0249L39.6865 45.0059H40.0961L39.403 44.0923ZM38.4578 43.8402V43.0526H39.1194C39.4345 43.0526 39.6235 43.2101 39.6235 43.4307C39.6235 43.6827 39.403 43.8402 39.0879 43.8402H38.4578ZM39.403 44.0923C39.7496 43.9978 40.0016 43.8087 40.0016 43.4307C40.0016 43.2731 39.9386 43.1156 39.8126 42.9896C39.6235 42.8321 39.403 42.7375 39.151 42.7375H38.1113V45.0059H38.4578V44.1553H39.0249L39.6865 45.0059H40.0961L39.403 44.0923ZM38.4578 43.8402V43.0526H39.1194C39.4345 43.0526 39.6235 43.2101 39.6235 43.4307C39.6235 43.6827 39.403 43.8402 39.0879 43.8402H38.4578ZM39.403 44.0923C39.7496 43.9978 40.0016 43.8087 40.0016 43.4307C40.0016 43.2731 39.9386 43.1156 39.8126 42.9896C39.6235 42.8321 39.403 42.7375 39.151 42.7375H38.1113V45.0059H38.4578V44.1553H39.0249L39.6865 45.0059H40.0961L39.403 44.0923ZM38.4578 43.8402V43.0526H39.1194C39.4345 43.0526 39.6235 43.2101 39.6235 43.4307C39.6235 43.6827 39.403 43.8402 39.0879 43.8402H38.4578ZM39.403 44.0923C39.7496 43.9978 40.0016 43.8087 40.0016 43.4307C40.0016 43.2731 39.9386 43.1156 39.8126 42.9896C39.6235 42.8321 39.403 42.7375 39.151 42.7375H38.1113V45.0059H38.4578V44.1553H39.0249L39.6865 45.0059H40.0961L39.403 44.0923ZM38.4578 43.8402V43.0526H39.1194C39.4345 43.0526 39.6235 43.2101 39.6235 43.4307C39.6235 43.6827 39.403 43.8402 39.0879 43.8402H38.4578ZM39.403 44.0923C39.7496 43.9978 40.0016 43.8087 40.0016 43.4307C40.0016 43.2731 39.9386 43.1156 39.8126 42.9896C39.6235 42.8321 39.403 42.7375 39.151 42.7375H38.1113V45.0059H38.4578V44.1553H39.0249L39.6865 45.0059H40.0961L39.403 44.0923ZM38.4578 43.8402V43.0526H39.1194C39.4345 43.0526 39.6235 43.2101 39.6235 43.4307C39.6235 43.6827 39.403 43.8402 39.0879 43.8402H38.4578ZM39.403 44.0923C39.7496 43.9978 40.0016 43.8087 40.0016 43.4307C40.0016 43.2731 39.9386 43.1156 39.8126 42.9896C39.6235 42.8321 39.403 42.7375 39.151 42.7375H38.1113V45.0059H38.4578V44.1553H39.0249L39.6865 45.0059H40.0961L39.403 44.0923ZM38.4578 43.8402V43.0526H39.1194C39.4345 43.0526 39.6235 43.2101 39.6235 43.4307C39.6235 43.6827 39.403 43.8402 39.0879 43.8402H38.4578ZM39.403 44.0923C39.7496 43.9978 40.0016 43.8087 40.0016 43.4307C40.0016 43.2731 39.9386 43.1156 39.8126 42.9896C39.6235 42.8321 39.403 42.7375 39.151 42.7375H38.1113V45.0059H38.4578V44.1553H39.0249L39.6865 45.0059H40.0961L39.403 44.0923ZM38.4578 43.8402V43.0526H39.1194C39.4345 43.0526 39.6235 43.2101 39.6235 43.4307C39.6235 43.6827 39.403 43.8402 39.0879 43.8402H38.4578ZM39.403 44.0923C39.7496 43.9978 40.0016 43.8087 40.0016 43.4307C40.0016 43.2731 39.9386 43.1156 39.8126 42.9896C39.6235 42.8321 39.403 42.7375 39.151 42.7375H38.1113V45.0059H38.4578V44.1553H39.0249L39.6865 45.0059H40.0961L39.403 44.0923ZM38.4578 43.8402V43.0526H39.1194C39.4345 43.0526 39.6235 43.2101 39.6235 43.4307C39.6235 43.6827 39.403 43.8402 39.0879 43.8402H38.4578ZM39.403 44.0923C39.7496 43.9978 40.0016 43.8087 40.0016 43.4307C40.0016 43.2731 39.9386 43.1156 39.8126 42.9896C39.6235 42.8321 39.403 42.7375 39.151 42.7375H38.1113V45.0059H38.4578V44.1553H39.0249L39.6865 45.0059H40.0961L39.403 44.0923ZM38.4578 43.8402V43.0526H39.1194C39.4345 43.0526 39.6235 43.2101 39.6235 43.4307C39.6235 43.6827 39.403 43.8402 39.0879 43.8402H38.4578ZM39.403 44.0923C39.7496 43.9978 40.0016 43.8087 40.0016 43.4307C40.0016 43.2731 39.9386 43.1156 39.8126 42.9896C39.6235 42.8321 39.403 42.7375 39.151 42.7375H38.1113V45.0059H38.4578V44.1553H39.0249L39.6865 45.0059H40.0961L39.403 44.0923ZM38.4578 43.8402V43.0526H39.1194C39.4345 43.0526 39.6235 43.2101 39.6235 43.4307C39.6235 43.6827 39.403 43.8402 39.0879 43.8402H38.4578ZM39.403 44.0923C39.7496 43.9978 40.0016 43.8087 40.0016 43.4307C40.0016 43.2731 39.9386 43.1156 39.8126 42.9896C39.6235 42.8321 39.403 42.7375 39.151 42.7375H38.1113V45.0059H38.4578V44.1553H39.0249L39.6865 45.0059H40.0961L39.403 44.0923ZM38.4578 43.8402V43.0526H39.1194C39.4345 43.0526 39.6235 43.2101 39.6235 43.4307C39.6235 43.6827 39.403 43.8402 39.0879 43.8402H38.4578ZM39.403 44.0923C39.7496 43.9978 40.0016 43.8087 40.0016 43.4307C40.0016 43.2731 39.9386 43.1156 39.8126 42.9896C39.6235 42.8321 39.403 42.7375 39.151 42.7375H38.1113V45.0059H38.4578V44.1553H39.0249L39.6865 45.0059H40.0961L39.403 44.0923ZM38.4578 43.8402V43.0526H39.1194C39.4345 43.0526 39.6235 43.2101 39.6235 43.4307C39.6235 43.6827 39.403 43.8402 39.0879 43.8402H38.4578ZM39.403 44.0923C39.7496 43.9978 40.0016 43.8087 40.0016 43.4307C40.0016 43.2731 39.9386 43.1156 39.8126 42.9896C39.6235 42.8321 39.403 42.7375 39.151 42.7375H38.1113V45.0059H38.4578V44.1553H39.0249L39.6865 45.0059H40.0961L39.403 44.0923ZM38.4578 43.8402V43.0526H39.1194C39.4345 43.0526 39.6235 43.2101 39.6235 43.4307C39.6235 43.6827 39.403 43.8402 39.0879 43.8402H38.4578ZM39.403 44.0923C39.7496 43.9978 40.0016 43.8087 40.0016 43.4307C40.0016 43.2731 39.9386 43.1156 39.8126 42.9896C39.6235 42.8321 39.403 42.7375 39.151 42.7375H38.1113V45.0059H38.4578V44.1553H39.0249L39.6865 45.0059H40.0961L39.403 44.0923ZM38.4578 43.8402V43.0526H39.1194C39.4345 43.0526 39.6235 43.2101 39.6235 43.4307C39.6235 43.6827 39.403 43.8402 39.0879 43.8402H38.4578ZM39.403 44.0923C39.7496 43.9978 40.0016 43.8087 40.0016 43.4307C40.0016 43.2731 39.9386 43.1156 39.8126 42.9896C39.6235 42.8321 39.403 42.7375 39.151 42.7375H38.1113V45.0059H38.4578V44.1553H39.0249L39.6865 45.0059H40.0961L39.403 44.0923ZM38.4578 43.8402V43.0526H39.1194C39.4345 43.0526 39.6235 43.2101 39.6235 43.4307C39.6235 43.6827 39.403 43.8402 39.0879 43.8402H38.4578ZM39.403 44.0923C39.7496 43.9978 40.0016 43.8087 40.0016 43.4307C40.0016 43.2731 39.9386 43.1156 39.8126 42.9896C39.6235 42.8321 39.403 42.7375 39.151 42.7375H38.1113V45.0059H38.4578V44.1553H39.0249L39.6865 45.0059H40.0961L39.403 44.0923ZM38.4578 43.8402V43.0526H39.1194C39.4345 43.0526 39.6235 43.2101 39.6235 43.4307C39.6235 43.6827 39.403 43.8402 39.0879 43.8402H38.4578ZM39.403 44.0923C39.7496 43.9978 40.0016 43.8087 40.0016 43.4307C40.0016 43.2731 39.9386 43.1156 39.8126 42.9896C39.6235 42.8321 39.403 42.7375 39.151 42.7375H38.1113V45.0059H38.4578V44.1553H39.0249L39.6865 45.0059H40.0961L39.403 44.0923ZM38.4578 43.8402V43.0526H39.1194C39.4345 43.0526 39.6235 43.2101 39.6235 43.4307C39.6235 43.6827 39.403 43.8402 39.0879 43.8402H38.4578ZM39.403 44.0923C39.7496 43.9978 40.0016 43.8087 40.0016 43.4307C40.0016 43.2731 39.9386 43.1156 39.8126 42.9896C39.6235 42.8321 39.403 42.7375 39.151 42.7375H38.1113V45.0059H38.4578V44.1553H39.0249L39.6865 45.0059H40.0961L39.403 44.0923ZM38.4578 43.8402V43.0526H39.1194C39.4345 43.0526 39.6235 43.2101 39.6235 43.4307C39.6235 43.6827 39.403 43.8402 39.0879 43.8402H38.4578ZM39.403 44.0923C39.7496 43.9978 40.0016 43.8087 40.0016 43.4307C40.0016 43.2731 39.9386 43.1156 39.8126 42.9896C39.6235 42.8321 39.403 42.7375 39.151 42.7375H38.1113V45.0059H38.4578V44.1553H39.0249L39.6865 45.0059H40.0961L39.403 44.0923ZM38.4578 43.8402V43.0526H39.1194C39.4345 43.0526 39.6235 43.2101 39.6235 43.4307C39.6235 43.6827 39.403 43.8402 39.0879 43.8402H38.4578ZM38.9934 41.7294C37.7962 41.7294 36.7881 42.7375 36.7881 43.9347V43.9663C36.7881 45.1635 37.7962 46.1716 38.9934 46.1716C40.1906 46.1716 41.1988 45.1635 41.1988 43.9663V43.9347C41.1988 42.706 40.1906 41.7294 38.9934 41.7294ZM40.9783 43.9347C40.9783 45.0374 40.0646 45.9511 38.9619 45.9511C37.8592 45.9511 36.9771 45.0374 36.9456 43.9663V43.9347C36.9456 42.8321 37.8592 41.9184 38.9619 41.9184C40.0961 41.9184 40.9783 42.8006 40.9783 43.9347ZM40.0016 43.4307C40.0016 43.2416 39.9386 43.0841 39.8126 42.9896C39.6235 42.8321 39.403 42.7375 39.151 42.7375H38.1113V45.0059H38.4578V44.1553H39.0249L39.6865 45.0059H40.0961L39.403 44.0923C39.7496 43.9978 40.0016 43.7772 40.0016 43.4307ZM38.4578 43.8402V43.0526H39.1194C39.4345 43.0526 39.6235 43.2101 39.6235 43.4307C39.6235 43.6827 39.403 43.8402 39.0879 43.8402H38.4578ZM39.403 44.0923C39.7496 43.9978 40.0016 43.8087 40.0016 43.4307C40.0016 43.2731 39.9386 43.1156 39.8126 42.9896C39.6235 42.8321 39.403 42.7375 39.151 42.7375H38.1113V45.0059H38.4578V44.1553H39.0249L39.6865 45.0059H40.0961L39.403 44.0923ZM38.4578 43.8402V43.0526H39.1194C39.4345 43.0526 39.6235 43.2101 39.6235 43.4307C39.6235 43.6827 39.403 43.8402 39.0879 43.8402H38.4578ZM39.403 44.0923C39.7496 43.9978 40.0016 43.8087 40.0016 43.4307C40.0016 43.2731 39.9386 43.1156 39.8126 42.9896C39.6235 42.8321 39.403 42.7375 39.151 42.7375H38.1113V45.0059H38.4578V44.1553H39.0249L39.6865 45.0059H40.0961L39.403 44.0923ZM38.4578 43.8402V43.0526H39.1194C39.4345 43.0526 39.6235 43.2101 39.6235 43.4307C39.6235 43.6827 39.403 43.8402 39.0879 43.8402H38.4578ZM39.403 44.0923C39.7496 43.9978 40.0016 43.8087 40.0016 43.4307C40.0016 43.2731 39.9386 43.1156 39.8126 42.9896C39.6235 42.8321 39.403 42.7375 39.151 42.7375H38.1113V45.0059H38.4578V44.1553H39.0249L39.6865 45.0059H40.0961L39.403 44.0923ZM38.4578 43.8402V43.0526H39.1194C39.4345 43.0526 39.6235 43.2101 39.6235 43.4307C39.6235 43.6827 39.403 43.8402 39.0879 43.8402H38.4578ZM39.403 44.0923C39.7496 43.9978 40.0016 43.8087 40.0016 43.4307C40.0016 43.2731 39.9386 43.1156 39.8126 42.9896C39.6235 42.8321 39.403 42.7375 39.151 42.7375H38.1113V45.0059H38.4578V44.1553H39.0249L39.6865 45.0059H40.0961L39.403 44.0923ZM38.4578 43.8402V43.0526H39.1194C39.4345 43.0526 39.6235 43.2101 39.6235 43.4307C39.6235 43.6827 39.403 43.8402 39.0879 43.8402H38.4578ZM39.403 44.0923C39.7496 43.9978 40.0016 43.8087 40.0016 43.4307C40.0016 43.2731 39.9386 43.1156 39.8126 42.9896C39.6235 42.8321 39.403 42.7375 39.151 42.7375H38.1113V45.0059H38.4578V44.1553H39.0249L39.6865 45.0059H40.0961L39.403 44.0923ZM38.4578 43.8402V43.0526H39.1194C39.4345 43.0526 39.6235 43.2101 39.6235 43.4307C39.6235 43.6827 39.403 43.8402 39.0879 43.8402H38.4578ZM39.403 44.0923C39.7496 43.9978 40.0016 43.8087 40.0016 43.4307C40.0016 43.2731 39.9386 43.1156 39.8126 42.9896C39.6235 42.8321 39.403 42.7375 39.151 42.7375H38.1113V45.0059H38.4578V44.1553H39.0249L39.6865 45.0059H40.0961L39.403 44.0923ZM38.4578 43.8402V43.0526H39.1194C39.4345 43.0526 39.6235 43.2101 39.6235 43.4307C39.6235 43.6827 39.403 43.8402 39.0879 43.8402H38.4578ZM39.403 44.0923C39.7496 43.9978 40.0016 43.8087 40.0016 43.4307C40.0016 43.2731 39.9386 43.1156 39.8126 42.9896C39.6235 42.8321 39.403 42.7375 39.151 42.7375H38.1113V45.0059H38.4578V44.1553H39.0249L39.6865 45.0059H40.0961L39.403 44.0923ZM38.4578 43.8402V43.0526H39.1194C39.4345 43.0526 39.6235 43.2101 39.6235 43.4307C39.6235 43.6827 39.403 43.8402 39.0879 43.8402H38.4578ZM39.403 44.0923C39.7496 43.9978 40.0016 43.8087 40.0016 43.4307C40.0016 43.2731 39.9386 43.1156 39.8126 42.9896C39.6235 42.8321 39.403 42.7375 39.151 42.7375H38.1113V45.0059H38.4578V44.1553H39.0249L39.6865 45.0059H40.0961L39.403 44.0923ZM38.4578 43.8402V43.0526H39.1194C39.4345 43.0526 39.6235 43.2101 39.6235 43.4307C39.6235 43.6827 39.403 43.8402 39.0879 43.8402H38.4578ZM39.403 44.0923C39.7496 43.9978 40.0016 43.8087 40.0016 43.4307C40.0016 43.2731 39.9386 43.1156 39.8126 42.9896C39.6235 42.8321 39.403 42.7375 39.151 42.7375H38.1113V45.0059H38.4578V44.1553H39.0249L39.6865 45.0059H40.0961L39.403 44.0923ZM38.4578 43.8402V43.0526H39.1194C39.4345 43.0526 39.6235 43.2101 39.6235 43.4307C39.6235 43.6827 39.403 43.8402 39.0879 43.8402H38.4578ZM39.403 44.0923C39.7496 43.9978 40.0016 43.8087 40.0016 43.4307C40.0016 43.2731 39.9386 43.1156 39.8126 42.9896C39.6235 42.8321 39.403 42.7375 39.151 42.7375H38.1113V45.0059H38.4578V44.1553H39.0249L39.6865 45.0059H40.0961L39.403 44.0923ZM38.4578 43.8402V43.0526H39.1194C39.4345 43.0526 39.6235 43.2101 39.6235 43.4307C39.6235 43.6827 39.403 43.8402 39.0879 43.8402H38.4578ZM39.403 44.0923C39.7496 43.9978 40.0016 43.8087 40.0016 43.4307C40.0016 43.2731 39.9386 43.1156 39.8126 42.9896C39.6235 42.8321 39.403 42.7375 39.151 42.7375H38.1113V45.0059H38.4578V44.1553H39.0249L39.6865 45.0059H40.0961L39.403 44.0923ZM38.4578 43.8402V43.0526H39.1194C39.4345 43.0526 39.6235 43.2101 39.6235 43.4307C39.6235 43.6827 39.403 43.8402 39.0879 43.8402H38.4578ZM39.403 44.0923C39.7496 43.9978 40.0016 43.8087 40.0016 43.4307C40.0016 43.2731 39.9386 43.1156 39.8126 42.9896C39.6235 42.8321 39.403 42.7375 39.151 42.7375H38.1113V45.0059H38.4578V44.1553H39.0249L39.6865 45.0059H40.0961L39.403 44.0923ZM38.4578 43.8402V43.0526H39.1194C39.4345 43.0526 39.6235 43.2101 39.6235 43.4307C39.6235 43.6827 39.403 43.8402 39.0879 43.8402H38.4578ZM39.403 44.0923C39.7496 43.9978 40.0016 43.8087 40.0016 43.4307C40.0016 43.2731 39.9386 43.1156 39.8126 42.9896C39.6235 42.8321 39.403 42.7375 39.151 42.7375H38.1113V45.0059H38.4578V44.1553H39.0249L39.6865 45.0059H40.0961L39.403 44.0923ZM38.4578 43.8402V43.0526H39.1194C39.4345 43.0526 39.6235 43.2101 39.6235 43.4307C39.6235 43.6827 39.403 43.8402 39.0879 43.8402H38.4578ZM39.403 44.0923C39.7496 43.9978 40.0016 43.8087 40.0016 43.4307C40.0016 43.2731 39.9386 43.1156 39.8126 42.9896C39.6235 42.8321 39.403 42.7375 39.151 42.7375H38.1113V45.0059H38.4578V44.1553H39.0249L39.6865 45.0059H40.0961L39.403 44.0923ZM38.4578 43.8402V43.0526H39.1194C39.4345 43.0526 39.6235 43.2101 39.6235 43.4307C39.6235 43.6827 39.403 43.8402 39.0879 43.8402H38.4578ZM39.403 44.0923C39.7496 43.9978 40.0016 43.8087 40.0016 43.4307C40.0016 43.2731 39.9386 43.1156 39.8126 42.9896C39.6235 42.8321 39.403 42.7375 39.151 42.7375H38.1113V45.0059H38.4578V44.1553H39.0249L39.6865 45.0059H40.0961L39.403 44.0923ZM38.4578 43.8402V43.0526H39.1194C39.4345 43.0526 39.6235 43.2101 39.6235 43.4307C39.6235 43.6827 39.403 43.8402 39.0879 43.8402H38.4578ZM39.403 44.0923C39.7496 43.9978 40.0016 43.8087 40.0016 43.4307C40.0016 43.2731 39.9386 43.1156 39.8126 42.9896C39.6235 42.8321 39.403 42.7375 39.151 42.7375H38.1113V45.0059H38.4578V44.1553H39.0249L39.6865 45.0059H40.0961L39.403 44.0923ZM38.4578 43.8402V43.0526H39.1194C39.4345 43.0526 39.6235 43.2101 39.6235 43.4307C39.6235 43.6827 39.403 43.8402 39.0879 43.8402H38.4578ZM39.403 44.0923C39.7496 43.9978 40.0016 43.8087 40.0016 43.4307C40.0016 43.2731 39.9386 43.1156 39.8126 42.9896C39.6235 42.8321 39.403 42.7375 39.151 42.7375H38.1113V45.0059H38.4578V44.1553H39.0249L39.6865 45.0059H40.0961L39.403 44.0923ZM38.4578 43.8402V43.0526H39.1194C39.4345 43.0526 39.6235 43.2101 39.6235 43.4307C39.6235 43.6827 39.403 43.8402 39.0879 43.8402H38.4578ZM39.403 44.0923C39.7496 43.9978 40.0016 43.8087 40.0016 43.4307C40.0016 43.2731 39.9386 43.1156 39.8126 42.9896C39.6235 42.8321 39.403 42.7375 39.151 42.7375H38.1113V45.0059H38.4578V44.1553H39.0249L39.6865 45.0059H40.0961L39.403 44.0923ZM38.4578 43.8402V43.0526H39.1194C39.4345 43.0526 39.6235 43.2101 39.6235 43.4307C39.6235 43.6827 39.403 43.8402 39.0879 43.8402H38.4578ZM35.5279 43.2101C35.3388 41.9499 34.8347 41.6664 33.8266 41.2253C34.5827 40.7842 35.0553 40.1226 35.0553 39.209C35.0553 37.4132 33.5745 36.6885 31.9678 36.6885H27.494V46.2661H31.9678C33.8581 46.2346 35.8744 45.384 35.5279 43.2101ZM29.5419 38.4843H31.8733C33.3225 38.4843 33.3855 40.5322 31.9678 40.5322H29.5419V38.4843ZM32.1253 44.4073H29.5104V42.2335H32.1253C34.0471 42.2335 33.9211 44.4073 32.1253 44.4073ZM30.7391 30.4505H14.5139L13.9468 32.3723H18.2945L19.0822 35.0188H26.2023L26.99 32.3723H31.3377L30.7391 30.4505ZM29.3844 11.0118L23.6189 6.82157C22.7998 6.25447 22.3902 5.2463 23.0833 4.30115L22.5792 3.95459L19.3027 8.49135C17.7589 10.6337 18.326 14.2568 20.4369 15.8006L25.8243 19.7387C26.927 20.5264 27.053 22.5742 26.2653 23.6454L26.7379 23.9919L30.4555 18.7621C32.1253 16.3677 32.0308 12.9021 29.3844 11.0118ZM26.6119 43.2101C26.4229 41.9499 25.9188 41.6664 24.9106 41.1938C25.6667 40.7527 26.1393 40.0911 26.1393 39.1775C26.1393 37.3817 24.6586 36.657 23.0518 36.657H18.5466V46.2346H23.0203C24.9106 46.2346 26.927 45.384 26.6119 43.2101ZM20.5944 38.4843H22.9258C24.375 38.4843 24.438 40.5322 23.0203 40.5322H20.5944V38.4843ZM23.2093 44.4073H20.5944V42.2335H23.2093C25.0997 42.2335 25.0051 44.4073 23.2093 44.4073ZM23.9655 21.4085L20.0273 18.5415C19.5547 18.195 19.4917 17.7224 19.7753 17.1868L19.2082 16.7457L17.0973 19.6442C16.0577 21.0934 16.3727 23.6769 17.822 24.7165L21.7286 27.5205C22.3902 27.9931 22.4532 28.4972 22.1382 29.0013L22.7053 29.4108L24.6901 26.6699C25.8873 25.0316 25.7928 22.7002 23.9655 21.4085ZM17.6959 43.2101C17.5069 41.9499 17.0028 41.6664 15.9947 41.1938C16.7508 40.7527 17.2234 40.0911 17.2234 39.1775C17.2234 37.3817 15.7426 36.657 14.1359 36.657H9.63062V46.2346H14.1043C15.9947 46.2346 18.011 45.384 17.6959 43.2101ZM11.6469 38.4843H13.9783C15.4276 38.4843 15.4906 40.5322 14.0728 40.5322H11.6469V38.4843ZM14.2619 44.4073H11.6469V42.2335H14.2619C16.1837 42.2335 16.0577 44.4073 14.2619 44.4073Z" fill="white"/>
<path fill-rule="evenodd" clip-rule="evenodd" d="M29.3844 11.0118L23.6189 6.82157C22.7998 6.25447 22.3902 5.2463 23.0833 4.30115L22.5792 3.95459L19.3027 8.49135C17.7589 10.6337 18.326 14.2568 20.4369 15.8006L25.8243 19.7387C26.927 20.5264 27.053 22.5742 26.2653 23.6454L26.7379 23.9919L30.4555 18.7621C32.1253 16.3677 32.0308 12.9021 29.3844 11.0118ZM23.9655 21.4085L20.0273 18.5415C19.5547 18.195 19.4917 17.7224 19.7753 17.1868L19.2082 16.7457L17.0973 19.6442C16.0577 21.0934 16.3727 23.6769 17.822 24.7165L21.7286 27.5205C22.3902 27.9931 22.4532 28.4972 22.1382 29.0013L22.7053 29.4108L24.6901 26.6699C25.8873 25.0316 25.7928 22.7002 23.9655 21.4085ZM30.7391 30.4505H14.5139L13.9468 32.3723H18.2945L19.0822 35.0188H26.2023L26.99 32.3723H31.3377L30.7391 30.4505ZM39.403 44.0923C39.7496 43.9978 40.0016 43.8087 40.0016 43.4307C40.0016 43.2731 39.9386 43.1156 39.8126 42.9896C39.6235 42.8321 39.403 42.7375 39.151 42.7375H38.1113V45.0059H38.4578V44.1553H39.0249L39.6865 45.0059H40.0961L39.403 44.0923ZM38.4578 43.8402V43.0526H39.1194C39.4345 43.0526 39.6235 43.2101 39.6235 43.4307C39.6235 43.6827 39.403 43.8402 39.0879 43.8402H38.4578ZM39.403 44.0923C39.7496 43.9978 40.0016 43.8087 40.0016 43.4307C40.0016 43.2731 39.9386 43.1156 39.8126 42.9896C39.6235 42.8321 39.403 42.7375 39.151 42.7375H38.1113V45.0059H38.4578V44.1553H39.0249L39.6865 45.0059H40.0961L39.403 44.0923ZM38.4578 43.8402V43.0526H39.1194C39.4345 43.0526 39.6235 43.2101 39.6235 43.4307C39.6235 43.6827 39.403 43.8402 39.0879 43.8402H38.4578ZM39.403 44.0923C39.7496 43.9978 40.0016 43.8087 40.0016 43.4307C40.0016 43.2731 39.9386 43.1156 39.8126 42.9896C39.6235 42.8321 39.403 42.7375 39.151 42.7375H38.1113V45.0059H38.4578V44.1553H39.0249L39.6865 45.0059H40.0961L39.403 44.0923ZM38.4578 43.8402V43.0526H39.1194C39.4345 43.0526 39.6235 43.2101 39.6235 43.4307C39.6235 43.6827 39.403 43.8402 39.0879 43.8402H38.4578ZM39.403 44.0923C39.7496 43.9978 40.0016 43.8087 40.0016 43.4307C40.0016 43.2731 39.9386 43.1156 39.8126 42.9896C39.6235 42.8321 39.403 42.7375 39.151 42.7375H38.1113V45.0059H38.4578V44.1553H39.0249L39.6865 45.0059H40.0961L39.403 44.0923ZM38.4578 43.8402V43.0526H39.1194C39.4345 43.0526 39.6235 43.2101 39.6235 43.4307C39.6235 43.6827 39.403 43.8402 39.0879 43.8402H38.4578ZM39.403 44.0923C39.7496 43.9978 40.0016 43.8087 40.0016 43.4307C40.0016 43.2731 39.9386 43.1156 39.8126 42.9896C39.6235 42.8321 39.403 42.7375 39.151 42.7375H38.1113V45.0059H38.4578V44.1553H39.0249L39.6865 45.0059H40.0961L39.403 44.0923ZM38.4578 43.8402V43.0526H39.1194C39.4345 43.0526 39.6235 43.2101 39.6235 43.4307C39.6235 43.6827 39.403 43.8402 39.0879 43.8402H38.4578ZM39.403 44.0923C39.7496 43.9978 40.0016 43.8087 40.0016 43.4307C40.0016 43.2731 39.9386 43.1156 39.8126 42.9896C39.6235 42.8321 39.403 42.7375 39.151 42.7375H38.1113V45.0059H38.4578V44.1553H39.0249L39.6865 45.0059H40.0961L39.403 44.0923ZM38.4578 43.8402V43.0526H39.1194C39.4345 43.0526 39.6235 43.2101 39.6235 43.4307C39.6235 43.6827 39.403 43.8402 39.0879 43.8402H38.4578ZM39.403 44.0923C39.7496 43.9978 40.0016 43.8087 40.0016 43.4307C40.0016 43.2731 39.9386 43.1156 39.8126 42.9896C39.6235 42.8321 39.403 42.7375 39.151 42.7375H38.1113V45.0059H38.4578V44.1553H39.0249L39.6865 45.0059H40.0961L39.403 44.0923ZM38.4578 43.8402V43.0526H39.1194C39.4345 43.0526 39.6235 43.2101 39.6235 43.4307C39.6235 43.6827 39.403 43.8402 39.0879 43.8402H38.4578ZM39.403 44.0923C39.7496 43.9978 40.0016 43.8087 40.0016 43.4307C40.0016 43.2731 39.9386 43.1156 39.8126 42.9896C39.6235 42.8321 39.403 42.7375 39.151 42.7375H38.1113V45.0059H38.4578V44.1553H39.0249L39.6865 45.0059H40.0961L39.403 44.0923ZM38.4578 43.8402V43.0526H39.1194C39.4345 43.0526 39.6235 43.2101 39.6235 43.4307C39.6235 43.6827 39.403 43.8402 39.0879 43.8402H38.4578ZM39.403 44.0923C39.7496 43.9978 40.0016 43.8087 40.0016 43.4307C40.0016 43.2731 39.9386 43.1156 39.8126 42.9896C39.6235 42.8321 39.403 42.7375 39.151 42.7375H38.1113V45.0059H38.4578V44.1553H39.0249L39.6865 45.0059H40.0961L39.403 44.0923ZM38.4578 43.8402V43.0526H39.1194C39.4345 43.0526 39.6235 43.2101 39.6235 43.4307C39.6235 43.6827 39.403 43.8402 39.0879 43.8402H38.4578ZM39.403 44.0923C39.7496 43.9978 40.0016 43.8087 40.0016 43.4307C40.0016 43.2731 39.9386 43.1156 39.8126 42.9896C39.6235 42.8321 39.403 42.7375 39.151 42.7375H38.1113V45.0059H38.4578V44.1553H39.0249L39.6865 45.0059H40.0961L39.403 44.0923ZM38.4578 43.8402V43.0526H39.1194C39.4345 43.0526 39.6235 43.2101 39.6235 43.4307C39.6235 43.6827 39.403 43.8402 39.0879 43.8402H38.4578ZM39.403 44.0923C39.7496 43.9978 40.0016 43.8087 40.0016 43.4307C40.0016 43.2731 39.9386 43.1156 39.8126 42.9896C39.6235 42.8321 39.403 42.7375 39.151 42.7375H38.1113V45.0059H38.4578V44.1553H39.0249L39.6865 45.0059H40.0961L39.403 44.0923ZM38.4578 43.8402V43.0526H39.1194C39.4345 43.0526 39.6235 43.2101 39.6235 43.4307C39.6235 43.6827 39.403 43.8402 39.0879 43.8402H38.4578ZM39.403 44.0923C39.7496 43.9978 40.0016 43.8087 40.0016 43.4307C40.0016 43.2731 39.9386 43.1156 39.8126 42.9896C39.6235 42.8321 39.403 42.7375 39.151 42.7375H38.1113V45.0059H38.4578V44.1553H39.0249L39.6865 45.0059H40.0961L39.403 44.0923ZM38.4578 43.8402V43.0526H39.1194C39.4345 43.0526 39.6235 43.2101 39.6235 43.4307C39.6235 43.6827 39.403 43.8402 39.0879 43.8402H38.4578ZM39.403 44.0923C39.7496 43.9978 40.0016 43.8087 40.0016 43.4307C40.0016 43.2731 39.9386 43.1156 39.8126 42.9896C39.6235 42.8321 39.403 42.7375 39.151 42.7375H38.1113V45.0059H38.4578V44.1553H39.0249L39.6865 45.0059H40.0961L39.403 44.0923ZM38.4578 43.8402V43.0526H39.1194C39.4345 43.0526 39.6235 43.2101 39.6235 43.4307C39.6235 43.6827 39.403 43.8402 39.0879 43.8402H38.4578ZM39.403 44.0923C39.7496 43.9978 40.0016 43.8087 40.0016 43.4307C40.0016 43.2731 39.9386 43.1156 39.8126 42.9896C39.6235 42.8321 39.403 42.7375 39.151 42.7375H38.1113V45.0059H38.4578V44.1553H39.0249L39.6865 45.0059H40.0961L39.403 44.0923ZM38.4578 43.8402V43.0526H39.1194C39.4345 43.0526 39.6235 43.2101 39.6235 43.4307C39.6235 43.6827 39.403 43.8402 39.0879 43.8402H38.4578ZM39.403 44.0923C39.7496 43.9978 40.0016 43.8087 40.0016 43.4307C40.0016 43.2731 39.9386 43.1156 39.8126 42.9896C39.6235 42.8321 39.403 42.7375 39.151 42.7375H38.1113V45.0059H38.4578V44.1553H39.0249L39.6865 45.0059H40.0961L39.403 44.0923ZM38.4578 43.8402V43.0526H39.1194C39.4345 43.0526 39.6235 43.2101 39.6235 43.4307C39.6235 43.6827 39.403 43.8402 39.0879 43.8402H38.4578ZM39.403 44.0923C39.7496 43.9978 40.0016 43.8087 40.0016 43.4307C40.0016 43.2731 39.9386 43.1156 39.8126 42.9896C39.6235 42.8321 39.403 42.7375 39.151 42.7375H38.1113V45.0059H38.4578V44.1553H39.0249L39.6865 45.0059H40.0961L39.403 44.0923ZM38.4578 43.8402V43.0526H39.1194C39.4345 43.0526 39.6235 43.2101 39.6235 43.4307C39.6235 43.6827 39.403 43.8402 39.0879 43.8402H38.4578ZM39.403 44.0923C39.7496 43.9978 40.0016 43.8087 40.0016 43.4307C40.0016 43.2731 39.9386 43.1156 39.8126 42.9896C39.6235 42.8321 39.403 42.7375 39.151 42.7375H38.1113V45.0059H38.4578V44.1553H39.0249L39.6865 45.0059H40.0961L39.403 44.0923ZM38.4578 43.8402V43.0526H39.1194C39.4345 43.0526 39.6235 43.2101 39.6235 43.4307C39.6235 43.6827 39.403 43.8402 39.0879 43.8402H38.4578ZM39.403 44.0923C39.7496 43.9978 40.0016 43.8087 40.0016 43.4307C40.0016 43.2731 39.9386 43.1156 39.8126 42.9896C39.6235 42.8321 39.403 42.7375 39.151 42.7375H38.1113V45.0059H38.4578V44.1553H39.0249L39.6865 45.0059H40.0961L39.403 44.0923ZM38.4578 43.8402V43.0526H39.1194C39.4345 43.0526 39.6235 43.2101 39.6235 43.4307C39.6235 43.6827 39.403 43.8402 39.0879 43.8402H38.4578ZM39.403 44.0923C39.7496 43.9978 40.0016 43.8087 40.0016 43.4307C40.0016 43.2731 39.9386 43.1156 39.8126 42.9896C39.6235 42.8321 39.403 42.7375 39.151 42.7375H38.1113V45.0059H38.4578V44.1553H39.0249L39.6865 45.0059H40.0961L39.403 44.0923ZM38.4578 43.8402V43.0526H39.1194C39.4345 43.0526 39.6235 43.2101 39.6235 43.4307C39.6235 43.6827 39.403 43.8402 39.0879 43.8402H38.4578ZM39.403 44.0923C39.7496 43.9978 40.0016 43.8087 40.0016 43.4307C40.0016 43.2731 39.9386 43.1156 39.8126 42.9896C39.6235 42.8321 39.403 42.7375 39.151 42.7375H38.1113V45.0059H38.4578V44.1553H39.0249L39.6865 45.0059H40.0961L39.403 44.0923ZM38.4578 43.8402V43.0526H39.1194C39.4345 43.0526 39.6235 43.2101 39.6235 43.4307C39.6235 43.6827 39.403 43.8402 39.0879 43.8402H38.4578ZM39.403 44.0923C39.7496 43.9978 40.0016 43.8087 40.0016 43.4307C40.0016 43.2731 39.9386 43.1156 39.8126 42.9896C39.6235 42.8321 39.403 42.7375 39.151 42.7375H38.1113V45.0059H38.4578V44.1553H39.0249L39.6865 45.0059H40.0961L39.403 44.0923ZM38.4578 43.8402V43.0526H39.1194C39.4345 43.0526 39.6235 43.2101 39.6235 43.4307C39.6235 43.6827 39.403 43.8402 39.0879 43.8402H38.4578ZM39.403 44.0923C39.7496 43.9978 40.0016 43.8087 40.0016 43.4307C40.0016 43.2731 39.9386 43.1156 39.8126 42.9896C39.6235 42.8321 39.403 42.7375 39.151 42.7375H38.1113V45.0059H38.4578V44.1553H39.0249L39.6865 45.0059H40.0961L39.403 44.0923ZM38.4578 43.8402V43.0526H39.1194C39.4345 43.0526 39.6235 43.2101 39.6235 43.4307C39.6235 43.6827 39.403 43.8402 39.0879 43.8402H38.4578ZM39.403 44.0923C39.7496 43.9978 40.0016 43.8087 40.0016 43.4307C40.0016 43.2731 39.9386 43.1156 39.8126 42.9896C39.6235 42.8321 39.403 42.7375 39.151 42.7375H38.1113V45.0059H38.4578V44.1553H39.0249L39.6865 45.0059H40.0961L39.403 44.0923ZM38.4578 43.8402V43.0526H39.1194C39.4345 43.0526 39.6235 43.2101 39.6235 43.4307C39.6235 43.6827 39.403 43.8402 39.0879 43.8402H38.4578ZM39.403 44.0923C39.7496 43.9978 40.0016 43.8087 40.0016 43.4307C40.0016 43.2731 39.9386 43.1156 39.8126 42.9896C39.6235 42.8321 39.403 42.7375 39.151 42.7375H38.1113V45.0059H38.4578V44.1553H39.0249L39.6865 45.0059H40.0961L39.403 44.0923ZM38.4578 43.8402V43.0526H39.1194C39.4345 43.0526 39.6235 43.2101 39.6235 43.4307C39.6235 43.6827 39.403 43.8402 39.0879 43.8402H38.4578ZM39.403 44.0923C39.7496 43.9978 40.0016 43.8087 40.0016 43.4307C40.0016 43.2731 39.9386 43.1156 39.8126 42.9896C39.6235 42.8321 39.403 42.7375 39.151 42.7375H38.1113V45.0059H38.4578V44.1553H39.0249L39.6865 45.0059H40.0961L39.403 44.0923ZM38.4578 43.8402V43.0526H39.1194C39.4345 43.0526 39.6235 43.2101 39.6235 43.4307C39.6235 43.6827 39.403 43.8402 39.0879 43.8402H38.4578ZM39.403 44.0923C39.7496 43.9978 40.0016 43.8087 40.0016 43.4307C40.0016 43.2731 39.9386 43.1156 39.8126 42.9896C39.6235 42.8321 39.403 42.7375 39.151 42.7375H38.1113V45.0059H38.4578V44.1553H39.0249L39.6865 45.0059H40.0961L39.403 44.0923ZM38.4578 43.8402V43.0526H39.1194C39.4345 43.0526 39.6235 43.2101 39.6235 43.4307C39.6235 43.6827 39.403 43.8402 39.0879 43.8402H38.4578ZM39.403 44.0923C39.7496 43.9978 40.0016 43.8087 40.0016 43.4307C40.0016 43.2731 39.9386 43.1156 39.8126 42.9896C39.6235 42.8321 39.403 42.7375 39.151 42.7375H38.1113V45.0059H38.4578V44.1553H39.0249L39.6865 45.0059H40.0961L39.403 44.0923ZM38.4578 43.8402V43.0526H39.1194C39.4345 43.0526 39.6235 43.2101 39.6235 43.4307C39.6235 43.6827 39.403 43.8402 39.0879 43.8402H38.4578ZM39.403 44.0923C39.7496 43.9978 40.0016 43.8087 40.0016 43.4307C40.0016 43.2731 39.9386 43.1156 39.8126 42.9896C39.6235 42.8321 39.403 42.7375 39.151 42.7375H38.1113V45.0059H38.4578V44.1553H39.0249L39.6865 45.0059H40.0961L39.403 44.0923ZM38.4578 43.8402V43.0526H39.1194C39.4345 43.0526 39.6235 43.2101 39.6235 43.4307C39.6235 43.6827 39.403 43.8402 39.0879 43.8402H38.4578ZM38.9934 41.7294C37.7962 41.7294 36.7881 42.7375 36.7881 43.9347V43.9663C36.7881 45.1635 37.7962 46.1716 38.9934 46.1716C40.1906 46.1716 41.1988 45.1635 41.1988 43.9663V43.9347C41.1988 42.706 40.1906 41.7294 38.9934 41.7294ZM40.9783 43.9347C40.9783 45.0374 40.0646 45.9511 38.9619 45.9511C37.8592 45.9511 36.9771 45.0374 36.9456 43.9663V43.9347C36.9456 42.8321 37.8592 41.9184 38.9619 41.9184C40.0961 41.9184 40.9783 42.8006 40.9783 43.9347ZM40.0016 43.4307C40.0016 43.2416 39.9386 43.0841 39.8126 42.9896C39.6235 42.8321 39.403 42.7375 39.151 42.7375H38.1113V45.0059H38.4578V44.1553H39.0249L39.6865 45.0059H40.0961L39.403 44.0923C39.7496 43.9978 40.0016 43.7772 40.0016 43.4307ZM38.4578 43.8402V43.0526H39.1194C39.4345 43.0526 39.6235 43.2101 39.6235 43.4307C39.6235 43.6827 39.403 43.8402 39.0879 43.8402H38.4578ZM39.403 44.0923C39.7496 43.9978 40.0016 43.8087 40.0016 43.4307C40.0016 43.2731 39.9386 43.1156 39.8126 42.9896C39.6235 42.8321 39.403 42.7375 39.151 42.7375H38.1113V45.0059H38.4578V44.1553H39.0249L39.6865 45.0059H40.0961L39.403 44.0923ZM38.4578 43.8402V43.0526H39.1194C39.4345 43.0526 39.6235 43.2101 39.6235 43.4307C39.6235 43.6827 39.403 43.8402 39.0879 43.8402H38.4578ZM39.403 44.0923C39.7496 43.9978 40.0016 43.8087 40.0016 43.4307C40.0016 43.2731 39.9386 43.1156 39.8126 42.9896C39.6235 42.8321 39.403 42.7375 39.151 42.7375H38.1113V45.0059H38.4578V44.1553H39.0249L39.6865 45.0059H40.0961L39.403 44.0923ZM38.4578 43.8402V43.0526H39.1194C39.4345 43.0526 39.6235 43.2101 39.6235 43.4307C39.6235 43.6827 39.403 43.8402 39.0879 43.8402H38.4578ZM39.403 44.0923C39.7496 43.9978 40.0016 43.8087 40.0016 43.4307C40.0016 43.2731 39.9386 43.1156 39.8126 42.9896C39.6235 42.8321 39.403 42.7375 39.151 42.7375H38.1113V45.0059H38.4578V44.1553H39.0249L39.6865 45.0059H40.0961L39.403 44.0923ZM38.4578 43.8402V43.0526H39.1194C39.4345 43.0526 39.6235 43.2101 39.6235 43.4307C39.6235 43.6827 39.403 43.8402 39.0879 43.8402H38.4578ZM39.403 44.0923C39.7496 43.9978 40.0016 43.8087 40.0016 43.4307C40.0016 43.2731 39.9386 43.1156 39.8126 42.9896C39.6235 42.8321 39.403 42.7375 39.151 42.7375H38.1113V45.0059H38.4578V44.1553H39.0249L39.6865 45.0059H40.0961L39.403 44.0923ZM38.4578 43.8402V43.0526H39.1194C39.4345 43.0526 39.6235 43.2101 39.6235 43.4307C39.6235 43.6827 39.403 43.8402 39.0879 43.8402H38.4578ZM39.403 44.0923C39.7496 43.9978 40.0016 43.8087 40.0016 43.4307C40.0016 43.2731 39.9386 43.1156 39.8126 42.9896C39.6235 42.8321 39.403 42.7375 39.151 42.7375H38.1113V45.0059H38.4578V44.1553H39.0249L39.6865 45.0059H40.0961L39.403 44.0923ZM38.4578 43.8402V43.0526H39.1194C39.4345 43.0526 39.6235 43.2101 39.6235 43.4307C39.6235 43.6827 39.403 43.8402 39.0879 43.8402H38.4578ZM39.403 44.0923C39.7496 43.9978 40.0016 43.8087 40.0016 43.4307C40.0016 43.2731 39.9386 43.1156 39.8126 42.9896C39.6235 42.8321 39.403 42.7375 39.151 42.7375H38.1113V45.0059H38.4578V44.1553H39.0249L39.6865 45.0059H40.0961L39.403 44.0923ZM38.4578 43.8402V43.0526H39.1194C39.4345 43.0526 39.6235 43.2101 39.6235 43.4307C39.6235 43.6827 39.403 43.8402 39.0879 43.8402H38.4578ZM39.403 44.0923C39.7496 43.9978 40.0016 43.8087 40.0016 43.4307C40.0016 43.2731 39.9386 43.1156 39.8126 42.9896C39.6235 42.8321 39.403 42.7375 39.151 42.7375H38.1113V45.0059H38.4578V44.1553H39.0249L39.6865 45.0059H40.0961L39.403 44.0923ZM38.4578 43.8402V43.0526H39.1194C39.4345 43.0526 39.6235 43.2101 39.6235 43.4307C39.6235 43.6827 39.403 43.8402 39.0879 43.8402H38.4578ZM39.403 44.0923C39.7496 43.9978 40.0016 43.8087 40.0016 43.4307C40.0016 43.2731 39.9386 43.1156 39.8126 42.9896C39.6235 42.8321 39.403 42.7375 39.151 42.7375H38.1113V45.0059H38.4578V44.1553H39.0249L39.6865 45.0059H40.0961L39.403 44.0923ZM38.4578 43.8402V43.0526H39.1194C39.4345 43.0526 39.6235 43.2101 39.6235 43.4307C39.6235 43.6827 39.403 43.8402 39.0879 43.8402H38.4578ZM39.403 44.0923C39.7496 43.9978 40.0016 43.8087 40.0016 43.4307C40.0016 43.2731 39.9386 43.1156 39.8126 42.9896C39.6235 42.8321 39.403 42.7375 39.151 42.7375H38.1113V45.0059H38.4578V44.1553H39.0249L39.6865 45.0059H40.0961L39.403 44.0923ZM38.4578 43.8402V43.0526H39.1194C39.4345 43.0526 39.6235 43.2101 39.6235 43.4307C39.6235 43.6827 39.403 43.8402 39.0879 43.8402H38.4578ZM39.403 44.0923C39.7496 43.9978 40.0016 43.8087 40.0016 43.4307C40.0016 43.2731 39.9386 43.1156 39.8126 42.9896C39.6235 42.8321 39.403 42.7375 39.151 42.7375H38.1113V45.0059H38.4578V44.1553H39.0249L39.6865 45.0059H40.0961L39.403 44.0923ZM38.4578 43.8402V43.0526H39.1194C39.4345 43.0526 39.6235 43.2101 39.6235 43.4307C39.6235 43.6827 39.403 43.8402 39.0879 43.8402H38.4578ZM39.403 44.0923C39.7496 43.9978 40.0016 43.8087 40.0016 43.4307C40.0016 43.2731 39.9386 43.1156 39.8126 42.9896C39.6235 42.8321 39.403 42.7375 39.151 42.7375H38.1113V45.0059H38.4578V44.1553H39.0249L39.6865 45.0059H40.0961L39.403 44.0923ZM38.4578 43.8402V43.0526H39.1194C39.4345 43.0526 39.6235 43.2101 39.6235 43.4307C39.6235 43.6827 39.403 43.8402 39.0879 43.8402H38.4578ZM39.403 44.0923C39.7496 43.9978 40.0016 43.8087 40.0016 43.4307C40.0016 43.2731 39.9386 43.1156 39.8126 42.9896C39.6235 42.8321 39.403 42.7375 39.151 42.7375H38.1113V45.0059H38.4578V44.1553H39.0249L39.6865 45.0059H40.0961L39.403 44.0923ZM38.4578 43.8402V43.0526H39.1194C39.4345 43.0526 39.6235 43.2101 39.6235 43.4307C39.6235 43.6827 39.403 43.8402 39.0879 43.8402H38.4578ZM39.403 44.0923C39.7496 43.9978 40.0016 43.8087 40.0016 43.4307C40.0016 43.2731 39.9386 43.1156 39.8126 42.9896C39.6235 42.8321 39.403 42.7375 39.151 42.7375H38.1113V45.0059H38.4578V44.1553H39.0249L39.6865 45.0059H40.0961L39.403 44.0923ZM38.4578 43.8402V43.0526H39.1194C39.4345 43.0526 39.6235 43.2101 39.6235 43.4307C39.6235 43.6827 39.403 43.8402 39.0879 43.8402H38.4578ZM39.403 44.0923C39.7496 43.9978 40.0016 43.8087 40.0016 43.4307C40.0016 43.2731 39.9386 43.1156 39.8126 42.9896C39.6235 42.8321 39.403 42.7375 39.151 42.7375H38.1113V45.0059H38.4578V44.1553H39.0249L39.6865 45.0059H40.0961L39.403 44.0923ZM38.4578 43.8402V43.0526H39.1194C39.4345 43.0526 39.6235 43.2101 39.6235 43.4307C39.6235 43.6827 39.403 43.8402 39.0879 43.8402H38.4578ZM39.403 44.0923C39.7496 43.9978 40.0016 43.8087 40.0016 43.4307C40.0016 43.2731 39.9386 43.1156 39.8126 42.9896C39.6235 42.8321 39.403 42.7375 39.151 42.7375H38.1113V45.0059H38.4578V44.1553H39.0249L39.6865 45.0059H40.0961L39.403 44.0923ZM38.4578 43.8402V43.0526H39.1194C39.4345 43.0526 39.6235 43.2101 39.6235 43.4307C39.6235 43.6827 39.403 43.8402 39.0879 43.8402H38.4578ZM39.403 44.0923C39.7496 43.9978 40.0016 43.8087 40.0016 43.4307C40.0016 43.2731 39.9386 43.1156 39.8126 42.9896C39.6235 42.8321 39.403 42.7375 39.151 42.7375H38.1113V45.0059H38.4578V44.1553H39.0249L39.6865 45.0059H40.0961L39.403 44.0923ZM38.4578 43.8402V43.0526H39.1194C39.4345 43.0526 39.6235 43.2101 39.6235 43.4307C39.6235 43.6827 39.403 43.8402 39.0879 43.8402H38.4578ZM39.403 44.0923C39.7496 43.9978 40.0016 43.8087 40.0016 43.4307C40.0016 43.2731 39.9386 43.1156 39.8126 42.9896C39.6235 42.8321 39.403 42.7375 39.151 42.7375H38.1113V45.0059H38.4578V44.1553H39.0249L39.6865 45.0059H40.0961L39.403 44.0923ZM38.4578 43.8402V43.0526H39.1194C39.4345 43.0526 39.6235 43.2101 39.6235 43.4307C39.6235 43.6827 39.403 43.8402 39.0879 43.8402H38.4578ZM39.403 44.0923C39.7496 43.9978 40.0016 43.8087 40.0016 43.4307C40.0016 43.2731 39.9386 43.1156 39.8126 42.9896C39.6235 42.8321 39.403 42.7375 39.151 42.7375H38.1113V45.0059H38.4578V44.1553H39.0249L39.6865 45.0059H40.0961L39.403 44.0923ZM38.4578 43.8402V43.0526H39.1194C39.4345 43.0526 39.6235 43.2101 39.6235 43.4307C39.6235 43.6827 39.403 43.8402 39.0879 43.8402H38.4578ZM39.403 44.0923C39.7496 43.9978 40.0016 43.8087 40.0016 43.4307C40.0016 43.2731 39.9386 43.1156 39.8126 42.9896C39.6235 42.8321 39.403 42.7375 39.151 42.7375H38.1113V45.0059H38.4578V44.1553H39.0249L39.6865 45.0059H40.0961L39.403 44.0923ZM38.4578 43.8402V43.0526H39.1194C39.4345 43.0526 39.6235 43.2101 39.6235 43.4307C39.6235 43.6827 39.403 43.8402 39.0879 43.8402H38.4578ZM39.403 44.0923C39.7496 43.9978 40.0016 43.8087 40.0016 43.4307C40.0016 43.2731 39.9386 43.1156 39.8126 42.9896C39.6235 42.8321 39.403 42.7375 39.151 42.7375H38.1113V45.0059H38.4578V44.1553H39.0249L39.6865 45.0059H40.0961L39.403 44.0923ZM38.4578 43.8402V43.0526H39.1194C39.4345 43.0526 39.6235 43.2101 39.6235 43.4307C39.6235 43.6827 39.403 43.8402 39.0879 43.8402H38.4578ZM39.403 44.0923C39.7496 43.9978 40.0016 43.8087 40.0016 43.4307C40.0016 43.2731 39.9386 43.1156 39.8126 42.9896C39.6235 42.8321 39.403 42.7375 39.151 42.7375H38.1113V45.0059H38.4578V44.1553H39.0249L39.6865 45.0059H40.0961L39.403 44.0923ZM38.4578 43.8402V43.0526H39.1194C39.4345 43.0526 39.6235 43.2101 39.6235 43.4307C39.6235 43.6827 39.403 43.8402 39.0879 43.8402H38.4578ZM39.403 44.0923C39.7496 43.9978 40.0016 43.8087 40.0016 43.4307C40.0016 43.2731 39.9386 43.1156 39.8126 42.9896C39.6235 42.8321 39.403 42.7375 39.151 42.7375H38.1113V45.0059H38.4578V44.1553H39.0249L39.6865 45.0059H40.0961L39.403 44.0923ZM38.4578 43.8402V43.0526H39.1194C39.4345 43.0526 39.6235 43.2101 39.6235 43.4307C39.6235 43.6827 39.403 43.8402 39.0879 43.8402H38.4578ZM39.403 44.0923C39.7496 43.9978 40.0016 43.8087 40.0016 43.4307C40.0016 43.2731 39.9386 43.1156 39.8126 42.9896C39.6235 42.8321 39.403 42.7375 39.151 42.7375H38.1113V45.0059H38.4578V44.1553H39.0249L39.6865 45.0059H40.0961L39.403 44.0923ZM38.4578 43.8402V43.0526H39.1194C39.4345 43.0526 39.6235 43.2101 39.6235 43.4307C39.6235 43.6827 39.403 43.8402 39.0879 43.8402H38.4578ZM39.403 44.0923C39.7496 43.9978 40.0016 43.8087 40.0016 43.4307C40.0016 43.2731 39.9386 43.1156 39.8126 42.9896C39.6235 42.8321 39.403 42.7375 39.151 42.7375H38.1113V45.0059H38.4578V44.1553H39.0249L39.6865 45.0059H40.0961L39.403 44.0923ZM38.4578 43.8402V43.0526H39.1194C39.4345 43.0526 39.6235 43.2101 39.6235 43.4307C39.6235 43.6827 39.403 43.8402 39.0879 43.8402H38.4578ZM39.403 44.0923C39.7496 43.9978 40.0016 43.8087 40.0016 43.4307C40.0016 43.2731 39.9386 43.1156 39.8126 42.9896C39.6235 42.8321 39.403 42.7375 39.151 42.7375H38.1113V45.0059H38.4578V44.1553H39.0249L39.6865 45.0059H40.0961L39.403 44.0923ZM38.4578 43.8402V43.0526H39.1194C39.4345 43.0526 39.6235 43.2101 39.6235 43.4307C39.6235 43.6827 39.403 43.8402 39.0879 43.8402H38.4578ZM39.403 44.0923C39.7496 43.9978 40.0016 43.8087 40.0016 43.4307C40.0016 43.2731 39.9386 43.1156 39.8126 42.9896C39.6235 42.8321 39.403 42.7375 39.151 42.7375H38.1113V45.0059H38.4578V44.1553H39.0249L39.6865 45.0059H40.0961L39.403 44.0923ZM38.4578 43.8402V43.0526H39.1194C39.4345 43.0526 39.6235 43.2101 39.6235 43.4307C39.6235 43.6827 39.403 43.8402 39.0879 43.8402H38.4578ZM35.5279 43.2101C35.3388 41.9499 34.8347 41.6664 33.8266 41.2253C34.5827 40.7842 35.0553 40.1226 35.0553 39.209C35.0553 37.4132 33.5745 36.6885 31.9678 36.6885H27.494V46.2661H31.9678C33.8581 46.2346 35.8744 45.384 35.5279 43.2101ZM29.5419 38.4843H31.8733C33.3225 38.4843 33.3855 40.5322 31.9678 40.5322H29.5419V38.4843ZM32.1253 44.4073H29.5104V42.2335H32.1253C34.0471 42.2335 33.9211 44.4073 32.1253 44.4073ZM26.6119 43.2101C26.4229 41.9499 25.9188 41.6664 24.9106 41.1938C25.6667 40.7527 26.1393 40.0911 26.1393 39.1775C26.1393 37.3817 24.6586 36.657 23.0518 36.657H18.5466V46.2346H23.0203C24.9106 46.2346 26.927 45.384 26.6119 43.2101ZM20.5944 38.4843H22.9258C24.375 38.4843 24.438 40.5322 23.0203 40.5322H20.5944V38.4843ZM23.2093 44.4073H20.5944V42.2335H23.2093C25.0997 42.2335 25.0051 44.4073 23.2093 44.4073ZM17.6959 43.2101C17.5069 41.9499 17.0028 41.6664 15.9947 41.1938C16.7508 40.7527 17.2234 40.0911 17.2234 39.1775C17.2234 37.3817 15.7426 36.657 14.1359 36.657H9.63062V46.2346H14.1043C15.9947 46.2346 18.011 45.384 17.6959 43.2101ZM11.6469 38.4843H13.9783C15.4276 38.4843 15.4906 40.5322 14.0728 40.5322H11.6469V38.4843ZM14.2619 44.4073H11.6469V42.2335H14.2619C16.1837 42.2335 16.0577 44.4073 14.2619 44.4073Z" fill="#055B76"/>
</svg>
