<svg width="21" height="21" viewBox="0 0 21 21" fill="none" xmlns="http://www.w3.org/2000/svg">
<path d="M8.17454 4.62724C7.91191 1.60637 4.76041 0.124118 4.62704 0.0636183C4.50235 0.00500712 4.36263 -0.0137191 4.22691 0.00999329C0.588662 0.613618 0.0414113 2.73112 0.0194113 2.81912C-0.0105206 2.94175 -0.00575993 3.07029 0.0331613 3.19037C4.37266 16.6544 13.3913 19.15 16.3558 19.9709C16.584 20.0341 16.7724 20.085 16.9154 20.1317C17.0786 20.1851 17.2559 20.1747 17.4118 20.1029C17.5025 20.0616 19.6448 19.0524 20.1687 15.7606C20.1919 15.6169 20.1688 15.4696 20.1027 15.3399C20.0559 15.2491 18.9353 13.1165 15.8278 12.363C15.7224 12.336 15.612 12.3351 15.5061 12.3602C15.4002 12.3854 15.3021 12.4359 15.22 12.5074C14.2397 13.3447 12.8853 14.2371 12.3009 14.3292C8.38354 12.4139 6.19591 8.73849 6.11341 8.04137C6.06529 7.64949 6.96316 6.27312 7.99579 5.15387C8.06069 5.08343 8.11012 5.00018 8.14091 4.90948C8.1717 4.81878 8.18315 4.72264 8.17454 4.62724Z" fill="#2563EB"/>
</svg>
