<svg width="22" height="22" viewBox="0 0 22 22" fill="none" xmlns="http://www.w3.org/2000/svg">
<g clip-path="url(#clip0_29_282)">
<path d="M18.3333 3.66666H3.66665C2.65831 3.66666 1.84248 4.49166 1.84248 5.49999L1.83331 16.5C1.83331 17.5083 2.65831 18.3333 3.66665 18.3333H18.3333C19.3416 18.3333 20.1666 17.5083 20.1666 16.5V5.49999C20.1666 4.49166 19.3416 3.66666 18.3333 3.66666ZM17.9666 7.56249L11.4858 11.6142C11.1925 11.7975 10.8075 11.7975 10.5141 11.6142L4.03331 7.56249C3.80415 7.41582 3.66665 7.16832 3.66665 6.90249C3.66665 6.28832 4.33581 5.92166 4.85831 6.24249L11 10.0833L17.1416 6.24249C17.6641 5.92166 18.3333 6.28832 18.3333 6.90249C18.3333 7.16832 18.1958 7.41582 17.9666 7.56249Z" fill="#2563EB"/>
</g>
<defs>
<clipPath id="clip0_29_282">
<rect width="22" height="22" fill="white"/>
</clipPath>
</defs>
</svg>
