<svg width="36" height="36" viewBox="0 0 36 36" fill="none" xmlns="http://www.w3.org/2000/svg">
<g clip-path="url(#clip0_135_786)">
<path d="M18.0274 36C27.9837 36 36.0548 27.9411 36.0548 18C36.0548 8.05887 27.9837 0 18.0274 0C8.07115 0 0 8.05887 0 18C0 27.9411 8.07115 36 18.0274 36Z" fill="#E0E0E0"/>
<path d="M18.0274 35.4529C27.8323 35.4529 35.7808 27.5165 35.7808 17.7264C35.7808 7.9364 27.8323 0 18.0274 0C8.22242 0 0.273926 7.9364 0.273926 17.7264C0.273926 27.5165 8.22242 35.4529 18.0274 35.4529Z" fill="white"/>
<mask id="mask0_135_786" style="mask-type:luminance" maskUnits="userSpaceOnUse" x="6" y="5" width="24" height="25">
<path d="M29.5343 15.6473H18.3014V20.2978H24.7671C24.1644 23.2522 21.6438 24.9483 18.3014 24.9483C14.3562 24.9483 11.1781 21.775 11.1781 17.8358C11.1781 13.8966 14.3562 10.7233 18.3014 10.7233C20 10.7233 21.5342 11.3252 22.7397 12.31L26.2466 8.80843C24.1096 6.94825 21.3699 5.79932 18.3014 5.79932C11.6164 5.79932 6.24658 11.161 6.24658 17.8358C6.24658 24.5106 11.6164 29.8723 18.3014 29.8723C24.3288 29.8723 29.8082 25.4954 29.8082 17.8358C29.8082 17.1245 29.6986 16.3586 29.5343 15.6473Z" fill="white"/>
</mask>
<g mask="url(#mask0_135_786)">
<path d="M5.15063 24.9483V10.7234L14.4657 17.8358L5.15063 24.9483Z" fill="#FBBC05"/>
</g>
<mask id="mask1_135_786" style="mask-type:luminance" maskUnits="userSpaceOnUse" x="6" y="5" width="24" height="25">
<path d="M29.5343 15.6473H18.3014V20.2978H24.7671C24.1644 23.2522 21.6438 24.9483 18.3014 24.9483C14.3562 24.9483 11.1781 21.775 11.1781 17.8358C11.1781 13.8966 14.3562 10.7233 18.3014 10.7233C20 10.7233 21.5342 11.3252 22.7397 12.31L26.2466 8.80843C24.1096 6.94825 21.3699 5.79932 18.3014 5.79932C11.6164 5.79932 6.24658 11.161 6.24658 17.8358C6.24658 24.5106 11.6164 29.8723 18.3014 29.8723C24.3288 29.8723 29.8082 25.4954 29.8082 17.8358C29.8082 17.1245 29.6986 16.3586 29.5343 15.6473Z" fill="white"/>
</mask>
<g mask="url(#mask1_135_786)">
<path d="M5.15063 10.7233L14.4657 17.8358L18.3013 14.4984L31.452 12.3647V4.70508H5.15063V10.7233Z" fill="#EA4335"/>
</g>
<mask id="mask2_135_786" style="mask-type:luminance" maskUnits="userSpaceOnUse" x="6" y="5" width="24" height="25">
<path d="M29.5343 15.6473H18.3014V20.2978H24.7671C24.1644 23.2522 21.6438 24.9483 18.3014 24.9483C14.3562 24.9483 11.1781 21.775 11.1781 17.8358C11.1781 13.8966 14.3562 10.7233 18.3014 10.7233C20 10.7233 21.5342 11.3252 22.7397 12.31L26.2466 8.80843C24.1096 6.94825 21.3699 5.79932 18.3014 5.79932C11.6164 5.79932 6.24658 11.161 6.24658 17.8358C6.24658 24.5106 11.6164 29.8723 18.3014 29.8723C24.3288 29.8723 29.8082 25.4954 29.8082 17.8358C29.8082 17.1245 29.6986 16.3586 29.5343 15.6473Z" fill="white"/>
</mask>
<g mask="url(#mask2_135_786)">
<path d="M5.15063 24.9482L21.589 12.3647L25.9178 12.9118L31.452 4.70508V30.9665H5.15063V24.9482Z" fill="#34A853"/>
</g>
<mask id="mask3_135_786" style="mask-type:luminance" maskUnits="userSpaceOnUse" x="6" y="5" width="24" height="25">
<path d="M29.5343 15.6473H18.3014V20.2978H24.7671C24.1644 23.2522 21.6438 24.9483 18.3014 24.9483C14.3562 24.9483 11.1781 21.775 11.1781 17.8358C11.1781 13.8966 14.3562 10.7233 18.3014 10.7233C20 10.7233 21.5342 11.3252 22.7397 12.31L26.2466 8.80843C24.1096 6.94825 21.3699 5.79932 18.3014 5.79932C11.6164 5.79932 6.24658 11.161 6.24658 17.8358C6.24658 24.5106 11.6164 29.8723 18.3014 29.8723C24.3288 29.8723 29.8082 25.4954 29.8082 17.8358C29.8082 17.1245 29.6986 16.3586 29.5343 15.6473Z" fill="white"/>
</mask>
<g mask="url(#mask3_135_786)">
<path d="M31.452 30.9665L14.4657 17.8359L12.2739 16.1945L31.452 10.7234V30.9665Z" fill="#4285F4"/>
</g>
</g>
<defs>
<clipPath id="clip0_135_786">
<rect width="36" height="36" fill="white"/>
</clipPath>
</defs>
</svg>
