<svg width="128" height="42" viewBox="0 0 128 42" fill="none" xmlns="http://www.w3.org/2000/svg">
<g clip-path="url(#clip0_288_354)">
<path d="M15.8775 0.0791016H17.0134C20.9557 0.164657 24.8328 1.75599 27.6191 4.5731C26.5901 5.62777 25.541 6.63888 24.5338 7.69199C22.9702 6.27332 21.0843 5.17666 19.0279 4.78932C15.9844 4.14377 12.7069 4.72399 10.1562 6.46621C8.7701 7.39409 7.59923 8.61069 6.72324 10.0333C5.84726 11.4559 5.28668 13.0512 5.07963 14.7107C4.62868 17.9773 5.54452 21.4198 7.67217 23.9584C8.69963 25.1953 9.9742 26.2019 11.4135 26.9133C12.8528 27.6247 14.4247 28.025 16.0278 28.0884C19.0279 28.2595 22.1551 27.3355 24.3401 25.2278C26.0555 23.7438 26.8474 21.4851 27.1046 19.2918C23.5405 19.2918 19.9918 19.312 16.4354 19.2918V14.8538H31.4111C32.1859 19.6075 31.0686 24.9649 27.4688 28.3607C25.0699 30.7702 21.7475 32.1904 18.3631 32.4689C15.054 32.8088 11.7191 32.1502 8.78481 30.5773C5.26342 28.6848 2.54561 25.5742 1.1358 21.8227C-0.140953 18.366 -0.17876 14.5709 1.02888 11.0893C2.14446 7.92875 4.19998 5.18827 6.9175 3.23843C9.51469 1.32666 12.6636 0.27199 15.8775 0.0791016Z" fill="#3780FF"/>
<path d="M101.796 1.19775H106.381V31.9106C104.859 31.9106 103.317 31.9324 101.796 31.8889C101.817 21.672 101.796 11.4349 101.796 1.19775Z" fill="#38B137"/>
<path d="M41.6109 11.844C44.439 11.3057 47.4995 11.9077 49.8379 13.6064C51.9775 15.1453 53.4311 17.4645 53.8871 20.0666C54.4651 23.0564 53.7322 26.3262 51.8091 28.6922C49.731 31.3366 46.3234 32.7568 43.0025 32.5422C39.9605 32.3695 37.0038 30.842 35.2032 28.3422C33.1685 25.5888 32.6757 21.8088 33.7899 18.5764C34.9041 15.1137 38.0529 12.4693 41.6109 11.8455M42.2525 15.932C41.0769 16.2362 40.0273 16.9059 39.2539 17.8453C37.1759 20.3342 37.3029 24.4051 39.5964 26.7291C40.2526 27.3918 41.0605 27.8833 41.9494 28.1607C42.8383 28.438 43.7813 28.4929 44.6962 28.3204C45.5364 28.1565 46.3297 27.8071 47.0188 27.2976C47.7078 26.788 48.2754 26.131 48.6804 25.3742C50.0952 22.8137 49.6876 19.2873 47.5243 17.2853C46.8242 16.6429 45.9774 16.1834 45.0586 15.9471C44.1397 15.7108 43.1771 15.7051 42.2556 15.9304L42.2525 15.932Z" fill="#FA3913"/>
<path d="M64.3223 11.8438C67.5564 11.2215 71.0926 12.1222 73.5132 14.4027C77.4555 17.9509 77.8847 24.5978 74.5204 28.6842C72.4842 31.2649 69.185 32.6851 65.9293 32.5342C62.8222 32.4471 59.7586 30.8993 57.9145 28.3342C55.8365 25.5155 55.3871 21.6453 56.5648 18.3538C57.7441 14.9984 60.8294 12.4427 64.3223 11.8375M64.9638 15.924C63.7937 16.2285 62.7462 16.8893 61.9653 17.8155C59.9074 20.2687 59.9941 24.268 62.2008 26.6122C62.8606 27.3122 63.6849 27.8347 64.5982 28.1317C65.5114 28.4288 66.4844 28.4909 67.4278 28.3124C68.2653 28.1411 69.0557 27.7889 69.7439 27.2801C70.4322 26.7713 71.0019 26.1182 71.4134 25.3662C72.8081 22.784 72.399 19.2575 70.214 17.2571C69.5156 16.6186 68.6711 16.1629 67.7553 15.9303C66.8395 15.6978 65.8807 15.6956 64.9638 15.924Z" fill="#FCBD06"/>
<path d="M83.5842 13.0915C86.0481 11.536 89.3179 11.1129 91.9832 12.446C92.8185 12.8115 93.5034 13.4353 94.1682 14.0591C94.1899 13.4789 94.1682 12.8753 94.1899 12.2733C95.6249 12.2951 97.0598 12.2733 98.5181 12.2951V31.2666C98.4964 34.1273 97.768 37.1591 95.7101 39.2466C93.4616 41.5473 90.0105 42.2566 86.9051 41.7838C83.5842 41.2891 80.691 38.8593 79.4048 35.784C80.691 35.1618 82.0392 34.6655 83.3688 34.0838C84.1188 35.8478 85.6406 37.3504 87.5528 37.6973C89.4651 38.0442 91.6671 37.5682 92.9099 35.9769C94.238 34.342 94.238 32.1051 94.1744 30.1047C93.1888 31.0738 92.053 31.934 90.6815 32.256C87.7031 33.0944 84.4257 32.0631 82.1322 30.0409C80.9695 29.0153 80.0471 27.7444 79.4309 26.3191C78.8147 24.8938 78.5201 23.3494 78.568 21.7964C78.6331 18.2918 80.6043 14.9146 83.5827 13.0853M88.0193 15.8433C86.702 16.0752 85.5097 16.7693 84.655 17.8018C82.6405 20.2098 82.6405 24.0598 84.6767 26.4258C85.2608 27.1226 86.0046 27.6667 86.8443 28.0113C87.684 28.356 88.5945 28.4909 89.4976 28.4044C90.3472 28.3033 91.1611 28.0027 91.8735 27.5271C92.5859 27.0514 93.1766 26.4141 93.598 25.6666C95.0112 23.1498 94.7757 19.7306 92.8681 17.5373C92.2708 16.8633 91.5118 16.3538 90.6631 16.0573C89.8144 15.7608 88.9043 15.6872 88.0193 15.8433Z" fill="#3780FF"/>
<path d="M111.884 14.1881C114.455 11.7785 118.419 10.9619 121.719 12.2312C124.846 13.4134 126.833 16.4032 127.847 19.4785C123.198 21.4136 118.569 23.3285 113.92 25.2636C114.563 26.491 115.549 27.6079 116.877 28.0636C118.736 28.7294 120.969 28.493 122.533 27.2454C123.153 26.7788 123.647 26.1565 124.118 25.5467C125.297 26.3432 126.475 27.1163 127.654 27.9128C125.982 30.4296 123.176 32.1936 120.154 32.4721C116.812 32.8812 113.255 31.5901 111.092 28.9674C107.535 24.8374 107.878 17.9121 111.884 14.1896M114.177 18.1687C113.449 19.2219 113.148 20.513 113.17 21.7823C116.276 20.4912 119.383 19.1949 122.489 17.8934C121.976 16.6894 120.734 15.9583 119.469 15.7639C117.436 15.3999 115.316 16.4888 114.18 18.1672L114.177 18.1687Z" fill="#FA3913"/>
</g>
<defs>
<clipPath id="clip0_288_354">
<rect width="128" height="42" fill="white"/>
</clipPath>
</defs>
</svg>
