<svg width="186" height="30" viewBox="0 0 186 30" fill="none" xmlns="http://www.w3.org/2000/svg">
<g clip-path="url(#clip0_288_333)">
<path d="M85.3292 -0.0437756C85.4021 -0.044402 85.4749 -0.0450284 85.55 -0.0456738C86.9755 -0.0534241 88.36 0.139215 89.7268 0.556224C89.8085 0.580982 89.8901 0.60574 89.9742 0.631249C91.3674 1.07629 92.7659 1.73718 93.9496 2.59997C94.0021 2.63818 94.0547 2.67638 94.1088 2.71575C94.813 3.23337 95.4657 3.79016 96.0859 4.40622C96.1425 4.46225 96.199 4.51828 96.2573 4.576C96.6481 4.97417 96.6481 4.97417 96.6481 5.19997C96.7141 5.19997 96.7801 5.19997 96.848 5.19997C96.9665 5.33064 96.9665 5.33064 97.0983 5.5156C97.1472 5.58406 97.196 5.65253 97.2464 5.72307C97.2984 5.79795 97.3504 5.87283 97.404 5.94997C97.4575 6.02679 97.5111 6.1036 97.5662 6.18274C99.8307 9.4789 100.963 13.6229 100.233 17.6121C100.102 18.2179 99.9358 18.81 99.7465 19.4C99.7219 19.4776 99.6974 19.5552 99.6721 19.6351C99.5206 20.1011 99.3452 20.5521 99.1468 21C99.1188 21.0636 99.0907 21.1272 99.0619 21.1928C98.2556 22.9857 97.1455 24.5234 95.7486 25.9C95.6646 25.9839 95.5806 26.0678 95.4941 26.1543C92.4054 29.0839 88.3787 30.1126 84.2305 30.0292C81.3135 29.9418 78.6164 28.7557 76.2591 27.1C76.1601 27.034 76.0612 26.968 75.9592 26.9C75.9592 26.834 75.9592 26.768 75.9592 26.7C75.8974 26.669 75.8356 26.6381 75.7718 26.6062C75.6344 26.5375 75.497 26.4687 75.3596 26.4C75.3596 26.334 75.3596 26.268 75.3596 26.2C75.2738 26.1629 75.2738 26.1629 75.1862 26.125C74.9248 25.9807 74.7451 25.8118 74.535 25.6C74.4644 25.5299 74.3938 25.4597 74.3211 25.3875C74.1602 25.2 74.1602 25.2 74.1602 25C74.0943 25 74.0283 25 73.9603 25C73.7967 24.8141 73.6467 24.6287 73.4981 24.4312C73.4538 24.373 73.4095 24.3148 73.3639 24.2548C72.9203 23.6618 72.534 23.04 72.1613 22.4C72.096 22.2908 72.0307 22.1816 71.9634 22.0691C70.184 18.9334 69.7489 14.7881 70.65 11.3185C71.2555 9.13702 72.2638 7.00716 73.7604 5.29997C73.8264 5.20097 73.8924 5.10197 73.9603 4.99997C74.0263 4.99997 74.0923 4.99997 74.1602 4.99997C74.185 4.94274 74.2097 4.88551 74.2352 4.82654C74.3794 4.56496 74.5482 4.3852 74.7599 4.17497C74.865 4.06901 74.865 4.06901 74.9723 3.96091C75.1597 3.79997 75.1597 3.79997 75.3596 3.79997C75.3596 3.73397 75.3596 3.66797 75.3596 3.59997C75.7055 3.29997 75.7055 3.29997 75.9592 3.29997C75.9592 3.23397 75.9592 3.16797 75.9592 3.09997C76.2376 2.86994 76.5492 2.68288 76.8525 2.48747C76.9433 2.42894 77.0341 2.37041 77.1277 2.31011C78.4838 1.45195 79.9109 0.830294 81.4563 0.399974C81.5688 0.368215 81.5688 0.368215 81.6837 0.335814C82.8899 0.0123846 84.088 -0.038795 85.3292 -0.0437756Z" fill="#00307E"/>
<path d="M85.3292 -0.0437756C85.4021 -0.044402 85.4749 -0.0450284 85.55 -0.0456738C86.9755 -0.0534241 88.36 0.139215 89.7268 0.556224C89.8085 0.580982 89.8901 0.60574 89.9742 0.631249C91.3674 1.07629 92.7659 1.73718 93.9496 2.59997C94.0021 2.63818 94.0547 2.67638 94.1088 2.71575C94.813 3.23337 95.4657 3.79016 96.0859 4.40622C96.1425 4.46225 96.199 4.51828 96.2573 4.576C96.6481 4.97417 96.6481 4.97417 96.6481 5.19997C96.7141 5.19997 96.7801 5.19997 96.848 5.19997C96.9665 5.33064 96.9665 5.33064 97.0983 5.5156C97.1472 5.58406 97.196 5.65253 97.2464 5.72307C97.2984 5.79795 97.3504 5.87283 97.404 5.94997C97.4575 6.02679 97.5111 6.1036 97.5662 6.18274C99.8307 9.4789 100.963 13.6229 100.233 17.6121C100.102 18.2179 99.9358 18.81 99.7465 19.4C99.7219 19.4776 99.6974 19.5552 99.6721 19.6351C99.5206 20.1011 99.3452 20.5521 99.1468 21C99.1188 21.0636 99.0907 21.1272 99.0619 21.1928C98.6853 22.0302 98.233 22.8081 97.7288 23.575C97.654 23.6894 97.654 23.6894 97.5777 23.8062C97.5292 23.8779 97.4808 23.9496 97.4309 24.0234C97.3884 24.0865 97.3458 24.1497 97.302 24.2147C97.1092 24.4465 96.8875 24.618 96.6481 24.8C96.2177 24.3816 95.7889 23.9617 95.3616 23.5402C95.2159 23.397 95.0698 23.2542 94.9232 23.1119C94.7129 22.9075 94.5043 22.7016 94.2959 22.4953C94.2298 22.4317 94.1637 22.3682 94.0956 22.3027C94.0355 22.2427 93.9755 22.1826 93.9136 22.1208C93.8601 22.0684 93.8067 22.016 93.7516 21.962C93.6497 21.8 93.6497 21.8 93.6728 21.5979C93.7872 21.3034 93.9543 21.0532 94.1245 20.7875C95.631 18.3851 96.2646 15.6702 95.6389 12.8761C95.6091 12.752 95.5794 12.6279 95.5487 12.5C95.522 12.3831 95.4954 12.2661 95.4679 12.1457C94.8352 9.65569 93.1306 7.38432 90.9239 6.07102C88.6258 4.75681 85.8823 4.02703 83.2553 4.69997C83.1911 4.71504 83.1269 4.73011 83.0608 4.74563C80.3754 5.37928 78.0101 6.88377 76.4986 9.22785C75.3949 11.015 74.8424 12.9172 74.8411 15.0187C74.8393 15.1778 74.8393 15.1778 74.8374 15.34C74.8354 16.4391 75.0013 17.4532 75.3721 18.4875C75.4028 18.5734 75.4335 18.6593 75.4651 18.7479C76.4187 21.3259 78.3583 23.3889 80.82 24.5932C83.1915 25.6756 85.9628 25.8762 88.4525 25.1C88.5655 25.0649 88.6785 25.0299 88.7949 24.9937C89.8732 24.6144 90.9759 24.0423 91.8507 23.3C92.1315 23.428 92.3358 23.5607 92.5528 23.7797C92.6088 23.8358 92.6648 23.8918 92.7225 23.9495C92.7816 24.0098 92.8408 24.07 92.9017 24.132C92.9633 24.1939 93.0248 24.2557 93.0882 24.3195C93.2842 24.5167 93.4795 24.7146 93.6747 24.9125C93.8077 25.0465 93.9407 25.1805 94.0737 25.3144C94.3993 25.6424 94.7243 25.971 95.049 26.3C94.4626 27.609 92.2263 28.5076 90.9748 29.0111C87.1854 30.4274 82.8777 30.4768 79.1575 28.8C78.1345 28.3192 77.1838 27.7495 76.2591 27.1C76.1601 27.034 76.0612 26.968 75.9592 26.9C75.9592 26.834 75.9592 26.768 75.9592 26.7C75.8974 26.669 75.8356 26.6381 75.7718 26.6062C75.6344 26.5375 75.497 26.4687 75.3596 26.4C75.3596 26.334 75.3596 26.268 75.3596 26.2C75.2738 26.1629 75.2738 26.1629 75.1862 26.125C74.9248 25.9807 74.7451 25.8118 74.535 25.6C74.4644 25.5299 74.3938 25.4597 74.3211 25.3875C74.1602 25.2 74.1602 25.2 74.1602 25C74.0943 25 74.0283 25 73.9603 25C73.7967 24.8141 73.6467 24.6287 73.4981 24.4312C73.4538 24.373 73.4095 24.3148 73.3639 24.2548C72.9203 23.6618 72.534 23.04 72.1613 22.4C72.096 22.2908 72.0307 22.1816 71.9634 22.0691C70.184 18.9334 69.7489 14.7881 70.65 11.3185C71.2555 9.13702 72.2638 7.00716 73.7604 5.29997C73.8264 5.20097 73.8924 5.10197 73.9603 4.99997C74.0263 4.99997 74.0923 4.99997 74.1602 4.99997C74.185 4.94274 74.2097 4.88551 74.2352 4.82654C74.3794 4.56496 74.5482 4.3852 74.7599 4.17497C74.865 4.06901 74.865 4.06901 74.9723 3.96091C75.1597 3.79997 75.1597 3.79997 75.3596 3.79997C75.3596 3.73397 75.3596 3.66797 75.3596 3.59997C75.7055 3.29997 75.7055 3.29997 75.9592 3.29997C75.9592 3.23397 75.9592 3.16797 75.9592 3.09997C76.2376 2.86994 76.5492 2.68288 76.8525 2.48747C76.9433 2.42894 77.0341 2.37041 77.1277 2.31011C78.4838 1.45195 79.9109 0.830294 81.4563 0.399974C81.5688 0.368215 81.5688 0.368215 81.6837 0.335814C82.8899 0.0123846 84.088 -0.038795 85.3292 -0.0437756Z" fill="#002F7D"/>
<path d="M87.8527 4.69992C87.9661 4.72428 88.0794 4.74864 88.1963 4.77375C89.5876 5.11372 90.9847 5.84155 92.0504 6.79992C92.1319 6.86966 92.2133 6.93939 92.2972 7.01125C93.9807 8.48002 95.1286 10.3198 95.6485 12.4999C95.6935 12.6869 95.6935 12.6869 95.7395 12.8777C96.3788 15.8557 95.6036 18.5638 94.0651 21.125C93.9494 21.2999 93.9494 21.2999 93.7495 21.4999C93.7833 21.8176 93.8925 21.979 94.1193 22.196C94.2038 22.2781 94.2038 22.2781 94.29 22.3619C94.351 22.4198 94.412 22.4777 94.4749 22.5374C94.6026 22.6619 94.7303 22.7864 94.8579 22.9109C95.06 23.1062 95.2624 23.3011 95.4653 23.4954C95.661 23.6834 95.8551 23.8728 96.0491 24.0624C96.1105 24.1203 96.1719 24.1783 96.2352 24.238C96.404 24.4038 96.404 24.4038 96.648 24.6999C96.6057 25.1593 96.2752 25.4133 95.9608 25.7187C95.9066 25.7733 95.8523 25.8279 95.7965 25.8841C95.551 26.1264 95.38 26.2895 95.0488 26.3999C94.0593 25.4099 93.0699 24.4199 92.0504 23.3999C91.701 23.5747 91.386 23.7651 91.0572 23.9749C89.9845 24.6427 88.8835 25.1045 87.6528 25.3999C87.5796 25.4177 87.5063 25.4354 87.4309 25.4537C84.9058 26.0176 82.1492 25.5088 79.9308 24.2089C78.4787 23.2732 77.2981 22.1511 76.3589 20.6999C76.3014 20.6143 76.2439 20.5287 76.1847 20.4405C75.7929 19.8203 75.5236 19.1895 75.2782 18.4999C75.2492 18.4193 75.2202 18.3387 75.1904 18.2556C74.8344 17.2097 74.7226 16.1694 74.7285 15.0687C74.729 14.9594 74.7295 14.8502 74.73 14.7377C74.7422 13.8898 74.8263 13.1186 75.0596 12.2999C75.0936 12.1775 75.1276 12.055 75.1626 11.9288C76.004 9.17003 77.8958 6.96326 80.4111 5.58366C82.7314 4.36738 85.3216 4.09583 87.8527 4.69992ZM79.1281 9.29523C78.0957 10.5339 77.3705 11.9103 77.0585 13.4999C77.0402 13.574 77.0219 13.6482 77.0031 13.7245C76.7314 15.4052 77.03 17.0765 77.7581 18.5999C77.8023 18.6925 77.8465 18.785 77.892 18.8804C78.8937 20.8403 80.6711 22.3096 82.7554 22.9999C83.5671 23.2442 84.3199 23.3523 85.1666 23.3437C85.2752 23.3427 85.3837 23.3417 85.4956 23.3407C87.5893 23.2951 89.393 22.6303 90.951 21.1999C91.0214 21.1364 91.0917 21.0728 91.1642 21.0073C92.6869 19.562 93.5964 17.5627 93.6699 15.4652C93.6863 14.4662 93.6284 13.5656 93.3497 12.5999C93.3231 12.5071 93.2964 12.4143 93.2689 12.3187C92.5544 10.1327 90.9339 8.45405 88.9161 7.40922C85.667 5.81224 81.5941 6.67785 79.1281 9.29523Z" fill="#FCFDFD"/>
<path d="M54.071 8.3999C62.3831 8.3999 62.3831 8.3999 64.4655 10.3999C65.6985 11.7066 66.2259 13.2522 66.2083 15.0312C66.2074 15.1402 66.2066 15.2493 66.2058 15.3617C66.1707 17.0463 65.6485 18.5695 64.4674 19.8077C61.683 22.4589 57.6046 21.6999 54.071 21.6999C54.071 17.3109 54.071 12.9219 54.071 8.3999ZM56.2699 10.3999C56.2699 13.5019 56.2699 16.6039 56.2699 19.7999C59.9452 19.9373 59.9452 19.9373 62.9175 18.2815C63.8929 17.1769 64.0558 15.8317 63.9852 14.4213C63.9044 13.5049 63.5403 12.7078 62.9663 11.9999C62.9161 11.9374 62.866 11.8749 62.8144 11.8104C61.9759 10.8736 60.8724 10.6581 59.668 10.3999C58.5466 10.3999 57.4252 10.3999 56.2699 10.3999Z" fill="#00183C"/>
<path d="M11.2939 9.39988C11.651 9.67694 11.9984 9.95612 12.2933 10.2999C12.2933 10.5999 12.2933 10.5999 12.1001 10.819C12.0175 10.8973 11.9349 10.9755 11.8498 11.0561C11.5299 11.3468 11.5299 11.3468 11.2939 11.6999C11.2279 11.6999 11.162 11.6999 11.094 11.6999C11.094 11.7659 11.094 11.8319 11.094 11.8999C10.7418 11.8414 10.5739 11.7143 10.3194 11.4686C9.29741 10.5478 8.05092 10.329 6.71158 10.3718C5.37773 10.4448 4.21664 10.9683 3.29896 11.944C2.37663 13.12 2.16784 14.4517 2.29872 15.8999C2.53131 17.1986 3.2277 18.2345 4.29764 18.9999C5.56204 19.7183 7.07969 19.9453 8.50554 19.6171C9.01695 19.4727 9.50105 19.2974 9.99458 19.0999C9.99458 17.6479 9.99458 16.1959 9.99458 14.6999C10.7202 14.6999 11.4458 14.6999 12.1934 14.6999C12.2206 15.4542 12.2406 16.2083 12.2538 16.9631C12.2593 17.2196 12.2668 17.476 12.2763 17.7324C12.2897 18.1019 12.2959 18.4708 12.3008 18.8405C12.3064 18.9545 12.3121 19.0685 12.318 19.1859C12.3183 19.6807 12.3093 19.9778 11.9596 20.3461C10.1147 21.7147 7.90438 22.0425 5.66409 21.7718C3.75894 21.4516 2.16332 20.3447 1.03689 18.8249C-0.0546917 17.2271 -0.165925 15.4149 0.0393838 13.5397C0.309421 12.2742 1.01602 10.9486 1.99888 10.0999C2.06484 10.0999 2.13081 10.0999 2.19877 10.0999C2.19877 10.0339 2.19877 9.96788 2.19877 9.89988C2.40186 9.74481 2.60219 9.60547 2.81719 9.46863C2.88029 9.4284 2.94338 9.38817 3.00839 9.34673C5.44475 7.83945 8.89493 7.7945 11.2939 9.39988Z" fill="#00183C"/>
<path d="M125.327 8.38867C125.411 8.3892 125.494 8.38972 125.58 8.39026C125.67 8.39058 125.759 8.3909 125.852 8.39124C125.994 8.39249 125.994 8.39249 126.138 8.39377C126.281 8.39445 126.281 8.39445 126.426 8.39514C126.661 8.39632 126.896 8.39797 127.132 8.40002C127.591 9.30133 128.025 10.2102 128.439 11.1328C128.979 12.3356 129.53 13.5325 130.092 14.725C130.639 15.8848 131.17 17.0506 131.692 18.2217C132.356 19.7137 132.356 19.7137 133.072 21.1813C133.228 21.5 133.228 21.5 133.228 21.7C132.47 21.7 131.711 21.7 130.929 21.7C130.73 21.2624 130.53 20.8246 130.332 20.3865C130.264 20.2375 130.196 20.0885 130.128 19.9396C130.03 19.7258 129.933 19.5117 129.836 19.2977C129.806 19.2309 129.775 19.1641 129.744 19.0953C129.53 18.6228 129.53 18.6228 129.53 18.4C127.287 18.4 125.045 18.4 122.734 18.4C122.635 18.697 122.536 18.994 122.434 19.3C122.348 19.5059 122.258 19.7105 122.164 19.9129C122.116 20.0183 122.067 20.1237 122.017 20.2323C121.967 20.3392 121.917 20.4461 121.866 20.5563C121.815 20.6667 121.763 20.7771 121.711 20.8908C121.586 21.1608 121.46 21.4304 121.335 21.7C120.576 21.7 119.817 21.7 119.036 21.7C119.175 21.2822 119.312 20.916 119.498 20.5223C119.551 20.4091 119.604 20.2958 119.659 20.1791C119.688 20.1187 119.716 20.0583 119.746 19.9961C119.904 19.6613 120.061 19.3259 120.218 18.9906C120.252 18.919 120.285 18.8474 120.32 18.7736C120.72 17.9196 121.115 17.063 121.51 16.2063C121.585 16.0421 121.661 15.8779 121.737 15.7136C121.852 15.4637 121.967 15.2138 122.082 14.9638C122.361 14.3582 122.641 13.7529 122.921 13.1477C123.04 12.8881 123.16 12.6285 123.28 12.3689C123.356 12.2058 123.431 12.0426 123.507 11.8795C123.941 10.9422 124.369 10.0028 124.782 9.05623C125.069 8.40373 125.069 8.40373 125.327 8.38867ZM126.032 11.1C125.771 11.6761 125.509 12.2523 125.248 12.8285C125.16 13.0241 125.071 13.2196 124.982 13.4151C124.854 13.698 124.726 13.981 124.597 14.2641C124.558 14.3498 124.519 14.4354 124.479 14.5237C124.184 15.1778 123.91 15.8364 123.633 16.5C125.283 16.5 126.932 16.5 128.631 16.5C128.074 15.1996 127.514 13.9046 126.925 12.6188C126.857 12.4694 126.789 12.32 126.721 12.1705C126.558 11.8136 126.395 11.4568 126.232 11.1C126.166 11.1 126.1 11.1 126.032 11.1Z" fill="#00183C"/>
<path d="M17.4905 8.3999C18.2491 8.3999 19.0077 8.3999 19.7893 8.3999C19.7907 8.65821 19.7922 8.91653 19.7937 9.18267C19.7987 10.0388 19.8054 10.895 19.8128 11.7511C19.8173 12.2699 19.8212 12.7886 19.8239 13.3074C19.8265 13.8086 19.8305 14.3098 19.8356 14.811C19.8372 15.0017 19.8384 15.1923 19.839 15.383C19.8438 16.7226 19.8584 17.9391 20.7887 18.9999C21.7457 19.7978 22.9065 19.7786 24.087 19.6999C24.8889 19.5971 25.4776 19.2289 25.9859 18.5999C26.4572 17.7412 26.5988 16.931 26.6061 15.9607C26.6071 15.8787 26.6081 15.7967 26.6091 15.7122C26.6123 15.4427 26.6148 15.1733 26.6172 14.9038C26.6193 14.7163 26.6214 14.5289 26.6235 14.3414C26.629 13.8492 26.634 13.357 26.6388 12.8648C26.6438 12.362 26.6494 11.8593 26.6549 11.3565C26.6656 10.371 26.6757 9.38545 26.6856 8.3999C27.4112 8.3999 28.1368 8.3999 28.8844 8.3999C28.8912 9.46749 28.8967 10.5351 28.8999 11.6027C28.9015 12.0986 28.9036 12.5944 28.907 13.0903C28.9103 13.5701 28.9121 14.0499 28.9128 14.5298C28.9134 14.7115 28.9144 14.8933 28.9161 15.0751C28.9326 16.9924 28.7906 18.9632 27.3848 20.4261C25.809 21.7991 23.9778 21.891 21.9881 21.7999C20.8397 21.6708 19.5622 21.0781 18.7898 20.1999C17.7668 18.9138 17.4713 17.3508 17.4792 15.745C17.4791 15.6649 17.4791 15.5848 17.4791 15.5022C17.4792 15.2409 17.48 14.9796 17.4807 14.7183C17.4809 14.5357 17.4811 14.3531 17.4812 14.1706C17.4815 13.6927 17.4825 13.2148 17.4836 12.7369C17.4847 12.2482 17.4851 11.7595 17.4856 11.2708C17.4867 10.3138 17.4884 9.35687 17.4905 8.3999Z" fill="#00183C"/>
<path d="M104.444 8.3999C105.169 8.3999 105.895 8.3999 106.643 8.3999C106.644 8.64808 106.646 8.89626 106.647 9.15195C106.652 9.97578 106.659 10.7996 106.666 11.6234C106.671 12.1224 106.675 12.6215 106.677 13.1205C106.68 13.6029 106.684 14.0853 106.689 14.5677C106.691 14.7509 106.692 14.9342 106.692 15.1174C106.698 16.5117 106.708 17.884 107.698 18.9714C108.37 19.6075 109.179 19.7552 110.078 19.7437C110.161 19.743 110.244 19.7423 110.329 19.7416C111.128 19.7207 111.821 19.5551 112.477 19.0812C113.245 18.2582 113.468 17.3075 113.471 16.2104C113.472 16.1255 113.473 16.0405 113.474 15.953C113.477 15.6749 113.479 15.3968 113.48 15.1187C113.482 14.9247 113.484 14.7308 113.486 14.5369C113.491 14.0286 113.495 13.5203 113.499 13.012C113.503 12.4925 113.508 11.9729 113.513 11.4534C113.523 10.4356 113.531 9.41775 113.539 8.3999C114.265 8.3999 114.99 8.3999 115.738 8.3999C115.745 9.52483 115.75 10.6497 115.753 11.7747C115.755 12.2971 115.757 12.8196 115.76 13.3421C115.764 13.8472 115.765 14.3523 115.766 14.8574C115.767 15.0492 115.768 15.2409 115.769 15.4327C115.785 17.3512 115.572 19.0283 114.18 20.4812C112.693 21.8297 110.84 21.8897 108.941 21.7999C107.62 21.6405 106.433 20.9812 105.543 19.9999C104.725 18.9253 104.427 17.6515 104.432 16.324C104.432 16.2381 104.432 16.1521 104.432 16.0636C104.432 15.7812 104.433 15.4987 104.434 15.2163C104.434 15.0199 104.434 14.8234 104.434 14.627C104.435 14.1111 104.436 13.5952 104.437 13.0794C104.438 12.5525 104.438 12.0256 104.439 11.4987C104.44 10.4658 104.442 9.43284 104.444 8.3999Z" fill="#00183C"/>
<path d="M172.907 8.40021C173.7 8.26029 174.525 8.1544 175.306 8.40021C175.905 8.86348 176.208 9.60379 176.535 10.2691C176.829 10.8426 177.18 11.3804 177.523 11.9252C177.657 12.143 177.791 12.3609 177.924 12.5791C177.988 12.6834 178.052 12.7877 178.118 12.8952C178.179 12.9959 178.241 13.0965 178.304 13.2002C178.363 13.296 178.421 13.3917 178.482 13.4903C178.789 13.9934 179.097 14.4967 179.403 15.0002C179.824 14.5125 180.147 13.9654 180.484 13.419C180.618 13.2031 180.752 12.9872 180.886 12.7713C180.955 12.6605 181.024 12.5498 181.094 12.4357C181.298 12.1081 181.502 11.781 181.706 11.4541C181.771 11.3503 181.836 11.2465 181.902 11.1396C182.031 10.9352 182.16 10.7316 182.29 10.5286C182.554 10.1149 182.807 9.7177 182.989 9.26075C183.253 8.65101 183.253 8.65101 183.601 8.40021C184.391 8.24914 185.205 8.3212 186 8.40021C185.877 8.728 185.739 9.01779 185.55 9.31193C185.501 9.38829 185.452 9.46465 185.402 9.54332C185.324 9.66429 185.324 9.66429 185.244 9.78771C184.874 10.3668 184.508 10.9467 184.157 11.5377C183.757 12.2111 183.346 12.8774 182.933 13.5431C182.611 14.0621 182.29 14.5817 181.97 15.1022C181.934 15.1613 181.897 15.2204 181.86 15.2814C181.716 15.5164 181.571 15.7513 181.427 15.9864C181.327 16.1496 181.227 16.3128 181.126 16.476C181.069 16.57 181.011 16.664 180.952 16.7608C180.839 16.9426 180.722 17.122 180.603 17.3002C180.57 17.5079 180.57 17.5079 180.571 17.7382C180.569 17.8262 180.567 17.9143 180.565 18.005C180.564 18.0997 180.563 18.1944 180.561 18.292C180.56 18.3892 180.558 18.4865 180.556 18.5867C180.55 18.8974 180.545 19.2082 180.54 19.519C180.537 19.7296 180.533 19.9402 180.529 20.1508C180.519 20.6673 180.511 21.1837 180.503 21.7002C179.777 21.7002 179.052 21.7002 178.304 21.7002C178.313 21.402 178.322 21.1039 178.331 20.7967C178.403 17.7414 178.403 17.7414 176.981 15.1178C176.727 14.8036 176.524 14.4654 176.318 14.119C176.239 13.9925 176.159 13.8662 176.08 13.74C175.655 13.0614 175.238 12.3785 174.819 11.6962C174.486 11.154 174.152 10.6126 173.815 10.0733C173.754 9.97634 173.694 9.87943 173.631 9.77958C173.517 9.59694 173.403 9.41452 173.288 9.23236C173.237 9.15162 173.187 9.07089 173.135 8.98771C173.091 8.91732 173.046 8.84694 173.001 8.77443C172.907 8.60021 172.907 8.60021 172.907 8.40021Z" fill="#00183C"/>
<path d="M157.715 8.3999C161.409 8.3999 165.103 8.3999 168.909 8.3999C168.909 9.0599 168.909 9.7199 168.909 10.3999C167.425 10.3999 165.941 10.3999 164.411 10.3999C164.411 14.1289 164.411 17.8579 164.411 21.6999C163.686 21.6999 162.96 21.6999 162.213 21.6999C162.213 17.9709 162.213 14.2419 162.213 10.3999C160.728 10.3999 159.244 10.3999 157.715 10.3999C157.715 9.7399 157.715 9.0799 157.715 8.3999Z" fill="#00173B"/>
<path d="M41.7776 8.5C42.5032 8.5 43.2288 8.5 43.9764 8.5C43.9764 12.229 43.9764 15.958 43.9764 19.8C45.7245 19.8 47.4725 19.8 49.2736 19.8C49.2736 20.46 49.2736 21.12 49.2736 21.8C46.7999 21.8 44.3262 21.8 41.7776 21.8C41.7776 17.411 41.7776 13.022 41.7776 8.5Z" fill="#00173C"/>
<path d="M137.326 8.3999C138.052 8.3999 138.777 8.3999 139.525 8.3999C139.525 12.1289 139.525 15.8579 139.525 19.6999C141.273 19.6999 143.021 19.6999 144.822 19.6999C144.822 20.3599 144.822 21.0199 144.822 21.6999C142.348 21.6999 139.875 21.6999 137.326 21.6999C137.326 17.3109 137.326 12.9219 137.326 8.3999Z" fill="#00183C"/>
<path d="M34.1816 8.5C34.9073 8.5 35.6329 8.5 36.3805 8.5C36.3805 12.889 36.3805 17.278 36.3805 21.8C35.6548 21.8 34.9292 21.8 34.1816 21.8C34.1816 17.411 34.1816 13.022 34.1816 8.5Z" fill="#00173B"/>
<path d="M150.219 8.3999C150.945 8.3999 151.67 8.3999 152.418 8.3999C152.418 12.7889 152.418 17.1779 152.418 21.6999C151.692 21.6999 150.967 21.6999 150.219 21.6999C150.219 17.3109 150.219 12.9219 150.219 8.3999Z" fill="#00173B"/>
<path d="M79.857 8.6001C79.923 8.6661 79.989 8.7321 80.0569 8.8001C79.7271 9.1301 79.3973 9.4601 79.0575 9.8001C79.0245 9.7011 78.9915 9.6021 78.9575 9.5001C79.2544 9.2031 79.5512 8.9061 79.857 8.6001Z" fill="#0F3782"/>
</g>
<defs>
<clipPath id="clip0_288_333">
<rect width="186" height="30" fill="white"/>
</clipPath>
</defs>
</svg>
