<svg width="22" height="22" viewBox="0 0 22 22" fill="none" xmlns="http://www.w3.org/2000/svg">
<g clip-path="url(#clip0_250_47)">
<path d="M1.13017 12.2073L10.9195 3.66026L20.7088 12.2073C20.8459 12.3244 21.0234 12.3824 21.2027 12.3686C21.3821 12.3548 21.5487 12.2703 21.6666 12.1334C21.7845 11.9966 21.844 11.8185 21.8323 11.6377C21.8206 11.4569 21.7387 11.288 21.6042 11.1678L11.3672 2.23026C11.2431 2.12191 11.0844 2.06226 10.9202 2.06226C10.7559 2.06226 10.5972 2.12191 10.4731 2.23026L6.82467 5.41476V4.12501C6.82467 3.76034 6.68086 3.4106 6.42489 3.15274C6.16892 2.89488 5.82174 2.75001 5.45974 2.75001C5.09773 2.75001 4.75056 2.89488 4.49458 3.15274C4.23861 3.4106 4.0948 3.76034 4.0948 4.12501V7.79764L0.234771 11.1678C0.0982641 11.2876 0.0144413 11.457 0.00165057 11.6389C-0.0111401 11.8209 0.0481434 12.0005 0.166524 12.1385C0.414942 12.4245 0.844896 12.4561 1.13017 12.2073ZM8.1896 15.125H13.6493V22H17.7441C18.1061 22 18.4533 21.8551 18.7093 21.5973C18.9653 21.3394 19.1091 20.9897 19.1091 20.625V13.8861C19.1091 13.4736 18.9262 13.0845 18.6095 12.8233L11.7848 7.18714C11.541 6.98511 11.2352 6.87466 10.9195 6.87466C10.6038 6.87466 10.2979 6.98511 10.0541 7.18714L3.22944 12.8233C3.07307 12.952 2.94711 13.1141 2.8607 13.298C2.77429 13.4818 2.7296 13.6827 2.72987 13.8861V20.625C2.72987 20.9897 2.87367 21.3394 3.12965 21.5973C3.38562 21.8551 3.7328 22 4.0948 22H8.1896V15.125Z" fill="#2563EB"/>
</g>
<defs>
<clipPath id="clip0_250_47">
<rect width="22" height="22" fill="white"/>
</clipPath>
</defs>
</svg>
