<svg width="22" height="22" viewBox="0 0 22 22" fill="none" xmlns="http://www.w3.org/2000/svg">
<path d="M11 1.83334C9.05577 1.83553 7.19178 2.60885 5.81698 3.98364C4.44219 5.35843 3.66887 7.22243 3.66669 9.16668C3.66669 12.1504 5.83277 14.6282 8.12719 17.2508C8.85319 18.0813 9.60485 18.9402 10.274 19.8092C10.3597 19.9203 10.4696 20.0102 10.5955 20.0721C10.7214 20.134 10.8598 20.1662 11 20.1662C11.1403 20.1662 11.2787 20.134 11.4045 20.0721C11.5304 20.0102 11.6404 19.9203 11.726 19.8092C12.3952 18.9402 13.1469 18.0813 13.8729 17.2508C16.1673 14.6282 18.3334 12.1504 18.3334 9.16668C18.3312 7.22243 17.5579 5.35843 16.1831 3.98364C14.8083 2.60885 12.9443 1.83553 11 1.83334ZM11 11.9167C10.4561 11.9167 9.92444 11.7554 9.4722 11.4532C9.01997 11.151 8.66749 10.7216 8.45935 10.2191C8.25121 9.71656 8.19675 9.16363 8.30286 8.63018C8.40897 8.09673 8.67088 7.60673 9.05548 7.22213C9.44007 6.83754 9.93007 6.57563 10.4635 6.46952C10.997 6.36341 11.5499 6.41787 12.0524 6.62601C12.5549 6.83415 12.9844 7.18662 13.2866 7.63886C13.5887 8.09109 13.75 8.62278 13.75 9.16668C13.75 9.89602 13.4603 10.5955 12.9446 11.1112C12.4288 11.6269 11.7294 11.9167 11 11.9167Z" fill="#2563EB"/>
</svg>
