<svg width="133" height="51" viewBox="0 0 133 51" fill="none" xmlns="http://www.w3.org/2000/svg">
<rect width="133" height="50.0782" rx="10" fill="white"/>
<path fill-rule="evenodd" clip-rule="evenodd" d="M17.6959 43.2103C17.5069 41.95 17.0028 41.6665 15.9946 41.1939C16.7507 40.7529 17.2233 40.0912 17.2233 39.1776C17.2233 37.3818 15.7426 36.6572 14.1358 36.6572H9.63056V46.2348H14.1043C15.9946 46.2348 18.0109 45.3841 17.6959 43.2103ZM11.6469 38.4845H13.9783C15.4275 38.4845 15.4905 40.5323 14.0728 40.5323H11.6469V38.4845ZM14.2618 44.4075H11.6469V42.2336H14.2618C16.1836 42.2336 16.0576 44.4075 14.2618 44.4075Z" fill="#055B76"/>
<path fill-rule="evenodd" clip-rule="evenodd" d="M17.0973 19.6443L19.2081 16.7458L19.7752 17.1554C19.5232 17.691 19.5547 18.1636 20.0273 18.5101L23.9654 21.3771C25.7927 22.7003 25.8872 25.0002 24.6585 26.7015L22.6737 29.4425L22.1066 29.0329C22.4217 28.5288 22.3587 28.0562 21.697 27.5521L17.7904 24.7482C16.3727 23.7085 16.0576 21.1251 17.0973 19.6443Z" fill="#055B76"/>
<path fill-rule="evenodd" clip-rule="evenodd" d="M26.6118 43.2103C26.4228 41.95 25.9187 41.6665 24.9106 41.1939C25.6667 40.7529 26.1393 40.0912 26.1393 39.1776C26.1393 37.3818 24.6585 36.6572 23.0518 36.6572H18.5465V46.2348H23.0203C24.9106 46.2348 26.9269 45.3841 26.6118 43.2103ZM20.5944 38.4845H22.9257C24.375 38.4845 24.438 40.5323 23.0203 40.5323H20.5944V38.4845ZM23.2093 44.4075H20.5944V42.2336H23.2093C25.0996 42.2336 25.0051 44.4075 23.2093 44.4075Z" fill="#055B76"/>
<path fill-rule="evenodd" clip-rule="evenodd" d="M19.3026 8.45997L22.5792 3.92322L23.0833 4.26978C22.4217 5.21493 22.7997 6.2231 23.6189 6.79019L29.3843 10.9804C31.9992 12.8707 32.0937 16.3678 30.424 18.6992L26.7064 23.9291L26.2338 23.5825C27.0214 22.5428 26.8954 20.495 25.7927 19.6758L20.4053 15.7062C18.326 14.2254 17.7589 10.5708 19.3026 8.45997Z" fill="#055B76"/>
<path fill-rule="evenodd" clip-rule="evenodd" d="M18.2945 32.3724H13.9468L14.5139 30.4506H30.739L31.3061 32.3724H26.9584L26.1708 35.0189H19.0821L18.2945 32.3724Z" fill="#055B76"/>
<path fill-rule="evenodd" clip-rule="evenodd" d="M35.5278 43.2102C35.3388 41.95 34.8347 41.6665 33.8265 41.2254C34.5827 40.7843 35.0552 40.1227 35.0552 39.2091C35.0552 37.4133 33.5745 36.6887 31.9677 36.6887H27.494V46.2663H31.9677C33.858 46.2347 35.8744 45.3841 35.5278 43.2102ZM29.5418 38.4845H31.8732C33.3225 38.4845 33.3855 40.5323 31.9677 40.5323H29.5418V38.4845ZM32.1253 44.4074H29.5103V42.2336H32.1253C34.0471 42.2336 33.9211 44.4074 32.1253 44.4074Z" fill="#055B76"/>
<path fill-rule="evenodd" clip-rule="evenodd" d="M39.4029 44.0924C39.7495 43.9979 40.0015 43.8088 40.0015 43.4308C40.0015 43.2733 39.9385 43.1157 39.8125 42.9897C39.6235 42.8322 39.4029 42.7377 39.1509 42.7377H38.1112V45.006H38.4578V44.1554H39.0249L39.6865 45.006H40.0961L39.4029 44.0924ZM38.4578 43.8404V43.0527H39.1194C39.4345 43.0527 39.6235 43.2102 39.6235 43.4308C39.6235 43.6828 39.4029 43.8404 39.0879 43.8404H38.4578Z" fill="#055B76"/>
<path fill-rule="evenodd" clip-rule="evenodd" d="M38.9934 41.7296C37.7962 41.7296 36.788 42.7377 36.788 43.9349V43.9664C36.788 45.1636 37.7962 46.1718 38.9934 46.1718C40.1906 46.1718 41.1987 45.1636 41.1987 43.9664V43.9349C41.1987 42.7062 40.1906 41.7296 38.9934 41.7296ZM40.9782 43.9349C40.9782 45.0376 40.0646 45.9513 38.9619 45.9513C37.8592 45.9513 36.9771 45.0376 36.9456 43.9664V43.9349C36.9456 42.8322 37.8592 41.9186 38.9619 41.9186C40.0961 41.9186 40.9782 42.8007 40.9782 43.9349Z" fill="#055B76"/>
<path fill-rule="evenodd" clip-rule="evenodd" d="M55.5336 17.5965L54.4309 20.6525H56.6363L55.5336 17.5965ZM55.5336 17.5965L54.4309 20.6525H56.6363L55.5336 17.5965ZM55.5336 17.5965L54.4309 20.6525H56.6363L55.5336 17.5965ZM55.5336 17.5965L54.4309 20.6525H56.6363L55.5336 17.5965ZM55.5336 17.5965L54.4309 20.6525H56.6363L55.5336 17.5965ZM77.8708 17.439H76.2955V19.3608H77.8708C78.5009 19.3608 78.9419 19.0142 78.9419 18.4156C78.9419 17.7855 78.4693 17.439 77.8708 17.439ZM77.8708 17.439H76.2955V19.3608H77.8708C78.5009 19.3608 78.9419 19.0142 78.9419 18.4156C78.9419 17.7855 78.4693 17.439 77.8708 17.439ZM55.5336 17.5965L54.4309 20.6525H56.6363L55.5336 17.5965ZM55.5336 17.5965L54.4309 20.6525H56.6363L55.5336 17.5965ZM77.8708 17.439H76.2955V19.3608H77.8708C78.5009 19.3608 78.9419 19.0142 78.9419 18.4156C78.9419 17.7855 78.4693 17.439 77.8708 17.439ZM90.7879 17.439H89.4962V21.8812H90.7879C92.1741 21.8812 92.9932 20.8731 92.9932 19.6759C93.0247 18.3841 92.2686 17.439 90.7879 17.439ZM77.8708 17.439H76.2955V19.3608H77.8708C78.5009 19.3608 78.9419 19.0142 78.9419 18.4156C78.9419 17.7855 78.4693 17.439 77.8708 17.439ZM55.5336 17.5965L54.4309 20.6525H56.6363L55.5336 17.5965ZM90.7879 17.439H89.4962V21.8812H90.7879C92.1741 21.8812 92.9932 20.8731 92.9932 19.6759C93.0247 18.3841 92.2686 17.439 90.7879 17.439ZM55.5336 17.5965L54.4309 20.6525H56.6363L55.5336 17.5965ZM77.8708 17.439H76.2955V19.3608H77.8708C78.5009 19.3608 78.9419 19.0142 78.9419 18.4156C78.9419 17.7855 78.4693 17.439 77.8708 17.439ZM90.7879 17.439H89.4962V21.8812H90.7879C92.1741 21.8812 92.9932 20.8731 92.9932 19.6759C93.0247 18.3841 92.2686 17.439 90.7879 17.439ZM77.8708 17.439H76.2955V19.3608H77.8708C78.5009 19.3608 78.9419 19.0142 78.9419 18.4156C78.9419 17.7855 78.4693 17.439 77.8708 17.439ZM55.5336 17.5965L54.4309 20.6525H56.6363L55.5336 17.5965ZM90.7879 17.439H89.4962V21.8812H90.7879C92.1741 21.8812 92.9932 20.8731 92.9932 19.6759C93.0247 18.3841 92.2686 17.439 90.7879 17.439ZM55.5336 17.5965L54.4309 20.6525H56.6363L55.5336 17.5965ZM77.8708 17.439H76.2955V19.3608H77.8708C78.5009 19.3608 78.9419 19.0142 78.9419 18.4156C78.9419 17.7855 78.4693 17.439 77.8708 17.439ZM90.7879 17.439H89.4962V21.8812H90.7879C92.1741 21.8812 92.9932 20.8731 92.9932 19.6759C93.0247 18.3841 92.2686 17.439 90.7879 17.439ZM114.102 17.439H112.81V21.8812H114.102C115.488 21.8812 116.339 20.8731 116.339 19.6759C116.339 18.3841 115.551 17.439 114.102 17.439ZM114.102 17.439H112.81V21.8812H114.102C115.488 21.8812 116.339 20.8731 116.339 19.6759C116.339 18.3841 115.551 17.439 114.102 17.439ZM77.8708 17.439H76.2955V19.3608H77.8708C78.5009 19.3608 78.9419 19.0142 78.9419 18.4156C78.9419 17.7855 78.4693 17.439 77.8708 17.439ZM55.5336 17.5965L54.4309 20.6525H56.6363L55.5336 17.5965ZM90.7879 17.439H89.4962V21.8812H90.7879C92.1741 21.8812 92.9932 20.8731 92.9932 19.6759C93.0247 18.3841 92.2686 17.439 90.7879 17.439ZM55.5336 17.5965L54.4309 20.6525H56.6363L55.5336 17.5965ZM77.8708 17.439H76.2955V19.3608H77.8708C78.5009 19.3608 78.9419 19.0142 78.9419 18.4156C78.9419 17.7855 78.4693 17.439 77.8708 17.439ZM90.7879 17.439H89.4962V21.8812H90.7879C92.1741 21.8812 92.9932 20.8731 92.9932 19.6759C93.0247 18.3841 92.2686 17.439 90.7879 17.439ZM114.102 17.439H112.81V21.8812H114.102C115.488 21.8812 116.339 20.8731 116.339 19.6759C116.339 18.3841 115.551 17.439 114.102 17.439ZM114.102 17.439H112.81V21.8812H114.102C115.488 21.8812 116.339 20.8731 116.339 19.6759C116.339 18.3841 115.551 17.439 114.102 17.439ZM77.8708 17.439H76.2955V19.3608H77.8708C78.5009 19.3608 78.9419 19.0142 78.9419 18.4156C78.9419 17.7855 78.4693 17.439 77.8708 17.439ZM55.5336 17.5965L54.4309 20.6525H56.6363L55.5336 17.5965ZM90.7879 17.439H89.4962V21.8812H90.7879C92.1741 21.8812 92.9932 20.8731 92.9932 19.6759C93.0247 18.3841 92.2686 17.439 90.7879 17.439ZM55.5336 17.5965L54.4309 20.6525H56.6363L55.5336 17.5965ZM77.8708 17.439H76.2955V19.3608H77.8708C78.5009 19.3608 78.9419 19.0142 78.9419 18.4156C78.9419 17.7855 78.4693 17.439 77.8708 17.439ZM90.7879 17.439H89.4962V21.8812H90.7879C92.1741 21.8812 92.9932 20.8731 92.9932 19.6759C93.0247 18.3841 92.2686 17.439 90.7879 17.439ZM114.102 17.439H112.81V21.8812H114.102C115.488 21.8812 116.339 20.8731 116.339 19.6759C116.339 18.3841 115.551 17.439 114.102 17.439ZM114.102 17.439H112.81V21.8812H114.102C115.488 21.8812 116.339 20.8731 116.339 19.6759C116.339 18.3841 115.551 17.439 114.102 17.439ZM77.8708 17.439H76.2955V19.3608H77.8708C78.5009 19.3608 78.9419 19.0142 78.9419 18.4156C78.9419 17.7855 78.4693 17.439 77.8708 17.439ZM55.5336 17.5965L54.4309 20.6525H56.6363L55.5336 17.5965ZM90.7879 17.439H89.4962V21.8812H90.7879C92.1741 21.8812 92.9932 20.8731 92.9932 19.6759C93.0247 18.3841 92.2686 17.439 90.7879 17.439ZM55.5336 17.5965L54.4309 20.6525H56.6363L55.5336 17.5965ZM77.8708 17.439H76.2955V19.3608H77.8708C78.5009 19.3608 78.9419 19.0142 78.9419 18.4156C78.9419 17.7855 78.4693 17.439 77.8708 17.439ZM90.7879 17.439H89.4962V21.8812H90.7879C92.1741 21.8812 92.9932 20.8731 92.9932 19.6759C93.0247 18.3841 92.2686 17.439 90.7879 17.439ZM114.102 17.439H112.81V21.8812H114.102C115.488 21.8812 116.339 20.8731 116.339 19.6759C116.339 18.3841 115.551 17.439 114.102 17.439ZM114.102 17.439H112.81V21.8812H114.102C115.488 21.8812 116.339 20.8731 116.339 19.6759C116.339 18.3841 115.551 17.439 114.102 17.439ZM77.8708 17.439H76.2955V19.3608H77.8708C78.5009 19.3608 78.9419 19.0142 78.9419 18.4156C78.9419 17.7855 78.4693 17.439 77.8708 17.439ZM55.5336 17.5965L54.4309 20.6525H56.6363L55.5336 17.5965ZM90.7879 17.439H89.4962V21.8812H90.7879C92.1741 21.8812 92.9932 20.8731 92.9932 19.6759C93.0247 18.3841 92.2686 17.439 90.7879 17.439ZM126.389 0.0795898H6.60607C3.01448 0.0795898 0.0529938 3.04108 0.0529938 6.63268V43.4308C0.0529938 47.0224 3.01448 49.9839 6.60607 49.9839H126.389C129.98 49.9839 132.942 47.0224 132.942 43.4308V6.63268C132.942 3.04108 129.98 0.0795898 126.389 0.0795898ZM95.7342 16.0843H97.2464V23.2044H95.7342V16.0843ZM87.9839 16.0843H90.7879C93.0247 16.0843 94.5685 17.502 94.5685 19.6443C94.5685 21.7867 93.0247 23.2044 90.7879 23.2044H87.9839V16.0843ZM81.7144 16.0843H86.7552V17.4075H83.2266V18.9197H86.6607V20.2429H83.2266V21.8497H86.7552V23.1729H81.7144V16.0843ZM45.1054 48.9757H6.60607C3.58157 48.9757 1.09266 46.4868 1.06116 43.4308V6.63268C1.06116 3.60818 3.55007 1.11926 6.60607 1.08776H45.1054V48.9757ZM56.4472 35.4285H52.6036V28.3083H56.3527C57.7074 28.3083 58.4006 29.1589 58.4006 30.1041C58.4006 30.9862 57.8335 31.5848 57.1719 31.7424C57.928 31.8684 58.5266 32.593 58.5266 33.4752C58.5266 34.5778 57.802 35.4285 56.4472 35.4285ZM57.4869 23.2044L57.0458 22.0072H53.9898L53.5488 23.2044H51.816L54.5569 16.0843H56.4472L59.1882 23.2044H57.4869ZM66.1823 32.5615C66.1823 34.3258 65.1427 35.523 62.9688 35.523C60.7949 35.523 59.7238 34.2943 59.7238 32.5615V28.2768H61.2675V32.4985C61.2675 33.4752 61.8346 34.1683 62.9373 34.1683C64.04 34.1683 64.6071 33.4752 64.6071 32.4985V28.2768H66.1508V32.5615H66.1823ZM63.4099 23.3305C61.299 23.3305 59.6293 21.8497 59.6293 19.6443C59.6293 17.439 61.2675 15.9582 63.4099 15.9582C64.6386 15.9267 65.8043 16.5883 66.3714 17.691L65.0797 18.3211C64.7646 17.691 64.103 17.2815 63.4099 17.2815C62.1182 17.2815 61.173 18.2581 61.173 19.6128C61.173 20.9361 62.1182 21.9442 63.4099 21.9442C64.103 21.9442 64.7646 21.5347 65.0797 20.9046L66.3714 21.5662C65.8673 22.4798 64.9851 23.3305 63.4099 23.3305ZM70.152 35.5545C68.7973 35.5545 67.8206 35.0819 67.159 34.4203L67.9781 33.2546C68.5767 33.8847 69.3959 34.2313 70.2465 34.1998C71.0656 34.1998 71.4752 33.8217 71.4752 33.4121C71.4752 32.8765 70.8136 32.7505 70.026 32.5615C68.8603 32.3095 67.3795 31.9944 67.3795 30.3561C67.3795 29.1904 68.4192 28.1823 70.089 28.1823C71.2232 28.1823 72.1683 28.5288 72.8614 29.1589L72.0108 30.2616C71.4437 29.7575 70.7191 29.474 69.9314 29.474C69.2698 29.474 68.9233 29.7575 68.9233 30.1986C68.9233 30.6712 69.5849 30.7972 70.341 30.9862C71.5067 31.2698 73.019 31.6163 73.019 33.2231C73.019 34.5778 72.0738 35.5545 70.152 35.5545ZM70.8136 21.9757C71.5067 21.9757 72.1683 21.5662 72.4834 20.9361L73.7751 21.5662C73.271 22.4483 72.3573 23.299 70.8136 23.299C68.6712 23.3305 67.033 21.8182 67.033 19.6443C67.033 17.4705 68.6712 15.9582 70.8136 15.9582C72.0423 15.9267 73.208 16.5883 73.7751 17.691L72.4834 18.3211C72.1683 17.691 71.5067 17.2815 70.8136 17.2815C69.5219 17.2815 68.5767 18.2581 68.5767 19.6128C68.5767 20.9676 69.5219 21.9757 70.8136 21.9757ZM75.6339 35.4285H74.1216V28.3083H75.6339V35.4285ZM76.2955 23.2044H74.7832V16.0843H78.1228C79.6035 16.0843 80.5172 17.0609 80.5172 18.3841C80.5172 19.6443 79.7296 20.3375 78.9734 20.495L80.5802 23.2044H78.8474L77.4612 20.684H76.3585V23.2044H76.2955ZM83.4472 35.4285H81.9979L78.5954 30.7972V35.4285H77.0831V28.3083H78.6269L81.9349 32.782V28.3083H83.4472V35.4285ZM90.0002 29.6315H86.4717V31.1438H89.9057V32.467H86.4717V34.0737H90.0002V35.397H84.9594V28.2768H90.0002V29.6315ZM93.7809 35.5545C92.4261 35.5545 91.4495 35.0819 90.7564 34.4203L91.5755 33.2546C92.1741 33.8847 92.9932 34.2313 93.8439 34.1998C94.663 34.1998 95.0726 33.8217 95.0726 33.4121C95.0726 32.8765 94.411 32.7505 93.6233 32.5615C92.4576 32.3095 90.9769 31.9944 90.9769 30.3561C90.9769 29.1904 91.9851 28.1823 93.6863 28.1823C94.8205 28.1823 95.7657 28.5288 96.4588 29.1589L95.6082 30.2616C95.0411 29.7575 94.2849 29.474 93.5288 29.474C92.8672 29.474 92.5207 29.7575 92.5207 30.1986C92.5207 30.6712 93.1823 30.7972 93.9384 30.9862C95.1041 31.2698 96.6163 31.6163 96.6163 33.2231C96.6163 34.5778 95.7027 35.5545 93.7809 35.5545ZM100.239 35.5545C98.8847 35.5545 97.908 35.0819 97.2464 34.4203L98.0656 33.2546C98.6642 33.8847 99.4833 34.2313 100.334 34.1998C101.153 34.1998 101.563 33.8217 101.563 33.4121C101.563 32.8765 100.901 32.7505 100.113 32.5615C98.9477 32.3095 97.467 31.9944 97.467 30.3561C97.467 29.1904 98.4751 28.1823 100.176 28.1823C101.311 28.1823 102.256 28.5288 102.949 29.1589L102.098 30.2616C101.531 29.7575 100.807 29.474 100.019 29.474C99.3573 29.474 99.0107 29.7575 99.0107 30.1986C99.0107 30.6712 99.6723 30.7972 100.428 30.9862C101.594 31.2698 103.106 31.6163 103.106 33.2231C103.075 34.5778 102.161 35.5545 100.239 35.5545ZM103.957 17.439H101.878V23.2044H100.365V17.439H98.2861V16.1158H103.957V17.439ZM110.038 17.439H106.509V18.9512H109.943V20.2745H106.509V21.8812H110.038V23.2044H104.997V16.0843H110.038V17.439ZM114.102 23.2044H111.298V16.0843H114.102C116.339 16.0843 117.882 17.502 117.882 19.6443C117.851 21.7867 116.307 23.2044 114.102 23.2044ZM114.102 17.439H112.81V21.8812H114.102C115.488 21.8812 116.339 20.8731 116.339 19.6759C116.339 18.3841 115.551 17.439 114.102 17.439ZM93.0247 19.6443C93.0247 18.3841 92.2686 17.4075 90.8194 17.4075H89.5277V21.8497H90.8194C92.2056 21.8812 93.0247 20.8731 93.0247 19.6443ZM78.9419 18.3841C78.9419 17.7855 78.5009 17.439 77.8708 17.439H76.2955V19.3608H77.8708C78.4693 19.3608 78.9419 18.9827 78.9419 18.3841ZM56.8568 30.3876C56.8568 29.9466 56.5103 29.6 56.0692 29.6H54.1159V31.1438H56.0062C56.5103 31.1438 56.8568 30.8287 56.8568 30.3876ZM56.0692 32.467H54.1159V34.1053H56.0692C56.6363 34.1053 56.9828 33.7902 56.9828 33.2861C56.9828 32.845 56.6678 32.467 56.0692 32.467ZM54.4309 20.6525H56.6363L55.5336 17.5965L54.4309 20.6525ZM90.7879 17.439H89.4962V21.8812H90.7879C92.1741 21.8812 92.9932 20.8731 92.9932 19.6759C93.0247 18.3841 92.2686 17.439 90.7879 17.439ZM55.5336 17.5965L54.4309 20.6525H56.6363L55.5336 17.5965ZM77.8708 17.439H76.2955V19.3608H77.8708C78.5009 19.3608 78.9419 19.0142 78.9419 18.4156C78.9419 17.7855 78.4693 17.439 77.8708 17.439ZM114.102 17.439H112.81V21.8812H114.102C115.488 21.8812 116.339 20.8731 116.339 19.6759C116.339 18.3841 115.551 17.439 114.102 17.439ZM114.102 17.439H112.81V21.8812H114.102C115.488 21.8812 116.339 20.8731 116.339 19.6759C116.339 18.3841 115.551 17.439 114.102 17.439ZM90.7879 17.439H89.4962V21.8812H90.7879C92.1741 21.8812 92.9932 20.8731 92.9932 19.6759C93.0247 18.3841 92.2686 17.439 90.7879 17.439ZM77.8708 17.439H76.2955V19.3608H77.8708C78.5009 19.3608 78.9419 19.0142 78.9419 18.4156C78.9419 17.7855 78.4693 17.439 77.8708 17.439ZM55.5336 17.5965L54.4309 20.6525H56.6363L55.5336 17.5965ZM90.7879 17.439H89.4962V21.8812H90.7879C92.1741 21.8812 92.9932 20.8731 92.9932 19.6759C93.0247 18.3841 92.2686 17.439 90.7879 17.439ZM55.5336 17.5965L54.4309 20.6525H56.6363L55.5336 17.5965ZM77.8708 17.439H76.2955V19.3608H77.8708C78.5009 19.3608 78.9419 19.0142 78.9419 18.4156C78.9419 17.7855 78.4693 17.439 77.8708 17.439ZM114.102 17.439H112.81V21.8812H114.102C115.488 21.8812 116.339 20.8731 116.339 19.6759C116.339 18.3841 115.551 17.439 114.102 17.439ZM114.102 17.439H112.81V21.8812H114.102C115.488 21.8812 116.339 20.8731 116.339 19.6759C116.339 18.3841 115.551 17.439 114.102 17.439ZM90.7879 17.439H89.4962V21.8812H90.7879C92.1741 21.8812 92.9932 20.8731 92.9932 19.6759C93.0247 18.3841 92.2686 17.439 90.7879 17.439ZM77.8708 17.439H76.2955V19.3608H77.8708C78.5009 19.3608 78.9419 19.0142 78.9419 18.4156C78.9419 17.7855 78.4693 17.439 77.8708 17.439ZM55.5336 17.5965L54.4309 20.6525H56.6363L55.5336 17.5965ZM90.7879 17.439H89.4962V21.8812H90.7879C92.1741 21.8812 92.9932 20.8731 92.9932 19.6759C93.0247 18.3841 92.2686 17.439 90.7879 17.439ZM55.5336 17.5965L54.4309 20.6525H56.6363L55.5336 17.5965ZM77.8708 17.439H76.2955V19.3608H77.8708C78.5009 19.3608 78.9419 19.0142 78.9419 18.4156C78.9419 17.7855 78.4693 17.439 77.8708 17.439ZM114.102 17.439H112.81V21.8812H114.102C115.488 21.8812 116.339 20.8731 116.339 19.6759C116.339 18.3841 115.551 17.439 114.102 17.439ZM114.102 17.439H112.81V21.8812H114.102C115.488 21.8812 116.339 20.8731 116.339 19.6759C116.339 18.3841 115.551 17.439 114.102 17.439ZM90.7879 17.439H89.4962V21.8812H90.7879C92.1741 21.8812 92.9932 20.8731 92.9932 19.6759C93.0247 18.3841 92.2686 17.439 90.7879 17.439ZM77.8708 17.439H76.2955V19.3608H77.8708C78.5009 19.3608 78.9419 19.0142 78.9419 18.4156C78.9419 17.7855 78.4693 17.439 77.8708 17.439ZM55.5336 17.5965L54.4309 20.6525H56.6363L55.5336 17.5965ZM90.7879 17.439H89.4962V21.8812H90.7879C92.1741 21.8812 92.9932 20.8731 92.9932 19.6759C93.0247 18.3841 92.2686 17.439 90.7879 17.439ZM55.5336 17.5965L54.4309 20.6525H56.6363L55.5336 17.5965ZM77.8708 17.439H76.2955V19.3608H77.8708C78.5009 19.3608 78.9419 19.0142 78.9419 18.4156C78.9419 17.7855 78.4693 17.439 77.8708 17.439ZM114.102 17.439H112.81V21.8812H114.102C115.488 21.8812 116.339 20.8731 116.339 19.6759C116.339 18.3841 115.551 17.439 114.102 17.439ZM114.102 17.439H112.81V21.8812H114.102C115.488 21.8812 116.339 20.8731 116.339 19.6759C116.339 18.3841 115.551 17.439 114.102 17.439ZM90.7879 17.439H89.4962V21.8812H90.7879C92.1741 21.8812 92.9932 20.8731 92.9932 19.6759C93.0247 18.3841 92.2686 17.439 90.7879 17.439ZM77.8708 17.439H76.2955V19.3608H77.8708C78.5009 19.3608 78.9419 19.0142 78.9419 18.4156C78.9419 17.7855 78.4693 17.439 77.8708 17.439ZM55.5336 17.5965L54.4309 20.6525H56.6363L55.5336 17.5965ZM90.7879 17.439H89.4962V21.8812H90.7879C92.1741 21.8812 92.9932 20.8731 92.9932 19.6759C93.0247 18.3841 92.2686 17.439 90.7879 17.439ZM55.5336 17.5965L54.4309 20.6525H56.6363L55.5336 17.5965ZM77.8708 17.439H76.2955V19.3608H77.8708C78.5009 19.3608 78.9419 19.0142 78.9419 18.4156C78.9419 17.7855 78.4693 17.439 77.8708 17.439ZM90.7879 17.439H89.4962V21.8812H90.7879C92.1741 21.8812 92.9932 20.8731 92.9932 19.6759C93.0247 18.3841 92.2686 17.439 90.7879 17.439ZM77.8708 17.439H76.2955V19.3608H77.8708C78.5009 19.3608 78.9419 19.0142 78.9419 18.4156C78.9419 17.7855 78.4693 17.439 77.8708 17.439ZM55.5336 17.5965L54.4309 20.6525H56.6363L55.5336 17.5965ZM90.7879 17.439H89.4962V21.8812H90.7879C92.1741 21.8812 92.9932 20.8731 92.9932 19.6759C93.0247 18.3841 92.2686 17.439 90.7879 17.439ZM55.5336 17.5965L54.4309 20.6525H56.6363L55.5336 17.5965ZM77.8708 17.439H76.2955V19.3608H77.8708C78.5009 19.3608 78.9419 19.0142 78.9419 18.4156C78.9419 17.7855 78.4693 17.439 77.8708 17.439ZM90.7879 17.439H89.4962V21.8812H90.7879C92.1741 21.8812 92.9932 20.8731 92.9932 19.6759C93.0247 18.3841 92.2686 17.439 90.7879 17.439ZM77.8708 17.439H76.2955V19.3608H77.8708C78.5009 19.3608 78.9419 19.0142 78.9419 18.4156C78.9419 17.7855 78.4693 17.439 77.8708 17.439ZM55.5336 17.5965L54.4309 20.6525H56.6363L55.5336 17.5965ZM55.5336 17.5965L54.4309 20.6525H56.6363L55.5336 17.5965ZM77.8708 17.439H76.2955V19.3608H77.8708C78.5009 19.3608 78.9419 19.0142 78.9419 18.4156C78.9419 17.7855 78.4693 17.439 77.8708 17.439ZM77.8708 17.439H76.2955V19.3608H77.8708C78.5009 19.3608 78.9419 19.0142 78.9419 18.4156C78.9419 17.7855 78.4693 17.439 77.8708 17.439ZM55.5336 17.5965L54.4309 20.6525H56.6363L55.5336 17.5965ZM55.5336 17.5965L54.4309 20.6525H56.6363L55.5336 17.5965ZM55.5336 17.5965L54.4309 20.6525H56.6363L55.5336 17.5965Z" fill="#055B76"/>
<path fill-rule="evenodd" clip-rule="evenodd" d="M39.4029 44.0924C39.7495 43.9979 40.0015 43.8088 40.0015 43.4308C40.0015 43.2733 39.9385 43.1157 39.8125 42.9897C39.6235 42.8322 39.4029 42.7377 39.1509 42.7377H38.1112V45.006H38.4578V44.1554H39.0249L39.6865 45.006H40.0961L39.4029 44.0924ZM38.4578 43.8404V43.0527H39.1194C39.4344 43.0527 39.6235 43.2103 39.6235 43.4308C39.6235 43.6828 39.4029 43.8404 39.0879 43.8404H38.4578ZM39.4029 44.0924C39.7495 43.9979 40.0015 43.8088 40.0015 43.4308C40.0015 43.2733 39.9385 43.1157 39.8125 42.9897C39.6235 42.8322 39.4029 42.7377 39.1509 42.7377H38.1112V45.006H38.4578V44.1554H39.0249L39.6865 45.006H40.0961L39.4029 44.0924ZM38.4578 43.8404V43.0527H39.1194C39.4344 43.0527 39.6235 43.2103 39.6235 43.4308C39.6235 43.6828 39.4029 43.8404 39.0879 43.8404H38.4578ZM39.4029 44.0924C39.7495 43.9979 40.0015 43.8088 40.0015 43.4308C40.0015 43.2733 39.9385 43.1157 39.8125 42.9897C39.6235 42.8322 39.4029 42.7377 39.1509 42.7377H38.1112V45.006H38.4578V44.1554H39.0249L39.6865 45.006H40.0961L39.4029 44.0924ZM38.4578 43.8404V43.0527H39.1194C39.4344 43.0527 39.6235 43.2103 39.6235 43.4308C39.6235 43.6828 39.4029 43.8404 39.0879 43.8404H38.4578ZM39.4029 44.0924C39.7495 43.9979 40.0015 43.8088 40.0015 43.4308C40.0015 43.2733 39.9385 43.1157 39.8125 42.9897C39.6235 42.8322 39.4029 42.7377 39.1509 42.7377H38.1112V45.006H38.4578V44.1554H39.0249L39.6865 45.006H40.0961L39.4029 44.0924ZM38.4578 43.8404V43.0527H39.1194C39.4344 43.0527 39.6235 43.2103 39.6235 43.4308C39.6235 43.6828 39.4029 43.8404 39.0879 43.8404H38.4578ZM39.4029 44.0924C39.7495 43.9979 40.0015 43.8088 40.0015 43.4308C40.0015 43.2733 39.9385 43.1157 39.8125 42.9897C39.6235 42.8322 39.4029 42.7377 39.1509 42.7377H38.1112V45.006H38.4578V44.1554H39.0249L39.6865 45.006H40.0961L39.4029 44.0924ZM38.4578 43.8404V43.0527H39.1194C39.4344 43.0527 39.6235 43.2103 39.6235 43.4308C39.6235 43.6828 39.4029 43.8404 39.0879 43.8404H38.4578ZM39.4029 44.0924C39.7495 43.9979 40.0015 43.8088 40.0015 43.4308C40.0015 43.2733 39.9385 43.1157 39.8125 42.9897C39.6235 42.8322 39.4029 42.7377 39.1509 42.7377H38.1112V45.006H38.4578V44.1554H39.0249L39.6865 45.006H40.0961L39.4029 44.0924ZM38.4578 43.8404V43.0527H39.1194C39.4344 43.0527 39.6235 43.2103 39.6235 43.4308C39.6235 43.6828 39.4029 43.8404 39.0879 43.8404H38.4578ZM39.4029 44.0924C39.7495 43.9979 40.0015 43.8088 40.0015 43.4308C40.0015 43.2733 39.9385 43.1157 39.8125 42.9897C39.6235 42.8322 39.4029 42.7377 39.1509 42.7377H38.1112V45.006H38.4578V44.1554H39.0249L39.6865 45.006H40.0961L39.4029 44.0924ZM38.4578 43.8404V43.0527H39.1194C39.4344 43.0527 39.6235 43.2103 39.6235 43.4308C39.6235 43.6828 39.4029 43.8404 39.0879 43.8404H38.4578ZM39.4029 44.0924C39.7495 43.9979 40.0015 43.8088 40.0015 43.4308C40.0015 43.2733 39.9385 43.1157 39.8125 42.9897C39.6235 42.8322 39.4029 42.7377 39.1509 42.7377H38.1112V45.006H38.4578V44.1554H39.0249L39.6865 45.006H40.0961L39.4029 44.0924ZM38.4578 43.8404V43.0527H39.1194C39.4344 43.0527 39.6235 43.2103 39.6235 43.4308C39.6235 43.6828 39.4029 43.8404 39.0879 43.8404H38.4578ZM39.4029 44.0924C39.7495 43.9979 40.0015 43.8088 40.0015 43.4308C40.0015 43.2733 39.9385 43.1157 39.8125 42.9897C39.6235 42.8322 39.4029 42.7377 39.1509 42.7377H38.1112V45.006H38.4578V44.1554H39.0249L39.6865 45.006H40.0961L39.4029 44.0924ZM38.4578 43.8404V43.0527H39.1194C39.4344 43.0527 39.6235 43.2103 39.6235 43.4308C39.6235 43.6828 39.4029 43.8404 39.0879 43.8404H38.4578ZM39.4029 44.0924C39.7495 43.9979 40.0015 43.8088 40.0015 43.4308C40.0015 43.2733 39.9385 43.1157 39.8125 42.9897C39.6235 42.8322 39.4029 42.7377 39.1509 42.7377H38.1112V45.006H38.4578V44.1554H39.0249L39.6865 45.006H40.0961L39.4029 44.0924ZM38.4578 43.8404V43.0527H39.1194C39.4344 43.0527 39.6235 43.2103 39.6235 43.4308C39.6235 43.6828 39.4029 43.8404 39.0879 43.8404H38.4578ZM39.4029 44.0924C39.7495 43.9979 40.0015 43.8088 40.0015 43.4308C40.0015 43.2733 39.9385 43.1157 39.8125 42.9897C39.6235 42.8322 39.4029 42.7377 39.1509 42.7377H38.1112V45.006H38.4578V44.1554H39.0249L39.6865 45.006H40.0961L39.4029 44.0924ZM38.4578 43.8404V43.0527H39.1194C39.4344 43.0527 39.6235 43.2103 39.6235 43.4308C39.6235 43.6828 39.4029 43.8404 39.0879 43.8404H38.4578ZM39.4029 44.0924C39.7495 43.9979 40.0015 43.8088 40.0015 43.4308C40.0015 43.2733 39.9385 43.1157 39.8125 42.9897C39.6235 42.8322 39.4029 42.7377 39.1509 42.7377H38.1112V45.006H38.4578V44.1554H39.0249L39.6865 45.006H40.0961L39.4029 44.0924ZM38.4578 43.8404V43.0527H39.1194C39.4344 43.0527 39.6235 43.2103 39.6235 43.4308C39.6235 43.6828 39.4029 43.8404 39.0879 43.8404H38.4578ZM39.4029 44.0924C39.7495 43.9979 40.0015 43.8088 40.0015 43.4308C40.0015 43.2733 39.9385 43.1157 39.8125 42.9897C39.6235 42.8322 39.4029 42.7377 39.1509 42.7377H38.1112V45.006H38.4578V44.1554H39.0249L39.6865 45.006H40.0961L39.4029 44.0924ZM38.4578 43.8404V43.0527H39.1194C39.4344 43.0527 39.6235 43.2103 39.6235 43.4308C39.6235 43.6828 39.4029 43.8404 39.0879 43.8404H38.4578ZM39.4029 44.0924C39.7495 43.9979 40.0015 43.8088 40.0015 43.4308C40.0015 43.2733 39.9385 43.1157 39.8125 42.9897C39.6235 42.8322 39.4029 42.7377 39.1509 42.7377H38.1112V45.006H38.4578V44.1554H39.0249L39.6865 45.006H40.0961L39.4029 44.0924ZM38.4578 43.8404V43.0527H39.1194C39.4344 43.0527 39.6235 43.2103 39.6235 43.4308C39.6235 43.6828 39.4029 43.8404 39.0879 43.8404H38.4578ZM39.4029 44.0924C39.7495 43.9979 40.0015 43.8088 40.0015 43.4308C40.0015 43.2733 39.9385 43.1157 39.8125 42.9897C39.6235 42.8322 39.4029 42.7377 39.1509 42.7377H38.1112V45.006H38.4578V44.1554H39.0249L39.6865 45.006H40.0961L39.4029 44.0924ZM38.4578 43.8404V43.0527H39.1194C39.4344 43.0527 39.6235 43.2103 39.6235 43.4308C39.6235 43.6828 39.4029 43.8404 39.0879 43.8404H38.4578ZM39.4029 44.0924C39.7495 43.9979 40.0015 43.8088 40.0015 43.4308C40.0015 43.2733 39.9385 43.1157 39.8125 42.9897C39.6235 42.8322 39.4029 42.7377 39.1509 42.7377H38.1112V45.006H38.4578V44.1554H39.0249L39.6865 45.006H40.0961L39.4029 44.0924ZM38.4578 43.8404V43.0527H39.1194C39.4344 43.0527 39.6235 43.2103 39.6235 43.4308C39.6235 43.6828 39.4029 43.8404 39.0879 43.8404H38.4578ZM39.4029 44.0924C39.7495 43.9979 40.0015 43.8088 40.0015 43.4308C40.0015 43.2733 39.9385 43.1157 39.8125 42.9897C39.6235 42.8322 39.4029 42.7377 39.1509 42.7377H38.1112V45.006H38.4578V44.1554H39.0249L39.6865 45.006H40.0961L39.4029 44.0924ZM38.4578 43.8404V43.0527H39.1194C39.4344 43.0527 39.6235 43.2103 39.6235 43.4308C39.6235 43.6828 39.4029 43.8404 39.0879 43.8404H38.4578ZM39.4029 44.0924C39.7495 43.9979 40.0015 43.8088 40.0015 43.4308C40.0015 43.2733 39.9385 43.1157 39.8125 42.9897C39.6235 42.8322 39.4029 42.7377 39.1509 42.7377H38.1112V45.006H38.4578V44.1554H39.0249L39.6865 45.006H40.0961L39.4029 44.0924ZM38.4578 43.8404V43.0527H39.1194C39.4344 43.0527 39.6235 43.2103 39.6235 43.4308C39.6235 43.6828 39.4029 43.8404 39.0879 43.8404H38.4578ZM39.4029 44.0924C39.7495 43.9979 40.0015 43.8088 40.0015 43.4308C40.0015 43.2733 39.9385 43.1157 39.8125 42.9897C39.6235 42.8322 39.4029 42.7377 39.1509 42.7377H38.1112V45.006H38.4578V44.1554H39.0249L39.6865 45.006H40.0961L39.4029 44.0924ZM38.4578 43.8404V43.0527H39.1194C39.4344 43.0527 39.6235 43.2103 39.6235 43.4308C39.6235 43.6828 39.4029 43.8404 39.0879 43.8404H38.4578ZM39.4029 44.0924C39.7495 43.9979 40.0015 43.8088 40.0015 43.4308C40.0015 43.2733 39.9385 43.1157 39.8125 42.9897C39.6235 42.8322 39.4029 42.7377 39.1509 42.7377H38.1112V45.006H38.4578V44.1554H39.0249L39.6865 45.006H40.0961L39.4029 44.0924ZM38.4578 43.8404V43.0527H39.1194C39.4344 43.0527 39.6235 43.2103 39.6235 43.4308C39.6235 43.6828 39.4029 43.8404 39.0879 43.8404H38.4578ZM38.9934 41.7295C37.7962 41.7295 36.788 42.7377 36.788 43.9349V43.9664C36.788 45.1636 37.7962 46.1717 38.9934 46.1717C40.1906 46.1717 41.1987 45.1636 41.1987 43.9664V43.9349C41.1987 42.7062 40.1906 41.7295 38.9934 41.7295ZM40.9782 43.9349C40.9782 45.0376 40.0646 45.9512 38.9619 45.9512C37.8592 45.9512 36.977 45.0376 36.9455 43.9664V43.9349C36.9455 42.8322 37.8592 41.9185 38.9619 41.9185C40.0961 41.9185 40.9782 42.8007 40.9782 43.9349ZM40.0015 43.4308C40.0015 43.2418 39.9385 43.0842 39.8125 42.9897C39.6235 42.8322 39.4029 42.7377 39.1509 42.7377H38.1112V45.006H38.4578V44.1554H39.0249L39.6865 45.006H40.0961L39.4029 44.0924C39.7495 43.9979 40.0015 43.7773 40.0015 43.4308ZM38.4578 43.8404V43.0527H39.1194C39.4344 43.0527 39.6235 43.2103 39.6235 43.4308C39.6235 43.6828 39.4029 43.8404 39.0879 43.8404H38.4578ZM39.4029 44.0924C39.7495 43.9979 40.0015 43.8088 40.0015 43.4308C40.0015 43.2733 39.9385 43.1157 39.8125 42.9897C39.6235 42.8322 39.4029 42.7377 39.1509 42.7377H38.1112V45.006H38.4578V44.1554H39.0249L39.6865 45.006H40.0961L39.4029 44.0924ZM38.4578 43.8404V43.0527H39.1194C39.4344 43.0527 39.6235 43.2103 39.6235 43.4308C39.6235 43.6828 39.4029 43.8404 39.0879 43.8404H38.4578ZM39.4029 44.0924C39.7495 43.9979 40.0015 43.8088 40.0015 43.4308C40.0015 43.2733 39.9385 43.1157 39.8125 42.9897C39.6235 42.8322 39.4029 42.7377 39.1509 42.7377H38.1112V45.006H38.4578V44.1554H39.0249L39.6865 45.006H40.0961L39.4029 44.0924ZM38.4578 43.8404V43.0527H39.1194C39.4344 43.0527 39.6235 43.2103 39.6235 43.4308C39.6235 43.6828 39.4029 43.8404 39.0879 43.8404H38.4578ZM39.4029 44.0924C39.7495 43.9979 40.0015 43.8088 40.0015 43.4308C40.0015 43.2733 39.9385 43.1157 39.8125 42.9897C39.6235 42.8322 39.4029 42.7377 39.1509 42.7377H38.1112V45.006H38.4578V44.1554H39.0249L39.6865 45.006H40.0961L39.4029 44.0924ZM38.4578 43.8404V43.0527H39.1194C39.4344 43.0527 39.6235 43.2103 39.6235 43.4308C39.6235 43.6828 39.4029 43.8404 39.0879 43.8404H38.4578ZM39.4029 44.0924C39.7495 43.9979 40.0015 43.8088 40.0015 43.4308C40.0015 43.2733 39.9385 43.1157 39.8125 42.9897C39.6235 42.8322 39.4029 42.7377 39.1509 42.7377H38.1112V45.006H38.4578V44.1554H39.0249L39.6865 45.006H40.0961L39.4029 44.0924ZM38.4578 43.8404V43.0527H39.1194C39.4344 43.0527 39.6235 43.2103 39.6235 43.4308C39.6235 43.6828 39.4029 43.8404 39.0879 43.8404H38.4578ZM39.4029 44.0924C39.7495 43.9979 40.0015 43.8088 40.0015 43.4308C40.0015 43.2733 39.9385 43.1157 39.8125 42.9897C39.6235 42.8322 39.4029 42.7377 39.1509 42.7377H38.1112V45.006H38.4578V44.1554H39.0249L39.6865 45.006H40.0961L39.4029 44.0924ZM38.4578 43.8404V43.0527H39.1194C39.4344 43.0527 39.6235 43.2103 39.6235 43.4308C39.6235 43.6828 39.4029 43.8404 39.0879 43.8404H38.4578ZM39.4029 44.0924C39.7495 43.9979 40.0015 43.8088 40.0015 43.4308C40.0015 43.2733 39.9385 43.1157 39.8125 42.9897C39.6235 42.8322 39.4029 42.7377 39.1509 42.7377H38.1112V45.006H38.4578V44.1554H39.0249L39.6865 45.006H40.0961L39.4029 44.0924ZM38.4578 43.8404V43.0527H39.1194C39.4344 43.0527 39.6235 43.2103 39.6235 43.4308C39.6235 43.6828 39.4029 43.8404 39.0879 43.8404H38.4578ZM39.4029 44.0924C39.7495 43.9979 40.0015 43.8088 40.0015 43.4308C40.0015 43.2733 39.9385 43.1157 39.8125 42.9897C39.6235 42.8322 39.4029 42.7377 39.1509 42.7377H38.1112V45.006H38.4578V44.1554H39.0249L39.6865 45.006H40.0961L39.4029 44.0924ZM38.4578 43.8404V43.0527H39.1194C39.4344 43.0527 39.6235 43.2103 39.6235 43.4308C39.6235 43.6828 39.4029 43.8404 39.0879 43.8404H38.4578ZM39.4029 44.0924C39.7495 43.9979 40.0015 43.8088 40.0015 43.4308C40.0015 43.2733 39.9385 43.1157 39.8125 42.9897C39.6235 42.8322 39.4029 42.7377 39.1509 42.7377H38.1112V45.006H38.4578V44.1554H39.0249L39.6865 45.006H40.0961L39.4029 44.0924ZM38.4578 43.8404V43.0527H39.1194C39.4344 43.0527 39.6235 43.2103 39.6235 43.4308C39.6235 43.6828 39.4029 43.8404 39.0879 43.8404H38.4578ZM39.4029 44.0924C39.7495 43.9979 40.0015 43.8088 40.0015 43.4308C40.0015 43.2733 39.9385 43.1157 39.8125 42.9897C39.6235 42.8322 39.4029 42.7377 39.1509 42.7377H38.1112V45.006H38.4578V44.1554H39.0249L39.6865 45.006H40.0961L39.4029 44.0924ZM38.4578 43.8404V43.0527H39.1194C39.4344 43.0527 39.6235 43.2103 39.6235 43.4308C39.6235 43.6828 39.4029 43.8404 39.0879 43.8404H38.4578ZM39.4029 44.0924C39.7495 43.9979 40.0015 43.8088 40.0015 43.4308C40.0015 43.2733 39.9385 43.1157 39.8125 42.9897C39.6235 42.8322 39.4029 42.7377 39.1509 42.7377H38.1112V45.006H38.4578V44.1554H39.0249L39.6865 45.006H40.0961L39.4029 44.0924ZM38.4578 43.8404V43.0527H39.1194C39.4344 43.0527 39.6235 43.2103 39.6235 43.4308C39.6235 43.6828 39.4029 43.8404 39.0879 43.8404H38.4578ZM39.4029 44.0924C39.7495 43.9979 40.0015 43.8088 40.0015 43.4308C40.0015 43.2733 39.9385 43.1157 39.8125 42.9897C39.6235 42.8322 39.4029 42.7377 39.1509 42.7377H38.1112V45.006H38.4578V44.1554H39.0249L39.6865 45.006H40.0961L39.4029 44.0924ZM38.4578 43.8404V43.0527H39.1194C39.4344 43.0527 39.6235 43.2103 39.6235 43.4308C39.6235 43.6828 39.4029 43.8404 39.0879 43.8404H38.4578ZM39.4029 44.0924C39.7495 43.9979 40.0015 43.8088 40.0015 43.4308C40.0015 43.2733 39.9385 43.1157 39.8125 42.9897C39.6235 42.8322 39.4029 42.7377 39.1509 42.7377H38.1112V45.006H38.4578V44.1554H39.0249L39.6865 45.006H40.0961L39.4029 44.0924ZM38.4578 43.8404V43.0527H39.1194C39.4344 43.0527 39.6235 43.2103 39.6235 43.4308C39.6235 43.6828 39.4029 43.8404 39.0879 43.8404H38.4578ZM39.4029 44.0924C39.7495 43.9979 40.0015 43.8088 40.0015 43.4308C40.0015 43.2733 39.9385 43.1157 39.8125 42.9897C39.6235 42.8322 39.4029 42.7377 39.1509 42.7377H38.1112V45.006H38.4578V44.1554H39.0249L39.6865 45.006H40.0961L39.4029 44.0924ZM38.4578 43.8404V43.0527H39.1194C39.4344 43.0527 39.6235 43.2103 39.6235 43.4308C39.6235 43.6828 39.4029 43.8404 39.0879 43.8404H38.4578ZM39.4029 44.0924C39.7495 43.9979 40.0015 43.8088 40.0015 43.4308C40.0015 43.2733 39.9385 43.1157 39.8125 42.9897C39.6235 42.8322 39.4029 42.7377 39.1509 42.7377H38.1112V45.006H38.4578V44.1554H39.0249L39.6865 45.006H40.0961L39.4029 44.0924ZM38.4578 43.8404V43.0527H39.1194C39.4344 43.0527 39.6235 43.2103 39.6235 43.4308C39.6235 43.6828 39.4029 43.8404 39.0879 43.8404H38.4578ZM39.4029 44.0924C39.7495 43.9979 40.0015 43.8088 40.0015 43.4308C40.0015 43.2733 39.9385 43.1157 39.8125 42.9897C39.6235 42.8322 39.4029 42.7377 39.1509 42.7377H38.1112V45.006H38.4578V44.1554H39.0249L39.6865 45.006H40.0961L39.4029 44.0924ZM38.4578 43.8404V43.0527H39.1194C39.4344 43.0527 39.6235 43.2103 39.6235 43.4308C39.6235 43.6828 39.4029 43.8404 39.0879 43.8404H38.4578ZM39.4029 44.0924C39.7495 43.9979 40.0015 43.8088 40.0015 43.4308C40.0015 43.2733 39.9385 43.1157 39.8125 42.9897C39.6235 42.8322 39.4029 42.7377 39.1509 42.7377H38.1112V45.006H38.4578V44.1554H39.0249L39.6865 45.006H40.0961L39.4029 44.0924ZM38.4578 43.8404V43.0527H39.1194C39.4344 43.0527 39.6235 43.2103 39.6235 43.4308C39.6235 43.6828 39.4029 43.8404 39.0879 43.8404H38.4578ZM39.4029 44.0924C39.7495 43.9979 40.0015 43.8088 40.0015 43.4308C40.0015 43.2733 39.9385 43.1157 39.8125 42.9897C39.6235 42.8322 39.4029 42.7377 39.1509 42.7377H38.1112V45.006H38.4578V44.1554H39.0249L39.6865 45.006H40.0961L39.4029 44.0924ZM38.4578 43.8404V43.0527H39.1194C39.4344 43.0527 39.6235 43.2103 39.6235 43.4308C39.6235 43.6828 39.4029 43.8404 39.0879 43.8404H38.4578ZM39.4029 44.0924C39.7495 43.9979 40.0015 43.8088 40.0015 43.4308C40.0015 43.2733 39.9385 43.1157 39.8125 42.9897C39.6235 42.8322 39.4029 42.7377 39.1509 42.7377H38.1112V45.006H38.4578V44.1554H39.0249L39.6865 45.006H40.0961L39.4029 44.0924ZM38.4578 43.8404V43.0527H39.1194C39.4344 43.0527 39.6235 43.2103 39.6235 43.4308C39.6235 43.6828 39.4029 43.8404 39.0879 43.8404H38.4578ZM35.5278 43.2103C35.3388 41.95 34.8347 41.6665 33.8265 41.2254C34.5827 40.7843 35.0552 40.1227 35.0552 39.2091C35.0552 37.4133 33.5745 36.6887 31.9677 36.6887H27.494V46.2663H31.9677C33.858 46.2348 35.8744 45.3841 35.5278 43.2103ZM29.5418 38.4845H31.8732C33.3224 38.4845 33.3855 40.5323 31.9677 40.5323H29.5418V38.4845ZM32.1252 44.4074H29.5103V42.2336H32.1252C34.0471 42.2336 33.921 44.4074 32.1252 44.4074ZM30.739 30.4506H14.5139L13.9468 32.3724H18.2945L19.0821 35.0189H26.2023L26.9899 32.3724H31.3376L30.739 30.4506ZM29.3843 11.0119L23.6189 6.82169C22.7997 6.25459 22.3902 5.24643 23.0833 4.30127L22.5792 3.95471L19.3026 8.49147C17.7589 10.6338 18.326 14.2569 20.4368 15.8007L25.8242 19.7388C26.9269 20.5265 27.0529 22.5743 26.2653 23.6455L26.7379 23.992L30.4555 18.7622C32.1252 16.3678 32.0307 12.9022 29.3843 11.0119ZM26.6118 43.2103C26.4228 41.95 25.9187 41.6665 24.9106 41.1939C25.6667 40.7528 26.1393 40.0912 26.1393 39.1776C26.1393 37.3818 24.6585 36.6572 23.0518 36.6572H18.5465V46.2348H23.0203C24.9106 46.2348 26.9269 45.3841 26.6118 43.2103ZM20.5944 38.4845H22.9257C24.375 38.4845 24.438 40.5323 23.0203 40.5323H20.5944V38.4845ZM23.2093 44.4074H20.5944V42.2336H23.2093C25.0996 42.2336 25.0051 44.4074 23.2093 44.4074ZM23.9654 21.4086L20.0273 18.5416C19.5547 18.1951 19.4917 17.7225 19.7752 17.1869L19.2081 16.7458L17.0973 19.6443C16.0576 21.0936 16.3727 23.677 17.8219 24.7167L21.7285 27.5206C22.3902 27.9932 22.4532 28.4973 22.1381 29.0014L22.7052 29.411L24.69 26.67C25.8872 25.0317 25.7927 22.7003 23.9654 21.4086ZM17.6959 43.2103C17.5069 41.95 17.0028 41.6665 15.9946 41.1939C16.7507 40.7528 17.2233 40.0912 17.2233 39.1776C17.2233 37.3818 15.7426 36.6572 14.1358 36.6572H9.63056V46.2348H14.1043C15.9946 46.2348 18.0109 45.3841 17.6959 43.2103ZM11.6469 38.4845H13.9783C15.4275 38.4845 15.4905 40.5323 14.0728 40.5323H11.6469V38.4845ZM14.2618 44.4074H11.6469V42.2336H14.2618C16.1836 42.2336 16.0576 44.4074 14.2618 44.4074Z" fill="white"/>
<path fill-rule="evenodd" clip-rule="evenodd" d="M29.3843 11.0119L23.6189 6.82169C22.7997 6.25459 22.3902 5.24643 23.0833 4.30127L22.5792 3.95471L19.3026 8.49147C17.7589 10.6338 18.326 14.2569 20.4368 15.8007L25.8242 19.7388C26.9269 20.5265 27.0529 22.5743 26.2653 23.6455L26.7379 23.992L30.4555 18.7622C32.1252 16.3678 32.0307 12.9022 29.3843 11.0119ZM23.9654 21.4086L20.0273 18.5416C19.5547 18.1951 19.4917 17.7225 19.7752 17.1869L19.2081 16.7458L17.0973 19.6443C16.0576 21.0936 16.3727 23.677 17.8219 24.7167L21.7285 27.5206C22.3902 27.9932 22.4532 28.4973 22.1381 29.0014L22.7052 29.411L24.69 26.67C25.8872 25.0317 25.7927 22.7003 23.9654 21.4086ZM30.739 30.4506H14.5139L13.9468 32.3724H18.2945L19.0821 35.0189H26.2023L26.9899 32.3724H31.3376L30.739 30.4506ZM39.4029 44.0924C39.7495 43.9979 40.0015 43.8088 40.0015 43.4308C40.0015 43.2733 39.9385 43.1157 39.8125 42.9897C39.6235 42.8322 39.4029 42.7377 39.1509 42.7377H38.1112V45.006H38.4578V44.1554H39.0249L39.6865 45.006H40.0961L39.4029 44.0924ZM38.4578 43.8404V43.0527H39.1194C39.4344 43.0527 39.6235 43.2103 39.6235 43.4308C39.6235 43.6828 39.4029 43.8404 39.0879 43.8404H38.4578ZM39.4029 44.0924C39.7495 43.9979 40.0015 43.8088 40.0015 43.4308C40.0015 43.2733 39.9385 43.1157 39.8125 42.9897C39.6235 42.8322 39.4029 42.7377 39.1509 42.7377H38.1112V45.006H38.4578V44.1554H39.0249L39.6865 45.006H40.0961L39.4029 44.0924ZM38.4578 43.8404V43.0527H39.1194C39.4344 43.0527 39.6235 43.2103 39.6235 43.4308C39.6235 43.6828 39.4029 43.8404 39.0879 43.8404H38.4578ZM39.4029 44.0924C39.7495 43.9979 40.0015 43.8088 40.0015 43.4308C40.0015 43.2733 39.9385 43.1157 39.8125 42.9897C39.6235 42.8322 39.4029 42.7377 39.1509 42.7377H38.1112V45.006H38.4578V44.1554H39.0249L39.6865 45.006H40.0961L39.4029 44.0924ZM38.4578 43.8404V43.0527H39.1194C39.4344 43.0527 39.6235 43.2103 39.6235 43.4308C39.6235 43.6828 39.4029 43.8404 39.0879 43.8404H38.4578ZM39.4029 44.0924C39.7495 43.9979 40.0015 43.8088 40.0015 43.4308C40.0015 43.2733 39.9385 43.1157 39.8125 42.9897C39.6235 42.8322 39.4029 42.7377 39.1509 42.7377H38.1112V45.006H38.4578V44.1554H39.0249L39.6865 45.006H40.0961L39.4029 44.0924ZM38.4578 43.8404V43.0527H39.1194C39.4344 43.0527 39.6235 43.2103 39.6235 43.4308C39.6235 43.6828 39.4029 43.8404 39.0879 43.8404H38.4578ZM39.4029 44.0924C39.7495 43.9979 40.0015 43.8088 40.0015 43.4308C40.0015 43.2733 39.9385 43.1157 39.8125 42.9897C39.6235 42.8322 39.4029 42.7377 39.1509 42.7377H38.1112V45.006H38.4578V44.1554H39.0249L39.6865 45.006H40.0961L39.4029 44.0924ZM38.4578 43.8404V43.0527H39.1194C39.4344 43.0527 39.6235 43.2103 39.6235 43.4308C39.6235 43.6828 39.4029 43.8404 39.0879 43.8404H38.4578ZM39.4029 44.0924C39.7495 43.9979 40.0015 43.8088 40.0015 43.4308C40.0015 43.2733 39.9385 43.1157 39.8125 42.9897C39.6235 42.8322 39.4029 42.7377 39.1509 42.7377H38.1112V45.006H38.4578V44.1554H39.0249L39.6865 45.006H40.0961L39.4029 44.0924ZM38.4578 43.8404V43.0527H39.1194C39.4344 43.0527 39.6235 43.2103 39.6235 43.4308C39.6235 43.6828 39.4029 43.8404 39.0879 43.8404H38.4578ZM39.4029 44.0924C39.7495 43.9979 40.0015 43.8088 40.0015 43.4308C40.0015 43.2733 39.9385 43.1157 39.8125 42.9897C39.6235 42.8322 39.4029 42.7377 39.1509 42.7377H38.1112V45.006H38.4578V44.1554H39.0249L39.6865 45.006H40.0961L39.4029 44.0924ZM38.4578 43.8404V43.0527H39.1194C39.4344 43.0527 39.6235 43.2103 39.6235 43.4308C39.6235 43.6828 39.4029 43.8404 39.0879 43.8404H38.4578ZM39.4029 44.0924C39.7495 43.9979 40.0015 43.8088 40.0015 43.4308C40.0015 43.2733 39.9385 43.1157 39.8125 42.9897C39.6235 42.8322 39.4029 42.7377 39.1509 42.7377H38.1112V45.006H38.4578V44.1554H39.0249L39.6865 45.006H40.0961L39.4029 44.0924ZM38.4578 43.8404V43.0527H39.1194C39.4344 43.0527 39.6235 43.2103 39.6235 43.4308C39.6235 43.6828 39.4029 43.8404 39.0879 43.8404H38.4578ZM39.4029 44.0924C39.7495 43.9979 40.0015 43.8088 40.0015 43.4308C40.0015 43.2733 39.9385 43.1157 39.8125 42.9897C39.6235 42.8322 39.4029 42.7377 39.1509 42.7377H38.1112V45.006H38.4578V44.1554H39.0249L39.6865 45.006H40.0961L39.4029 44.0924ZM38.4578 43.8404V43.0527H39.1194C39.4344 43.0527 39.6235 43.2103 39.6235 43.4308C39.6235 43.6828 39.4029 43.8404 39.0879 43.8404H38.4578ZM39.4029 44.0924C39.7495 43.9979 40.0015 43.8088 40.0015 43.4308C40.0015 43.2733 39.9385 43.1157 39.8125 42.9897C39.6235 42.8322 39.4029 42.7377 39.1509 42.7377H38.1112V45.006H38.4578V44.1554H39.0249L39.6865 45.006H40.0961L39.4029 44.0924ZM38.4578 43.8404V43.0527H39.1194C39.4344 43.0527 39.6235 43.2103 39.6235 43.4308C39.6235 43.6828 39.4029 43.8404 39.0879 43.8404H38.4578ZM39.4029 44.0924C39.7495 43.9979 40.0015 43.8088 40.0015 43.4308C40.0015 43.2733 39.9385 43.1157 39.8125 42.9897C39.6235 42.8322 39.4029 42.7377 39.1509 42.7377H38.1112V45.006H38.4578V44.1554H39.0249L39.6865 45.006H40.0961L39.4029 44.0924ZM38.4578 43.8404V43.0527H39.1194C39.4344 43.0527 39.6235 43.2103 39.6235 43.4308C39.6235 43.6828 39.4029 43.8404 39.0879 43.8404H38.4578ZM39.4029 44.0924C39.7495 43.9979 40.0015 43.8088 40.0015 43.4308C40.0015 43.2733 39.9385 43.1157 39.8125 42.9897C39.6235 42.8322 39.4029 42.7377 39.1509 42.7377H38.1112V45.006H38.4578V44.1554H39.0249L39.6865 45.006H40.0961L39.4029 44.0924ZM38.4578 43.8404V43.0527H39.1194C39.4344 43.0527 39.6235 43.2103 39.6235 43.4308C39.6235 43.6828 39.4029 43.8404 39.0879 43.8404H38.4578ZM39.4029 44.0924C39.7495 43.9979 40.0015 43.8088 40.0015 43.4308C40.0015 43.2733 39.9385 43.1157 39.8125 42.9897C39.6235 42.8322 39.4029 42.7377 39.1509 42.7377H38.1112V45.006H38.4578V44.1554H39.0249L39.6865 45.006H40.0961L39.4029 44.0924ZM38.4578 43.8404V43.0527H39.1194C39.4344 43.0527 39.6235 43.2103 39.6235 43.4308C39.6235 43.6828 39.4029 43.8404 39.0879 43.8404H38.4578ZM39.4029 44.0924C39.7495 43.9979 40.0015 43.8088 40.0015 43.4308C40.0015 43.2733 39.9385 43.1157 39.8125 42.9897C39.6235 42.8322 39.4029 42.7377 39.1509 42.7377H38.1112V45.006H38.4578V44.1554H39.0249L39.6865 45.006H40.0961L39.4029 44.0924ZM38.4578 43.8404V43.0527H39.1194C39.4344 43.0527 39.6235 43.2103 39.6235 43.4308C39.6235 43.6828 39.4029 43.8404 39.0879 43.8404H38.4578ZM39.4029 44.0924C39.7495 43.9979 40.0015 43.8088 40.0015 43.4308C40.0015 43.2733 39.9385 43.1157 39.8125 42.9897C39.6235 42.8322 39.4029 42.7377 39.1509 42.7377H38.1112V45.006H38.4578V44.1554H39.0249L39.6865 45.006H40.0961L39.4029 44.0924ZM38.4578 43.8404V43.0527H39.1194C39.4344 43.0527 39.6235 43.2103 39.6235 43.4308C39.6235 43.6828 39.4029 43.8404 39.0879 43.8404H38.4578ZM39.4029 44.0924C39.7495 43.9979 40.0015 43.8088 40.0015 43.4308C40.0015 43.2733 39.9385 43.1157 39.8125 42.9897C39.6235 42.8322 39.4029 42.7377 39.1509 42.7377H38.1112V45.006H38.4578V44.1554H39.0249L39.6865 45.006H40.0961L39.4029 44.0924ZM38.4578 43.8404V43.0527H39.1194C39.4344 43.0527 39.6235 43.2103 39.6235 43.4308C39.6235 43.6828 39.4029 43.8404 39.0879 43.8404H38.4578ZM39.4029 44.0924C39.7495 43.9979 40.0015 43.8088 40.0015 43.4308C40.0015 43.2733 39.9385 43.1157 39.8125 42.9897C39.6235 42.8322 39.4029 42.7377 39.1509 42.7377H38.1112V45.006H38.4578V44.1554H39.0249L39.6865 45.006H40.0961L39.4029 44.0924ZM38.4578 43.8404V43.0527H39.1194C39.4344 43.0527 39.6235 43.2103 39.6235 43.4308C39.6235 43.6828 39.4029 43.8404 39.0879 43.8404H38.4578ZM39.4029 44.0924C39.7495 43.9979 40.0015 43.8088 40.0015 43.4308C40.0015 43.2733 39.9385 43.1157 39.8125 42.9897C39.6235 42.8322 39.4029 42.7377 39.1509 42.7377H38.1112V45.006H38.4578V44.1554H39.0249L39.6865 45.006H40.0961L39.4029 44.0924ZM38.4578 43.8404V43.0527H39.1194C39.4344 43.0527 39.6235 43.2103 39.6235 43.4308C39.6235 43.6828 39.4029 43.8404 39.0879 43.8404H38.4578ZM39.4029 44.0924C39.7495 43.9979 40.0015 43.8088 40.0015 43.4308C40.0015 43.2733 39.9385 43.1157 39.8125 42.9897C39.6235 42.8322 39.4029 42.7377 39.1509 42.7377H38.1112V45.006H38.4578V44.1554H39.0249L39.6865 45.006H40.0961L39.4029 44.0924ZM38.4578 43.8404V43.0527H39.1194C39.4344 43.0527 39.6235 43.2103 39.6235 43.4308C39.6235 43.6828 39.4029 43.8404 39.0879 43.8404H38.4578ZM39.4029 44.0924C39.7495 43.9979 40.0015 43.8088 40.0015 43.4308C40.0015 43.2733 39.9385 43.1157 39.8125 42.9897C39.6235 42.8322 39.4029 42.7377 39.1509 42.7377H38.1112V45.006H38.4578V44.1554H39.0249L39.6865 45.006H40.0961L39.4029 44.0924ZM38.4578 43.8404V43.0527H39.1194C39.4344 43.0527 39.6235 43.2103 39.6235 43.4308C39.6235 43.6828 39.4029 43.8404 39.0879 43.8404H38.4578ZM39.4029 44.0924C39.7495 43.9979 40.0015 43.8088 40.0015 43.4308C40.0015 43.2733 39.9385 43.1157 39.8125 42.9897C39.6235 42.8322 39.4029 42.7377 39.1509 42.7377H38.1112V45.006H38.4578V44.1554H39.0249L39.6865 45.006H40.0961L39.4029 44.0924ZM38.4578 43.8404V43.0527H39.1194C39.4344 43.0527 39.6235 43.2103 39.6235 43.4308C39.6235 43.6828 39.4029 43.8404 39.0879 43.8404H38.4578ZM39.4029 44.0924C39.7495 43.9979 40.0015 43.8088 40.0015 43.4308C40.0015 43.2733 39.9385 43.1157 39.8125 42.9897C39.6235 42.8322 39.4029 42.7377 39.1509 42.7377H38.1112V45.006H38.4578V44.1554H39.0249L39.6865 45.006H40.0961L39.4029 44.0924ZM38.4578 43.8404V43.0527H39.1194C39.4344 43.0527 39.6235 43.2103 39.6235 43.4308C39.6235 43.6828 39.4029 43.8404 39.0879 43.8404H38.4578ZM39.4029 44.0924C39.7495 43.9979 40.0015 43.8088 40.0015 43.4308C40.0015 43.2733 39.9385 43.1157 39.8125 42.9897C39.6235 42.8322 39.4029 42.7377 39.1509 42.7377H38.1112V45.006H38.4578V44.1554H39.0249L39.6865 45.006H40.0961L39.4029 44.0924ZM38.4578 43.8404V43.0527H39.1194C39.4344 43.0527 39.6235 43.2103 39.6235 43.4308C39.6235 43.6828 39.4029 43.8404 39.0879 43.8404H38.4578ZM39.4029 44.0924C39.7495 43.9979 40.0015 43.8088 40.0015 43.4308C40.0015 43.2733 39.9385 43.1157 39.8125 42.9897C39.6235 42.8322 39.4029 42.7377 39.1509 42.7377H38.1112V45.006H38.4578V44.1554H39.0249L39.6865 45.006H40.0961L39.4029 44.0924ZM38.4578 43.8404V43.0527H39.1194C39.4344 43.0527 39.6235 43.2103 39.6235 43.4308C39.6235 43.6828 39.4029 43.8404 39.0879 43.8404H38.4578ZM39.4029 44.0924C39.7495 43.9979 40.0015 43.8088 40.0015 43.4308C40.0015 43.2733 39.9385 43.1157 39.8125 42.9897C39.6235 42.8322 39.4029 42.7377 39.1509 42.7377H38.1112V45.006H38.4578V44.1554H39.0249L39.6865 45.006H40.0961L39.4029 44.0924ZM38.4578 43.8404V43.0527H39.1194C39.4344 43.0527 39.6235 43.2103 39.6235 43.4308C39.6235 43.6828 39.4029 43.8404 39.0879 43.8404H38.4578ZM39.4029 44.0924C39.7495 43.9979 40.0015 43.8088 40.0015 43.4308C40.0015 43.2733 39.9385 43.1157 39.8125 42.9897C39.6235 42.8322 39.4029 42.7377 39.1509 42.7377H38.1112V45.006H38.4578V44.1554H39.0249L39.6865 45.006H40.0961L39.4029 44.0924ZM38.4578 43.8404V43.0527H39.1194C39.4344 43.0527 39.6235 43.2103 39.6235 43.4308C39.6235 43.6828 39.4029 43.8404 39.0879 43.8404H38.4578ZM39.4029 44.0924C39.7495 43.9979 40.0015 43.8088 40.0015 43.4308C40.0015 43.2733 39.9385 43.1157 39.8125 42.9897C39.6235 42.8322 39.4029 42.7377 39.1509 42.7377H38.1112V45.006H38.4578V44.1554H39.0249L39.6865 45.006H40.0961L39.4029 44.0924ZM38.4578 43.8404V43.0527H39.1194C39.4344 43.0527 39.6235 43.2103 39.6235 43.4308C39.6235 43.6828 39.4029 43.8404 39.0879 43.8404H38.4578ZM39.4029 44.0924C39.7495 43.9979 40.0015 43.8088 40.0015 43.4308C40.0015 43.2733 39.9385 43.1157 39.8125 42.9897C39.6235 42.8322 39.4029 42.7377 39.1509 42.7377H38.1112V45.006H38.4578V44.1554H39.0249L39.6865 45.006H40.0961L39.4029 44.0924ZM38.4578 43.8404V43.0527H39.1194C39.4344 43.0527 39.6235 43.2103 39.6235 43.4308C39.6235 43.6828 39.4029 43.8404 39.0879 43.8404H38.4578ZM38.9934 41.7295C37.7962 41.7295 36.788 42.7377 36.788 43.9349V43.9664C36.788 45.1636 37.7962 46.1717 38.9934 46.1717C40.1906 46.1717 41.1987 45.1636 41.1987 43.9664V43.9349C41.1987 42.7062 40.1906 41.7295 38.9934 41.7295ZM40.9782 43.9349C40.9782 45.0376 40.0646 45.9512 38.9619 45.9512C37.8592 45.9512 36.977 45.0376 36.9455 43.9664V43.9349C36.9455 42.8322 37.8592 41.9185 38.9619 41.9185C40.0961 41.9185 40.9782 42.8007 40.9782 43.9349ZM40.0015 43.4308C40.0015 43.2418 39.9385 43.0842 39.8125 42.9897C39.6235 42.8322 39.4029 42.7377 39.1509 42.7377H38.1112V45.006H38.4578V44.1554H39.0249L39.6865 45.006H40.0961L39.4029 44.0924C39.7495 43.9979 40.0015 43.7773 40.0015 43.4308ZM38.4578 43.8404V43.0527H39.1194C39.4344 43.0527 39.6235 43.2103 39.6235 43.4308C39.6235 43.6828 39.4029 43.8404 39.0879 43.8404H38.4578ZM39.4029 44.0924C39.7495 43.9979 40.0015 43.8088 40.0015 43.4308C40.0015 43.2733 39.9385 43.1157 39.8125 42.9897C39.6235 42.8322 39.4029 42.7377 39.1509 42.7377H38.1112V45.006H38.4578V44.1554H39.0249L39.6865 45.006H40.0961L39.4029 44.0924ZM38.4578 43.8404V43.0527H39.1194C39.4344 43.0527 39.6235 43.2103 39.6235 43.4308C39.6235 43.6828 39.4029 43.8404 39.0879 43.8404H38.4578ZM39.4029 44.0924C39.7495 43.9979 40.0015 43.8088 40.0015 43.4308C40.0015 43.2733 39.9385 43.1157 39.8125 42.9897C39.6235 42.8322 39.4029 42.7377 39.1509 42.7377H38.1112V45.006H38.4578V44.1554H39.0249L39.6865 45.006H40.0961L39.4029 44.0924ZM38.4578 43.8404V43.0527H39.1194C39.4344 43.0527 39.6235 43.2103 39.6235 43.4308C39.6235 43.6828 39.4029 43.8404 39.0879 43.8404H38.4578ZM39.4029 44.0924C39.7495 43.9979 40.0015 43.8088 40.0015 43.4308C40.0015 43.2733 39.9385 43.1157 39.8125 42.9897C39.6235 42.8322 39.4029 42.7377 39.1509 42.7377H38.1112V45.006H38.4578V44.1554H39.0249L39.6865 45.006H40.0961L39.4029 44.0924ZM38.4578 43.8404V43.0527H39.1194C39.4344 43.0527 39.6235 43.2103 39.6235 43.4308C39.6235 43.6828 39.4029 43.8404 39.0879 43.8404H38.4578ZM39.4029 44.0924C39.7495 43.9979 40.0015 43.8088 40.0015 43.4308C40.0015 43.2733 39.9385 43.1157 39.8125 42.9897C39.6235 42.8322 39.4029 42.7377 39.1509 42.7377H38.1112V45.006H38.4578V44.1554H39.0249L39.6865 45.006H40.0961L39.4029 44.0924ZM38.4578 43.8404V43.0527H39.1194C39.4344 43.0527 39.6235 43.2103 39.6235 43.4308C39.6235 43.6828 39.4029 43.8404 39.0879 43.8404H38.4578ZM39.4029 44.0924C39.7495 43.9979 40.0015 43.8088 40.0015 43.4308C40.0015 43.2733 39.9385 43.1157 39.8125 42.9897C39.6235 42.8322 39.4029 42.7377 39.1509 42.7377H38.1112V45.006H38.4578V44.1554H39.0249L39.6865 45.006H40.0961L39.4029 44.0924ZM38.4578 43.8404V43.0527H39.1194C39.4344 43.0527 39.6235 43.2103 39.6235 43.4308C39.6235 43.6828 39.4029 43.8404 39.0879 43.8404H38.4578ZM39.4029 44.0924C39.7495 43.9979 40.0015 43.8088 40.0015 43.4308C40.0015 43.2733 39.9385 43.1157 39.8125 42.9897C39.6235 42.8322 39.4029 42.7377 39.1509 42.7377H38.1112V45.006H38.4578V44.1554H39.0249L39.6865 45.006H40.0961L39.4029 44.0924ZM38.4578 43.8404V43.0527H39.1194C39.4344 43.0527 39.6235 43.2103 39.6235 43.4308C39.6235 43.6828 39.4029 43.8404 39.0879 43.8404H38.4578ZM39.4029 44.0924C39.7495 43.9979 40.0015 43.8088 40.0015 43.4308C40.0015 43.2733 39.9385 43.1157 39.8125 42.9897C39.6235 42.8322 39.4029 42.7377 39.1509 42.7377H38.1112V45.006H38.4578V44.1554H39.0249L39.6865 45.006H40.0961L39.4029 44.0924ZM38.4578 43.8404V43.0527H39.1194C39.4344 43.0527 39.6235 43.2103 39.6235 43.4308C39.6235 43.6828 39.4029 43.8404 39.0879 43.8404H38.4578ZM39.4029 44.0924C39.7495 43.9979 40.0015 43.8088 40.0015 43.4308C40.0015 43.2733 39.9385 43.1157 39.8125 42.9897C39.6235 42.8322 39.4029 42.7377 39.1509 42.7377H38.1112V45.006H38.4578V44.1554H39.0249L39.6865 45.006H40.0961L39.4029 44.0924ZM38.4578 43.8404V43.0527H39.1194C39.4344 43.0527 39.6235 43.2103 39.6235 43.4308C39.6235 43.6828 39.4029 43.8404 39.0879 43.8404H38.4578ZM39.4029 44.0924C39.7495 43.9979 40.0015 43.8088 40.0015 43.4308C40.0015 43.2733 39.9385 43.1157 39.8125 42.9897C39.6235 42.8322 39.4029 42.7377 39.1509 42.7377H38.1112V45.006H38.4578V44.1554H39.0249L39.6865 45.006H40.0961L39.4029 44.0924ZM38.4578 43.8404V43.0527H39.1194C39.4344 43.0527 39.6235 43.2103 39.6235 43.4308C39.6235 43.6828 39.4029 43.8404 39.0879 43.8404H38.4578ZM39.4029 44.0924C39.7495 43.9979 40.0015 43.8088 40.0015 43.4308C40.0015 43.2733 39.9385 43.1157 39.8125 42.9897C39.6235 42.8322 39.4029 42.7377 39.1509 42.7377H38.1112V45.006H38.4578V44.1554H39.0249L39.6865 45.006H40.0961L39.4029 44.0924ZM38.4578 43.8404V43.0527H39.1194C39.4344 43.0527 39.6235 43.2103 39.6235 43.4308C39.6235 43.6828 39.4029 43.8404 39.0879 43.8404H38.4578ZM39.4029 44.0924C39.7495 43.9979 40.0015 43.8088 40.0015 43.4308C40.0015 43.2733 39.9385 43.1157 39.8125 42.9897C39.6235 42.8322 39.4029 42.7377 39.1509 42.7377H38.1112V45.006H38.4578V44.1554H39.0249L39.6865 45.006H40.0961L39.4029 44.0924ZM38.4578 43.8404V43.0527H39.1194C39.4344 43.0527 39.6235 43.2103 39.6235 43.4308C39.6235 43.6828 39.4029 43.8404 39.0879 43.8404H38.4578ZM39.4029 44.0924C39.7495 43.9979 40.0015 43.8088 40.0015 43.4308C40.0015 43.2733 39.9385 43.1157 39.8125 42.9897C39.6235 42.8322 39.4029 42.7377 39.1509 42.7377H38.1112V45.006H38.4578V44.1554H39.0249L39.6865 45.006H40.0961L39.4029 44.0924ZM38.4578 43.8404V43.0527H39.1194C39.4344 43.0527 39.6235 43.2103 39.6235 43.4308C39.6235 43.6828 39.4029 43.8404 39.0879 43.8404H38.4578ZM39.4029 44.0924C39.7495 43.9979 40.0015 43.8088 40.0015 43.4308C40.0015 43.2733 39.9385 43.1157 39.8125 42.9897C39.6235 42.8322 39.4029 42.7377 39.1509 42.7377H38.1112V45.006H38.4578V44.1554H39.0249L39.6865 45.006H40.0961L39.4029 44.0924ZM38.4578 43.8404V43.0527H39.1194C39.4344 43.0527 39.6235 43.2103 39.6235 43.4308C39.6235 43.6828 39.4029 43.8404 39.0879 43.8404H38.4578ZM39.4029 44.0924C39.7495 43.9979 40.0015 43.8088 40.0015 43.4308C40.0015 43.2733 39.9385 43.1157 39.8125 42.9897C39.6235 42.8322 39.4029 42.7377 39.1509 42.7377H38.1112V45.006H38.4578V44.1554H39.0249L39.6865 45.006H40.0961L39.4029 44.0924ZM38.4578 43.8404V43.0527H39.1194C39.4344 43.0527 39.6235 43.2103 39.6235 43.4308C39.6235 43.6828 39.4029 43.8404 39.0879 43.8404H38.4578ZM39.4029 44.0924C39.7495 43.9979 40.0015 43.8088 40.0015 43.4308C40.0015 43.2733 39.9385 43.1157 39.8125 42.9897C39.6235 42.8322 39.4029 42.7377 39.1509 42.7377H38.1112V45.006H38.4578V44.1554H39.0249L39.6865 45.006H40.0961L39.4029 44.0924ZM38.4578 43.8404V43.0527H39.1194C39.4344 43.0527 39.6235 43.2103 39.6235 43.4308C39.6235 43.6828 39.4029 43.8404 39.0879 43.8404H38.4578ZM39.4029 44.0924C39.7495 43.9979 40.0015 43.8088 40.0015 43.4308C40.0015 43.2733 39.9385 43.1157 39.8125 42.9897C39.6235 42.8322 39.4029 42.7377 39.1509 42.7377H38.1112V45.006H38.4578V44.1554H39.0249L39.6865 45.006H40.0961L39.4029 44.0924ZM38.4578 43.8404V43.0527H39.1194C39.4344 43.0527 39.6235 43.2103 39.6235 43.4308C39.6235 43.6828 39.4029 43.8404 39.0879 43.8404H38.4578ZM39.4029 44.0924C39.7495 43.9979 40.0015 43.8088 40.0015 43.4308C40.0015 43.2733 39.9385 43.1157 39.8125 42.9897C39.6235 42.8322 39.4029 42.7377 39.1509 42.7377H38.1112V45.006H38.4578V44.1554H39.0249L39.6865 45.006H40.0961L39.4029 44.0924ZM38.4578 43.8404V43.0527H39.1194C39.4344 43.0527 39.6235 43.2103 39.6235 43.4308C39.6235 43.6828 39.4029 43.8404 39.0879 43.8404H38.4578ZM39.4029 44.0924C39.7495 43.9979 40.0015 43.8088 40.0015 43.4308C40.0015 43.2733 39.9385 43.1157 39.8125 42.9897C39.6235 42.8322 39.4029 42.7377 39.1509 42.7377H38.1112V45.006H38.4578V44.1554H39.0249L39.6865 45.006H40.0961L39.4029 44.0924ZM38.4578 43.8404V43.0527H39.1194C39.4344 43.0527 39.6235 43.2103 39.6235 43.4308C39.6235 43.6828 39.4029 43.8404 39.0879 43.8404H38.4578ZM39.4029 44.0924C39.7495 43.9979 40.0015 43.8088 40.0015 43.4308C40.0015 43.2733 39.9385 43.1157 39.8125 42.9897C39.6235 42.8322 39.4029 42.7377 39.1509 42.7377H38.1112V45.006H38.4578V44.1554H39.0249L39.6865 45.006H40.0961L39.4029 44.0924ZM38.4578 43.8404V43.0527H39.1194C39.4344 43.0527 39.6235 43.2103 39.6235 43.4308C39.6235 43.6828 39.4029 43.8404 39.0879 43.8404H38.4578ZM39.4029 44.0924C39.7495 43.9979 40.0015 43.8088 40.0015 43.4308C40.0015 43.2733 39.9385 43.1157 39.8125 42.9897C39.6235 42.8322 39.4029 42.7377 39.1509 42.7377H38.1112V45.006H38.4578V44.1554H39.0249L39.6865 45.006H40.0961L39.4029 44.0924ZM38.4578 43.8404V43.0527H39.1194C39.4344 43.0527 39.6235 43.2103 39.6235 43.4308C39.6235 43.6828 39.4029 43.8404 39.0879 43.8404H38.4578ZM39.4029 44.0924C39.7495 43.9979 40.0015 43.8088 40.0015 43.4308C40.0015 43.2733 39.9385 43.1157 39.8125 42.9897C39.6235 42.8322 39.4029 42.7377 39.1509 42.7377H38.1112V45.006H38.4578V44.1554H39.0249L39.6865 45.006H40.0961L39.4029 44.0924ZM38.4578 43.8404V43.0527H39.1194C39.4344 43.0527 39.6235 43.2103 39.6235 43.4308C39.6235 43.6828 39.4029 43.8404 39.0879 43.8404H38.4578ZM39.4029 44.0924C39.7495 43.9979 40.0015 43.8088 40.0015 43.4308C40.0015 43.2733 39.9385 43.1157 39.8125 42.9897C39.6235 42.8322 39.4029 42.7377 39.1509 42.7377H38.1112V45.006H38.4578V44.1554H39.0249L39.6865 45.006H40.0961L39.4029 44.0924ZM38.4578 43.8404V43.0527H39.1194C39.4344 43.0527 39.6235 43.2103 39.6235 43.4308C39.6235 43.6828 39.4029 43.8404 39.0879 43.8404H38.4578ZM39.4029 44.0924C39.7495 43.9979 40.0015 43.8088 40.0015 43.4308C40.0015 43.2733 39.9385 43.1157 39.8125 42.9897C39.6235 42.8322 39.4029 42.7377 39.1509 42.7377H38.1112V45.006H38.4578V44.1554H39.0249L39.6865 45.006H40.0961L39.4029 44.0924ZM38.4578 43.8404V43.0527H39.1194C39.4344 43.0527 39.6235 43.2103 39.6235 43.4308C39.6235 43.6828 39.4029 43.8404 39.0879 43.8404H38.4578ZM39.4029 44.0924C39.7495 43.9979 40.0015 43.8088 40.0015 43.4308C40.0015 43.2733 39.9385 43.1157 39.8125 42.9897C39.6235 42.8322 39.4029 42.7377 39.1509 42.7377H38.1112V45.006H38.4578V44.1554H39.0249L39.6865 45.006H40.0961L39.4029 44.0924ZM38.4578 43.8404V43.0527H39.1194C39.4344 43.0527 39.6235 43.2103 39.6235 43.4308C39.6235 43.6828 39.4029 43.8404 39.0879 43.8404H38.4578ZM39.4029 44.0924C39.7495 43.9979 40.0015 43.8088 40.0015 43.4308C40.0015 43.2733 39.9385 43.1157 39.8125 42.9897C39.6235 42.8322 39.4029 42.7377 39.1509 42.7377H38.1112V45.006H38.4578V44.1554H39.0249L39.6865 45.006H40.0961L39.4029 44.0924ZM38.4578 43.8404V43.0527H39.1194C39.4344 43.0527 39.6235 43.2103 39.6235 43.4308C39.6235 43.6828 39.4029 43.8404 39.0879 43.8404H38.4578ZM39.4029 44.0924C39.7495 43.9979 40.0015 43.8088 40.0015 43.4308C40.0015 43.2733 39.9385 43.1157 39.8125 42.9897C39.6235 42.8322 39.4029 42.7377 39.1509 42.7377H38.1112V45.006H38.4578V44.1554H39.0249L39.6865 45.006H40.0961L39.4029 44.0924ZM38.4578 43.8404V43.0527H39.1194C39.4344 43.0527 39.6235 43.2103 39.6235 43.4308C39.6235 43.6828 39.4029 43.8404 39.0879 43.8404H38.4578ZM35.5278 43.2103C35.3388 41.95 34.8347 41.6665 33.8265 41.2254C34.5827 40.7843 35.0552 40.1227 35.0552 39.2091C35.0552 37.4133 33.5745 36.6887 31.9677 36.6887H27.494V46.2663H31.9677C33.858 46.2348 35.8744 45.3841 35.5278 43.2103ZM29.5418 38.4845H31.8732C33.3224 38.4845 33.3855 40.5323 31.9677 40.5323H29.5418V38.4845ZM32.1252 44.4074H29.5103V42.2336H32.1252C34.0471 42.2336 33.921 44.4074 32.1252 44.4074ZM26.6118 43.2103C26.4228 41.95 25.9187 41.6665 24.9106 41.1939C25.6667 40.7528 26.1393 40.0912 26.1393 39.1776C26.1393 37.3818 24.6585 36.6572 23.0518 36.6572H18.5465V46.2348H23.0203C24.9106 46.2348 26.9269 45.3841 26.6118 43.2103ZM20.5944 38.4845H22.9257C24.375 38.4845 24.438 40.5323 23.0203 40.5323H20.5944V38.4845ZM23.2093 44.4074H20.5944V42.2336H23.2093C25.0996 42.2336 25.0051 44.4074 23.2093 44.4074ZM17.6959 43.2103C17.5069 41.95 17.0028 41.6665 15.9946 41.1939C16.7507 40.7528 17.2233 40.0912 17.2233 39.1776C17.2233 37.3818 15.7426 36.6572 14.1358 36.6572H9.63056V46.2348H14.1043C15.9946 46.2348 18.0109 45.3841 17.6959 43.2103ZM11.6469 38.4845H13.9783C15.4275 38.4845 15.4905 40.5323 14.0728 40.5323H11.6469V38.4845ZM14.2618 44.4074H11.6469V42.2336H14.2618C16.1836 42.2336 16.0576 44.4074 14.2618 44.4074Z" fill="#055B76"/>
</svg>
