<svg width="186" height="30" viewBox="0 0 186 30" fill="none" xmlns="http://www.w3.org/2000/svg">
<g clip-path="url(#clip0_131_522)">
<path d="M85.3291 -0.0437756C85.402 -0.044402 85.4748 -0.0450284 85.5499 -0.0456738C86.9754 -0.0534241 88.3599 0.139215 89.7268 0.556224C89.8084 0.580982 89.89 0.60574 89.9741 0.631249C91.3673 1.07629 92.7658 1.73718 93.9495 2.59997C94.002 2.63818 94.0546 2.67638 94.1087 2.71575C94.8129 3.23337 95.4656 3.79016 96.0858 4.40622C96.1424 4.46225 96.1989 4.51828 96.2572 4.576C96.648 4.97417 96.648 4.97417 96.648 5.19997C96.714 5.19997 96.78 5.19997 96.8479 5.19997C96.9664 5.33064 96.9664 5.33064 97.0982 5.5156C97.1471 5.58406 97.1959 5.65253 97.2463 5.72307C97.2983 5.79795 97.3503 5.87283 97.4039 5.94997C97.4574 6.02679 97.511 6.1036 97.5661 6.18274C99.8306 9.4789 100.963 13.6229 100.232 17.6121C100.102 18.2179 99.9357 18.81 99.7464 19.4C99.7218 19.4776 99.6973 19.5552 99.672 19.6351C99.5205 20.1011 99.3451 20.5521 99.1467 21C99.1187 21.0636 99.0906 21.1272 99.0618 21.1928C98.2555 22.9857 97.1454 24.5234 95.7485 25.9C95.6645 25.9839 95.5805 26.0678 95.494 26.1543C92.4053 29.0839 88.3786 30.1126 84.2304 30.0292C81.3135 29.9418 78.6163 28.7557 76.259 27.1C76.16 27.034 76.0611 26.968 75.9592 26.9C75.9592 26.834 75.9592 26.768 75.9592 26.7C75.8973 26.669 75.8355 26.6381 75.7718 26.6062C75.6343 26.5375 75.4969 26.4687 75.3595 26.4C75.3595 26.334 75.3595 26.268 75.3595 26.2C75.2737 26.1628 75.2737 26.1628 75.1861 26.125C74.9247 25.9807 74.745 25.8118 74.5349 25.6C74.4643 25.5299 74.3937 25.4597 74.321 25.3875C74.1601 25.2 74.1601 25.2 74.1601 25C74.0942 25 74.0282 25 73.9602 25C73.7966 24.8141 73.6466 24.6287 73.498 24.4312C73.4537 24.373 73.4094 24.3148 73.3638 24.2548C72.9202 23.6618 72.5339 23.04 72.1612 22.4C72.0959 22.2908 72.0306 22.1816 71.9633 22.0691C70.1839 18.9334 69.7488 14.7881 70.65 11.3185C71.2554 9.13702 72.2637 7.00716 73.7603 5.29997C73.8263 5.20097 73.8923 5.10197 73.9602 4.99997C74.0262 4.99997 74.0922 4.99997 74.1601 4.99997C74.1849 4.94274 74.2096 4.88551 74.2351 4.82654C74.3793 4.56496 74.5481 4.3852 74.7598 4.17497C74.8649 4.06901 74.8649 4.06901 74.9722 3.96091C75.1596 3.79997 75.1596 3.79997 75.3595 3.79997C75.3595 3.73397 75.3595 3.66797 75.3595 3.59997C75.7054 3.29997 75.7054 3.29997 75.9592 3.29997C75.9592 3.23397 75.9592 3.16797 75.9592 3.09997C76.2375 2.86994 76.5491 2.68288 76.8524 2.48747C76.9432 2.42894 77.0341 2.37041 77.1276 2.31011C78.4837 1.45195 79.9108 0.830294 81.4562 0.399974C81.5688 0.368215 81.5687 0.368215 81.6836 0.335814C82.8898 0.0123846 84.0879 -0.038795 85.3291 -0.0437756Z" fill="#00307E"/>
<path d="M85.3291 -0.0437756C85.402 -0.044402 85.4748 -0.0450284 85.5499 -0.0456738C86.9754 -0.0534241 88.3599 0.139215 89.7268 0.556224C89.8084 0.580982 89.89 0.60574 89.9741 0.631249C91.3673 1.07629 92.7658 1.73718 93.9495 2.59997C94.002 2.63818 94.0546 2.67638 94.1087 2.71575C94.8129 3.23337 95.4656 3.79016 96.0858 4.40622C96.1424 4.46225 96.1989 4.51828 96.2572 4.576C96.648 4.97417 96.648 4.97417 96.648 5.19997C96.714 5.19997 96.78 5.19997 96.8479 5.19997C96.9664 5.33064 96.9664 5.33064 97.0982 5.5156C97.1471 5.58406 97.1959 5.65253 97.2463 5.72307C97.2983 5.79795 97.3503 5.87283 97.4039 5.94997C97.4574 6.02679 97.511 6.1036 97.5661 6.18274C99.8306 9.4789 100.963 13.6229 100.232 17.6121C100.102 18.2179 99.9357 18.81 99.7464 19.4C99.7218 19.4776 99.6973 19.5552 99.672 19.6351C99.5205 20.1011 99.3451 20.5521 99.1467 21C99.1187 21.0636 99.0906 21.1272 99.0618 21.1928C98.6852 22.0302 98.2329 22.8081 97.7287 23.575C97.6539 23.6894 97.6539 23.6894 97.5776 23.8062C97.5291 23.8779 97.4807 23.9496 97.4308 24.0234C97.3883 24.0865 97.3457 24.1497 97.3019 24.2147C97.1091 24.4465 96.8874 24.618 96.648 24.8C96.2176 24.3816 95.7888 23.9617 95.3615 23.5402C95.2158 23.397 95.0697 23.2542 94.9232 23.1119C94.7129 22.9075 94.5042 22.7016 94.2958 22.4953C94.2297 22.4317 94.1636 22.3682 94.0955 22.3027C94.0354 22.2427 93.9754 22.1826 93.9135 22.1208C93.8601 22.0684 93.8066 22.016 93.7515 21.962C93.6496 21.8 93.6496 21.8 93.6727 21.5979C93.7871 21.3034 93.9542 21.0532 94.1244 20.7875C95.6309 18.3851 96.2645 15.6702 95.6388 12.8761C95.609 12.752 95.5793 12.6279 95.5486 12.5C95.522 12.3831 95.4953 12.2661 95.4678 12.1457C94.8351 9.65569 93.1306 7.38432 90.9238 6.07102C88.6257 4.75681 85.8822 4.02703 83.2552 4.69997C83.191 4.71504 83.1268 4.73011 83.0607 4.74563C80.3754 5.37928 78.01 6.88377 76.4985 9.22785C75.3948 11.015 74.8423 12.9172 74.841 15.0187C74.8392 15.1778 74.8392 15.1778 74.8373 15.34C74.8353 16.4391 75.0012 17.4532 75.372 18.4875C75.4027 18.5734 75.4334 18.6593 75.465 18.7479C76.4186 21.3259 78.3582 23.3889 80.8199 24.5932C83.1914 25.6756 85.9627 25.8762 88.4524 25.1C88.5654 25.0649 88.6784 25.0299 88.7948 24.9937C89.8731 24.6144 90.9758 24.0423 91.8506 23.3C92.1314 23.428 92.3357 23.5607 92.5527 23.7797C92.6087 23.8358 92.6647 23.8918 92.7224 23.9495C92.7815 24.0098 92.8407 24.07 92.9016 24.132C92.9632 24.1939 93.0247 24.2557 93.0881 24.3195C93.2841 24.5167 93.4794 24.7146 93.6746 24.9125C93.8076 25.0465 93.9406 25.1805 94.0736 25.3144C94.3993 25.6424 94.7242 25.971 95.0489 26.3C94.4625 27.609 92.2263 28.5076 90.9747 29.0111C87.1853 30.4274 82.8776 30.4768 79.1574 28.8C78.1344 28.3192 77.1837 27.7495 76.259 27.1C76.16 27.034 76.0611 26.968 75.9592 26.9C75.9592 26.834 75.9592 26.768 75.9592 26.7C75.8973 26.669 75.8355 26.6381 75.7718 26.6062C75.6343 26.5375 75.4969 26.4687 75.3595 26.4C75.3595 26.334 75.3595 26.268 75.3595 26.2C75.2737 26.1629 75.2737 26.1629 75.1861 26.125C74.9247 25.9807 74.745 25.8118 74.5349 25.6C74.4643 25.5299 74.3937 25.4597 74.321 25.3875C74.1601 25.2 74.1601 25.2 74.1601 25C74.0942 25 74.0282 25 73.9602 25C73.7966 24.8141 73.6466 24.6287 73.498 24.4312C73.4537 24.373 73.4094 24.3148 73.3638 24.2548C72.9202 23.6618 72.5339 23.04 72.1612 22.4C72.0959 22.2908 72.0306 22.1816 71.9633 22.0691C70.1839 18.9334 69.7488 14.7881 70.65 11.3185C71.2554 9.13702 72.2637 7.00716 73.7603 5.29997C73.8263 5.20097 73.8923 5.10197 73.9602 4.99997C74.0262 4.99997 74.0922 4.99997 74.1601 4.99997C74.1849 4.94274 74.2096 4.88551 74.2351 4.82654C74.3793 4.56496 74.5481 4.3852 74.7598 4.17497C74.8649 4.06901 74.8649 4.06901 74.9722 3.96091C75.1596 3.79997 75.1596 3.79997 75.3595 3.79997C75.3595 3.73397 75.3595 3.66797 75.3595 3.59997C75.7054 3.29997 75.7054 3.29997 75.9592 3.29997C75.9592 3.23397 75.9592 3.16797 75.9592 3.09997C76.2375 2.86994 76.5491 2.68288 76.8524 2.48747C76.9432 2.42894 77.0341 2.37041 77.1276 2.31011C78.4837 1.45195 79.9108 0.830294 81.4562 0.399974C81.5687 0.368215 81.5687 0.368215 81.6836 0.335814C82.8898 0.0123846 84.0879 -0.038795 85.3291 -0.0437756Z" fill="white"/>
<path d="M87.8528 4.69998C87.9662 4.72434 88.0795 4.74871 88.1963 4.77381C89.5877 5.11379 90.9848 5.84161 92.0505 6.79998C92.1319 6.86972 92.2134 6.93946 92.2973 7.01131C93.9808 8.48008 95.1287 10.3198 95.6486 12.5C95.6936 12.687 95.6936 12.687 95.7396 12.8777C96.3789 15.8558 95.6036 18.5638 94.0652 21.1251C93.9495 21.3 93.9495 21.3 93.7496 21.5C93.7834 21.8176 93.8926 21.979 94.1194 22.1961C94.2039 22.2782 94.2039 22.2782 94.2901 22.3619C94.3511 22.4199 94.4121 22.4778 94.475 22.5375C94.6027 22.6619 94.7304 22.7864 94.858 22.9109C95.06 23.1062 95.2625 23.3011 95.4654 23.4955C95.6611 23.6834 95.8552 23.8728 96.0492 24.0625C96.1106 24.1204 96.172 24.1783 96.2353 24.238C96.4041 24.4039 96.4041 24.4039 96.6481 24.7C96.6058 25.1594 96.2753 25.4134 95.9609 25.7187C95.9067 25.7733 95.8524 25.8279 95.7966 25.8842C95.5511 26.1264 95.3801 26.2895 95.0489 26.4C94.0594 25.41 93.07 24.42 92.0505 23.4C91.7011 23.5748 91.3861 23.7651 91.0573 23.975C89.9846 24.6428 88.8836 25.1046 87.6529 25.4C87.5797 25.4177 87.5064 25.4354 87.431 25.4537C84.9059 26.0177 82.1493 25.5088 79.9309 24.209C78.4788 23.2733 77.2982 22.1511 76.359 20.7C76.3015 20.6144 76.244 20.5288 76.1848 20.4406C75.793 19.8203 75.5237 19.1896 75.2783 18.5C75.2493 18.4194 75.2203 18.3387 75.1904 18.2557C74.8345 17.2098 74.7227 16.1695 74.7286 15.0687C74.7291 14.9595 74.7296 14.8503 74.7301 14.7377C74.7423 13.8899 74.8264 13.1186 75.0597 12.3C75.0937 12.1775 75.1277 12.0551 75.1627 11.9289C76.0041 9.17009 77.8959 6.96332 80.4111 5.58372C82.7315 4.36744 85.3217 4.09589 87.8528 4.69998ZM79.1282 9.29529C78.0958 10.5339 77.3706 11.9104 77.0586 13.5C77.0403 13.5741 77.022 13.6482 77.0031 13.7246C76.7315 15.4052 77.0301 17.0766 77.7582 18.6C77.8024 18.6925 77.8466 18.7851 77.8921 18.8804C78.8938 20.8404 80.6712 22.3097 82.7555 23C83.5672 23.2442 84.3199 23.3523 85.1667 23.3437C85.2753 23.3428 85.3838 23.3418 85.4956 23.3408C87.5894 23.2952 89.3931 22.6304 90.9511 21.2C91.0215 21.1364 91.0918 21.0729 91.1643 21.0074C92.687 19.5621 93.5965 17.5628 93.67 15.4652C93.6864 14.4663 93.6285 13.5656 93.3498 12.6C93.3232 12.5072 93.2965 12.4144 93.269 12.3187C92.5545 10.1328 90.9339 8.45411 88.9161 7.40928C85.6671 5.8123 81.5941 6.67791 79.1282 9.29529Z" fill="#00307E"/>
<path d="M79.1282 9.29529C78.0958 10.5339 77.3706 11.9104 77.0586 13.5L77.0031 13.7246C76.7315 15.4052 77.0301 17.0766 77.7582 18.6L77.8921 18.8804C78.8938 20.8404 80.6712 22.3097 82.7555 23C83.5672 23.2442 84.3199 23.3523 85.1667 23.3437L85.4956 23.3408C87.5894 23.2952 89.3931 22.6304 90.9511 21.2L91.1643 21.0074C92.687 19.5621 93.5965 17.5628 93.67 15.4652C93.6864 14.4663 93.6285 13.5656 93.3498 12.6L93.269 12.3187C92.5545 10.1328 90.9339 8.45411 88.9161 7.40928C85.6671 5.8123 81.5941 6.67791 79.1282 9.29529Z" fill="white"/>
<path d="M54.0709 8.40002C62.383 8.40002 62.383 8.40002 64.4653 10.4C65.6984 11.7067 66.2258 13.2523 66.2081 15.0313C66.2073 15.1404 66.2065 15.2494 66.2056 15.3618C66.1705 17.0465 65.6484 18.5696 64.4673 19.8078C61.6829 22.4591 57.6045 21.7 54.0709 21.7C54.0709 17.311 54.0709 12.922 54.0709 8.40002ZM56.2697 10.4C56.2697 13.502 56.2697 16.604 56.2697 19.8C59.9451 19.9374 59.9451 19.9374 62.9173 18.2817C63.8927 17.1771 64.0557 15.8319 63.9851 14.4214C63.9043 13.505 63.5402 12.7079 62.9661 12C62.916 11.9375 62.8659 11.875 62.8143 11.8106C61.9758 10.8737 60.8723 10.6582 59.6679 10.4C58.5465 10.4 57.4251 10.4 56.2697 10.4Z" fill="white"/>
<path d="M11.2939 9.4C11.651 9.67707 11.9984 9.95625 12.2934 10.3C12.2934 10.6 12.2934 10.6 12.1001 10.8191C12.0176 10.8974 11.935 10.9756 11.8499 11.0562C11.53 11.3469 11.53 11.3469 11.2939 11.7C11.228 11.7 11.162 11.7 11.094 11.7C11.094 11.766 11.094 11.832 11.094 11.9C10.7418 11.8415 10.574 11.7145 10.3195 11.4687C9.29747 10.5479 8.05098 10.3292 6.71164 10.3719C5.37779 10.4449 4.2167 10.9684 3.29902 11.9441C2.37669 13.1201 2.1679 14.4518 2.29878 15.9C2.53137 17.1988 3.22776 18.2346 4.2977 19C5.5621 19.7185 7.07975 19.9454 8.5056 19.6172C9.01701 19.4728 9.50111 19.2975 9.99464 19.1C9.99464 17.648 9.99464 16.196 9.99464 14.7C10.7202 14.7 11.4459 14.7 12.1935 14.7C12.2207 15.4544 12.2406 16.2084 12.2538 16.9632C12.2594 17.2197 12.2669 17.4761 12.2764 17.7325C12.2898 18.102 12.296 18.471 12.3008 18.8406C12.3065 18.9546 12.3122 19.0686 12.318 19.186C12.3184 19.6808 12.3094 19.9779 11.9596 20.3463C10.1148 21.7149 7.90444 22.0427 5.66416 21.7719C3.759 21.4518 2.16338 20.3448 1.03696 18.825C-0.0546307 17.2272 -0.165864 15.4151 0.0394449 13.5398C0.309482 12.2743 1.01608 10.9487 1.99894 10.1C2.0649 10.1 2.13087 10.1 2.19883 10.1C2.19883 10.034 2.19883 9.968 2.19883 9.9C2.40192 9.74494 2.60225 9.6056 2.81725 9.46875C2.88035 9.42852 2.94344 9.3883 3.00845 9.34685C5.44481 7.83957 8.89499 7.79463 11.2939 9.4Z" fill="white"/>
<path d="M125.328 8.38867C125.411 8.3892 125.494 8.38972 125.58 8.39026C125.67 8.39058 125.759 8.3909 125.852 8.39124C125.994 8.39249 125.994 8.39249 126.138 8.39377C126.281 8.39445 126.281 8.39445 126.426 8.39514C126.661 8.39632 126.896 8.39797 127.132 8.40002C127.591 9.30133 128.025 10.2102 128.439 11.1328C128.979 12.3356 129.53 13.5325 130.093 14.725C130.639 15.8848 131.17 17.0506 131.692 18.2217C132.356 19.7137 132.356 19.7137 133.072 21.1813C133.228 21.5 133.228 21.5 133.228 21.7C132.47 21.7 131.711 21.7 130.93 21.7C130.73 21.2624 130.531 20.8246 130.332 20.3865C130.264 20.2375 130.196 20.0885 130.128 19.9396C130.031 19.7258 129.933 19.5117 129.836 19.2977C129.806 19.2309 129.775 19.1641 129.744 19.0953C129.53 18.6228 129.53 18.6228 129.53 18.4C127.288 18.4 125.045 18.4 122.734 18.4C122.635 18.697 122.536 18.994 122.434 19.3C122.348 19.5059 122.258 19.7105 122.164 19.9129C122.116 20.0183 122.067 20.1237 122.017 20.2323C121.967 20.3392 121.917 20.4461 121.866 20.5563C121.815 20.6667 121.764 20.7771 121.711 20.8908C121.586 21.1608 121.46 21.4304 121.335 21.7C120.576 21.7 119.818 21.7 119.036 21.7C119.175 21.2822 119.312 20.916 119.498 20.5223C119.551 20.4091 119.605 20.2958 119.659 20.1792C119.688 20.1187 119.717 20.0583 119.746 19.9961C119.904 19.6613 120.061 19.3259 120.218 18.9906C120.252 18.919 120.285 18.8474 120.32 18.7736C120.72 17.9196 121.115 17.063 121.51 16.2063C121.585 16.0421 121.661 15.8779 121.737 15.7136C121.852 15.4637 121.967 15.2138 122.082 14.9638C122.361 14.3582 122.641 13.7529 122.921 13.1477C123.041 12.8881 123.161 12.6285 123.281 12.3689C123.356 12.2058 123.431 12.0426 123.507 11.8795C123.941 10.9422 124.369 10.0028 124.782 9.05623C125.069 8.40373 125.069 8.40373 125.328 8.38867ZM126.032 11.1C125.771 11.6761 125.509 12.2523 125.248 12.8285C125.16 13.0241 125.071 13.2196 124.982 13.4151C124.854 13.698 124.726 13.981 124.597 14.2641C124.559 14.3498 124.52 14.4354 124.479 14.5237C124.184 15.1778 123.91 15.8364 123.634 16.5C125.283 16.5 126.932 16.5 128.631 16.5C128.074 15.1996 127.514 13.9046 126.926 12.6188C126.857 12.4694 126.789 12.32 126.721 12.1705C126.558 11.8136 126.395 11.4568 126.232 11.1C126.166 11.1 126.1 11.1 126.032 11.1Z" fill="white"/>
<path d="M17.4906 8.40002C18.2492 8.40002 19.0078 8.40002 19.7894 8.40002C19.7908 8.65834 19.7923 8.91665 19.7938 9.18279C19.7988 10.0389 19.8055 10.8951 19.8129 11.7512C19.8174 12.27 19.8213 12.7888 19.824 13.3075C19.8266 13.8088 19.8306 14.31 19.8357 14.8112C19.8373 15.0018 19.8385 15.1924 19.8391 15.3831C19.8439 16.7228 19.8585 17.9393 20.7888 19C21.7458 19.7979 22.9066 19.7787 24.087 19.7C24.889 19.5972 25.4777 19.229 25.986 18.6C26.4573 17.7414 26.5989 16.9311 26.6062 15.9608C26.6072 15.8788 26.6082 15.7968 26.6092 15.7123C26.6124 15.4428 26.6149 15.1734 26.6173 14.9039C26.6194 14.7165 26.6215 14.529 26.6236 14.3415C26.6291 13.8493 26.6341 13.3571 26.6389 12.8649C26.6439 12.3622 26.6495 11.8594 26.655 11.3567C26.6657 10.3711 26.6758 9.38558 26.6856 8.40002C27.4113 8.40002 28.1369 8.40002 28.8845 8.40002C28.8913 9.46761 28.8968 10.5352 28.9 11.6028C28.9016 12.0987 28.9037 12.5946 28.9071 13.0905C28.9104 13.5703 28.9121 14.0501 28.9129 14.5299C28.9135 14.7117 28.9145 14.8934 28.9162 15.0752C28.9327 16.9926 28.7907 18.9633 27.3849 20.4262C25.8091 21.7992 23.9779 21.8911 21.9882 21.8C20.8398 21.6709 19.5623 21.0782 18.7899 20.2C17.7669 18.914 17.4714 17.3509 17.4792 15.7451C17.4792 15.665 17.4792 15.5849 17.4792 15.5024C17.4793 15.241 17.48 14.9797 17.4808 14.7184C17.481 14.5358 17.4812 14.3533 17.4813 14.1707C17.4816 13.6928 17.4826 13.2149 17.4837 12.737C17.4848 12.2483 17.4852 11.7596 17.4857 11.2709C17.4868 10.314 17.4885 9.35699 17.4906 8.40002Z" fill="white"/>
<path d="M104.444 8.40002C105.169 8.40002 105.895 8.40002 106.643 8.40002C106.644 8.6482 106.646 8.89638 106.647 9.15208C106.652 9.9759 106.659 10.7997 106.666 11.6235C106.671 12.1226 106.675 12.6216 106.677 13.1206C106.68 13.6031 106.684 14.0854 106.689 14.5678C106.691 14.7511 106.692 14.9343 106.692 15.1175C106.698 16.5118 106.708 17.8841 107.698 18.9715C108.37 19.6077 109.179 19.7553 110.078 19.7438C110.161 19.7431 110.244 19.7424 110.329 19.7417C111.128 19.7208 111.821 19.5553 112.477 19.0813C113.245 18.2584 113.468 17.3076 113.471 16.2106C113.472 16.1256 113.473 16.0406 113.474 15.9531C113.477 15.675 113.479 15.3969 113.48 15.1188C113.482 14.9249 113.484 14.7309 113.486 14.537C113.491 14.0287 113.495 13.5204 113.499 13.0121C113.503 12.4926 113.508 11.9731 113.513 11.4535C113.523 10.4357 113.531 9.41787 113.539 8.40002C114.265 8.40002 114.99 8.40002 115.738 8.40002C115.745 9.52495 115.75 10.6499 115.753 11.7748C115.755 12.2973 115.757 12.8197 115.76 13.3422C115.764 13.8473 115.765 14.3524 115.766 14.8575C115.767 15.0493 115.768 15.2411 115.769 15.4329C115.785 17.3513 115.572 19.0284 114.18 20.4813C112.693 21.8298 110.84 21.8898 108.941 21.8C107.62 21.6407 106.433 20.9813 105.543 20C104.725 18.9254 104.427 17.6516 104.433 16.3241C104.433 16.2382 104.432 16.1523 104.432 16.0637C104.433 15.7813 104.433 15.4989 104.434 15.2164C104.434 15.02 104.434 14.8235 104.435 14.6271C104.435 14.1112 104.436 13.5954 104.437 13.0795C104.438 12.5526 104.438 12.0257 104.439 11.4989C104.44 10.4659 104.442 9.43297 104.444 8.40002Z" fill="white"/>
<path d="M172.907 8.40002C173.7 8.26011 174.525 8.15421 175.306 8.40002C175.905 8.8633 176.208 9.60361 176.535 10.2689C176.829 10.8424 177.18 11.3803 177.523 11.925C177.657 12.1428 177.791 12.3607 177.924 12.5789C177.988 12.6832 178.052 12.7876 178.118 12.895C178.179 12.9957 178.241 13.0963 178.304 13.2C178.363 13.2958 178.421 13.3915 178.482 13.4902C178.789 13.9932 179.097 14.4965 179.404 15C179.824 14.5123 180.147 13.9652 180.484 13.4188C180.618 13.2029 180.752 12.987 180.886 12.7711C180.955 12.6604 181.024 12.5496 181.094 12.4355C181.298 12.1079 181.502 11.7808 181.706 11.4539C181.771 11.3501 181.836 11.2463 181.902 11.1394C182.031 10.9351 182.16 10.7314 182.29 10.5284C182.555 10.1147 182.807 9.71752 182.989 9.26057C183.253 8.65082 183.253 8.65082 183.601 8.40002C184.391 8.24896 185.205 8.32101 186 8.40002C185.877 8.72782 185.739 9.0176 185.55 9.31174C185.501 9.3881 185.452 9.46446 185.402 9.54314C185.324 9.66411 185.324 9.66411 185.244 9.78752C184.874 10.3666 184.508 10.9465 184.157 11.5375C183.757 12.2109 183.346 12.8773 182.933 13.5429C182.611 14.062 182.29 14.5816 181.97 15.102C181.934 15.1611 181.897 15.2203 181.86 15.2812C181.716 15.5162 181.571 15.7512 181.427 15.9862C181.327 16.1494 181.227 16.3126 181.126 16.4758C181.069 16.5698 181.011 16.6638 180.952 16.7606C180.839 16.9424 180.722 17.1218 180.603 17.3C180.57 17.5078 180.57 17.5078 180.571 17.738C180.569 17.8261 180.567 17.9141 180.565 18.0049C180.564 18.0996 180.563 18.1943 180.562 18.2918C180.56 18.3891 180.558 18.4863 180.556 18.5865C180.55 18.8972 180.545 19.208 180.54 19.5188C180.537 19.7294 180.533 19.94 180.529 20.1506C180.519 20.6671 180.511 21.1835 180.503 21.7C179.777 21.7 179.052 21.7 178.304 21.7C178.313 21.4019 178.322 21.1037 178.331 20.7965C178.403 17.7412 178.403 17.7412 176.981 15.1176C176.727 14.8034 176.524 14.4652 176.318 14.1188C176.239 13.9923 176.159 13.866 176.08 13.7399C175.655 13.0613 175.238 12.3783 174.819 11.696C174.486 11.1538 174.152 10.6124 173.815 10.0731C173.754 9.97616 173.694 9.87924 173.631 9.77939C173.517 9.59676 173.403 9.41434 173.288 9.23218C173.237 9.15144 173.187 9.07071 173.135 8.98752C173.091 8.91714 173.047 8.84676 173.001 8.77424C172.907 8.60002 172.907 8.60002 172.907 8.40002Z" fill="white"/>
<path d="M157.715 8.40002C161.409 8.40002 165.103 8.40002 168.909 8.40002C168.909 9.06002 168.909 9.72002 168.909 10.4C167.425 10.4 165.941 10.4 164.412 10.4C164.412 14.129 164.412 17.858 164.412 21.7C163.686 21.7 162.96 21.7 162.213 21.7C162.213 17.971 162.213 14.242 162.213 10.4C160.729 10.4 159.244 10.4 157.715 10.4C157.715 9.74002 157.715 9.08002 157.715 8.40002Z" fill="white"/>
<path d="M41.7775 8.5C42.5031 8.5 43.2287 8.5 43.9763 8.5C43.9763 12.229 43.9763 15.958 43.9763 19.8C45.7244 19.8 47.4725 19.8 49.2735 19.8C49.2735 20.46 49.2735 21.12 49.2735 21.8C46.7998 21.8 44.3262 21.8 41.7775 21.8C41.7775 17.411 41.7775 13.022 41.7775 8.5Z" fill="white"/>
<path d="M137.326 8.40002C138.052 8.40002 138.777 8.40002 139.525 8.40002C139.525 12.129 139.525 15.858 139.525 19.7C141.273 19.7 143.021 19.7 144.822 19.7C144.822 20.36 144.822 21.02 144.822 21.7C142.348 21.7 139.875 21.7 137.326 21.7C137.326 17.311 137.326 12.922 137.326 8.40002Z" fill="white"/>
<path d="M34.1816 8.5C34.9072 8.5 35.6328 8.5 36.3804 8.5C36.3804 12.889 36.3804 17.278 36.3804 21.8C35.6548 21.8 34.9292 21.8 34.1816 21.8C34.1816 17.411 34.1816 13.022 34.1816 8.5Z" fill="white"/>
<path d="M150.219 8.40002C150.945 8.40002 151.67 8.40002 152.418 8.40002C152.418 12.789 152.418 17.178 152.418 21.7C151.692 21.7 150.967 21.7 150.219 21.7C150.219 17.311 150.219 12.922 150.219 8.40002Z" fill="white"/>
</g>
<defs>
<clipPath id="clip0_131_522">
<rect width="186" height="30" fill="white"/>
</clipPath>
</defs>
</svg>
