<svg width="24" height="24" viewBox="0 0 24 24" fill="none" xmlns="http://www.w3.org/2000/svg">
<path d="M20.9466 10.5769C20.8024 9.75145 20.3727 9.00004 19.7364 8.46123C19.3754 8.15553 19.1316 7.72928 19.0497 7.26093C18.9055 6.43547 18.4756 5.68406 17.8395 5.14525C17.2033 4.60644 16.3956 4.30966 15.565 4.30966C15.0939 4.30966 14.6355 4.14129 14.2746 3.83559C13.6383 3.29678 12.8306 3 12.0001 3C11.1696 3 10.3619 3.29678 9.72563 3.83559C9.36468 4.14129 8.90645 4.30966 8.43517 4.30966C7.60464 4.30966 6.79695 4.60644 6.16069 5.14525C5.52444 5.68406 5.09472 6.43547 4.95047 7.26093C4.86865 7.72928 4.62489 8.15553 4.2638 8.46123C3.62755 9.00004 3.19783 9.75145 3.05358 10.5769C2.90933 11.4024 3.0586 12.2569 3.47393 12.9827C3.7095 13.3946 3.79423 13.8793 3.71241 14.3477C3.56816 15.1731 3.71742 16.0276 4.13275 16.7535C4.54795 17.4794 5.20651 18.037 5.98688 18.3238C6.42966 18.4864 6.80329 18.8028 7.03886 19.2147C7.45406 19.9406 8.11262 20.4982 8.89299 20.785C9.67337 21.0717 10.5331 21.0717 11.3134 20.785C11.7562 20.6224 12.2439 20.6224 12.6866 20.785C13.0769 20.9283 13.4868 21 13.8969 21C14.3069 21 14.7168 20.9283 15.1071 20.785C15.8875 20.4984 16.546 19.9406 16.9612 19.2147C17.1968 18.8028 17.5704 18.4864 18.0132 18.3238C18.7936 18.0371 19.4521 17.4794 19.8673 16.7535C20.2825 16.0275 20.4318 15.1731 20.2877 14.3477C20.2058 13.8793 20.2906 13.3946 20.5261 12.9827C20.9413 12.2568 21.0906 11.4024 20.9465 10.5769H20.9466ZM15.6288 10.8814L11.8318 14.668C11.6593 14.84 11.4253 14.9367 11.1815 14.9367C10.9376 14.9367 10.7036 14.84 10.5311 14.668L8.74518 12.8869C8.38594 12.5288 8.38594 11.9479 8.74518 11.5897C9.10442 11.2315 9.68683 11.2315 10.0461 11.5897L11.1816 12.722L14.3282 9.58401C14.6874 9.22583 15.2698 9.22583 15.629 9.58401C15.9883 9.9422 15.9883 10.5231 15.629 10.8813L15.6288 10.8814Z" fill="white"/>
</svg>
