<svg width="24" height="24" viewBox="0 0 24 24" fill="none" xmlns="http://www.w3.org/2000/svg">
<path d="M12 12.2625C13.4808 12.2625 14.6812 11.0621 14.6812 9.58127C14.6812 8.10046 13.4808 6.90002 12 6.90002C10.5192 6.90002 9.31873 8.10046 9.31873 9.58127C9.31873 11.0621 10.5192 12.2625 12 12.2625Z" fill="white"/>
<path d="M17.025 17.175C17.1 17.1938 17.1375 17.2125 17.1938 17.2125C17.3625 17.2125 17.4563 17.1375 17.5125 17.0813C17.5688 17.025 17.6438 16.9125 17.6438 16.7438C17.625 14.9063 18.7875 13.3125 20.5313 12.7688C20.5688 12.75 20.625 12.7313 20.6625 12.6938C20.7938 12.6 20.8313 12.4688 20.85 12.3938C20.8688 12.3 20.85 12.1688 20.7563 12.0375C19.6688 10.575 19.6688 8.60626 20.7563 7.14376L20.8125 7.06876C20.8125 7.05001 20.8313 7.03126 20.8313 7.01251C20.8875 6.86251 20.8313 6.73126 20.7938 6.65626C20.7563 6.58126 20.6813 6.46876 20.5125 6.43126C18.7875 5.88751 17.625 4.29376 17.6438 2.47501C17.6438 2.40001 17.6438 2.36251 17.625 2.30626C17.5688 2.15626 17.475 2.08126 17.3813 2.04376C17.3063 2.00626 17.175 1.96876 17.025 2.02501C16.5938 2.17501 16.1438 2.25001 15.7125 2.25001C14.3813 2.25001 13.125 1.61251 12.3563 0.525005C12.3188 0.487505 12.2813 0.450005 12.2438 0.412505C12.0375 0.262505 11.7375 0.318755 11.5875 0.525005C10.8188 1.61251 9.56253 2.25001 8.25003 2.25001C7.80003 2.25001 7.35003 2.17501 6.93753 2.02501C6.88128 2.00626 6.84378 2.00626 6.78753 2.00626C6.63753 2.00626 6.52503 2.08126 6.46878 2.13751C6.41253 2.19376 6.33753 2.30626 6.33753 2.47501C6.35628 4.29376 5.19378 5.88751 3.45003 6.43126C3.39378 6.45001 3.35628 6.46876 3.30003 6.50626C3.09378 6.65626 3.05628 6.95626 3.20628 7.16251C4.29378 8.62501 4.29378 10.5938 3.20628 12.0563C3.16878 12.0938 3.15003 12.15 3.13128 12.1875C3.07503 12.3375 3.13128 12.4688 3.16878 12.5438C3.20628 12.6188 3.30003 12.7313 3.45003 12.7688C5.19378 13.3313 6.33753 14.925 6.31878 16.7438C6.31878 16.8 6.31878 16.8563 6.33753 16.9125C6.39378 17.0625 6.48753 17.1375 6.58128 17.175C6.65628 17.2125 6.78753 17.25 6.93753 17.1938C7.38753 17.0438 7.83753 16.9688 8.26878 16.9688C9.58128 16.9688 10.8188 17.5875 11.6063 18.6938C11.6438 18.7313 11.6813 18.7688 11.7188 18.8063C11.85 18.9 11.9813 18.9 12.075 18.8813C12.1688 18.8625 12.2813 18.825 12.375 18.6938C13.425 17.1938 15.3 16.5938 17.025 17.175ZM12 14.1563C9.46878 14.1563 7.42503 12.1125 7.42503 9.58125C7.42503 7.05001 9.46878 5.00626 12 5.00626C14.5313 5.00626 16.575 7.05001 16.575 9.58125C16.575 12.1125 14.5313 14.1563 12 14.1563Z" fill="white"/>
<path d="M7.27501 18.1875C6.90001 18.3187 6.50626 18.2812 6.13126 18.1312L6.09376 18.1125C5.73751 17.925 5.45626 17.625 5.32501 17.25C5.28751 17.0625 5.25001 16.875 5.26876 16.7062C5.26876 15.975 5.02501 15.3 4.59376 14.775L0.825012 20.5125H4.16251L5.71876 23.7L9.31876 18.1875C9.00001 18.075 8.64376 18 8.28751 18C7.95001 18.0187 7.61251 18.075 7.27501 18.1875ZM19.4063 14.7562C18.9563 15.3 18.7125 15.975 18.7313 16.725C18.7313 17.1375 18.5813 17.5312 18.2813 17.8125C18.0188 18.075 17.6438 18.2437 17.2688 18.2625C17.0813 18.2812 16.875 18.2437 16.6688 18.1687C16.0125 17.9437 15.3188 17.9625 14.6813 18.1875L18.2813 23.7L19.8375 20.5125H23.175L19.4063 14.7562Z" fill="white"/>
</svg>
