<svg width="24" height="24" viewBox="0 0 24 24" fill="none" xmlns="http://www.w3.org/2000/svg">
<g clip-path="url(#clip0_19_164)">
<path d="M12.0183 24C18.6558 24 24.0365 18.6274 24.0365 12C24.0365 5.37258 18.6558 0 12.0183 0C5.38075 0 -1.52588e-05 5.37258 -1.52588e-05 12C-1.52588e-05 18.6274 5.38075 24 12.0183 24Z" fill="#E0E0E0"/>
<path d="M12.0183 23.6353C18.5549 23.6353 23.8539 18.3443 23.8539 11.8176C23.8539 5.29093 18.5549 0 12.0183 0C5.48164 0 0.182648 5.29093 0.182648 11.8176C0.182648 18.3443 5.48164 23.6353 12.0183 23.6353Z" fill="white"/>
<mask id="mask0_19_164" style="mask-type:luminance" maskUnits="userSpaceOnUse" x="4" y="3" width="16" height="17">
<path d="M19.6895 10.4316H12.2009V13.5319H16.5114C16.1096 15.5015 14.4292 16.6322 12.2009 16.6322C9.57078 16.6322 7.45206 14.5167 7.45206 11.8906C7.45206 9.26445 9.57078 7.14895 12.2009 7.14895C13.3333 7.14895 14.3562 7.55017 15.1598 8.20671L17.4977 5.87235C16.0731 4.63223 14.2466 3.86627 12.2009 3.86627C7.7443 3.86627 4.16439 7.44074 4.16439 11.8906C4.16439 16.3404 7.7443 19.9149 12.2009 19.9149C16.2192 19.9149 19.8722 16.997 19.8722 11.8906C19.8722 11.4164 19.7991 10.9058 19.6895 10.4316Z" fill="white"/>
</mask>
<g mask="url(#mask0_19_164)">
<path d="M3.4338 16.6322V7.14893L9.64385 11.8906L3.4338 16.6322Z" fill="#FBBC05"/>
</g>
<mask id="mask1_19_164" style="mask-type:luminance" maskUnits="userSpaceOnUse" x="4" y="3" width="16" height="17">
<path d="M19.6895 10.4316H12.2009V13.5319H16.5114C16.1096 15.5015 14.4292 16.6322 12.2009 16.6322C9.57078 16.6322 7.45206 14.5167 7.45206 11.8906C7.45206 9.26445 9.57078 7.14895 12.2009 7.14895C13.3333 7.14895 14.3562 7.55017 15.1598 8.20671L17.4977 5.87235C16.0731 4.63223 14.2466 3.86627 12.2009 3.86627C7.7443 3.86627 4.16439 7.44074 4.16439 11.8906C4.16439 16.3404 7.7443 19.9149 12.2009 19.9149C16.2192 19.9149 19.8722 16.997 19.8722 11.8906C19.8722 11.4164 19.7991 10.9058 19.6895 10.4316Z" fill="white"/>
</mask>
<g mask="url(#mask1_19_164)">
<path d="M3.4338 7.14894L9.64385 11.8906L12.2009 9.66566L20.968 8.24316V3.13678H3.4338V7.14894Z" fill="#EA4335"/>
</g>
<mask id="mask2_19_164" style="mask-type:luminance" maskUnits="userSpaceOnUse" x="4" y="3" width="16" height="17">
<path d="M19.6895 10.4316H12.2009V13.5319H16.5114C16.1096 15.5015 14.4292 16.6322 12.2009 16.6322C9.57078 16.6322 7.45206 14.5167 7.45206 11.8906C7.45206 9.26445 9.57078 7.14895 12.2009 7.14895C13.3333 7.14895 14.3562 7.55017 15.1598 8.20671L17.4977 5.87235C16.0731 4.63223 14.2466 3.86627 12.2009 3.86627C7.7443 3.86627 4.16439 7.44074 4.16439 11.8906C4.16439 16.3404 7.7443 19.9149 12.2009 19.9149C16.2192 19.9149 19.8722 16.997 19.8722 11.8906C19.8722 11.4164 19.7991 10.9058 19.6895 10.4316Z" fill="white"/>
</mask>
<g mask="url(#mask2_19_164)">
<path d="M3.4338 16.6322L14.3927 8.24316L17.2785 8.6079L20.968 3.13678V20.6444H3.4338V16.6322Z" fill="#34A853"/>
</g>
<mask id="mask3_19_164" style="mask-type:luminance" maskUnits="userSpaceOnUse" x="4" y="3" width="16" height="17">
<path d="M19.6895 10.4316H12.2009V13.5319H16.5114C16.1096 15.5015 14.4292 16.6322 12.2009 16.6322C9.57078 16.6322 7.45206 14.5167 7.45206 11.8906C7.45206 9.26445 9.57078 7.14895 12.2009 7.14895C13.3333 7.14895 14.3562 7.55017 15.1598 8.20671L17.4977 5.87235C16.0731 4.63223 14.2466 3.86627 12.2009 3.86627C7.7443 3.86627 4.16439 7.44074 4.16439 11.8906C4.16439 16.3404 7.7443 19.9149 12.2009 19.9149C16.2192 19.9149 19.8722 16.997 19.8722 11.8906C19.8722 11.4164 19.7991 10.9058 19.6895 10.4316Z" fill="white"/>
</mask>
<g mask="url(#mask3_19_164)">
<path d="M20.968 20.6444L9.64384 11.8906L8.18266 10.7963L20.968 7.14893V20.6444Z" fill="#4285F4"/>
</g>
</g>
<defs>
<clipPath id="clip0_19_164">
<rect width="24" height="24" fill="white"/>
</clipPath>
</defs>
</svg>
