<svg width="22" height="22" viewBox="0 0 22 22" fill="none" xmlns="http://www.w3.org/2000/svg">
<g clip-path="url(#clip0_250_26)">
<path d="M18.1252 12.6253C17.2421 13.5025 16.1161 14.0946 14.8928 14.325C13.6696 14.5554 12.4053 14.4134 11.2636 13.9174L6.79122 19.0953C6.78027 19.108 6.76888 19.1203 6.75706 19.1321C6.24124 19.6474 5.54191 19.9368 4.8128 19.9366C4.0837 19.9364 3.38451 19.6467 2.86895 19.1311C2.35339 18.6156 2.06367 17.9164 2.06348 17.1873C2.06329 16.4582 2.35264 15.7588 2.86793 15.243C2.87976 15.2312 2.89206 15.2198 2.90469 15.2088L8.08267 10.7363C7.58518 9.60138 7.43981 8.34324 7.66537 7.12475C7.89094 5.90626 8.47705 4.78353 9.34784 3.90188C10.2186 3.02022 11.334 2.42025 12.5496 2.1796C13.7652 1.93896 15.0251 2.06873 16.1661 2.55212C16.2698 2.5961 16.361 2.66487 16.4319 2.75238C16.5028 2.83988 16.5511 2.94346 16.5726 3.054C16.5941 3.16454 16.5881 3.27867 16.5552 3.38636C16.5223 3.49406 16.4634 3.59202 16.3838 3.67166L13.0379 7.01751L13.362 8.63799L14.9825 8.9621L18.3284 5.61616C18.4081 5.53656 18.506 5.47772 18.6137 5.44482C18.7214 5.41191 18.8355 5.40595 18.9461 5.42745C19.0566 5.44896 19.1602 5.49727 19.2477 5.56814C19.3352 5.63901 19.4039 5.73029 19.4479 5.83394C19.9322 6.96835 20.0651 8.22197 19.8293 9.43269C19.5935 10.6434 18.9999 11.7555 18.1252 12.6253Z" fill="#2563EB"/>
</g>
<defs>
<clipPath id="clip0_250_26">
<rect width="22" height="22" fill="white"/>
</clipPath>
</defs>
</svg>
