<svg width="214" height="40" viewBox="0 0 214 40" fill="none" xmlns="http://www.w3.org/2000/svg">
<g id="Logo">
<g id="Layer 1">
<g id="Group">
<g id="Group_2">
<path id="Vector" d="M90.7179 0.210938H95.0817L102.034 16.6619H97.1814L96.0129 13.7223H89.6908L88.5223 16.6619H83.7842L90.7133 0.210938H90.7179ZM94.6846 10.1984L92.8633 5.57897L91.0191 10.1984H94.6846Z" fill="#DA2226"/>
<path id="Vector_2" d="M103.458 0.324219H108.242L112.14 6.64626L116.038 0.324219H120.822V16.6565H116.316V7.27618L112.14 13.6713H112.048L107.895 7.299V16.6565H103.462V0.324219H103.458Z" fill="#DA2226"/>
<path id="Vector_3" d="M123.551 0.324868H136.688V4.15004H128.029V6.64691H135.871V10.2165H128.029V12.8046H136.803V16.6526H123.547V0.320312L123.551 0.324868Z" fill="#DA2226"/>
<path id="Vector_4" d="M138.975 0.324868H146.699C149.218 0.324868 150.921 0.97762 152.021 2.07314C152.98 3.03171 153.468 4.31437 153.468 5.87548V5.92113C153.468 8.44081 152.163 10.0978 150.109 10.9605L154.007 16.6526H148.803L145.512 11.7045H143.503V16.6526H138.975V0.320312V0.324868ZM146.512 8.16693C148.027 8.16693 148.94 7.41833 148.94 6.23152V6.18587C148.94 4.88038 147.981 4.22765 146.489 4.22765H143.503V8.1715H146.512V8.16693Z" fill="#DA2226"/>
<path id="Vector_5" d="M155.709 0.324219H160.237V16.6565H155.709V0.324219Z" fill="#DA2226"/>
<path id="Vector_6" d="M162.52 8.54045V8.4948C162.52 3.73387 166.158 0 171.106 0C174.42 0 176.611 1.40135 178.035 3.38241L174.63 6.02077C173.699 4.87961 172.644 4.10818 171.06 4.10818C168.773 4.10818 167.162 6.06642 167.162 8.44917V8.4948C167.162 10.946 168.773 12.8586 171.06 12.8586C172.763 12.8586 173.744 12.0644 174.748 10.873L178.154 13.3014C176.588 15.4239 174.538 16.9896 170.942 16.9896C166.276 16.9896 162.52 13.4201 162.52 8.54502V8.54045Z" fill="#DA2226"/>
<path id="Vector_7" d="M185.462 0.210938H189.826L196.778 16.6619H191.925L190.757 13.7223H184.435L183.266 16.6619H178.528L185.457 0.210938H185.462ZM189.428 10.1984L187.607 5.57897L185.763 10.1984H189.428Z" fill="#DA2226"/>
<path id="Vector_8" d="M198.202 0.324219H202.424L209.143 8.95597V0.324219H213.621V16.6565H209.677L202.675 7.69612V16.6565H198.197V0.324219H198.202Z" fill="#DA2226"/>
<path id="Vector_9" d="M85.0715 23.6641H91.3935C97.2043 23.6641 100.587 27.0008 100.587 31.7389V31.7846C100.587 36.5227 97.1587 39.9964 91.2976 39.9964H85.0669V23.6641H85.0715ZM89.5996 27.6536V35.984H91.4437C94.1734 35.984 95.9718 34.4914 95.9718 31.853V31.8074C95.9718 29.169 94.1734 27.6536 91.4437 27.6536H89.5996Z" fill="#1C3E71"/>
<path id="Vector_10" d="M102.782 23.6628H110.506C113.025 23.6628 114.728 24.3155 115.828 25.411C116.787 26.3696 117.275 27.6523 117.275 29.2134V29.259C117.275 31.7787 115.969 33.4357 113.915 34.2984L117.814 39.9905H112.61L109.319 35.0424H107.31V39.9905H102.782V23.6582V23.6628ZM110.318 31.5003C111.834 31.5003 112.747 30.7517 112.747 29.5649V29.5192C112.747 28.2137 111.788 27.561 110.296 27.561H107.31V31.5048H110.318V31.5003Z" fill="#1C3E71"/>
<path id="Vector_11" d="M119.398 23.6628H132.535V27.4879H123.876V29.9848H131.718V33.5544H123.876V36.1425H132.649V39.9905H119.393V23.6582L119.398 23.6628Z" fill="#1C3E71"/>
<path id="Vector_12" d="M140.468 23.5449H144.832L151.784 39.9959H146.931L145.763 37.0563H139.441L138.272 39.9959H133.534L140.463 23.5449H140.468ZM144.435 33.5324L142.613 28.913L140.769 33.5324H144.435Z" fill="#1C3E71"/>
<path id="Vector_13" d="M153.212 23.6641H157.996L161.894 29.9861L165.793 23.6641H170.576V39.9964H166.071V30.616L161.894 37.0111H161.803L157.649 30.6388V39.9964H153.217V23.6641H153.212Z" fill="#1C3E71"/>
</g>
<g id="Group_3">
<g id="Group_4">
<path id="Vector_14" d="M23.7954 39.9962H31.3864L40.8215 24.9831L37.0238 18.9395L23.7954 39.9962Z" fill="#DA2226"/>
<g id="Group_5">
<path id="Vector_15" d="M11.5896 39.9949H19.7968L35.0245 15.7566L30.9209 9.22461L11.5896 39.9949Z" fill="#DA2226"/>
<path id="Vector_16" d="M0 39.9954H7.59101L18.2563 23.0172L28.9216 6.03903L25.1284 0L0 39.9954Z" fill="#DA2226"/>
</g>
<g id="Vector_17" style="mix-blend-mode:multiply">
<path d="M42.8209 28.1641L35.3896 39.9956H50.2521L42.8209 28.1641Z" fill="#11131D"/>
</g>
</g>
<path id="Vector_18" d="M74.1893 9.35752C70.5285 3.53304 64.1334 0 57.2545 0H29.1226L44.8158 24.9823L42.8165 28.1684L50.2477 40H57.2499C64.1288 40 70.5239 36.467 74.1847 30.6425C78.2701 24.1379 78.2701 15.8713 74.1847 9.36665L74.1893 9.35752ZM63.2844 27.8398L57.0308 23.298L50.7772 27.8398L53.1646 20.4907L46.911 15.9489H54.6389L57.0262 8.59979L59.4136 15.9489H67.1415L60.8879 20.4907L63.2752 27.8398H63.2844Z" fill="#1C3E71"/>
</g>
</g>
</g>
</g>
</svg>
