<svg width="147" height="45" viewBox="0 0 147 45" fill="none" xmlns="http://www.w3.org/2000/svg">
<path d="M3.28416 44.0455C23.6872 39.5187 44.6188 37.3506 65.492 36.6395C74.0108 36.282 83.8392 36.4336 92.3968 36.7405C96.5474 36.8882 101.662 37.3389 105.824 37.5915C108.945 37.844 116.018 38.7183 119.197 39.0486C123.495 39.6819 128.174 40.4591 132.476 41.1662C136.86 42.0716 141.24 43.0508 145.6 44.0416C141.36 43.4549 136.588 42.7438 132.328 42.0949C89.5248 36.8221 45.9634 38.2948 3.28027 44.0416L3.28416 44.0455Z" fill="#3498DB"/>
<path d="M6.96438 29.6884H1.16992L10.6447 3.29736H16.5946L26.05 29.6884H20.17L14.3755 11.1657L13.5672 8.13883L12.7394 11.1657L6.96438 29.6884ZM6.54078 24.1436L7.26363 20.2192H19.2723L19.9951 24.1436H6.54078Z" fill="white"/>
<path d="M27.6162 28.4372L28.2147 24.6527C28.4012 24.8042 28.786 25.0062 29.3611 25.251C29.9363 25.4958 30.6242 25.7251 31.4209 25.9271C32.2214 26.1331 33.0415 26.2341 33.8848 26.2341C34.9535 26.2458 35.7385 26.102 36.2438 25.8028C36.749 25.5036 37.0016 25.0529 37.0016 24.4545C37.0016 24.0426 36.8345 23.6851 36.5003 23.3821C36.166 23.079 35.7113 22.7914 35.1362 22.5272C34.561 22.263 33.9198 21.991 33.2163 21.7074C31.9494 21.2022 30.9001 20.6505 30.0723 20.0521C29.2445 19.4537 28.6305 18.7698 28.2224 18.0005C27.8183 17.2311 27.6201 16.3297 27.6317 15.2961C27.6434 14.076 27.997 13.0619 28.6966 12.2498C29.3961 11.4416 30.3288 10.8315 31.4947 10.4274C32.6606 10.0233 33.9586 9.82129 35.3771 9.82129C36.7956 9.82129 38.0509 9.9534 39.0652 10.2176C40.0795 10.4818 40.7752 10.7266 41.1521 10.9481L40.5731 14.8026C40.3516 14.6161 39.9979 14.4141 39.516 14.2043C39.0341 13.9944 38.49 13.8196 37.8877 13.6836C37.2853 13.5476 36.6712 13.4815 36.0494 13.4815C34.9108 13.4815 34.0791 13.6175 33.5583 13.8934C33.0337 14.1693 32.7733 14.5656 32.7733 15.0824C32.7616 15.7507 33.022 16.2481 33.5583 16.5706C34.0946 16.8931 34.833 17.2545 35.7852 17.6547C37.192 18.2297 38.3773 18.8009 39.3334 19.3721C40.2894 19.9433 41.0122 20.5922 41.498 21.3266C41.9838 22.061 42.2286 22.9546 42.2286 24.0115C42.2286 25.9621 41.5291 27.4386 40.1339 28.4489C38.7349 29.4592 36.8539 29.9643 34.4794 29.9643C33.4806 29.9643 32.5207 29.8866 31.5996 29.7273C30.6786 29.5679 29.8664 29.3737 29.1707 29.1366C28.4712 28.9035 27.9543 28.6665 27.6123 28.4333L27.6162 28.4372Z" fill="white"/>
<path d="M45.2285 28.4372L45.827 24.6527C46.0135 24.8042 46.3983 25.0062 46.9734 25.251C47.5486 25.4958 48.2365 25.7251 49.0332 25.9271C49.8337 26.1331 50.6538 26.2341 51.4971 26.2341C52.5658 26.2458 53.3508 26.102 53.8561 25.8028C54.3613 25.5036 54.6139 25.0529 54.6139 24.4545C54.6139 24.0426 54.4468 23.6851 54.1126 23.3821C53.7783 23.079 53.3236 22.7914 52.7485 22.5272C52.1733 22.263 51.5321 21.991 50.8286 21.7074C49.5617 21.2022 48.5124 20.6505 47.6846 20.0521C46.8568 19.4537 46.2428 18.7698 45.8347 18.0005C45.4306 17.2311 45.2324 16.3297 45.244 15.2961C45.2557 14.076 45.6093 13.0619 46.3089 12.2498C47.0084 11.4416 47.9411 10.8315 49.107 10.4274C50.2729 10.0233 51.5709 9.82129 52.9894 9.82129C54.4079 9.82129 55.6632 9.9534 56.6775 10.2176C57.6918 10.4818 58.3875 10.7266 58.7644 10.9481L58.1854 14.8026C57.9639 14.6161 57.6102 14.4141 57.1283 14.2043C56.6464 13.9944 56.1023 13.8196 55.5 13.6836C54.8976 13.5476 54.2836 13.4815 53.6617 13.4815C52.5231 13.4815 51.6914 13.6175 51.1706 13.8934C50.646 14.1693 50.3856 14.5656 50.3856 15.0824C50.3739 15.7507 50.6343 16.2481 51.1706 16.5706C51.7069 16.8931 52.4453 17.2545 53.3975 17.6547C54.8043 18.2297 55.9896 18.8009 56.9457 19.3721C57.9017 19.9433 58.6245 20.5922 59.1103 21.3266C59.5961 22.061 59.8409 22.9546 59.8409 24.0115C59.8409 25.9621 59.1414 27.4386 57.7462 28.4489C56.3472 29.4592 54.4662 29.9643 52.0917 29.9643C51.0929 29.9643 50.133 29.8866 49.2119 29.7273C48.2909 29.5679 47.4787 29.3737 46.783 29.1366C46.0835 28.9035 45.5666 28.6665 45.2246 28.4333L45.2285 28.4372Z" fill="white"/>
<path d="M69.8445 29.9685C68.4843 29.9685 67.3806 29.7665 66.5411 29.3624C65.7017 28.9583 65.0643 28.3793 64.6291 27.6294C64.1938 26.8795 63.9023 25.9936 63.7508 24.9716C63.5992 23.9497 63.5215 22.8229 63.5215 21.5912V10.0781H68.8729V21.6611C68.8729 22.8928 68.9778 23.8137 69.1916 24.4238C69.4014 25.0338 69.7279 25.4379 70.167 25.64C70.6062 25.8381 71.1736 25.9392 71.8654 25.9392C72.289 25.9392 72.7203 25.8809 73.1673 25.7643C73.6142 25.6477 74.0222 25.504 74.3992 25.333C74.7762 25.162 75.0638 25.0027 75.262 24.8473V10.0742H80.6328V29.9685H77.2168C76.7582 29.9685 76.4045 29.8986 76.1519 29.7587C75.8993 29.6188 75.775 29.2885 75.775 28.7718V27.4701L75.8799 27.9791C75.398 28.356 74.815 28.6941 74.1272 28.9932C73.4393 29.2924 72.7203 29.5295 71.9703 29.7082C71.2202 29.883 70.509 29.9724 69.8406 29.9724L69.8445 29.9685Z" fill="white"/>
<path d="M85.9219 29.6887V10.0936H90.5699L90.8691 13.1554L91.2927 14.088V29.6887H85.9219ZM90.9741 16.9051L90.7292 13.136C90.9391 12.5726 91.3277 12.0364 91.8912 11.5235C92.4547 11.0145 93.1232 10.5948 93.9004 10.2723C94.6738 9.94982 95.4899 9.78662 96.3488 9.78662C96.7024 9.78662 97.0289 9.80216 97.3243 9.84102C97.6235 9.87599 97.845 9.93427 97.9849 10.0159V15.2459C97.8217 15.141 97.5691 15.0361 97.2271 14.9273C96.8851 14.8185 96.3721 14.768 95.6765 14.768C94.8292 14.768 94.1025 14.8884 93.4924 15.1293C92.8822 15.3702 92.3692 15.6578 91.9495 15.9919C91.5298 16.3261 91.2072 16.6292 90.9741 16.8973V16.9051Z" fill="white"/>
<path d="M104.114 7.25691C103.243 7.25691 102.513 6.98881 101.914 6.44871C101.316 5.90861 101.017 5.20531 101.017 4.33494C101.017 3.74821 101.18 3.212 101.502 2.72241C101.825 2.23282 102.249 1.84426 102.769 1.55284C103.29 1.25754 103.854 1.11377 104.452 1.11377C105.416 1.11377 106.17 1.38576 106.714 1.93363C107.258 2.4815 107.534 3.18091 107.534 4.03575C107.534 4.89058 107.196 5.68713 106.523 6.3166C105.847 6.94607 105.047 7.25691 104.118 7.25691H104.114ZM101.701 29.6885V10.0934H107.071V29.6885H101.701Z" fill="white"/>
<path d="M118.606 29.9682C117.409 29.9682 116.418 29.77 115.641 29.3776C114.86 28.9851 114.277 28.3595 113.896 27.5008C113.515 26.646 113.325 25.5114 113.325 24.1048V13.7535H110.946V10.8821C111.817 10.6334 112.509 10.4003 113.033 10.1788C113.554 9.95731 113.935 9.56875 114.168 9.01699C114.285 8.74889 114.413 8.43027 114.545 8.06502C114.681 7.69977 114.825 7.30732 114.976 6.88379C115.128 6.46026 115.287 6.03284 115.45 5.59766H118.692V10.07H123.958V13.7497H118.692V21.8317C118.692 23.0751 118.758 23.9844 118.886 24.5517C119.014 25.1189 119.24 25.4842 119.554 25.6435C119.873 25.8028 120.328 25.8805 120.926 25.8805C121.229 25.8805 121.583 25.8417 121.983 25.7678C122.384 25.6901 122.765 25.5969 123.13 25.4764C123.495 25.3599 123.775 25.2355 123.973 25.1073L124.677 28.1186C124.358 28.4023 123.884 28.6859 123.25 28.9735C122.617 29.261 121.894 29.498 121.086 29.6884C120.277 29.8788 119.45 29.9721 118.602 29.9721L118.606 29.9682Z" fill="white"/>
<path d="M130.828 7.25691C129.957 7.25691 129.227 6.98881 128.628 6.44871C128.03 5.90861 127.73 5.20531 127.73 4.33494C127.73 3.74821 127.894 3.212 128.216 2.72241C128.539 2.23282 128.962 1.84426 129.483 1.55284C130.004 1.25754 130.567 1.11377 131.166 1.11377C132.13 1.11377 132.884 1.38576 133.428 1.93363C133.972 2.4815 134.248 3.18091 134.248 4.03575C134.248 4.89058 133.91 5.68713 133.237 6.3166C132.561 6.94607 131.761 7.25691 130.832 7.25691H130.828ZM128.414 29.6885V10.0934H133.785V29.6885H128.414Z" fill="white"/>
<path d="M141.904 7.25691C141.033 7.25691 140.303 6.98881 139.704 6.44871C139.106 5.90861 138.807 5.20531 138.807 4.33494C138.807 3.74821 138.97 3.212 139.292 2.72241C139.615 2.23282 140.039 1.84426 140.559 1.55284C141.08 1.25754 141.644 1.11377 142.242 1.11377C143.206 1.11377 143.96 1.38576 144.504 1.93363C145.048 2.4815 145.324 3.18091 145.324 4.03575C145.324 4.89058 144.986 5.68713 144.314 6.3166C143.637 6.94607 142.837 7.25691 141.908 7.25691H141.904ZM139.491 29.6885V10.0934H144.861V29.6885H139.491Z" fill="white"/>
</svg>
