<svg width="372" height="111" viewBox="0 0 372 111" fill="none" xmlns="http://www.w3.org/2000/svg">
<path d="M5.44017 110.49C57.9402 98.8401 111.8 93.26 165.51 91.43C187.43 90.51 212.72 90.9001 234.74 91.6901C245.42 92.0701 258.58 93.2301 269.29 93.8801C277.32 94.5301 295.52 96.7801 303.7 97.6301C314.76 99.2601 326.8 101.26 337.87 103.08C349.15 105.41 360.42 107.93 371.64 110.48C360.73 108.97 348.45 107.14 337.49 105.47C227.35 91.9001 115.26 95.69 5.43018 110.48L5.44017 110.49Z" fill="#3498DB"/>
<path d="M14.91 73.54H0L24.38 5.62H39.69L64.02 73.54H48.89L33.98 25.87L31.9 18.08L29.77 25.87L14.91 73.54ZM13.82 59.27L15.68 49.17H46.58L48.44 59.27H13.82Z" fill="#1A2A4A"/>
<path d="M68.05 70.32L69.59 60.58C70.07 60.97 71.06 61.49 72.54 62.12C74.02 62.75 75.79 63.34 77.84 63.86C79.9 64.39 82.01 64.65 84.18 64.65C86.93 64.68 88.95 64.31 90.25 63.54C91.55 62.77 92.2 61.61 92.2 60.07C92.2 59.01 91.77 58.09 90.91 57.31C90.05 56.53 88.88 55.79 87.4 55.11C85.92 54.43 84.27 53.73 82.46 53C79.2 51.7 76.5 50.28 74.37 48.74C72.24 47.2 70.66 45.44 69.61 43.46C68.57 41.48 68.06 39.16 68.09 36.5C68.12 33.36 69.03 30.75 70.83 28.66C72.63 26.58 75.03 25.01 78.03 23.97C81.03 22.93 84.37 22.41 88.02 22.41C91.67 22.41 94.9 22.75 97.51 23.43C100.12 24.11 101.91 24.74 102.88 25.31L101.39 35.23C100.82 34.75 99.91 34.23 98.67 33.69C97.43 33.15 96.03 32.7 94.48 32.35C92.93 32 91.35 31.83 89.75 31.83C86.82 31.83 84.68 32.18 83.34 32.89C81.99 33.6 81.32 34.62 81.32 35.95C81.29 37.67 81.96 38.95 83.34 39.78C84.72 40.61 86.62 41.54 89.07 42.57C92.69 44.05 95.74 45.52 98.2 46.99C100.66 48.46 102.52 50.13 103.77 52.02C105.02 53.91 105.65 56.21 105.65 58.93C105.65 63.95 103.85 67.75 100.26 70.35C96.66 72.95 91.82 74.25 85.71 74.25C83.14 74.25 80.67 74.05 78.3 73.64C75.93 73.23 73.84 72.73 72.05 72.12C70.25 71.52 68.92 70.91 68.04 70.31L68.05 70.32Z" fill="#1A2A4A"/>
<path d="M113.37 70.32L114.91 60.58C115.39 60.97 116.38 61.49 117.86 62.12C119.34 62.75 121.11 63.34 123.16 63.86C125.22 64.39 127.33 64.65 129.5 64.65C132.25 64.68 134.27 64.31 135.57 63.54C136.87 62.77 137.52 61.61 137.52 60.07C137.52 59.01 137.09 58.09 136.23 57.31C135.37 56.53 134.2 55.79 132.72 55.11C131.24 54.43 129.59 53.73 127.78 53C124.52 51.7 121.82 50.28 119.69 48.74C117.56 47.2 115.98 45.44 114.93 43.46C113.89 41.48 113.38 39.16 113.41 36.5C113.44 33.36 114.35 30.75 116.15 28.66C117.95 26.58 120.35 25.01 123.35 23.97C126.35 22.93 129.69 22.41 133.34 22.41C136.99 22.41 140.22 22.75 142.83 23.43C145.44 24.11 147.23 24.74 148.2 25.31L146.71 35.23C146.14 34.75 145.23 34.23 143.99 33.69C142.75 33.15 141.35 32.7 139.8 32.35C138.25 32 136.67 31.83 135.07 31.83C132.14 31.83 130 32.18 128.66 32.89C127.31 33.6 126.64 34.62 126.64 35.95C126.61 37.67 127.28 38.95 128.66 39.78C130.04 40.61 131.94 41.54 134.39 42.57C138.01 44.05 141.06 45.52 143.52 46.99C145.98 48.46 147.84 50.13 149.09 52.02C150.34 53.91 150.97 56.21 150.97 58.93C150.97 63.95 149.17 67.75 145.58 70.35C141.98 72.95 137.14 74.25 131.03 74.25C128.46 74.25 125.99 74.05 123.62 73.64C121.25 73.23 119.16 72.73 117.37 72.12C115.57 71.52 114.24 70.91 113.36 70.31L113.37 70.32Z" fill="#1A2A4A"/>
<path d="M176.71 74.26C173.21 74.26 170.37 73.74 168.21 72.7C166.05 71.66 164.41 70.17 163.29 68.24C162.17 66.31 161.42 64.03 161.03 61.4C160.64 58.77 160.44 55.87 160.44 52.7V23.07H174.21V52.88C174.21 56.05 174.48 58.42 175.03 59.99C175.57 61.56 176.41 62.6 177.54 63.12C178.67 63.63 180.13 63.89 181.91 63.89C183 63.89 184.11 63.74 185.26 63.44C186.41 63.14 187.46 62.77 188.43 62.33C189.4 61.89 190.14 61.48 190.65 61.08V23.06H204.47V74.26H195.68C194.5 74.26 193.59 74.08 192.94 73.72C192.29 73.36 191.97 72.51 191.97 71.18V67.83L192.24 69.14C191 70.11 189.5 70.98 187.73 71.75C185.96 72.52 184.11 73.13 182.18 73.59C180.25 74.04 178.42 74.27 176.7 74.27L176.71 74.26Z" fill="#1A2A4A"/>
<path d="M218.08 73.54V23.11H230.04L230.81 30.99L231.9 33.39V73.54H218.08ZM231.08 40.64L230.45 30.94C230.99 29.49 231.99 28.11 233.44 26.79C234.89 25.48 236.61 24.4 238.61 23.57C240.6 22.74 242.7 22.32 244.91 22.32C245.82 22.32 246.66 22.36 247.42 22.46C248.19 22.55 248.76 22.7 249.12 22.91V36.37C248.7 36.1 248.05 35.83 247.17 35.55C246.29 35.27 244.97 35.14 243.18 35.14C241 35.14 239.13 35.45 237.56 36.07C235.99 36.69 234.67 37.43 233.59 38.29C232.51 39.15 231.68 39.93 231.08 40.62V40.64Z" fill="#1A2A4A"/>
<path d="M264.89 15.81C262.65 15.81 260.77 15.12 259.23 13.73C257.69 12.34 256.92 10.53 256.92 8.29C256.92 6.78 257.34 5.4 258.17 4.14C259 2.88 260.09 1.88 261.43 1.13C262.77 0.369997 264.22 0 265.76 0C268.24 0 270.18 0.700001 271.58 2.11C272.98 3.52 273.69 5.32 273.69 7.52C273.69 9.72 272.82 11.77 271.09 13.39C269.35 15.01 267.29 15.81 264.9 15.81H264.89ZM258.68 73.54V23.11H272.5V73.54H258.68Z" fill="#1A2A4A"/>
<path d="M302.18 74.26C299.1 74.26 296.55 73.75 294.55 72.74C292.54 71.73 291.04 70.12 290.06 67.91C289.08 65.71 288.59 62.79 288.59 59.17V32.53H282.47V25.14C284.71 24.5 286.49 23.9 287.84 23.33C289.18 22.76 290.16 21.76 290.76 20.34C291.06 19.65 291.39 18.83 291.73 17.89C292.08 16.95 292.45 15.94 292.84 14.85C293.23 13.76 293.64 12.66 294.06 11.54H302.4V23.05H315.95V32.52H302.4V53.32C302.4 56.52 302.57 58.86 302.9 60.32C303.23 61.78 303.81 62.72 304.62 63.13C305.44 63.54 306.61 63.74 308.15 63.74C308.93 63.74 309.84 63.64 310.87 63.45C311.9 63.25 312.88 63.01 313.82 62.7C314.76 62.4 315.48 62.08 315.99 61.75L317.8 69.5C316.98 70.23 315.76 70.96 314.13 71.7C312.5 72.44 310.64 73.05 308.56 73.54C306.48 74.03 304.35 74.27 302.17 74.27L302.18 74.26Z" fill="#1A2A4A"/>
<path d="M333.63 15.81C331.39 15.81 329.51 15.12 327.97 13.73C326.43 12.34 325.66 10.53 325.66 8.29C325.66 6.78 326.08 5.4 326.91 4.14C327.74 2.88 328.83 1.88 330.17 1.13C331.51 0.369997 332.96 0 334.5 0C336.98 0 338.92 0.700001 340.32 2.11C341.72 3.52 342.43 5.32 342.43 7.52C342.43 9.72 341.56 11.77 339.83 13.39C338.09 15.01 336.03 15.81 333.64 15.81H333.63ZM327.42 73.54V23.11H341.24V73.54H327.42Z" fill="#1A2A4A"/>
<path d="M362.13 15.81C359.89 15.81 358.01 15.12 356.47 13.73C354.93 12.34 354.16 10.53 354.16 8.29C354.16 6.78 354.58 5.4 355.41 4.14C356.24 2.88 357.33 1.88 358.67 1.13C360.01 0.369997 361.46 0 363 0C365.48 0 367.42 0.700001 368.82 2.11C370.22 3.52 370.93 5.32 370.93 7.52C370.93 9.72 370.06 11.77 368.33 13.39C366.59 15.01 364.53 15.81 362.14 15.81H362.13ZM355.92 73.54V23.11H369.74V73.54H355.92Z" fill="#1A2A4A"/>
</svg>
