<svg width="24" height="24" viewBox="0 0 24 24" fill="none" xmlns="http://www.w3.org/2000/svg">
<path d="M17.8351 15.0787C17.3428 14.6347 16.6945 14.4039 16.0324 14.4369C15.3702 14.47 14.7482 14.7641 14.3026 15.255L13.7588 15.8587C13.5279 16.1119 13.3528 16.4109 13.2451 16.7362L13.1963 16.8825L13.0538 16.8262C10.6346 15.8673 8.65611 14.0465 7.50006 11.715L7.42506 11.5612L7.59006 11.5125C8.02273 11.3795 8.41143 11.132 8.71506 10.7962L9.25881 10.1962C9.70334 9.70392 9.9341 9.05518 9.90035 8.39272C9.86659 7.73026 9.57108 7.10834 9.07881 6.66375L8.16381 5.835C7.9205 5.6142 7.63601 5.44358 7.32665 5.33292C7.01729 5.22225 6.68914 5.17371 6.36098 5.19008C6.03283 5.20646 5.71114 5.28742 5.41433 5.42833C5.11752 5.56924 4.85143 5.76733 4.63131 6.01125L4.08756 6.61125C4.0152 6.68998 3.94877 6.77396 3.88881 6.8625L3.86256 6.8925C3.34881 7.33125 2.91381 8.3925 3.16506 9.70875C3.74279 12.6848 5.26926 15.3935 7.51578 17.4291C9.7623 19.4647 12.6079 20.7175 15.6263 21C16.3718 21.0837 17.1245 20.9274 17.7751 20.5537C17.9996 20.4149 18.2018 20.243 18.3751 20.0437L18.9188 19.44C19.3629 18.9482 19.5943 18.3008 19.5627 17.639C19.5311 16.9771 19.239 16.3547 18.7501 15.9075L17.8351 15.0787ZM12.3413 3C12.1947 3.01176 12.058 3.0783 11.9582 3.18636C11.8585 3.29442 11.8031 3.43607 11.8031 3.58313C11.8031 3.73018 11.8585 3.87183 11.9582 3.97989C12.058 4.08795 12.1947 4.15449 12.3413 4.16625C14.306 4.16824 16.1896 4.94957 17.5788 6.33878C18.968 7.728 19.7493 9.61161 19.7513 11.5763C19.7631 11.7228 19.8296 11.8596 19.9377 11.9593C20.0457 12.0591 20.1874 12.1144 20.3344 12.1144C20.4815 12.1144 20.6231 12.0591 20.7312 11.9593C20.8393 11.8596 20.9058 11.7228 20.9176 11.5763C20.9146 9.3026 20.0101 7.12293 18.4023 5.51521C16.7946 3.9075 14.615 3.00298 12.3413 3Z" fill="white"/>
<path d="M16.8973 11.67C16.909 11.8166 16.9756 11.9534 17.0836 12.0531C17.1917 12.1528 17.3333 12.2082 17.4804 12.2082C17.6274 12.2082 17.7691 12.1528 17.8772 12.0531C17.9852 11.9534 18.0518 11.8166 18.0635 11.67C18.0615 10.128 17.4481 8.64981 16.3578 7.55948C15.2675 6.46916 13.7892 5.85574 12.2473 5.85375C12.1709 5.85375 12.0954 5.86879 12.0248 5.898C11.9543 5.92721 11.8902 5.97002 11.8363 6.024C11.7823 6.07797 11.7395 6.14205 11.7103 6.21257C11.6811 6.28309 11.666 6.35867 11.666 6.435C11.666 6.51133 11.6811 6.58692 11.7103 6.65744C11.7395 6.72796 11.7823 6.79203 11.8363 6.84601C11.8902 6.89998 11.9543 6.9428 12.0248 6.97201C12.0954 7.00122 12.1709 7.01625 12.2473 7.01625C13.4806 7.01824 14.6627 7.5093 15.5344 8.38172C16.4062 9.25415 16.8963 10.4367 16.8973 11.67Z" fill="white"/>
</svg>
