<svg width="122" height="40" viewBox="0 0 122 40" fill="none" xmlns="http://www.w3.org/2000/svg">
<g clip-path="url(#clip0_312_410)">
<path d="M15.1329 0.0755615H16.2156C19.9731 0.157043 23.6685 1.6726 26.3242 4.35556C25.3434 5.36 24.3435 6.32297 23.3835 7.32593C21.8932 5.97482 20.0957 4.93038 18.1357 4.56149C15.2349 3.94667 12.111 4.49927 9.67987 6.15852C8.3587 7.04222 7.24272 8.20088 6.40779 9.55575C5.57287 10.9106 5.03857 12.4299 4.84122 14.0104C4.41142 17.1215 5.28432 20.4 7.31224 22.8178C8.29154 23.9957 9.50636 24.9544 10.8782 25.632C12.25 26.3095 13.7483 26.6908 15.2762 26.7511C18.1357 26.9141 21.1163 26.0341 23.1988 24.0267C24.8339 22.6133 25.5886 20.4622 25.8338 18.3733C22.4367 18.3733 19.0544 18.3926 15.6647 18.3733V14.1467H29.9384C30.6769 18.6741 29.6119 23.7763 26.1809 27.0104C23.8945 29.3052 20.7278 30.6578 17.502 30.923C14.348 31.2467 11.1694 30.6195 8.37272 29.1215C5.0164 27.3191 2.42598 24.3566 1.08226 20.7837C-0.134643 17.4917 -0.170678 13.8773 0.980352 10.5615C2.04365 7.55142 4.00281 4.94144 6.59294 3.08445C9.06839 1.26371 12.0697 0.259265 15.1329 0.0755615Z" fill="#3780FF"/>
<path d="M97.0244 1.14075H101.395V30.3911C99.9444 30.3911 98.4748 30.4119 97.0244 30.3704C97.0451 20.64 97.0244 10.8904 97.0244 1.14075Z" fill="#38B137"/>
<path d="M39.6606 11.28C42.3561 10.7674 45.2732 11.3407 47.502 12.9585C49.5412 14.4241 50.9267 16.6328 51.3614 19.1111C51.9123 21.9585 51.2137 25.0726 49.3807 27.3259C47.4001 29.8444 44.1522 31.197 40.987 30.9926C38.0876 30.8281 35.2695 29.3733 33.5532 26.9926C31.6139 24.3704 31.1442 20.7704 32.2062 17.6918C33.2682 14.3941 36.2694 11.8755 39.6606 11.2815M40.2721 15.1733C39.1516 15.4631 38.1513 16.1009 37.4141 16.9955C35.4334 19.3659 35.5546 23.2429 37.7405 25.4563C38.366 26.0875 39.136 26.5555 39.9832 26.8197C40.8305 27.0839 41.7293 27.1361 42.6013 26.9718C43.4021 26.8157 44.1582 26.483 44.815 25.9977C45.4717 25.5124 46.0127 24.8867 46.3987 24.1659C47.7472 21.7274 47.3587 18.3689 45.2968 16.4622C44.6295 15.8505 43.8224 15.4128 42.9467 15.1877C42.0709 14.9627 41.1534 14.9572 40.275 15.1718L40.2721 15.1733Z" fill="#FA3913"/>
<path d="M61.3069 11.28C64.3894 10.6874 67.7599 11.5452 70.0669 13.717C73.8244 17.0963 74.2335 23.4267 71.027 27.3185C69.0862 29.7763 65.9417 31.1289 62.8385 30.9852C59.8771 30.9022 56.9571 29.4282 55.1995 26.9852C53.2188 24.3007 52.7905 20.6148 53.913 17.48C55.037 14.2844 57.9777 11.8504 61.3069 11.2741M61.9183 15.1659C60.8031 15.456 59.8047 16.0853 59.0603 16.9674C57.0989 19.3037 57.1816 23.1126 59.2849 25.3452C59.9137 26.0118 60.6994 26.5094 61.5698 26.7924C62.4403 27.0753 63.3676 27.1344 64.2668 26.9644C65.0651 26.8013 65.8184 26.4658 66.4744 25.9813C67.1304 25.4967 67.6734 24.8747 68.0656 24.1585C69.3949 21.6993 69.005 18.3407 66.9224 16.4356C66.2567 15.8274 65.4518 15.3934 64.5789 15.172C63.7061 14.9505 62.7922 14.9484 61.9183 15.1659Z" fill="#FCBD06"/>
<path d="M79.6667 12.4682C82.0151 10.9867 85.1316 10.5837 87.672 11.8533C88.4681 12.2015 89.121 12.7956 89.7546 13.3896C89.7753 12.837 89.7546 12.2622 89.7753 11.6889C91.143 11.7096 92.5107 11.6889 93.9005 11.7096V29.7778C93.8799 32.5022 93.1857 35.3896 91.2242 37.3778C89.0811 39.5689 85.7918 40.2444 82.8319 39.7941C79.6667 39.323 76.9091 37.0089 75.6832 34.08C76.9091 33.4874 78.1941 33.0148 79.4614 32.4607C80.1763 34.1407 81.6267 35.5719 83.4493 35.9022C85.2719 36.2326 87.3707 35.7793 88.5553 34.2637C89.8211 32.7067 89.8211 30.5763 89.7605 28.6711C88.8211 29.5941 87.7385 30.4133 86.4314 30.72C83.5926 31.5185 80.4687 30.5363 78.2828 28.6104C77.1746 27.6336 76.2954 26.4232 75.7081 25.0658C75.1208 23.7084 74.84 22.2375 74.8857 20.7585C74.9477 17.4207 76.8264 14.2044 79.6652 12.4622M83.8939 15.0889C82.6384 15.3097 81.5019 15.9707 80.6873 16.9541C78.7672 19.2474 78.7672 22.9141 80.708 25.1674C81.2647 25.8311 81.9736 26.3492 82.774 26.6775C83.5743 27.0057 84.4422 27.1342 85.3029 27.0519C86.1127 26.9555 86.8885 26.6693 87.5674 26.2163C88.2464 25.7633 88.8095 25.1563 89.2111 24.4445C90.5581 22.0474 90.3336 18.7911 88.5154 16.7022C87.9462 16.0603 87.2227 15.5751 86.4138 15.2927C85.6049 15.0104 84.7374 14.9402 83.8939 15.0889Z" fill="#3780FF"/>
<path d="M106.639 13.5126C109.09 11.2178 112.868 10.44 116.014 11.6489C118.994 12.7748 120.888 15.6222 121.854 18.5511C117.423 20.3941 113.011 22.2178 108.58 24.0607C109.193 25.2296 110.133 26.2933 111.398 26.7274C113.171 27.3615 115.299 27.1363 116.789 25.9482C117.38 25.5037 117.851 24.9111 118.3 24.3304C119.424 25.0889 120.547 25.8252 121.671 26.5837C120.077 28.9807 117.402 30.6607 114.522 30.9259C111.336 31.3156 107.947 30.0859 105.885 27.5881C102.495 23.6548 102.821 17.0593 106.639 13.5141M108.825 17.3037C108.131 18.3067 107.845 19.5363 107.865 20.7452C110.826 19.5156 113.787 18.281 116.748 17.0415C116.259 15.8948 115.075 15.1985 113.869 15.0133C111.931 14.6667 109.911 15.7037 108.828 17.3022L108.825 17.3037Z" fill="#FA3913"/>
</g>
<defs>
<clipPath id="clip0_312_410">
<rect width="122" height="40" fill="white"/>
</clipPath>
</defs>
</svg>
