<svg width="329" height="200" viewBox="0 0 329 200" fill="none" xmlns="http://www.w3.org/2000/svg">
<path d="M166.255 97.1668L166.269 97.1715L166.264 97.1572L166.255 97.162V97.1668Z" fill="#F5F5F5"/>
<path d="M166.316 97.281L166.321 97.2905L166.316 97.281Z" fill="#F5F5F5"/>
<path d="M166.346 97.2191L166.35 97.2334L166.36 97.2144L166.346 97.2191Z" fill="#F5F5F5"/>
<path d="M166.178 97.3334L166.116 97.7143L166.278 97.381L166.264 97.2429L166.178 97.3334Z" fill="#F5F5F5"/>
<path d="M166.326 97.2191L166.336 97.2286V97.2191H166.326Z" fill="#F5F5F5"/>
<path d="M78.9649 36.0524L75.0026 33.9143L70.9878 35.962L71.8032 31.5334L68.6133 28.3572L73.0762 27.762L75.117 23.7524L77.0672 27.8096L81.5158 28.5048L78.2544 31.6096L78.9649 36.0524Z" fill="#D7E1EE"/>
<path d="M193.614 12.8571L189.652 10.719L185.637 12.7667L186.453 8.33808L183.263 5.16189L187.726 4.56665L189.766 0.552368L191.717 4.60951L196.165 5.30951L192.904 8.41427L193.614 12.8571Z" fill="#D7E1EE"/>
<path d="M84.3193 190.191L80.357 188.048L76.3423 190.1L77.1576 185.671L73.9678 182.495L78.4307 181.9L80.4715 177.886L82.4216 181.943L86.8703 182.643L83.6089 185.748L84.3193 190.191Z" fill="#D7E1EE"/>
<path d="M253.902 188.557L249.935 186.414L245.925 188.462L246.736 184.038L243.546 180.862L248.014 180.267L250.054 176.252L252 180.31L256.453 181.01L253.187 184.11L253.902 188.557Z" fill="#D7E1EE"/>
<path d="M49.8036 39.2429L47.7485 38.1334L45.6696 39.1953L46.094 36.9L44.4395 35.2524L46.752 34.9429L47.8105 32.8667L48.8214 34.9667L51.1244 35.3286L49.4364 36.9381L49.8036 39.2429Z" fill="#D7E1EE"/>
<path d="M106.086 199.805L104.031 198.695L101.952 199.757L102.371 197.462L100.717 195.814L103.034 195.505L104.093 193.429L105.099 195.533L107.406 195.89L105.714 197.5L106.086 199.805Z" fill="#D7E1EE"/>
<path d="M229.737 164.133L227.682 163.024L225.603 164.081L226.028 161.791L224.373 160.143L226.686 159.833L227.744 157.757L228.755 159.857L231.063 160.219L229.37 161.829L229.737 164.133Z" fill="#D7E1EE"/>
<path d="M278.921 38.2905L276.866 37.181L274.787 38.2429L275.211 35.9524L273.557 34.3048L275.869 33.9953L276.928 31.9143L277.939 34.0191L280.246 34.381L278.554 35.9905L278.921 38.2905Z" fill="#D7E1EE"/>
<path d="M328.056 51.9H246.221V165.5H328.056V51.9Z" fill="white"/>
<path d="M328.056 51.9H246.221V93.0191H328.056V51.9Z" fill="#455A64"/>
<path d="M313.885 103.095C313.885 103.167 302.632 103.224 288.757 103.224C274.882 103.224 263.629 103.167 263.629 103.095C263.629 103.024 274.877 102.971 288.757 102.971C302.637 102.971 313.885 103.014 313.885 103.095Z" fill="#263238"/>
<path d="M313.885 114.157C313.885 114.224 302.632 114.281 288.757 114.281C274.882 114.281 263.629 114.224 263.629 114.157C263.629 114.091 274.877 114.033 288.757 114.033C302.637 114.033 313.885 114.091 313.885 114.157Z" fill="#263238"/>
<path d="M313.885 125.233C313.885 125.3 302.632 125.357 288.757 125.357C274.882 125.357 263.629 125.3 263.629 125.233C263.629 125.167 274.877 125.105 288.757 125.105C302.637 125.105 313.885 125.162 313.885 125.233Z" fill="#263238"/>
<path d="M313.675 138H264.521C259.686 138 255.767 141.914 255.767 146.743V147.652C255.767 152.481 259.686 156.395 264.521 156.395H313.675C318.51 156.395 322.43 152.481 322.43 147.652V146.743C322.43 141.914 318.51 138 313.675 138Z" fill="#455A64"/>
<path d="M270.758 80.0048C271.107 80.1456 271.404 80.3912 271.607 80.7076C271.81 81.0241 271.91 81.3959 271.893 81.7715C271.902 82.1464 271.801 82.5158 271.602 82.8334C271.393 83.1412 271.1 83.3825 270.758 83.5287C270.353 83.7006 269.915 83.785 269.475 83.7763H268.522V85.2048H266.981V79.762H269.47C269.912 79.7488 270.351 79.8316 270.758 80.0048ZM270.1 82.3572C270.252 82.1993 270.337 81.9885 270.337 81.7691C270.337 81.5498 270.252 81.339 270.1 81.181C269.895 81.0261 269.641 80.9516 269.385 80.9715H268.526V82.562H269.399C269.649 82.5773 269.897 82.5049 270.1 82.3572Z" fill="white"/>
<path d="M275.02 83.7524H274.166V85.181H272.641V79.7619H275.12C275.56 79.7509 275.998 79.8354 276.403 80.0096C276.651 80.1276 276.873 80.296 277.053 80.504C277.233 80.712 277.368 80.9551 277.449 81.2178C277.53 81.4806 277.556 81.7574 277.524 82.0305C277.493 82.3037 277.405 82.5674 277.266 82.8048C277.071 83.1027 276.797 83.3402 276.474 83.4905L277.647 85.2H275.997L275.02 83.7524ZM275.754 81.181C275.55 81.0261 275.295 80.9515 275.039 80.9715H274.166V82.5619H275.025C275.28 82.5807 275.533 82.5081 275.74 82.3572C275.892 82.1992 275.977 81.9884 275.977 81.7691C275.977 81.5497 275.892 81.3389 275.74 81.181H275.754Z" fill="white"/>
<path d="M282.749 84.0096V85.1953H278.377V79.762H282.668V80.9524H279.922V81.8667H282.339V83.0191H279.922V84.0143L282.749 84.0096Z" fill="white"/>
<path d="M288.538 85.1953V82.3382L287.136 84.6858H286.455L285.062 82.4143V85.2191H283.632V79.762H284.9L286.807 82.9001L288.672 79.762H289.94V85.2001L288.538 85.1953Z" fill="white"/>
<path d="M291.046 79.762H292.586V85.2001H291.046V79.762Z" fill="white"/>
<path d="M294.307 84.6429C294.073 84.3935 293.893 84.0987 293.777 83.7768C293.661 83.4549 293.613 83.1128 293.635 82.7715V79.762H295.175V82.7286C295.175 83.6001 295.518 84.0334 296.21 84.0334C296.901 84.0334 297.235 83.6001 297.235 82.7286V79.762H298.751V82.7762C298.773 83.1175 298.725 83.4597 298.609 83.7816C298.494 84.1035 298.313 84.3982 298.079 84.6477C297.544 85.0762 296.879 85.3098 296.193 85.3098C295.507 85.3098 294.842 85.0762 294.307 84.6477V84.6429Z" fill="white"/>
<path d="M304.711 85.1953V82.3382L303.314 84.6858H302.627L301.235 82.4143V85.2191H299.805V79.762H301.073L302.98 82.9001L304.845 79.762H306.113V85.2001L304.711 85.1953Z" fill="white"/>
<path d="M276.613 149.057C276.202 148.838 275.862 148.508 275.631 148.105C275.394 147.695 275.269 147.23 275.269 146.757C275.269 146.284 275.394 145.819 275.631 145.41C275.866 145.016 276.206 144.694 276.613 144.481C277.053 144.248 277.546 144.132 278.044 144.143C278.451 144.135 278.856 144.215 279.231 144.376C279.578 144.522 279.886 144.749 280.127 145.038L279.374 145.733C279.22 145.545 279.026 145.394 278.805 145.291C278.585 145.188 278.344 145.136 278.101 145.138C277.808 145.134 277.518 145.206 277.262 145.348C277.02 145.481 276.82 145.679 276.685 145.919C276.547 146.177 276.477 146.465 276.48 146.757C276.475 147.049 276.546 147.338 276.685 147.595C276.818 147.838 277.018 148.038 277.262 148.171C277.519 148.311 277.808 148.382 278.101 148.376C278.345 148.379 278.586 148.326 278.806 148.222C279.027 148.118 279.221 147.966 279.374 147.776L280.127 148.471C279.886 148.763 279.579 148.993 279.231 149.143C278.851 149.299 278.444 149.377 278.034 149.371C277.541 149.389 277.052 149.281 276.613 149.057Z" fill="white"/>
<path d="M284.342 145.795C284.501 145.967 284.622 146.17 284.7 146.392C284.777 146.613 284.807 146.847 284.79 147.081V149.286H283.66V147.233C283.679 146.988 283.608 146.744 283.46 146.548C283.384 146.47 283.293 146.409 283.191 146.369C283.09 146.33 282.982 146.313 282.873 146.319C282.748 146.313 282.622 146.333 282.504 146.378C282.387 146.423 282.28 146.492 282.191 146.581C282.009 146.8 281.918 147.082 281.939 147.367V149.271H280.809V143.948H281.939V145.824C282.093 145.672 282.278 145.555 282.482 145.481C282.703 145.399 282.938 145.359 283.174 145.362C283.388 145.352 283.601 145.385 283.802 145.459C284.003 145.534 284.186 145.648 284.342 145.795Z" fill="white"/>
<path d="M286.602 149.11C286.286 148.947 286.022 148.7 285.839 148.395C285.658 148.081 285.562 147.725 285.562 147.362C285.562 146.999 285.658 146.643 285.839 146.329C286.022 146.026 286.287 145.78 286.602 145.619C286.944 145.45 287.321 145.362 287.703 145.362C288.085 145.362 288.462 145.45 288.805 145.619C289.118 145.781 289.381 146.027 289.563 146.329C289.744 146.643 289.839 146.999 289.839 147.362C289.839 147.725 289.744 148.081 289.563 148.395C289.381 148.699 289.119 148.946 288.805 149.11C288.461 149.276 288.085 149.362 287.703 149.362C287.322 149.362 286.945 149.276 286.602 149.11ZM288.419 148.157C288.611 147.942 288.711 147.66 288.695 147.372C288.703 147.23 288.683 147.087 288.635 146.953C288.588 146.819 288.514 146.696 288.419 146.591C288.325 146.497 288.213 146.422 288.09 146.371C287.968 146.321 287.836 146.294 287.703 146.294C287.57 146.294 287.439 146.321 287.316 146.371C287.194 146.422 287.082 146.497 286.988 146.591C286.891 146.695 286.816 146.818 286.768 146.952C286.719 147.087 286.699 147.229 286.707 147.372C286.699 147.515 286.72 147.658 286.768 147.793C286.816 147.928 286.891 148.052 286.988 148.157C287.18 148.343 287.436 148.448 287.703 148.448C287.971 148.448 288.227 148.343 288.419 148.157Z" fill="white"/>
<path d="M291.332 149.11C291.017 148.946 290.753 148.699 290.569 148.395C290.391 148.08 290.298 147.724 290.298 147.362C290.298 147 290.391 146.644 290.569 146.329C290.753 146.026 291.017 145.78 291.332 145.619C291.674 145.444 292.054 145.356 292.438 145.362C292.82 145.355 293.197 145.443 293.535 145.619C293.85 145.78 294.115 146.026 294.298 146.329C294.476 146.644 294.569 147 294.569 147.362C294.569 147.724 294.476 148.08 294.298 148.395C294.114 148.699 293.85 148.946 293.535 149.11C293.196 149.282 292.819 149.368 292.438 149.362C292.055 149.368 291.675 149.281 291.332 149.11ZM293.149 148.157C293.343 147.943 293.444 147.66 293.43 147.371C293.437 147.229 293.416 147.087 293.368 146.953C293.32 146.819 293.245 146.696 293.149 146.591C293.057 146.495 292.947 146.419 292.825 146.368C292.702 146.317 292.571 146.293 292.438 146.295C292.305 146.292 292.173 146.316 292.049 146.367C291.926 146.418 291.815 146.494 291.723 146.591C291.625 146.695 291.549 146.817 291.5 146.952C291.451 147.086 291.429 147.229 291.437 147.371C291.43 147.515 291.452 147.658 291.501 147.793C291.55 147.928 291.625 148.052 291.723 148.157C291.816 148.253 291.927 148.328 292.05 148.378C292.173 148.428 292.306 148.452 292.438 148.448C292.572 148.451 292.705 148.425 292.828 148.374C292.951 148.322 293.062 148.245 293.154 148.148L293.149 148.157Z" fill="white"/>
<path d="M295.69 149.243C295.428 149.186 295.178 149.085 294.951 148.943L295.328 148.133C295.522 148.256 295.734 148.348 295.957 148.405C296.193 148.474 296.437 148.509 296.682 148.51C297.159 148.51 297.397 148.395 297.397 148.157C297.395 148.102 297.375 148.048 297.34 148.005C297.305 147.962 297.256 147.932 297.202 147.919C297.006 147.856 296.805 147.815 296.601 147.795C296.335 147.758 296.072 147.703 295.814 147.629C295.608 147.569 295.421 147.453 295.275 147.295C295.114 147.108 295.032 146.866 295.047 146.619C295.043 146.384 295.119 146.154 295.261 145.967C295.421 145.762 295.636 145.607 295.881 145.519C296.187 145.41 296.51 145.356 296.835 145.362C297.11 145.361 297.386 145.392 297.655 145.452C297.891 145.501 298.12 145.584 298.332 145.7L297.955 146.505C297.614 146.311 297.227 146.21 296.835 146.214C296.648 146.203 296.461 146.237 296.291 146.314C296.24 146.337 296.195 146.374 296.163 146.42C296.131 146.466 296.113 146.52 296.11 146.576C296.11 146.634 296.129 146.69 296.165 146.736C296.2 146.781 296.249 146.814 296.305 146.829C296.507 146.894 296.715 146.94 296.925 146.967C297.189 147.008 297.45 147.063 297.707 147.133C297.91 147.194 298.092 147.307 298.236 147.462C298.394 147.647 298.474 147.886 298.46 148.129C298.464 148.361 298.388 148.588 298.246 148.771C298.079 148.973 297.859 149.124 297.612 149.21C297.295 149.319 296.96 149.371 296.625 149.362C296.309 149.362 295.995 149.322 295.69 149.243Z" fill="white"/>
<path d="M302.956 147.681H300.014C300.061 147.913 300.196 148.118 300.391 148.252C300.609 148.398 300.868 148.471 301.13 148.462C301.314 148.463 301.496 148.433 301.669 148.371C301.831 148.306 301.979 148.209 302.103 148.086L302.704 148.733C302.5 148.95 302.251 149.119 301.974 149.228C301.696 149.337 301.399 149.382 301.102 149.362C300.698 149.369 300.298 149.283 299.933 149.11C299.61 148.95 299.339 148.702 299.151 148.395C298.973 148.081 298.88 147.726 298.88 147.364C298.88 147.003 298.973 146.648 299.151 146.333C299.329 146.032 299.586 145.784 299.895 145.619C300.22 145.455 300.578 145.369 300.942 145.369C301.306 145.369 301.664 145.455 301.988 145.619C302.294 145.78 302.547 146.025 302.718 146.324C302.898 146.65 302.989 147.018 302.98 147.391C302.98 147.391 302.975 147.491 302.956 147.681ZM300.32 146.429C300.141 146.579 300.027 146.792 300 147.024H301.907C301.879 146.794 301.765 146.583 301.588 146.433C301.41 146.286 301.185 146.208 300.954 146.214C300.723 146.207 300.498 146.283 300.32 146.429Z" fill="white"/>
<path d="M258.518 105.148C258.343 105.15 258.173 105.087 258.041 104.971L256.639 103.738C256.497 103.612 256.411 103.434 256.4 103.244C256.388 103.055 256.453 102.868 256.58 102.726C256.706 102.584 256.884 102.498 257.074 102.487C257.264 102.476 257.451 102.54 257.593 102.667L258.466 103.433L260.44 101.252C260.569 101.123 260.743 101.049 260.926 101.044C261.109 101.039 261.286 101.104 261.422 101.226C261.559 101.348 261.643 101.517 261.658 101.699C261.673 101.881 261.617 102.062 261.503 102.205L259.052 104.905C258.985 104.981 258.903 105.042 258.811 105.083C258.719 105.125 258.619 105.147 258.518 105.148Z" fill="#455A64"/>
<path d="M258.518 116.219C258.343 116.221 258.173 116.158 258.041 116.043L256.639 114.814C256.568 114.752 256.511 114.676 256.469 114.591C256.428 114.506 256.404 114.414 256.398 114.32C256.386 114.13 256.451 113.943 256.577 113.8C256.704 113.657 256.882 113.571 257.072 113.559C257.263 113.547 257.45 113.612 257.593 113.738L258.465 114.505L260.439 112.329C260.5 112.253 260.576 112.19 260.662 112.145C260.748 112.099 260.842 112.072 260.939 112.064C261.036 112.056 261.133 112.068 261.225 112.099C261.317 112.13 261.402 112.179 261.475 112.244C261.547 112.309 261.605 112.388 261.646 112.476C261.687 112.564 261.71 112.659 261.712 112.756C261.715 112.854 261.698 112.95 261.661 113.04C261.625 113.131 261.571 113.212 261.503 113.281L259.052 115.981C258.985 116.057 258.903 116.117 258.811 116.158C258.719 116.199 258.619 116.22 258.518 116.219Z" fill="#455A64"/>
<path d="M258.518 127.295C258.343 127.297 258.173 127.235 258.041 127.119L256.639 125.886C256.497 125.759 256.411 125.582 256.4 125.392C256.388 125.202 256.453 125.016 256.58 124.874C256.706 124.732 256.884 124.646 257.074 124.635C257.264 124.623 257.451 124.688 257.593 124.814L258.466 125.581L260.44 123.4C260.569 123.271 260.743 123.196 260.926 123.191C261.109 123.187 261.286 123.252 261.422 123.374C261.559 123.496 261.643 123.665 261.658 123.847C261.673 124.029 261.617 124.21 261.503 124.352L259.052 127.052C258.985 127.128 258.903 127.189 258.811 127.231C258.719 127.273 258.619 127.295 258.518 127.295Z" fill="#455A64"/>
<path d="M292.014 62.8857L293.191 65.2715L295.833 65.6572L293.921 67.5143L294.374 70.1381L292.014 68.9L289.653 70.1381L290.102 67.5143L288.194 65.6572L290.831 65.2715L292.014 62.8857Z" fill="white"/>
<path d="M282.74 62.8857L283.923 65.2715L286.559 65.6572L284.652 67.5143L285.1 70.1381L282.74 68.9L280.38 70.1381L280.833 67.5143L278.921 65.6572L281.562 65.2715L282.74 62.8857Z" fill="white"/>
<path d="M290.24 72.7239L287.136 71.0525L284.003 72.6525L284.637 69.1953L282.144 66.7096L285.634 66.243L287.226 63.1049L288.752 66.2763L292.233 66.8239L289.682 69.2525L290.24 72.7239Z" fill="white"/>
<path d="M281.528 66.5L285.448 65.981L287.236 62.4619L288.943 66.0191L292.848 66.6333L289.987 69.3524L290.612 73.2524L287.136 71.3762L283.617 73.1714L284.327 69.2905L281.528 66.5ZM291.618 67.0143L288.561 66.5381L287.221 63.7476L285.82 66.5048L282.749 66.9048L284.938 69.0857L284.384 72.1429L287.14 70.7143L289.863 72.1857L289.386 69.1333L291.618 67.0143Z" fill="#455A64"/>
<path d="M328.046 165.5C328.046 164.5 327.999 119.048 327.932 51.9001L328.046 52.0143H246.221L246.345 51.8905C246.345 94.3953 246.345 133.724 246.345 165.491L246.245 165.391L328.08 165.491L246.245 165.591H246.14V165.491C246.14 133.724 246.14 94.3953 246.14 51.8905V51.7667H246.273H328.099H328.208V51.8762C328.099 119.048 328.046 164.524 328.046 165.5Z" fill="#263238"/>
<path d="M220.614 23.269V179.107H108.486V23.269H220.614Z" fill="white" stroke="#263238" stroke-width="0.5"/>
<path d="M220.614 23.269V79.355H108.486V23.269H220.614Z" fill="#3498DB" stroke="#263238" stroke-width="0.5"/>
<path d="M189.113 27.8024H209.129C211.961 27.8024 214.258 30.0954 214.258 32.9235V33.4811C214.258 36.3092 211.962 38.6022 209.129 38.6022H189.113C186.281 38.6022 183.984 36.3092 183.984 33.4811V32.9235C183.985 30.0954 186.281 27.8024 189.113 27.8024Z" fill="#263238" stroke="#263238" stroke-width="0.5"/>
<mask id="path-44-inside-1_312_1124" fill="white">
<path d="M201.362 93.4619C201.362 93.5286 185.875 93.5858 166.783 93.5858C147.692 93.5858 132.195 93.5286 132.195 93.4619C132.195 93.3953 147.677 93.3381 166.783 93.3381C185.889 93.3381 201.362 93.3905 201.362 93.4619Z"/>
</mask>
<path d="M201.362 93.4619C201.362 93.5286 185.875 93.5858 166.783 93.5858C147.692 93.5858 132.195 93.5286 132.195 93.4619C132.195 93.3953 147.677 93.3381 166.783 93.3381C185.889 93.3381 201.362 93.3905 201.362 93.4619Z" fill="#263238"/>
<path d="M201.362 93.4619H200.862C200.873 93.3564 200.944 93.1876 200.991 93.1264C201.026 93.0912 201.092 93.0413 201.12 93.0248C201.171 92.9967 201.214 92.9847 201.226 92.9815C201.257 92.973 201.28 92.97 201.282 92.9698C201.292 92.9684 201.294 92.9685 201.282 92.9694C201.261 92.9708 201.224 92.9726 201.166 92.9746C201.052 92.9785 200.88 92.9825 200.65 92.9865C200.192 92.9944 199.514 93.0021 198.639 93.0094C196.89 93.0242 194.359 93.0375 191.23 93.0489C184.973 93.0715 176.329 93.0858 166.783 93.0858V93.5858V94.0858C176.329 94.0858 184.975 94.0715 191.234 94.0488C194.363 94.0375 196.896 94.0241 198.648 94.0094C199.523 94.002 200.204 93.9943 200.667 93.9863C200.899 93.9824 201.078 93.9783 201.2 93.974C201.261 93.9719 201.312 93.9697 201.351 93.967C201.369 93.9658 201.394 93.9638 201.419 93.9604C201.428 93.9591 201.457 93.9551 201.492 93.9455C201.505 93.9418 201.55 93.9293 201.602 93.9006C201.63 93.8839 201.696 93.8338 201.732 93.7983C201.779 93.7368 201.85 93.5678 201.862 93.4619H201.362ZM166.783 93.5858V93.0858C157.238 93.0858 148.592 93.0715 142.332 93.0489C139.202 93.0375 136.669 93.0242 134.919 93.0094C134.044 93.0021 133.366 92.9944 132.907 92.9865C132.677 92.9825 132.505 92.9785 132.391 92.9746C132.333 92.9726 132.296 92.9708 132.275 92.9694C132.262 92.9685 132.265 92.9684 132.275 92.9698C132.277 92.97 132.3 92.973 132.331 92.9815C132.342 92.9846 132.386 92.9967 132.437 93.0248C132.465 93.0412 132.53 93.0911 132.566 93.1263C132.613 93.1875 132.684 93.3563 132.695 93.4619H132.195H131.695C131.707 93.5678 131.778 93.7369 131.825 93.7984C131.861 93.8339 131.927 93.884 131.955 93.9007C132.007 93.9293 132.052 93.9419 132.065 93.9455C132.1 93.9551 132.129 93.9591 132.138 93.9604C132.163 93.9638 132.188 93.9658 132.206 93.967C132.245 93.9697 132.296 93.9719 132.357 93.974C132.479 93.9783 132.659 93.9824 132.89 93.9863C133.353 93.9943 134.035 94.002 134.911 94.0094C136.663 94.0241 139.198 94.0375 142.328 94.0488C148.589 94.0715 157.237 94.0858 166.783 94.0858V93.5858ZM132.195 93.4619H132.695C132.684 93.5675 132.613 93.7362 132.566 93.7975C132.531 93.8327 132.465 93.8826 132.437 93.899C132.386 93.9272 132.343 93.9392 132.331 93.9424C132.3 93.9509 132.277 93.9539 132.275 93.9541C132.265 93.9555 132.262 93.9554 132.275 93.9545C132.296 93.9531 132.333 93.9513 132.391 93.9493C132.505 93.9453 132.677 93.9414 132.906 93.9374C133.365 93.9295 134.042 93.9218 134.917 93.9145C136.666 93.8997 139.197 93.8863 142.326 93.875C148.584 93.8524 157.231 93.8381 166.783 93.8381V93.3381V92.8381C157.23 92.8381 148.582 92.8524 142.323 92.875C139.193 92.8864 136.66 92.8998 134.909 92.9145C134.033 92.9219 133.352 92.9296 132.889 92.9376C132.658 92.9415 132.479 92.9456 132.357 92.9499C132.296 92.952 132.245 92.9542 132.206 92.9569C132.188 92.9581 132.163 92.9601 132.138 92.9635C132.129 92.9648 132.1 92.9688 132.065 92.9784C132.052 92.9821 132.007 92.9947 131.955 93.0233C131.926 93.04 131.861 93.0902 131.825 93.1256C131.777 93.1871 131.707 93.3561 131.695 93.4619H132.195ZM166.783 93.3381V93.8381C176.336 93.8381 184.98 93.8512 191.235 93.8733C194.363 93.8843 196.893 93.8975 198.641 93.9125C199.515 93.9199 200.193 93.9278 200.65 93.936C200.88 93.9402 201.052 93.9443 201.165 93.9485C201.223 93.9506 201.26 93.9525 201.28 93.954C201.292 93.9549 201.289 93.9549 201.277 93.9533C201.275 93.9529 201.25 93.9495 201.217 93.9398C201.205 93.9361 201.159 93.9226 201.107 93.8916C201.095 93.8848 200.862 93.7562 200.862 93.4619H201.362H201.862C201.862 93.1672 201.628 93.038 201.615 93.0306C201.562 92.9991 201.515 92.985 201.5 92.9807C201.464 92.97 201.433 92.9654 201.423 92.964C201.397 92.9601 201.371 92.958 201.353 92.9567C201.314 92.9538 201.262 92.9513 201.201 92.9491C201.079 92.9446 200.899 92.9403 200.668 92.9362C200.206 92.9279 199.525 92.92 198.65 92.9125C196.899 92.8975 194.367 92.8843 191.239 92.8733C184.982 92.8512 176.337 92.8381 166.783 92.8381V93.3381Z" fill="#263238" mask="url(#path-44-inside-1_312_1124)"/>
<mask id="path-46-inside-2_312_1124" fill="white">
<path d="M201.362 108.7C201.362 108.767 185.875 108.824 166.783 108.824C147.692 108.824 132.195 108.767 132.195 108.7C132.195 108.633 147.677 108.576 166.783 108.576C185.889 108.576 201.362 108.633 201.362 108.7Z"/>
</mask>
<path d="M201.362 108.7C201.362 108.767 185.875 108.824 166.783 108.824C147.692 108.824 132.195 108.767 132.195 108.7C132.195 108.633 147.677 108.576 166.783 108.576C185.889 108.576 201.362 108.633 201.362 108.7Z" fill="#263238"/>
<path d="M201.362 108.7H200.862C200.873 108.594 200.944 108.426 200.991 108.364C201.026 108.329 201.092 108.279 201.12 108.263C201.171 108.235 201.214 108.223 201.226 108.22C201.257 108.211 201.28 108.208 201.282 108.208C201.292 108.206 201.294 108.207 201.282 108.207C201.261 108.209 201.224 108.211 201.166 108.213C201.052 108.217 200.88 108.221 200.65 108.225C200.192 108.232 199.514 108.24 198.639 108.247C196.89 108.262 194.359 108.276 191.23 108.287C184.973 108.309 176.329 108.324 166.783 108.324V108.824V109.324C176.329 109.324 184.975 109.309 191.234 109.287C194.363 109.276 196.896 109.262 198.648 109.247C199.523 109.24 200.204 109.232 200.667 109.224C200.899 109.22 201.078 109.216 201.2 109.212C201.261 109.21 201.312 109.208 201.351 109.205C201.369 109.204 201.394 109.202 201.419 109.198C201.428 109.197 201.457 109.193 201.492 109.184C201.505 109.18 201.55 109.167 201.602 109.139C201.63 109.122 201.696 109.072 201.732 109.036C201.779 108.975 201.85 108.806 201.862 108.7H201.362ZM166.783 108.824V108.324C157.238 108.324 148.592 108.309 142.332 108.287C139.202 108.276 136.669 108.262 134.919 108.247C134.044 108.24 133.366 108.232 132.907 108.225C132.677 108.221 132.505 108.217 132.391 108.213C132.333 108.211 132.296 108.209 132.275 108.207C132.262 108.207 132.265 108.206 132.275 108.208C132.277 108.208 132.3 108.211 132.331 108.219C132.342 108.223 132.386 108.235 132.437 108.263C132.465 108.279 132.53 108.329 132.566 108.364C132.613 108.426 132.684 108.594 132.695 108.7H132.195H131.695C131.707 108.806 131.778 108.975 131.825 109.036C131.861 109.072 131.927 109.122 131.955 109.139C132.007 109.167 132.052 109.18 132.065 109.184C132.1 109.193 132.129 109.197 132.138 109.198C132.163 109.202 132.188 109.204 132.206 109.205C132.245 109.208 132.296 109.21 132.357 109.212C132.479 109.216 132.659 109.22 132.89 109.224C133.353 109.232 134.035 109.24 134.911 109.247C136.663 109.262 139.198 109.276 142.328 109.287C148.589 109.309 157.237 109.324 166.783 109.324V108.824ZM132.195 108.7H132.695C132.684 108.806 132.613 108.974 132.566 109.035C132.531 109.071 132.465 109.121 132.437 109.137C132.386 109.165 132.343 109.177 132.331 109.18C132.3 109.189 132.277 109.192 132.275 109.192C132.265 109.194 132.262 109.193 132.275 109.193C132.296 109.191 132.333 109.189 132.391 109.187C132.505 109.183 132.677 109.179 132.906 109.175C133.365 109.168 134.042 109.16 134.917 109.152C136.666 109.138 139.197 109.124 142.326 109.113C148.584 109.09 157.231 109.076 166.783 109.076V108.576V108.076C157.23 108.076 148.582 108.09 142.323 108.113C139.193 108.124 136.66 108.138 134.909 108.153C134.033 108.16 133.352 108.168 132.889 108.176C132.658 108.18 132.479 108.184 132.357 108.188C132.296 108.19 132.245 108.192 132.206 108.195C132.188 108.196 132.163 108.198 132.138 108.202C132.129 108.203 132.1 108.207 132.065 108.216C132.052 108.22 132.007 108.233 131.955 108.261C131.926 108.278 131.861 108.328 131.825 108.364C131.777 108.425 131.707 108.594 131.695 108.7H132.195ZM166.783 108.576V109.076C176.336 109.076 184.98 109.09 191.235 109.113C194.363 109.124 196.893 109.138 198.641 109.152C199.515 109.16 200.193 109.168 200.651 109.175C200.88 109.179 201.052 109.183 201.166 109.187C201.224 109.189 201.261 109.191 201.282 109.193C201.294 109.193 201.292 109.194 201.282 109.192C201.28 109.192 201.257 109.189 201.226 109.18C201.214 109.177 201.17 109.165 201.119 109.137C201.092 109.121 201.026 109.071 200.991 109.035C200.944 108.974 200.873 108.805 200.862 108.7H201.362H201.862C201.85 108.594 201.779 108.425 201.732 108.364C201.696 108.328 201.631 108.278 201.602 108.261C201.55 108.233 201.505 108.22 201.492 108.216C201.457 108.207 201.428 108.203 201.419 108.202C201.394 108.198 201.369 108.196 201.351 108.195C201.312 108.192 201.261 108.19 201.2 108.188C201.078 108.184 200.899 108.18 200.668 108.176C200.205 108.168 199.525 108.16 198.65 108.153C196.899 108.138 194.367 108.124 191.239 108.113C184.982 108.09 176.337 108.076 166.783 108.076V108.576Z" fill="#263238" mask="url(#path-46-inside-2_312_1124)"/>
<mask id="path-48-inside-3_312_1124" fill="white">
<path d="M201.362 123.943C201.362 124.009 185.875 124.067 166.783 124.067C147.692 124.067 132.195 124.009 132.195 123.943C132.195 123.876 147.677 123.819 166.783 123.819C185.889 123.819 201.362 123.871 201.362 123.943Z"/>
</mask>
<path d="M201.362 123.943C201.362 124.009 185.875 124.067 166.783 124.067C147.692 124.067 132.195 124.009 132.195 123.943C132.195 123.876 147.677 123.819 166.783 123.819C185.889 123.819 201.362 123.871 201.362 123.943Z" fill="#263238"/>
<path d="M201.362 123.943H200.862C200.873 123.837 200.944 123.668 200.991 123.607C201.026 123.572 201.092 123.522 201.12 123.506C201.171 123.478 201.214 123.465 201.226 123.462C201.257 123.454 201.28 123.451 201.282 123.451C201.292 123.449 201.294 123.449 201.282 123.45C201.261 123.452 201.224 123.453 201.166 123.455C201.052 123.459 200.88 123.463 200.65 123.467C200.192 123.475 199.514 123.483 198.639 123.49C196.89 123.505 194.359 123.518 191.23 123.53C184.973 123.552 176.329 123.567 166.783 123.567V124.067V124.567C176.329 124.567 184.975 124.552 191.234 124.53C194.363 124.518 196.896 124.505 198.648 124.49C199.523 124.483 200.204 124.475 200.667 124.467C200.899 124.463 201.078 124.459 201.2 124.455C201.261 124.453 201.312 124.45 201.351 124.448C201.369 124.447 201.394 124.445 201.419 124.441C201.428 124.44 201.457 124.436 201.492 124.426C201.505 124.423 201.55 124.41 201.602 124.381C201.63 124.365 201.696 124.315 201.732 124.279C201.779 124.218 201.85 124.049 201.862 123.943H201.362ZM166.783 124.067V123.567C157.238 123.567 148.592 123.552 142.332 123.53C139.202 123.518 136.669 123.505 134.919 123.49C134.044 123.483 133.366 123.475 132.907 123.467C132.677 123.463 132.505 123.459 132.391 123.455C132.333 123.453 132.296 123.452 132.275 123.45C132.262 123.449 132.265 123.449 132.275 123.451C132.277 123.451 132.3 123.454 132.331 123.462C132.342 123.465 132.386 123.478 132.437 123.506C132.465 123.522 132.53 123.572 132.566 123.607C132.613 123.668 132.684 123.837 132.695 123.943H132.195H131.695C131.707 124.049 131.778 124.218 131.825 124.279C131.861 124.315 131.927 124.365 131.955 124.382C132.007 124.41 132.052 124.423 132.065 124.426C132.1 124.436 132.129 124.44 132.138 124.441C132.163 124.445 132.188 124.447 132.206 124.448C132.245 124.45 132.296 124.453 132.357 124.455C132.479 124.459 132.659 124.463 132.89 124.467C133.353 124.475 134.035 124.483 134.911 124.49C136.663 124.505 139.198 124.518 142.328 124.53C148.589 124.552 157.237 124.567 166.783 124.567V124.067ZM132.195 123.943H132.695C132.684 124.048 132.613 124.217 132.566 124.278C132.531 124.314 132.465 124.363 132.437 124.38C132.386 124.408 132.343 124.42 132.331 124.423C132.3 124.432 132.277 124.435 132.275 124.435C132.265 124.436 132.262 124.436 132.275 124.435C132.296 124.434 132.333 124.432 132.391 124.43C132.505 124.426 132.677 124.422 132.906 124.418C133.365 124.41 134.042 124.403 134.917 124.395C136.666 124.381 139.197 124.367 142.326 124.356C148.584 124.333 157.231 124.319 166.783 124.319V123.819V123.319C157.23 123.319 148.582 123.333 142.323 123.356C139.193 123.367 136.66 123.381 134.909 123.395C134.033 123.403 133.352 123.41 132.889 123.418C132.658 123.422 132.479 123.426 132.357 123.431C132.296 123.433 132.245 123.435 132.206 123.438C132.188 123.439 132.163 123.441 132.138 123.444C132.129 123.446 132.1 123.45 132.065 123.459C132.052 123.463 132.007 123.475 131.955 123.504C131.926 123.521 131.861 123.571 131.825 123.606C131.777 123.668 131.707 123.837 131.695 123.943H132.195ZM166.783 123.819V124.319C176.336 124.319 184.98 124.332 191.235 124.354C194.363 124.365 196.893 124.378 198.641 124.393C199.515 124.401 200.193 124.409 200.65 124.417C200.88 124.421 201.052 124.425 201.165 124.429C201.223 124.431 201.26 124.433 201.28 124.435C201.292 124.436 201.289 124.436 201.277 124.434C201.275 124.434 201.25 124.43 201.217 124.421C201.205 124.417 201.159 124.403 201.107 124.372C201.095 124.366 200.862 124.237 200.862 123.943H201.362H201.862C201.862 123.648 201.628 123.519 201.615 123.511C201.562 123.48 201.515 123.466 201.5 123.462C201.464 123.451 201.433 123.446 201.423 123.445C201.397 123.441 201.371 123.439 201.353 123.437C201.314 123.435 201.262 123.432 201.201 123.43C201.079 123.425 200.899 123.421 200.668 123.417C200.206 123.409 199.525 123.401 198.65 123.393C196.899 123.378 194.367 123.365 191.239 123.354C184.982 123.332 176.337 123.319 166.783 123.319V123.819Z" fill="#263238" mask="url(#path-48-inside-3_312_1124)"/>
<path d="M201.076 141.51H133.421C126.769 141.51 121.377 146.895 121.377 153.538V154.8C121.377 161.443 126.769 166.829 133.421 166.829H201.076C207.728 166.829 213.12 161.443 213.12 154.8V153.538C213.12 146.895 207.728 141.51 201.076 141.51Z" fill="#3498DB"/>
<path d="M137.684 70.8523C137.188 70.7376 136.716 70.5343 136.292 70.2524L136.988 68.6952C137.35 68.9283 137.743 69.108 138.156 69.2285C138.579 69.3604 139.02 69.4294 139.463 69.4333C140.273 69.4333 140.683 69.2285 140.683 68.8238C140.683 68.718 140.649 68.6151 140.586 68.5297C140.524 68.4442 140.436 68.3805 140.335 68.3476C139.973 68.2036 139.598 68.0936 139.215 68.019C138.729 67.9252 138.251 67.7947 137.784 67.6285C137.408 67.4919 137.071 67.2626 136.807 66.9619C136.523 66.6133 136.379 66.1723 136.402 65.7238C136.396 65.2821 136.527 64.8495 136.778 64.4857C137.058 64.0936 137.446 63.7909 137.894 63.6143C138.475 63.3854 139.096 63.2768 139.72 63.2952C140.21 63.2957 140.698 63.3516 141.175 63.4619C141.618 63.5541 142.044 63.7148 142.438 63.9381L141.785 65.5095C141.153 65.1467 140.44 64.9485 139.711 64.9333C139.393 64.9096 139.074 64.9739 138.79 65.119C138.704 65.1655 138.632 65.2341 138.58 65.3178C138.529 65.4014 138.501 65.4972 138.5 65.5952C138.502 65.6966 138.536 65.7947 138.598 65.8752C138.66 65.9557 138.745 66.0145 138.843 66.0428C139.2 66.1805 139.569 66.2857 139.944 66.3571C140.43 66.4512 140.908 66.5801 141.375 66.7428C141.741 66.8873 142.067 67.1157 142.328 67.4095C142.618 67.7529 142.765 68.1944 142.738 68.6428C142.743 69.0777 142.613 69.5034 142.367 69.8619C142.08 70.2515 141.69 70.5533 141.241 70.7333C140.662 70.963 140.043 71.0732 139.42 71.0571C138.835 71.0637 138.252 70.9948 137.684 70.8523Z" fill="white"/>
<path d="M145.232 65.1238H142.929V63.4429H149.642V65.1238H147.349V70.9286H145.232V65.1238Z" fill="white"/>
<path d="M155.078 69.4762H151.912L151.321 70.9048H149.161L152.465 63.4191H154.554L157.892 70.9048H155.689L155.078 69.4762ZM154.459 67.9143L153.505 65.5334L152.551 67.9143H154.459Z" fill="white"/>
<path d="M165.601 63.4429V70.9286H163.856L160.547 66.9429V70.9286H158.473V63.4429H160.218L163.522 67.4333V63.4429H165.601Z" fill="white"/>
<path d="M167.089 63.4428H170.632C171.386 63.4343 172.133 63.5972 172.815 63.919C173.424 64.2015 173.938 64.6549 174.293 65.2238C174.637 65.8259 174.818 66.5069 174.818 67.2C174.818 67.893 174.637 68.5741 174.293 69.1762C173.939 69.7461 173.425 70.1998 172.815 70.4809C172.134 70.805 171.386 70.968 170.632 70.9571H167.089V63.4428ZM170.546 69.2381C171.113 69.2648 171.669 69.0702 172.095 68.6952C172.469 68.282 172.676 67.745 172.676 67.1881C172.676 66.6311 172.469 66.0941 172.095 65.6809C171.671 65.3024 171.114 65.1058 170.546 65.1333H169.211V69.2381H170.546Z" fill="white"/>
<path d="M180.855 69.4762H177.689L177.097 70.9048H174.938L178.242 63.4191H180.33L183.668 70.9048H181.441L180.855 69.4762ZM180.235 67.9143L179.281 65.5334L178.328 67.9143H180.235Z" fill="white"/>
<path d="M187.525 68.9381H186.366V70.9286H184.254V63.4429H187.677C188.283 63.43 188.884 63.5452 189.442 63.781C189.92 63.9782 190.327 64.3173 190.606 64.7523C190.886 65.1874 191.025 65.6977 191.006 66.2143C191.029 66.712 190.901 67.205 190.64 67.6296C190.379 68.0542 189.997 68.3906 189.542 68.5952L191.158 70.9476H188.889L187.525 68.9381ZM188.531 65.4C188.246 65.1907 187.896 65.0894 187.544 65.1143H186.366V67.3048H187.544C187.896 67.3296 188.246 67.2284 188.531 67.0191C188.643 66.9183 188.731 66.7936 188.788 66.6542C188.845 66.5149 188.869 66.3645 188.86 66.2143C188.87 66.0639 188.847 65.913 188.793 65.7723C188.739 65.6317 188.654 65.5046 188.545 65.4H188.531Z" fill="white"/>
<path d="M192.169 63.4428H195.697C196.452 63.4343 197.199 63.5972 197.881 63.919C198.489 64.2029 199.002 64.656 199.359 65.2238C199.703 65.8259 199.884 66.5069 199.884 67.2C199.884 67.893 199.703 68.5741 199.359 69.1762C199.004 69.745 198.49 70.1984 197.881 70.4809C197.199 70.805 196.452 70.968 195.697 70.9571H192.169V63.4428ZM195.626 69.2381C196.192 69.2661 196.747 69.0712 197.171 68.6952C197.548 68.2835 197.757 67.7459 197.757 67.1881C197.757 66.6302 197.548 66.0926 197.171 65.6809C196.748 65.3018 196.193 65.105 195.626 65.1333H194.267V69.2381H195.626Z" fill="white"/>
<path d="M192.621 31.983C192.824 31.9795 193.026 32.0183 193.214 32.0963C193.317 32.1463 193.41 32.2166 193.485 32.3033C193.563 32.3922 193.62 32.4966 193.654 32.609C193.689 32.7214 193.7 32.8399 193.687 32.9567C193.673 33.0716 193.634 33.1818 193.576 33.2819C193.488 33.406 193.366 33.5024 193.224 33.5573L193.215 33.5612C193.029 33.6411 192.827 33.6789 192.624 33.6735H191.757V34.5074H191.556V31.983H192.621ZM191.762 33.6022H192.579V33.6012C192.765 33.6085 192.946 33.5614 193.106 33.4694H193.147L193.218 33.4098C193.302 33.3378 193.369 33.247 193.413 33.1451C193.453 33.0521 193.473 32.9514 193.472 32.8502C193.479 32.7368 193.46 32.6229 193.416 32.5182C193.372 32.4138 193.304 32.3211 193.218 32.2477L193.2 32.234L193.054 32.1481C192.907 32.0781 192.743 32.0467 192.579 32.0553V32.0543H191.762V33.6022Z" fill="white" stroke="#263238" stroke-width="0.5"/>
<path d="M195.469 32.6503C195.611 32.6503 195.752 32.6743 195.886 32.7216L196.017 32.7772C196.127 32.8367 196.224 32.9174 196.303 33.0145C196.383 33.1138 196.443 33.2286 196.479 33.3514C196.514 33.4741 196.524 33.6027 196.508 33.7294C196.492 33.8531 196.453 33.9725 196.392 34.0809C196.301 34.2242 196.173 34.3391 196.02 34.412L196.017 34.4139C195.97 34.4366 195.922 34.4549 195.873 34.4716L196.084 34.2235C196.235 34.0452 196.317 33.8192 196.317 33.5858C196.317 33.3817 196.254 33.1832 196.138 33.0175L196.084 32.9481L196.076 32.9393L196.015 32.8798C195.95 32.8233 195.876 32.7772 195.796 32.744C195.694 32.7019 195.585 32.6818 195.476 32.6835C195.361 32.68 195.247 32.7005 195.141 32.744C195.034 32.7877 194.938 32.8539 194.858 32.9374L194.854 32.9423L194.849 32.9481C194.698 33.1264 194.615 33.3524 194.615 33.5858C194.615 33.8192 194.698 34.0452 194.849 34.2235L194.854 34.2294L194.858 34.2343C194.938 34.3177 195.034 34.3829 195.141 34.4266C195.244 34.469 195.354 34.4892 195.466 34.4872V34.4882L195.469 34.4872C195.471 34.4871 195.473 34.4873 195.476 34.4872C195.532 34.4871 195.588 34.4813 195.643 34.4696V34.5262C195.585 34.5343 195.527 34.5399 195.469 34.5399C195.279 34.5399 195.091 34.4972 194.921 34.4139L194.917 34.412L194.807 34.3505C194.702 34.2816 194.614 34.1906 194.547 34.0839C194.462 33.9352 194.417 33.7668 194.417 33.5956C194.417 33.4246 194.461 33.2558 194.546 33.1073C194.637 32.9649 194.766 32.8514 194.919 32.7782L194.92 32.7772C195.091 32.6938 195.279 32.6503 195.469 32.6503Z" fill="white" stroke="#263238" stroke-width="0.5"/>
<path d="M197.588 32.6831V33.3569L197.652 33.2827C197.621 33.3798 197.605 33.4818 197.604 33.5854C197.604 33.6977 197.624 33.8083 197.66 33.9126L197.621 33.8696V35.3452H197.444V32.6831H197.588ZM198.556 32.6499H198.576C198.737 32.6473 198.897 32.6876 199.037 32.7661L199.04 32.7671C199.141 32.822 199.229 32.8984 199.297 32.9897L199.358 33.0864C199.439 33.2441 199.481 33.4183 199.481 33.5952C199.481 33.7721 199.439 33.9464 199.358 34.104C199.285 34.2387 199.175 34.3501 199.04 34.4233L199.037 34.4243C198.897 34.5028 198.737 34.5431 198.576 34.5405H198.557C198.463 34.5464 198.37 34.5322 198.283 34.4976C198.244 34.4818 198.207 34.4611 198.172 34.438C198.262 34.4694 198.356 34.4868 198.453 34.4868C198.678 34.4868 198.894 34.3977 199.054 34.2388L199.062 34.2319L199.068 34.2231C199.219 34.0449 199.302 33.8189 199.302 33.5854C199.302 33.3521 199.219 33.126 199.068 32.9478L199.062 32.9399L199.054 32.9321C198.894 32.7733 198.678 32.6841 198.453 32.6841C198.373 32.6841 198.295 32.6958 198.22 32.7173C198.234 32.7099 198.249 32.703 198.265 32.6968C198.357 32.6592 198.456 32.6432 198.556 32.6499Z" fill="white" stroke="#263238" stroke-width="0.5"/>
<path d="M200.606 32.6835V33.6473C200.606 33.864 200.651 34.0739 200.784 34.2313C200.922 34.3942 201.118 34.4569 201.323 34.4589V34.4598C201.325 34.4599 201.328 34.4588 201.33 34.4589H201.333C201.42 34.4611 201.506 34.448 201.589 34.4208C201.553 34.4457 201.515 34.4676 201.475 34.4852C201.381 34.5227 201.281 34.5423 201.18 34.5409L201.171 34.5399L201.163 34.5409C201.063 34.5461 200.963 34.5317 200.869 34.4979C200.778 34.4653 200.695 34.4147 200.623 34.3505C200.556 34.2722 200.504 34.1816 200.471 34.0839C200.436 33.9815 200.421 33.8734 200.429 33.7655L200.43 33.7567V32.6835H200.606ZM202.275 32.6815V34.5067H202.146V33.8212L202.081 33.8934C202.112 33.7913 202.124 33.6842 202.117 33.576V32.6796L202.275 32.6815Z" fill="white" stroke="#263238" stroke-width="0.5"/>
<path d="M203.577 31.8024V34.5074H203.4V31.8024H203.577Z" fill="white" stroke="#263238" stroke-width="0.5"/>
<path d="M204.832 33.7075C204.74 33.7985 204.696 33.9176 204.693 34.0464H204.692C204.689 34.1298 204.707 34.2132 204.745 34.2876C204.782 34.36 204.838 34.4208 204.905 34.4663V34.4673C204.944 34.4938 204.985 34.5147 205.027 34.5327C204.948 34.5227 204.869 34.5035 204.795 34.4712L204.794 34.4702C204.735 34.4446 204.683 34.4076 204.64 34.3608L204.601 34.311C204.56 34.2432 204.539 34.1655 204.539 34.0864V34.0786C204.538 34.0203 204.551 33.9622 204.576 33.9097C204.6 33.8602 204.635 33.8167 204.679 33.7827C204.728 33.7529 204.779 33.7284 204.832 33.7075ZM205.399 32.645C205.635 32.6282 205.868 32.6998 206.054 32.8452C206.127 32.9171 206.185 33.0039 206.221 33.1001C206.258 33.1991 206.272 33.3055 206.263 33.4106L206.261 33.4214V34.5073H206.132V33.6558L206.084 33.7251V33.5356H206.066L206.074 33.4048C206.08 33.306 206.064 33.2068 206.027 33.1147C205.991 33.0227 205.935 32.9398 205.863 32.8716L205.853 32.8608L205.841 32.8521C205.683 32.7335 205.488 32.675 205.291 32.6841L205.292 32.6831C205.138 32.6822 204.985 32.708 204.84 32.7593C204.8 32.7718 204.761 32.7867 204.723 32.8032L204.709 32.7749C204.77 32.7473 204.833 32.7249 204.897 32.7075V32.7085C205.055 32.6664 205.218 32.6448 205.381 32.645H205.399Z" fill="white" stroke="#263238" stroke-width="0.5"/>
<path d="M207.534 32.6781V33.4896L207.563 33.4486C207.555 33.4931 207.549 33.5381 207.548 33.5834L207.549 33.6742V34.5023H207.391V32.6781H207.534ZM208.321 32.7709C208.243 32.7764 208.166 32.7923 208.092 32.8187C208.064 32.8285 208.037 32.8385 208.011 32.851C208.061 32.7936 208.122 32.7466 208.191 32.7152C208.234 32.6989 208.277 32.6875 208.321 32.6771V32.7709Z" fill="white" stroke="#263238" stroke-width="0.5"/>
<path d="M150.062 156.733C149.503 156.437 149.036 155.992 148.713 155.448C148.388 154.883 148.217 154.244 148.217 153.593C148.217 152.942 148.388 152.302 148.713 151.738C149.037 151.196 149.504 150.753 150.062 150.457C150.614 150.179 151.218 150.023 151.835 149.998C152.452 149.974 153.067 150.081 153.638 150.314C154.116 150.517 154.537 150.83 154.869 151.229L153.834 152.181C153.621 151.923 153.353 151.715 153.049 151.574C152.746 151.434 152.414 151.363 152.079 151.367C151.676 151.36 151.278 151.458 150.925 151.652C150.592 151.836 150.317 152.11 150.134 152.443C149.949 152.799 149.853 153.194 149.853 153.595C149.853 153.996 149.949 154.391 150.134 154.748C150.319 155.08 150.593 155.354 150.925 155.538C151.279 155.73 151.677 155.827 152.079 155.819C152.415 155.824 152.747 155.753 153.051 155.611C153.355 155.47 153.623 155.26 153.834 155L154.869 155.952C154.537 156.355 154.113 156.671 153.634 156.876C153.113 157.093 152.553 157.202 151.989 157.195C151.318 157.203 150.656 157.044 150.062 156.733Z" fill="white"/>
<path d="M160.704 152.243C160.922 152.48 161.09 152.76 161.196 153.065C161.302 153.369 161.343 153.693 161.319 154.014V157.076H159.765V154.252C159.789 153.912 159.691 153.574 159.488 153.3C159.384 153.192 159.258 153.107 159.118 153.053C158.978 152.999 158.827 152.976 158.677 152.986C158.501 152.975 158.325 153.003 158.161 153.066C157.996 153.129 157.847 153.227 157.724 153.352C157.471 153.652 157.346 154.038 157.376 154.429V157.076H155.821V149.695H157.376V152.281C157.587 152.069 157.843 151.907 158.124 151.805C158.43 151.694 158.753 151.639 159.078 151.643C159.376 151.627 159.673 151.672 159.953 151.775C160.232 151.878 160.488 152.037 160.704 152.243Z" fill="white"/>
<path d="M163.813 156.8C163.377 156.578 163.012 156.238 162.759 155.819C162.502 155.387 162.372 154.893 162.382 154.39C162.373 153.889 162.504 153.394 162.759 152.962C163.013 152.545 163.378 152.208 163.813 151.986C164.281 151.744 164.802 151.623 165.329 151.633C165.855 151.623 166.374 151.744 166.841 151.986C167.274 152.208 167.637 152.546 167.89 152.962C168.145 153.394 168.276 153.889 168.266 154.39C168.277 154.893 168.147 155.387 167.89 155.819C167.639 156.238 167.275 156.578 166.841 156.8C166.374 157.042 165.855 157.163 165.329 157.152C164.802 157.162 164.281 157.041 163.813 156.8ZM166.311 155.481C166.558 155.175 166.693 154.793 166.693 154.4C166.693 154.007 166.558 153.625 166.311 153.319C166.185 153.187 166.032 153.084 165.863 153.015C165.694 152.946 165.512 152.913 165.329 152.919C165.146 152.914 164.964 152.947 164.794 153.016C164.624 153.085 164.47 153.188 164.342 153.319C164.093 153.624 163.957 154.006 163.957 154.4C163.957 154.794 164.093 155.176 164.342 155.481C164.47 155.612 164.624 155.715 164.794 155.784C164.964 155.853 165.146 155.886 165.329 155.881C165.512 155.886 165.694 155.853 165.864 155.783C166.033 155.713 166.185 155.609 166.311 155.476V155.481Z" fill="white"/>
<path d="M170.332 156.8C169.897 156.578 169.533 156.238 169.283 155.819C169.026 155.387 168.895 154.892 168.906 154.39C168.897 153.889 169.027 153.394 169.283 152.962C169.535 152.546 169.898 152.208 170.332 151.986C170.806 151.755 171.33 151.645 171.857 151.667C172.383 151.656 172.902 151.777 173.369 152.019C173.8 152.243 174.161 152.58 174.413 152.995C174.669 153.427 174.799 153.922 174.79 154.424C174.801 154.926 174.67 155.421 174.413 155.852C174.163 156.27 173.801 156.61 173.369 156.833C172.902 157.075 172.383 157.196 171.857 157.186C171.324 157.187 170.8 157.054 170.332 156.8ZM172.811 155.476C173.06 155.171 173.197 154.789 173.197 154.395C173.197 154.001 173.06 153.619 172.811 153.314C172.685 153.183 172.534 153.079 172.365 153.01C172.197 152.941 172.015 152.908 171.834 152.914C171.65 152.908 171.468 152.941 171.298 153.01C171.128 153.079 170.974 153.182 170.847 153.314C170.594 153.618 170.455 154 170.455 154.395C170.455 154.79 170.594 155.173 170.847 155.476C170.974 155.608 171.128 155.712 171.298 155.781C171.468 155.85 171.65 155.882 171.834 155.876C172.015 155.882 172.197 155.849 172.365 155.78C172.534 155.712 172.685 155.608 172.811 155.476Z" fill="white"/>
<path d="M176.32 156.99C175.961 156.908 175.618 156.768 175.305 156.576L175.824 155.462C176.092 155.629 176.383 155.756 176.687 155.838C177.011 155.931 177.347 155.979 177.684 155.981C178.342 155.981 178.671 155.822 178.671 155.505C178.669 155.428 178.641 155.353 178.591 155.294C178.542 155.234 178.475 155.193 178.399 155.176C178.133 155.088 177.858 155.029 177.579 155C177.212 154.949 176.849 154.872 176.492 154.771C176.208 154.68 175.953 154.516 175.753 154.295C175.64 154.165 175.554 154.014 175.499 153.851C175.445 153.687 175.425 153.514 175.438 153.343C175.434 153.018 175.538 152.702 175.734 152.443C175.954 152.162 176.25 151.951 176.587 151.833C177.013 151.678 177.464 151.604 177.918 151.614C178.298 151.613 178.677 151.655 179.048 151.738C179.374 151.8 179.689 151.916 179.977 152.081L179.462 153.186C178.992 152.919 178.459 152.781 177.918 152.786C177.661 152.771 177.404 152.819 177.169 152.924C177.099 152.955 177.039 153.005 176.995 153.068C176.951 153.131 176.926 153.204 176.921 153.281C176.92 153.361 176.946 153.439 176.996 153.502C177.045 153.566 177.115 153.61 177.193 153.629C177.47 153.72 177.756 153.784 178.046 153.819C178.41 153.876 178.77 153.954 179.124 154.052C179.401 154.137 179.651 154.293 179.849 154.505C180.067 154.758 180.178 155.086 180.159 155.419C180.161 155.74 180.055 156.052 179.858 156.305C179.63 156.583 179.327 156.791 178.986 156.905C178.551 157.056 178.092 157.129 177.632 157.119C177.191 157.132 176.75 157.089 176.32 156.99Z" fill="white"/>
<path d="M186.324 154.838H182.276C182.34 155.156 182.524 155.437 182.79 155.624C183.091 155.823 183.446 155.922 183.806 155.909C184.06 155.915 184.312 155.873 184.55 155.786C184.774 155.697 184.979 155.564 185.151 155.395L185.976 156.29C185.694 156.588 185.35 156.82 184.969 156.969C184.587 157.118 184.177 157.18 183.768 157.152C183.212 157.165 182.661 157.044 182.161 156.8C181.717 156.583 181.344 156.242 181.088 155.819C180.831 155.387 180.701 154.892 180.712 154.39C180.703 153.889 180.832 153.395 181.083 152.962C181.328 152.546 181.683 152.207 182.109 151.981C182.557 151.741 183.059 151.62 183.568 151.629C184.065 151.618 184.558 151.735 184.998 151.967C185.417 152.181 185.764 152.512 185.999 152.919C186.248 153.367 186.374 153.873 186.362 154.386C186.362 154.386 186.343 154.581 186.324 154.838ZM182.69 153.119C182.445 153.325 182.289 153.616 182.252 153.933H184.893C184.853 153.617 184.695 153.327 184.452 153.121C184.208 152.915 183.896 152.807 183.577 152.819C183.255 152.808 182.94 152.915 182.69 153.119Z" fill="white"/>
<path d="M125.163 96.0334C124.987 96.0345 124.817 95.97 124.686 95.8524L122.779 94.1619C122.708 94.1005 122.649 94.0254 122.607 93.9411C122.565 93.8569 122.54 93.7651 122.534 93.6711C122.528 93.5772 122.54 93.4829 122.571 93.3939C122.601 93.3048 122.649 93.2227 122.712 93.1524C122.838 93.0188 123.011 92.9385 123.194 92.9279C123.378 92.9173 123.558 92.9772 123.699 93.0953L125.096 94.3238L127.991 91.1334C128.12 91.0043 128.294 90.9296 128.477 90.9247C128.66 90.9198 128.837 90.985 128.973 91.107C129.11 91.2289 129.194 91.3983 129.209 91.5804C129.224 91.7624 129.168 91.9433 129.054 92.0857L125.683 95.8C125.617 95.8726 125.537 95.9308 125.447 95.971C125.358 96.0112 125.261 96.0324 125.163 96.0334Z" fill="#3498DB"/>
<path d="M125.163 111.271C124.988 111.274 124.817 111.211 124.686 111.095L122.779 109.4C122.709 109.337 122.651 109.262 122.61 109.177C122.569 109.092 122.545 109 122.539 108.906C122.534 108.812 122.547 108.718 122.578 108.629C122.609 108.54 122.657 108.458 122.719 108.388C122.782 108.318 122.858 108.26 122.943 108.219C123.027 108.178 123.12 108.154 123.214 108.149C123.404 108.138 123.59 108.202 123.733 108.329L125.13 109.557L128.024 106.362C128.153 106.233 128.327 106.158 128.51 106.153C128.693 106.148 128.871 106.214 129.007 106.335C129.143 106.457 129.227 106.627 129.242 106.809C129.257 106.991 129.202 107.172 129.087 107.314L125.716 111.029C125.648 111.107 125.563 111.17 125.467 111.212C125.371 111.254 125.267 111.274 125.163 111.271Z" fill="#3498DB"/>
<path d="M125.163 126.514C124.987 126.515 124.817 126.451 124.686 126.333L122.779 124.643C122.709 124.58 122.651 124.505 122.61 124.42C122.569 124.335 122.545 124.243 122.539 124.149C122.534 124.055 122.547 123.961 122.578 123.872C122.609 123.783 122.657 123.701 122.719 123.631C122.782 123.561 122.858 123.503 122.943 123.462C123.027 123.421 123.12 123.397 123.214 123.392C123.404 123.38 123.59 123.445 123.733 123.571L125.13 124.795L128.024 121.605C128.153 121.476 128.327 121.401 128.51 121.396C128.693 121.391 128.871 121.456 129.007 121.578C129.143 121.7 129.227 121.87 129.242 122.052C129.257 122.234 129.202 122.415 129.087 122.557L125.716 126.271C125.647 126.35 125.562 126.413 125.467 126.455C125.371 126.496 125.267 126.517 125.163 126.514Z" fill="#3498DB"/>
<path d="M172.134 40.0143L174.046 43.8809L178.318 44.5L175.228 47.5095L175.958 51.7571L172.134 49.7524L168.314 51.7571L169.044 47.5095L165.954 44.5L170.226 43.8809L172.134 40.0143Z" fill="white"/>
<path d="M167.013 45.235L167.071 45.3522L167.201 45.3707L172.344 46.1168L168.622 49.7399L168.527 49.8317L168.55 49.9615L169.427 55.0768L164.826 52.6598L164.71 52.5983L164.594 52.6598L159.996 55.0758L160.875 49.9615L160.896 49.8317L160.803 49.7399L157.08 46.1168L162.224 45.3707L162.354 45.3522L162.411 45.234L164.709 40.5778L167.013 45.235Z" fill="white" stroke="#263238" stroke-width="0.5"/>
<path d="M170.374 56.3762L164.704 53.4048L159.04 56.3762L160.122 50.081L155.54 45.6191L161.872 44.7L164.704 38.9857L167.532 44.7L173.864 45.6191L169.282 50.0762L170.374 56.3762ZM157.552 46.2619L161.138 49.7571L160.289 54.6905L164.728 52.3571L169.163 54.6905L168.3 49.7619L171.885 46.2667L166.926 45.5476L164.704 41.0571L162.482 45.5429L157.552 46.2619Z" fill="#3498DB"/>
<path d="M82.7795 51.9H0.944336V165.5H82.7795V51.9Z" fill="white"/>
<path d="M82.7795 51.9H0.944336V93.0191H82.7795V51.9Z" fill="#455A64"/>
<path d="M68.6134 103.095C68.6134 103.167 57.3606 103.224 43.4854 103.224C29.6102 103.224 18.3574 103.167 18.3574 103.095C18.3574 103.024 29.6054 102.971 43.4854 102.971C57.3654 102.971 68.6134 103.014 68.6134 103.095Z" fill="#263238"/>
<path d="M68.6134 114.157C68.6134 114.224 57.3606 114.281 43.4854 114.281C29.6102 114.281 18.3574 114.224 18.3574 114.157C18.3574 114.091 29.6054 114.033 43.4854 114.033C57.3654 114.033 68.6134 114.091 68.6134 114.157Z" fill="#263238"/>
<path d="M68.6134 125.233C68.6134 125.3 57.3606 125.357 43.4854 125.357C29.6102 125.357 18.3574 125.3 18.3574 125.233C18.3574 125.167 29.6054 125.105 43.4854 125.105C57.3654 125.105 68.6134 125.162 68.6134 125.233Z" fill="#263238"/>
<path d="M68.4039 138H19.2494C14.4145 138 10.4951 141.914 10.4951 146.743V147.652C10.4951 152.481 14.4145 156.395 19.2494 156.395H68.4039C73.2387 156.395 77.1581 152.481 77.1581 147.652V146.743C77.1581 141.914 73.2387 138 68.4039 138Z" fill="#455A64"/>
<path d="M34.2646 82.8715C34.4435 83.1119 34.5359 83.4055 34.5268 83.7049C34.5351 83.9232 34.4862 84.1399 34.385 84.3337C34.2839 84.5274 34.1339 84.6914 33.9499 84.8096C33.4447 85.0976 32.8663 85.2317 32.2858 85.1954H29.3486V79.762H32.1332C32.6879 79.7262 33.2404 79.8608 33.7162 80.1477C33.8877 80.2607 34.0279 80.4151 34.1237 80.5965C34.2196 80.778 34.268 80.9807 34.2646 81.1858C34.2666 81.4307 34.2006 81.6714 34.0738 81.8811C33.9394 82.0862 33.7515 82.2509 33.5303 82.3573C33.821 82.4516 34.0767 82.6307 34.2646 82.8715ZM30.8697 80.8715V81.9192H31.9473C32.467 81.9192 32.7245 81.743 32.7245 81.3906C32.7245 81.0382 32.467 80.8715 31.9473 80.8715H30.8697ZM32.9724 83.5334C32.9724 83.1668 32.7006 82.9811 32.1618 82.9811H30.8697V84.0858H32.1618C32.7006 84.0858 32.9724 83.9001 32.9724 83.5334Z" fill="white"/>
<path d="M38.9747 84.1382H36.6717L36.2473 85.1953H34.6738L37.0579 79.7572H38.5741L41.0059 85.1953H39.4038L38.9747 84.1382ZM38.5217 83.0048L37.8256 81.2667L37.1246 83.0048H38.5217Z" fill="white"/>
<path d="M42.0694 85.143C41.709 85.0583 41.3667 84.9099 41.0586 84.7049L41.564 83.5715C41.8272 83.7408 42.1129 83.8723 42.4127 83.962C42.7212 84.0595 43.0428 84.1093 43.3664 84.1096C43.9576 84.1096 44.2532 83.962 44.2532 83.6668C44.2524 83.5898 44.2276 83.5151 44.1823 83.4528C44.137 83.3905 44.0735 83.3438 44.0005 83.3192C43.7372 83.2182 43.4661 83.1385 43.1899 83.0811C42.8405 83.0113 42.4964 82.9174 42.16 82.8001C41.8884 82.7033 41.6456 82.5395 41.4543 82.3239C41.246 82.0717 41.1404 81.7504 41.1587 81.4239C41.1549 81.1032 41.2498 80.7891 41.4305 80.5239C41.6349 80.2401 41.9161 80.0204 42.2411 79.8906C42.6634 79.7275 43.114 79.6498 43.5666 79.662C43.9229 79.6608 44.2781 79.7008 44.6251 79.7811C44.9481 79.851 45.2584 79.9698 45.5454 80.1334L45.0686 81.2763C44.6098 81.0118 44.0915 80.8677 43.5619 80.8573C43.3313 80.8399 43.1004 80.886 42.8943 80.9906C42.8308 81.025 42.7777 81.0759 42.7408 81.1379C42.7038 81.1999 42.6844 81.2708 42.6845 81.343C42.6854 81.417 42.71 81.4887 42.7546 81.5478C42.7992 81.6069 42.8615 81.6503 42.9325 81.6715C43.1921 81.7705 43.4602 81.8454 43.7335 81.8953C44.0828 81.9674 44.4269 82.0629 44.7634 82.1811C45.0338 82.2804 45.276 82.4438 45.4691 82.6573C45.6861 82.9107 45.7956 83.2387 45.7743 83.5715C45.7779 83.8878 45.6829 84.1973 45.5025 84.4573C45.2972 84.7421 45.0141 84.962 44.6871 85.0906C44.2661 85.2591 43.815 85.3401 43.3616 85.3287C42.9246 85.3234 42.4902 85.2609 42.0694 85.143Z" fill="white"/>
<path d="M46.4756 79.762H48.0157V85.2001H46.4756V79.762Z" fill="white"/>
<path d="M50.2894 84.9429C49.8454 84.7138 49.4739 84.366 49.2166 83.9381C48.9633 83.4933 48.8301 82.9904 48.8301 82.4786C48.8301 81.9669 48.9633 81.4639 49.2166 81.0191C49.4737 80.5898 49.8451 80.2403 50.2894 80.0096C50.764 79.7662 51.2913 79.6435 51.8247 79.6524C52.2864 79.6448 52.7444 79.734 53.1693 79.9143C53.5592 80.0827 53.9014 80.3443 54.1659 80.6762L53.1836 81.562C53.0336 81.364 52.8398 81.2034 52.6173 81.0927C52.3948 80.982 52.1496 80.9242 51.901 80.9239C51.6262 80.9194 51.355 80.9867 51.1143 81.1191C50.8845 81.2445 50.697 81.435 50.5755 81.6667C50.4439 81.9159 50.3782 82.1946 50.3848 82.4762C50.3788 82.7594 50.4444 83.0394 50.5755 83.2905C50.6984 83.5212 50.8855 83.7114 51.1143 83.8381C51.355 83.9705 51.6262 84.0378 51.901 84.0334C52.1496 84.033 52.3948 83.9752 52.6173 83.8645C52.8398 83.7538 53.0336 83.5932 53.1836 83.3953L54.1659 84.281C53.9001 84.6115 53.5582 84.8729 53.1693 85.0429C52.7444 85.2232 52.2864 85.3124 51.8247 85.3048C51.2907 85.3145 50.7628 85.19 50.2894 84.9429Z" fill="white"/>
<path d="M31.3362 149.057C30.9266 148.837 30.5865 148.507 30.354 148.105C30.1195 147.694 29.9961 147.23 29.9961 146.757C29.9961 146.285 30.1195 145.82 30.354 145.41C30.5968 145.032 30.9359 144.727 31.3362 144.524C31.7364 144.321 32.1757 144.207 32.6241 144.188C33.0725 144.17 33.5196 144.249 33.9349 144.419C34.2801 144.566 34.5856 144.793 34.8265 145.081L34.0731 145.776C33.9202 145.588 33.7266 145.438 33.5069 145.335C33.2873 145.233 33.0472 145.182 32.8048 145.186C32.5119 145.179 32.2225 145.25 31.9656 145.39C31.7236 145.523 31.5238 145.721 31.3887 145.962C31.2491 146.219 31.1785 146.508 31.1837 146.8C31.1772 147.093 31.2479 147.382 31.3887 147.638C31.5206 147.87 31.7135 148.061 31.9466 148.19C32.2034 148.331 32.4929 148.402 32.7858 148.395C33.0289 148.398 33.2696 148.346 33.4894 148.242C33.7092 148.138 33.9023 147.985 34.0541 147.795L34.8074 148.49C34.5691 148.785 34.261 149.016 33.911 149.162C33.5334 149.318 33.1278 149.396 32.719 149.39C32.2376 149.395 31.7627 149.28 31.3362 149.057Z" fill="white"/>
<path d="M39.0703 145.795C39.2274 145.968 39.3477 146.172 39.4239 146.393C39.5001 146.614 39.5307 146.848 39.5137 147.081V149.286H38.3884V147.233C38.4062 146.987 38.3333 146.744 38.1834 146.548C38.1085 146.469 38.0171 146.407 37.9158 146.368C37.8144 146.328 37.7055 146.312 37.5969 146.319C37.472 146.313 37.3471 146.333 37.2305 146.378C37.1138 146.423 37.008 146.492 36.9199 146.581C36.7349 146.799 36.644 147.082 36.6672 147.367V149.271H35.5371V143.948H36.6672V145.824C36.8161 145.673 36.9947 145.555 37.1916 145.476C37.4144 145.394 37.6504 145.354 37.8878 145.357C38.1044 145.346 38.321 145.379 38.5243 145.454C38.7277 145.53 38.9134 145.646 39.0703 145.795Z" fill="white"/>
<path d="M41.3254 149.11C41.0103 148.946 40.7464 148.699 40.5625 148.395C40.3845 148.08 40.291 147.724 40.291 147.362C40.291 147 40.3845 146.644 40.5625 146.329C40.748 146.028 41.0116 145.782 41.3254 145.619C41.6675 145.444 42.0474 145.356 42.4316 145.362C42.8128 145.355 43.1897 145.444 43.5283 145.619C43.8418 145.781 44.1043 146.027 44.2864 146.329C44.4675 146.643 44.5629 146.999 44.5629 147.362C44.5629 147.725 44.4675 148.081 44.2864 148.395C44.105 148.699 43.8425 148.946 43.5283 149.11C43.1893 149.283 42.8124 149.37 42.4316 149.362C42.0477 149.369 41.6679 149.283 41.3254 149.11ZM43.142 148.157C43.3347 147.942 43.4341 147.66 43.4186 147.371C43.4262 147.229 43.4056 147.087 43.3582 146.953C43.3107 146.819 43.2373 146.696 43.142 146.59C43.0507 146.495 42.9403 146.419 42.818 146.368C42.6956 146.317 42.564 146.292 42.4316 146.295C42.2975 146.291 42.1641 146.315 42.0401 146.366C41.916 146.417 41.8041 146.493 41.7116 146.59C41.6155 146.696 41.5412 146.819 41.4929 146.953C41.4446 147.087 41.4233 147.229 41.4303 147.371C41.4166 147.66 41.5177 147.943 41.7116 148.157C41.8045 148.253 41.9166 148.329 42.0407 148.379C42.1647 148.429 42.2979 148.452 42.4316 148.448C42.5644 148.45 42.6962 148.424 42.8185 148.373C42.9409 148.321 43.0511 148.244 43.142 148.148V148.157Z" fill="white"/>
<path d="M46.0655 149.11C45.7495 148.947 45.4853 148.7 45.3026 148.395C45.1605 148.166 45.0673 147.909 45.0288 147.642C44.9903 147.374 45.0074 147.102 45.079 146.841C45.1506 146.581 45.2751 146.338 45.4448 146.128C45.6146 145.917 45.8258 145.744 46.0655 145.619C46.4079 145.45 46.7848 145.362 47.1669 145.362C47.549 145.362 47.9259 145.45 48.2683 145.619C48.5819 145.781 48.8444 146.027 49.0265 146.329C49.2076 146.643 49.303 146.999 49.303 147.362C49.303 147.725 49.2076 148.081 49.0265 148.395C48.8451 148.699 48.5826 148.946 48.2683 149.11C47.925 149.276 47.5484 149.362 47.1669 149.362C46.7854 149.362 46.4088 149.276 46.0655 149.11ZM47.8821 148.157C48.0724 147.945 48.1717 147.666 48.1587 147.381C48.1663 147.239 48.1457 147.097 48.0983 146.963C48.0508 146.829 47.9774 146.706 47.8821 146.6C47.7902 146.504 47.679 146.428 47.5559 146.377C47.4327 146.326 47.3002 146.301 47.1669 146.305C47.0337 146.301 46.9012 146.326 46.778 146.377C46.6548 146.428 46.5436 146.504 46.4517 146.6C46.3556 146.705 46.2813 146.828 46.233 146.963C46.1847 147.097 46.1634 147.239 46.1704 147.381C46.1567 147.67 46.2578 147.952 46.4517 148.167C46.544 148.262 46.6554 148.337 46.7785 148.387C46.9017 148.438 47.034 148.461 47.1669 148.457C47.3012 148.459 47.4344 148.432 47.5576 148.379C47.6809 148.325 47.7915 148.247 47.8821 148.148V148.157Z" fill="white"/>
<path d="M50.414 149.243C50.1537 149.186 49.9052 149.085 49.6797 148.943L50.0564 148.138C50.2514 148.258 50.4636 148.348 50.6858 148.405C50.9195 148.474 51.162 148.509 51.4057 148.51C51.8826 148.51 52.121 148.395 52.121 148.157C52.1201 148.101 52.1003 148.047 52.0648 148.004C52.0293 147.961 51.9802 147.931 51.9255 147.919C51.7318 147.857 51.532 147.815 51.3295 147.795C51.0617 147.76 50.7971 147.704 50.5379 147.629C50.3331 147.567 50.1475 147.454 49.9992 147.3C49.8368 147.112 49.7547 146.867 49.7703 146.619C49.7668 146.384 49.8423 146.154 49.9848 145.967C50.1469 145.762 50.3633 145.607 50.6095 145.519C50.9151 145.409 51.2383 145.356 51.5631 145.362C51.839 145.361 52.1141 145.391 52.3832 145.452C52.6202 145.5 52.8485 145.584 53.0603 145.7L52.6836 146.505C52.3424 146.311 51.9558 146.21 51.5631 146.214C51.3765 146.204 51.1902 146.238 51.0195 146.314C50.9681 146.337 50.9239 146.374 50.892 146.42C50.86 146.466 50.8414 146.52 50.8383 146.576C50.8385 146.634 50.8578 146.69 50.8932 146.736C50.9285 146.781 50.978 146.814 51.0338 146.829C51.2374 146.893 51.4465 146.94 51.6585 146.967C51.9219 147.008 52.183 147.064 52.4404 147.133C52.6423 147.195 52.8236 147.31 52.9649 147.467C53.0443 147.557 53.1051 147.662 53.1435 147.775C53.182 147.889 53.1975 148.009 53.189 148.129C53.1926 148.361 53.117 148.588 52.9745 148.771C52.8072 148.973 52.5879 149.124 52.3403 149.21C52.0232 149.319 51.6888 149.371 51.3533 149.362C51.0364 149.362 50.7207 149.322 50.414 149.243Z" fill="white"/>
<path d="M57.6946 147.681H54.7527C54.7978 147.912 54.9311 148.117 55.1246 148.252C55.3432 148.397 55.6015 148.47 55.8636 148.462C56.0474 148.467 56.2303 148.436 56.4024 148.371C56.5661 148.306 56.7151 148.209 56.8411 148.086L57.4419 148.738C57.2363 148.953 56.9857 149.121 56.708 149.229C56.4303 149.337 56.1323 149.382 55.835 149.362C55.4327 149.371 55.0338 149.285 54.6716 149.11C54.3473 148.952 54.0756 148.704 53.8896 148.395C53.7098 148.081 53.6152 147.726 53.6152 147.364C53.6152 147.003 53.7098 146.647 53.8896 146.333C54.0685 146.031 54.3275 145.784 54.6382 145.619C54.9635 145.445 55.3278 145.357 55.6968 145.362C56.057 145.356 56.4129 145.441 56.7314 145.61C57.0362 145.769 57.288 146.014 57.4562 146.314C57.6294 146.642 57.7117 147.011 57.6946 147.381C57.6946 147.381 57.6946 147.495 57.6946 147.681ZM55.0435 146.429C54.8677 146.579 54.7553 146.79 54.7288 147.019H56.6361C56.6049 146.79 56.4913 146.58 56.3166 146.429C56.1375 146.28 55.9103 146.202 55.6777 146.21C55.4467 146.203 55.2214 146.281 55.0435 146.429Z" fill="white"/>
<path d="M13.2417 105.148C13.0666 105.149 12.8971 105.086 12.7649 104.971L11.3678 103.738C11.2256 103.612 11.1394 103.434 11.1282 103.244C11.117 103.055 11.1818 102.868 11.3082 102.726C11.4347 102.584 11.6125 102.498 11.8025 102.487C11.9925 102.476 12.1792 102.54 12.3215 102.667L13.194 103.433L15.168 101.252C15.299 101.131 15.4706 101.063 15.6493 101.062C15.8279 101.06 16.0006 101.126 16.1333 101.245C16.266 101.365 16.3492 101.529 16.3665 101.707C16.3837 101.885 16.3338 102.062 16.2265 102.205L13.7805 104.905C13.7125 104.98 13.6294 105.041 13.5367 105.083C13.4439 105.125 13.3435 105.147 13.2417 105.148Z" fill="#455A64"/>
<path d="M13.2415 116.219C13.0664 116.22 12.8969 116.158 12.7647 116.043L11.3677 114.814C11.2969 114.752 11.2392 114.676 11.1978 114.591C11.1564 114.506 11.1321 114.414 11.1263 114.32C11.1147 114.13 11.1792 113.943 11.3057 113.8C11.4321 113.657 11.6102 113.571 11.8007 113.559C11.9911 113.547 12.1784 113.612 12.3213 113.738L13.1891 114.524L15.1631 112.348C15.2227 112.268 15.2982 112.202 15.3848 112.154C15.4714 112.105 15.5671 112.075 15.666 112.066C15.7648 112.056 15.8646 112.067 15.9589 112.098C16.0532 112.129 16.14 112.179 16.2138 112.246C16.2875 112.312 16.3467 112.393 16.3874 112.484C16.4281 112.574 16.4495 112.672 16.4502 112.771C16.451 112.87 16.431 112.969 16.3917 113.06C16.3523 113.151 16.2944 113.233 16.2216 113.3L13.7756 116C13.7067 116.072 13.6236 116.128 13.5317 116.166C13.4397 116.204 13.3409 116.222 13.2415 116.219Z" fill="#455A64"/>
<path d="M13.2417 127.295C13.0666 127.296 12.8971 127.234 12.7649 127.119L11.3678 125.886C11.2974 125.823 11.24 125.747 11.1989 125.663C11.1577 125.578 11.1337 125.486 11.1282 125.392C11.1227 125.298 11.1357 125.204 11.1666 125.115C11.1975 125.026 11.2456 124.944 11.3082 124.874C11.3709 124.804 11.4467 124.746 11.5315 124.705C11.6163 124.664 11.7084 124.64 11.8025 124.635C11.8966 124.629 11.9908 124.642 12.0799 124.673C12.1689 124.704 12.251 124.752 12.3215 124.814L13.194 125.581L15.168 123.4C15.2276 123.321 15.3032 123.255 15.3897 123.206C15.4763 123.158 15.5721 123.128 15.6709 123.118C15.7697 123.108 15.8695 123.119 15.9638 123.151C16.0581 123.182 16.1449 123.232 16.2187 123.298C16.2925 123.365 16.3516 123.446 16.3923 123.536C16.433 123.627 16.4544 123.724 16.4552 123.824C16.4559 123.923 16.436 124.021 16.3966 124.112C16.3572 124.203 16.2993 124.285 16.2265 124.352L13.7805 127.052C13.7124 127.128 13.6294 127.189 13.5367 127.23C13.4439 127.272 13.3435 127.294 13.2417 127.295Z" fill="#455A64"/>
<path d="M44.9634 72.7239L41.8642 71.0525L38.7268 72.6525L39.3609 69.1953L36.8672 66.7096L40.3574 66.243L41.9548 63.1049L43.4806 66.2763L46.9613 66.8239L44.4103 69.2525L44.9634 72.7239Z" fill="white"/>
<path d="M82.7797 165.5C82.7797 164.5 82.7368 119.048 82.67 51.9001L82.7797 52.0143L0.954049 52.0239L1.07802 51.9001C1.07802 94.4048 1.07802 133.733 1.05418 165.5L0.954049 165.4L82.7892 165.5L0.954049 165.6H0.853919V165.5C0.853919 133.733 0.853919 94.4048 0.830078 51.9001V51.7762H0.954049H82.7797H82.8941V51.8858C82.8274 119.048 82.7845 164.524 82.7797 165.5Z" fill="#263238"/>
</svg>
