<svg width="200" height="200" viewBox="0 0 200 200" fill="none" xmlns="http://www.w3.org/2000/svg">
<path d="M187.04 100.764C185.068 117.484 177.44 136.928 162.184 145.856C139.148 159.356 141.076 180.112 96.1083 189.136C89.5494 190.484 82.8635 191.115 76.1683 191.02C72.8934 190.959 69.6255 190.692 66.3843 190.22C37.8043 186.048 18.5723 166.184 11.5163 142.2C2.2323 110.664 20.7723 90 33.0603 77.576C45.3483 65.152 54.3523 26.376 98.4883 17.176C105.22 15.7313 112.096 15.0682 118.98 15.2C134.684 15.6 151.812 20.744 163.664 31.504C164.552 32.304 165.419 33.1413 166.264 34.016C182.736 50.932 189.736 77.968 187.04 100.764Z" fill="#3498DB"/>
<path opacity="0.7" d="M187.04 100.764C185.068 117.484 177.44 136.928 162.184 145.856C139.148 159.356 141.076 180.112 96.1083 189.136C89.5494 190.484 82.8635 191.115 76.1683 191.02C72.8934 190.959 69.6255 190.692 66.3843 190.22C37.8043 186.048 18.5723 166.184 11.5163 142.2C2.2323 110.664 20.7723 90 33.0603 77.576C45.3483 65.152 54.3523 26.376 98.4883 17.176C105.22 15.7313 112.096 15.0682 118.98 15.2C134.684 15.6 151.812 20.744 163.664 31.504C164.552 32.304 165.419 33.1413 166.264 34.016C182.736 50.932 189.736 77.968 187.04 100.764Z" fill="white"/>
<path d="M179.9 149.596H152.196V153.476H179.9V149.596Z" fill="#263238" stroke="#263238" stroke-miterlimit="10"/>
<path d="M149.603 147.788H145.939V152.568H149.603V147.788Z" fill="#3498DB" stroke="#263238" stroke-miterlimit="10"/>
<path d="M166.328 147.788H162.664V152.568H166.328V147.788Z" fill="#3498DB" stroke="#263238" stroke-miterlimit="10"/>
<path d="M182.644 154.636H143.388V175.984H182.644V154.636Z" fill="white" stroke="#263238" stroke-miterlimit="10"/>
<path d="M182.652 154.636H168.24V175.984H182.652V154.636Z" fill="white" stroke="#263238" stroke-miterlimit="10"/>
<path d="M183.528 151.824H142.508V155.704H183.528V151.824Z" fill="#263238" stroke="#263238" stroke-miterlimit="10"/>
<path d="M183.528 175.984H142.508V177.924H183.528V175.984Z" fill="#263238" stroke="#263238" stroke-miterlimit="10"/>
<path d="M149.124 159.416H145.3V160.532H149.124V159.416Z" fill="#263238" stroke="#263238" stroke-miterlimit="10"/>
<path d="M166.488 159.416H162.664V160.532H166.488V159.416Z" fill="#263238" stroke="#263238" stroke-miterlimit="10"/>
<path d="M165.132 161.884V158.06H164.016V161.884H165.132Z" fill="#263238" stroke="#263238" stroke-miterlimit="10"/>
<path d="M131.476 156.7H77.2198C76.4356 156.7 75.7998 157.336 75.7998 158.12V176.064C75.7998 176.848 76.4356 177.484 77.2198 177.484H131.476C132.26 177.484 132.896 176.848 132.896 176.064V158.12C132.896 157.336 132.26 156.7 131.476 156.7Z" fill="#878787" stroke="#263238" stroke-miterlimit="10"/>
<path d="M124.336 156.704L103.556 177.484H75.7443C75.5575 177.485 75.3724 177.448 75.1997 177.377C75.0269 177.306 74.8699 177.201 74.7376 177.069C74.6054 176.938 74.5004 176.781 74.4288 176.608C74.3572 176.436 74.3203 176.251 74.3203 176.064V158.124C74.3203 157.937 74.3572 157.752 74.4288 157.58C74.5004 157.407 74.6054 157.25 74.7376 157.118C74.8699 156.987 75.0269 156.882 75.1997 156.811C75.3724 156.74 75.5575 156.703 75.7443 156.704H124.336Z" fill="#263238" stroke="#263238" stroke-miterlimit="10"/>
<path d="M131.42 162.112V176.064C131.42 176.441 131.27 176.802 131.004 177.068C130.738 177.334 130.376 177.484 130 177.484H116.052L131.42 162.112Z" fill="#263238" stroke="#263238" stroke-miterlimit="10"/>
<path d="M129.548 158.952V175.412H100.58L99.7924 174.116H82.1444L81.3564 175.412H76.1924V158.952H81.2044L82.1444 160.504H99.7924L100.732 158.952H129.548Z" fill="#878787" stroke="#263238" stroke-miterlimit="10"/>
<path d="M98.992 164.22H83.292V170.284H98.992V164.22Z" fill="#878787" stroke="#263238" stroke-miterlimit="10"/>
<path d="M99.7924 174.116L100.58 175.412H81.3564L82.1444 174.116H99.7924Z" fill="#263238" stroke="#263238" stroke-miterlimit="10"/>
<path d="M82.1441 160.504L81.2041 158.952H100.732L99.7921 160.504H82.1441Z" fill="#263238" stroke="#263238" stroke-miterlimit="10"/>
<path d="M90.9681 172.74C94.0366 172.74 96.5241 170.252 96.5241 167.184C96.5241 164.115 94.0366 161.628 90.9681 161.628C87.8996 161.628 85.4121 164.115 85.4121 167.184C85.4121 170.252 87.8996 172.74 90.9681 172.74Z" fill="#3498DB" stroke="#263238" stroke-miterlimit="10"/>
<path d="M91.9903 171.516C94.386 170.953 95.8719 168.555 95.3091 166.159C94.7463 163.763 92.3479 162.277 89.9522 162.84C87.5564 163.403 86.0705 165.801 86.6333 168.197C87.1961 170.593 89.5945 172.079 91.9903 171.516Z" fill="#263238" stroke="#263238" stroke-miterlimit="10"/>
<path d="M99.7922 174.116H82.1442L81.3442 175.412H100.568L99.7922 174.116ZM81.2002 158.952L82.1402 160.504H99.7882L100.728 158.952H81.2002Z" fill="#263238" stroke="#263238" stroke-miterlimit="10"/>
<path d="M127.708 163.224H99.9199V171.112H127.708V163.224Z" fill="#878787" stroke="#263238" stroke-miterlimit="10"/>
<path d="M101.796 163.412V165.104" stroke="#263238" stroke-miterlimit="10"/>
<path d="M104.896 163.412V165.104" stroke="#263238" stroke-miterlimit="10"/>
<path d="M107.992 163.412V165.104" stroke="#263238" stroke-miterlimit="10"/>
<path d="M111.092 163.412V165.104" stroke="#263238" stroke-miterlimit="10"/>
<path d="M114.188 163.412V165.104" stroke="#263238" stroke-miterlimit="10"/>
<path d="M117.288 163.412V165.104" stroke="#263238" stroke-miterlimit="10"/>
<path d="M120.388 163.412V165.104" stroke="#263238" stroke-miterlimit="10"/>
<path d="M123.484 163.412V165.104" stroke="#263238" stroke-miterlimit="10"/>
<path d="M126.584 163.412V165.104" stroke="#263238" stroke-miterlimit="10"/>
<path d="M101.796 169.328V171.016" stroke="#263238" stroke-miterlimit="10"/>
<path d="M104.896 169.328V171.016" stroke="#263238" stroke-miterlimit="10"/>
<path d="M107.992 169.328V171.016" stroke="#263238" stroke-miterlimit="10"/>
<path d="M111.092 169.328V171.016" stroke="#263238" stroke-miterlimit="10"/>
<path d="M114.188 169.328V171.016" stroke="#263238" stroke-miterlimit="10"/>
<path d="M117.288 169.328V171.016" stroke="#263238" stroke-miterlimit="10"/>
<path d="M120.388 169.328V171.016" stroke="#263238" stroke-miterlimit="10"/>
<path d="M123.484 169.328V171.016" stroke="#263238" stroke-miterlimit="10"/>
<path d="M126.584 169.328V171.016" stroke="#263238" stroke-miterlimit="10"/>
<path d="M77.4717 162.06V164.796L82.4317 165.116V163.156L77.4717 162.06Z" fill="#3498DB" stroke="#263238" stroke-miterlimit="10"/>
<path d="M77.4717 171.904V169.172L82.4317 168.516V170.812L77.4717 171.904Z" fill="#3498DB" stroke="#263238" stroke-miterlimit="10"/>
<path d="M82.5362 167.74L77.3242 168.572V165.548L82.5362 165.98V167.74Z" fill="#3498DB" stroke="#263238" stroke-miterlimit="10"/>
<path d="M126.824 161.384C127.235 161.384 127.568 161.051 127.568 160.64C127.568 160.229 127.235 159.896 126.824 159.896C126.413 159.896 126.08 160.229 126.08 160.64C126.08 161.051 126.413 161.384 126.824 161.384Z" fill="#3498DB" stroke="#263238" stroke-miterlimit="10"/>
<path d="M130.172 156.7H75.6241C74.8399 156.7 74.2041 157.336 74.2041 158.12V176.064C74.2041 176.848 74.8399 177.484 75.6241 177.484H130.172C130.956 177.484 131.592 176.848 131.592 176.064V158.12C131.592 157.336 130.956 156.7 130.172 156.7Z" stroke="#263238" stroke-miterlimit="10"/>
<path d="M25.5959 180.732C34.2071 180.732 41.1879 173.751 41.1879 165.14C41.1879 156.529 34.2071 149.548 25.5959 149.548C16.9847 149.548 10.0039 156.529 10.0039 165.14C10.0039 173.751 16.9847 180.732 25.5959 180.732Z" fill="#3498DB" stroke="#263238" stroke-miterlimit="10"/>
<path d="M24.9123 180.732C33.5235 180.732 40.5043 173.751 40.5043 165.14C40.5043 156.529 33.5235 149.548 24.9123 149.548C16.3011 149.548 9.32031 156.529 9.32031 165.14C9.32031 173.751 16.3011 180.732 24.9123 180.732Z" fill="#3498DB" stroke="#263238" stroke-miterlimit="10"/>
<path d="M28.3345 177.102C34.9388 175.209 38.7574 168.32 36.8637 161.715C34.9699 155.111 28.0809 151.292 21.4766 153.186C14.8724 155.08 11.0537 161.969 12.9475 168.573C14.8412 175.177 21.7302 178.996 28.3345 177.102Z" fill="#263238" stroke="#263238" stroke-miterlimit="10"/>
<path d="M24.9124 167.944C26.461 167.944 27.7164 166.689 27.7164 165.14C27.7164 163.591 26.461 162.336 24.9124 162.336C23.3638 162.336 22.1084 163.591 22.1084 165.14C22.1084 166.689 23.3638 167.944 24.9124 167.944Z" fill="#3498DB" stroke="#263238" stroke-miterlimit="10"/>
<path d="M26.7166 165.14C26.7174 164.782 26.6119 164.432 26.4135 164.134C26.2152 163.836 25.9329 163.604 25.6023 163.466C25.2718 163.329 24.9079 163.293 24.5568 163.363C24.2058 163.432 23.8832 163.604 23.6301 163.858C23.377 164.111 23.2048 164.433 23.1351 164.784C23.0655 165.135 23.1016 165.499 23.239 165.83C23.3763 166.16 23.6087 166.443 23.9066 166.641C24.2045 166.839 24.5547 166.945 24.9126 166.944C25.391 166.944 25.8499 166.754 26.1882 166.416C26.5265 166.077 26.7166 165.618 26.7166 165.14Z" fill="white" stroke="#263238" stroke-miterlimit="10"/>
<path d="M24.9121 163.332V166.944" stroke="#263238" stroke-miterlimit="10"/>
<path d="M23.1045 165.14H26.7165" stroke="#263238" stroke-miterlimit="10"/>
<path d="M47.2883 180.732C55.8995 180.732 62.8803 173.751 62.8803 165.14C62.8803 156.529 55.8995 149.548 47.2883 149.548C38.6771 149.548 31.6963 156.529 31.6963 165.14C31.6963 173.751 38.6771 180.732 47.2883 180.732Z" fill="#3498DB" stroke="#263238" stroke-miterlimit="10"/>
<path d="M46.6047 180.732C55.2159 180.732 62.1967 173.751 62.1967 165.14C62.1967 156.529 55.2159 149.548 46.6047 149.548C37.9935 149.548 31.0127 156.529 31.0127 165.14C31.0127 173.751 37.9935 180.732 46.6047 180.732Z" fill="#3498DB" stroke="#263238" stroke-miterlimit="10"/>
<path d="M55.4019 173.938C60.26 169.08 60.26 161.203 55.4019 156.345C50.5438 151.487 42.6672 151.487 37.8091 156.345C32.951 161.203 32.951 169.08 37.8091 173.938C42.6672 178.796 50.5438 178.796 55.4019 173.938Z" fill="#263238" stroke="#263238" stroke-miterlimit="10"/>
<path d="M46.6048 167.944C48.1534 167.944 49.4088 166.689 49.4088 165.14C49.4088 163.591 48.1534 162.336 46.6048 162.336C45.0562 162.336 43.8008 163.591 43.8008 165.14C43.8008 166.689 45.0562 167.944 46.6048 167.944Z" fill="#3498DB" stroke="#263238" stroke-miterlimit="10"/>
<path d="M48.4002 165.14C48.401 164.782 48.2956 164.432 48.0974 164.134C47.8992 163.837 47.6171 163.604 47.2868 163.467C46.9565 163.329 46.5929 163.293 46.2419 163.362C45.8909 163.432 45.5684 163.603 45.3151 163.856C45.0619 164.109 44.8893 164.431 44.8192 164.782C44.7491 165.133 44.7847 165.496 44.9214 165.827C45.0581 166.158 45.2899 166.44 45.5873 166.639C45.8847 166.838 46.2344 166.944 46.5922 166.944C47.071 166.944 47.5303 166.754 47.8692 166.416C48.2082 166.078 48.3991 165.619 48.4002 165.14Z" fill="white" stroke="#263238" stroke-miterlimit="10"/>
<path d="M46.6045 163.332V166.944" stroke="#263238" stroke-miterlimit="10"/>
<path d="M44.8008 165.14H48.4128" stroke="#263238" stroke-miterlimit="10"/>
<path d="M170.874 132.538C171.03 127.713 140.069 122.798 101.721 121.56C63.3725 120.321 32.1587 123.228 32.0029 128.052C31.847 132.877 62.8082 137.792 101.156 139.03C139.505 140.269 170.719 137.362 170.874 132.538Z" fill="#263238" stroke="#263238" stroke-miterlimit="10"/>
<path d="M33.7558 115.3C33.7558 115.3 34.5998 117.128 35.2038 117.752C35.8078 118.376 46.6998 121.072 46.6998 121.072L81.9998 128.8L86.2758 128.34L101.224 128.82C101.224 128.82 104.208 121.524 100.952 114.336C97.6958 107.148 81.4078 104.336 76.8038 105.8C72.1998 107.264 61.4158 111.976 53.6678 109.4C45.9198 106.824 39.7398 101.764 37.1558 102.436C34.5718 103.108 33.3398 107.268 33.3398 109.064C33.3398 110.86 33.7558 115.3 33.7558 115.3Z" fill="#263238" stroke="#263238" stroke-miterlimit="10"/>
<path d="M109.636 125.296C109.328 117.876 104.364 111.852 98.552 111.836H92.248L92.36 114.492C89.896 116.936 88.4 120.84 88.58 125.24C88.76 129.64 90.58 133.556 93.252 136.012L93.364 138.704H99.664C105.48 138.716 109.944 132.716 109.636 125.296Z" fill="#263238" stroke="#263238" stroke-miterlimit="10"/>
<path d="M94.2921 138.645C100.056 138.007 104.065 131.498 103.246 124.107C102.428 116.716 97.0915 111.242 91.3278 111.881C85.564 112.519 81.5552 119.028 82.3737 126.419C83.1923 133.809 88.5283 139.283 94.2921 138.645Z" fill="#878787" stroke="#263238" stroke-miterlimit="10"/>
<path d="M100.952 129.84C101.052 129.508 101.144 129.168 101.22 128.82C101.295 128.468 101.359 128.112 101.412 127.752C101.521 126.937 101.558 126.114 101.524 125.292C101.462 123.566 101.081 121.867 100.4 120.28L100.38 120.24C100.236 119.908 100.076 119.584 99.9042 119.272L99.8722 119.212C99.7002 118.904 99.5203 118.604 99.3283 118.316L99.2963 118.268C97.5923 115.76 95.0922 114.148 92.3602 114.144C90.0202 114.144 87.9603 115.308 86.4643 117.216C86.3643 117.34 86.2683 117.472 86.1763 117.616C86.0843 117.748 85.9922 117.884 85.9042 118.016C85.8162 118.152 85.7323 118.292 85.6523 118.416C85.5723 118.556 85.4962 118.696 85.4242 118.84V118.864C85.3522 119.004 85.2842 119.144 85.2162 119.292V119.324C85.1522 119.464 85.0923 119.608 85.0323 119.752C85.0323 119.752 85.0322 119.784 85.0122 119.804C84.9562 119.944 84.9043 120.084 84.8523 120.228L84.8283 120.296C84.7803 120.432 84.7362 120.572 84.6922 120.716C84.6922 120.744 84.6723 120.772 84.6643 120.8C84.6243 120.936 84.5882 121.076 84.5482 121.2C84.5408 121.237 84.5315 121.273 84.5203 121.308C84.4883 121.44 84.4563 121.576 84.4283 121.708C84.4283 121.748 84.4083 121.792 84.4003 121.832C84.3723 121.964 84.3482 122.096 84.3242 122.232L84.3003 122.38C84.2763 122.504 84.2603 122.636 84.2443 122.78L84.2203 122.944C84.2203 123.068 84.1922 123.196 84.1802 123.324C84.1802 123.384 84.1802 123.444 84.1802 123.504C84.1802 123.628 84.1803 123.756 84.1562 123.88V124.072C84.1562 124.204 84.1562 124.34 84.1562 124.472C84.1562 124.532 84.1562 124.588 84.1562 124.644C84.1562 124.836 84.1562 125.044 84.1562 125.228C84.1562 125.412 84.1802 125.696 84.2042 125.928C84.2042 125.984 84.2042 126.04 84.2042 126.096C84.2242 126.296 84.2483 126.496 84.2763 126.692V126.784C84.3523 127.272 84.4522 127.748 84.5722 128.216C85.0976 130.403 86.2127 132.403 87.7963 134L87.8523 134.052C88.0363 134.228 88.2243 134.392 88.4203 134.552L88.4602 134.58C89.8074 135.711 91.5015 136.347 93.2602 136.38C94.9891 136.37 96.6555 135.732 97.9482 134.584C99.3701 133.312 100.41 131.669 100.952 129.84Z" fill="white" stroke="#263238" stroke-miterlimit="10"/>
<path d="M100.528 125.628C100.478 124.381 100.229 123.149 99.7921 121.98L96.3281 124.152C96.4858 124.626 96.576 125.12 96.5961 125.62C96.5961 125.696 96.5961 125.768 96.5961 125.84L100.532 126.48C100.54 126.2 100.54 125.916 100.528 125.628Z" fill="#263238" stroke="#263238" stroke-miterlimit="10"/>
<path d="M94.4004 121.648C94.7715 121.855 95.1032 122.126 95.3804 122.448L97.8204 118.696C97.0181 117.795 96.0112 117.099 94.8844 116.668L94.4004 121.648Z" fill="#263238" stroke="#263238" stroke-miterlimit="10"/>
<path d="M96.1001 128.064C95.9316 128.406 95.7133 128.722 95.4521 129L97.4521 133.484C98.4586 132.616 99.2407 131.519 99.7321 130.284L96.1001 128.064Z" fill="#263238" stroke="#263238" stroke-miterlimit="10"/>
<path d="M90.208 123.288L86.676 120.832C86.1315 122.121 85.8448 123.505 85.832 124.904L89.78 125.016C89.8151 124.419 89.9602 123.833 90.208 123.288Z" fill="#263238" stroke="#263238" stroke-miterlimit="10"/>
<path d="M91.4079 121.792C91.6939 121.592 92.0137 121.446 92.3519 121.36L91.7759 116.4C90.5151 116.634 89.3579 117.253 88.4639 118.172L91.4079 121.792Z" fill="#263238" stroke="#263238" stroke-miterlimit="10"/>
<path d="M93.7364 129.924C93.6117 129.94 93.4861 129.948 93.3604 129.948C93.0039 129.947 92.6509 129.878 92.3204 129.744L90.4004 134.036C91.359 134.62 92.4581 134.932 93.5804 134.94C93.8844 134.942 94.188 134.919 94.4884 134.872L93.7364 129.924Z" fill="#263238" stroke="#263238" stroke-miterlimit="10"/>
<path d="M90.1795 127.468L86.2715 128.34C86.6493 129.707 87.2981 130.985 88.1795 132.096L90.6835 128.396C90.4811 128.107 90.312 127.795 90.1795 127.468Z" fill="#263238" stroke="#263238" stroke-miterlimit="10"/>
<path d="M50.5202 117.796C50.3762 111.58 48.0482 106.528 45.3202 106.516H39.0322L39.5562 129.028H45.8442C48.5722 129.04 50.6642 124 50.5202 117.796Z" fill="#263238" stroke="#263238" stroke-miterlimit="10"/>
<path d="M44.2316 117.796C44.3756 124.012 42.2836 129.04 39.5556 129.028C36.8276 129.016 34.4996 123.968 34.3556 117.748C34.2116 111.528 36.3036 106.504 39.0316 106.516C41.7596 106.528 44.0876 111.6 44.2316 117.796Z" fill="#878787" stroke="#263238" stroke-miterlimit="10"/>
<path d="M43.116 121.6C43.164 121.32 43.208 121.036 43.244 120.744C43.28 120.452 43.308 120.152 43.332 119.848C43.38 119.184 43.4 118.496 43.384 117.788C43.3575 116.373 43.1778 114.965 42.848 113.588V113.556C42.78 113.276 42.704 113.004 42.624 112.756V112.704C42.54 112.448 42.456 112.196 42.364 111.956V111.916C41.564 109.812 40.392 108.464 39.108 108.456C38.012 108.456 37.04 109.432 36.344 111.032C36.296 111.14 36.252 111.248 36.208 111.356C36.164 111.468 36.12 111.58 36.08 111.696C36.04 111.812 36 111.928 35.964 112.044C35.928 112.16 35.892 112.276 35.856 112.4C35.8186 112.517 35.7866 112.637 35.76 112.76V112.788C35.728 112.904 35.7 113.024 35.672 113.148C35.6738 113.161 35.6738 113.175 35.672 113.188C35.644 113.304 35.62 113.424 35.596 113.544C35.5943 113.563 35.5943 113.581 35.596 113.6C35.572 113.716 35.552 113.836 35.528 113.952V114.024C35.528 114.14 35.492 114.256 35.476 114.372V114.46C35.476 114.572 35.444 114.684 35.432 114.796C35.43 114.832 35.43 114.868 35.432 114.904C35.432 115.012 35.408 115.124 35.4 115.232C35.4 115.276 35.4 115.316 35.4 115.356L35.376 115.68V115.816C35.376 115.924 35.376 116.028 35.376 116.136C35.376 116.244 35.376 116.236 35.376 116.284C35.376 116.392 35.376 116.496 35.376 116.604C35.376 116.712 35.376 116.708 35.376 116.76C35.376 116.872 35.376 116.984 35.376 117.1C35.376 117.148 35.376 117.196 35.376 117.244C35.376 117.404 35.376 117.568 35.376 117.728C35.376 117.888 35.376 118.128 35.376 118.32C35.376 118.364 35.376 118.412 35.376 118.46L35.412 118.956C35.412 118.984 35.412 119.008 35.412 119.036C35.448 119.436 35.496 119.836 35.552 120.236C35.7588 121.93 36.2782 123.571 37.084 125.076L37.108 125.124C37.196 125.268 37.284 125.408 37.376 125.524V125.548C38.036 126.496 38.812 127.052 39.632 127.056C40.452 127.06 41.208 126.504 41.828 125.552C42.5075 124.33 42.9448 122.988 43.116 121.6Z" fill="white" stroke="#263238" stroke-miterlimit="10"/>
<path d="M170.34 120.996C170.032 113.576 165.068 107.552 159.256 107.536H152.952C147.136 107.536 142.672 113.536 142.98 120.944C143.288 128.352 148.252 134.4 154.068 134.4H160.368C166.184 134.42 170.648 128.4 170.34 120.996Z" fill="#263238" stroke="#263238" stroke-miterlimit="10"/>
<path d="M52.5361 74.688C52.5361 74.688 49.7361 75.512 49.3641 76.332C48.9921 77.152 48.7801 77.74 48.7801 77.74L40.3281 90.064C40.3281 90.064 37.2761 89.832 36.3281 92.412C35.3801 94.992 35.7441 98.516 35.7441 98.516C35.7441 98.516 33.5121 104.032 33.3961 108.14C33.3166 110.532 33.4343 112.927 33.7481 115.3C33.7481 115.3 33.1601 107.788 34.9201 105.44C36.6801 103.092 40.3201 104.856 41.7201 109.08C43.1201 113.304 44.8001 121.168 44.8001 121.168L82.0001 128.8C82.0001 128.8 80.1201 118.94 82.5881 113.304C85.0561 107.668 96.5521 108.024 98.6681 118.236C100.784 128.448 100.076 130.324 100.076 130.324C100.076 130.324 107.94 131.968 131.884 131.616C155.828 131.264 168.972 128.448 172.496 127.508C172.496 127.508 173.296 123.164 173.552 120.584C173.708 119.099 173.465 117.6 172.848 116.24C172.848 116.24 172.612 111.544 172.024 109.9C171.436 108.256 169.676 105.792 169.676 105.792C169.676 105.792 167.916 101.684 164.984 99.104C162.052 96.524 157.236 93.94 156.06 93.352C154.884 92.764 153.364 92.412 151.132 90.888C148.9 89.364 135.052 79.736 130.708 77.156C126.364 74.576 116.976 73.28 115.108 72.928C113.24 72.576 91.6321 71.052 84.1201 71.052C76.6081 71.052 61.1041 71.404 52.5361 74.688Z" fill="#3498DB" stroke="#263238" stroke-miterlimit="10"/>
<path opacity="0.15" d="M173.547 120.584C173.703 119.099 173.46 117.6 172.843 116.24C172.843 116.24 172.767 114.736 172.595 113.136C157.907 117.468 131.631 117.76 124.303 117.112C115.883 116.372 100.947 114.336 100.303 111.912C99.6595 109.488 93.8675 103.988 89.9035 102.5C86.5075 101.228 47.1035 95.772 35.9035 94.236C35.6978 95.6517 35.6535 97.0862 35.7715 98.512C35.7715 98.512 33.5395 104.028 33.4235 108.136C33.3439 110.528 33.4617 112.923 33.7755 115.296C33.7755 115.296 33.1875 107.784 34.9475 105.436C36.7075 103.088 40.3475 104.852 41.7475 109.076C43.1475 113.3 44.7995 121.168 44.7995 121.168L81.9995 128.8C81.9995 128.8 80.1195 118.94 82.5875 113.304C85.0555 107.668 96.5515 108.024 98.6675 118.236C100.783 128.448 100.075 130.324 100.075 130.324C100.075 130.324 107.939 131.968 131.883 131.616C155.827 131.264 168.971 128.448 172.495 127.508C172.491 127.508 173.311 123.164 173.547 120.584Z" fill="black"/>
<path d="M78.2398 78.4439C73.5158 75.0599 69.4398 74.5439 67.5278 74.3879C65.7078 77.6559 62.7278 83.8399 62.1318 90.2519C72.1318 91.8119 83.2878 93.5879 83.2878 93.5879C83.2878 93.5879 85.8678 94.5239 86.8078 93.5879C87.116 93.337 87.3578 93.0142 87.5118 92.6479C87.7478 92.0599 83.6398 82.3199 78.2398 78.4439Z" fill="white" stroke="#263238" stroke-miterlimit="10"/>
<path d="M64.3162 74.4C61.6207 74.5447 58.9392 74.8829 56.2922 75.412C53.5922 76 52.6522 76.116 52.1842 76.588C51.7162 77.06 47.1362 82.8 45.4922 86.896C45.5596 87.1906 45.7232 87.4542 45.9572 87.6455C46.1912 87.8367 46.4821 87.9445 46.7842 87.952C47.1842 87.952 52.0962 88.696 58.2162 89.644C59.2402 86 61.2962 79.6 64.3162 74.4Z" fill="white" stroke="#263238" stroke-miterlimit="10"/>
<path d="M49.4043 88.136C49.4043 88.136 51.4043 80.428 55.4443 75.844" stroke="#263238" stroke-miterlimit="10"/>
<path d="M62.2402 95.7919L58.9002 95.2C58.7915 95.2324 58.6904 95.2861 58.6027 95.3579C58.515 95.4297 58.4424 95.5183 58.3892 95.6184C58.336 95.7185 58.3032 95.8282 58.2927 95.941C58.2822 96.0539 58.2943 96.1678 58.3282 96.276C58.5762 97.096 59.0202 97.0039 59.0202 97.0039L61.8002 97.452C61.9827 97.4705 62.1656 97.4207 62.3134 97.312C62.4612 97.2034 62.5634 97.0437 62.6002 96.864C62.7442 96.192 62.9322 96.1079 62.2402 95.7919Z" stroke="#263238" stroke-miterlimit="10"/>
<path d="M45.3559 92.88L42.7999 92.4C42.6266 92.4593 42.4836 92.5845 42.402 92.7485C42.3204 92.9125 42.3067 93.102 42.3639 93.276C42.5519 93.94 42.8919 93.868 42.8919 93.868L45.0159 94.232C45.1601 94.2459 45.304 94.2037 45.4179 94.1144C45.5318 94.025 45.607 93.8953 45.6279 93.752C45.7439 93.2 45.8879 93.14 45.3559 92.88Z" stroke="#263238" stroke-miterlimit="10"/>
<path d="M65.7797 74C65.7797 74 61.0197 82.852 60.1797 90.2" stroke="#263238" stroke-miterlimit="10"/>
<path d="M59.1002 91.72C59.1002 91.72 56.9282 95.392 56.8442 96.644C56.7602 97.896 57.0122 112.928 57.4282 115.684" stroke="#263238" stroke-miterlimit="10"/>
<path d="M82.7316 83.536C82.7316 83.536 81.0596 88.38 80.5596 90.968" stroke="#263238" stroke-miterlimit="10"/>
<path d="M82.0636 96.98C82.0636 96.98 80.2236 103.076 80.1436 107.668C80.0636 112.26 79.9756 120.868 79.9756 120.868" stroke="#263238" stroke-miterlimit="10"/>
<path d="M45.2359 88.5439C45.2359 88.5439 41.3119 92.1439 40.9799 93.3039C40.6479 94.4639 41.0599 104.504 41.0599 104.504" stroke="#263238" stroke-miterlimit="10"/>
<path d="M46 115.852C46 115.852 46.584 117.524 47.836 117.94C49.088 118.356 79.488 124.204 79.488 124.204" stroke="#263238" stroke-miterlimit="10"/>
<path d="M134.044 121.152C134.044 121.152 157.32 121.472 165.968 118.804C165.968 118.804 165.116 124.568 163.512 125.744C161.908 126.92 150.272 128.116 144.616 128.304C138.216 128.52 134.576 127.88 134.576 127.88L134.044 121.152Z" fill="#263238" stroke="#263238" stroke-miterlimit="10"/>
<path d="M129.88 106.628L132.228 111.428C132.228 111.428 145.36 111.748 146.856 111.852C148.352 111.956 149.952 112.708 151.656 111.852C153.36 110.996 160.732 110.04 161.588 110.04C162.444 110.04 163.508 110.788 163.508 110.788C163.508 110.788 161.588 105.988 160.84 105.556C160.279 105.272 159.648 105.159 159.024 105.232C158.708 105.24 143.12 104.068 129.88 106.628Z" fill="#263238" stroke="#263238" stroke-miterlimit="10"/>
<path d="M105.128 97.04C105.128 97.04 99.5283 96.18 97.3963 96.932C95.2643 97.684 96.3203 100.584 99.9723 103.268C103.624 105.952 106.632 108.528 110.372 108.96C114.112 109.392 120.592 110.8 120.912 109.6C121.232 108.4 120.052 104.124 115.756 101.008C111.46 97.892 105.128 97.04 105.128 97.04Z" fill="white" stroke="#263238" stroke-miterlimit="10"/>
<path d="M150 90.916L148.928 91.24L143.728 91.388C140.996 91.468 137.388 91.568 133.4 91.672C127.896 91.82 121.672 91.972 116.052 92.072C107.46 92.252 100.268 92.344 99.1882 92.184C97.0177 91.9048 94.9786 90.989 93.3282 89.552C92.0849 88.4397 91.0512 87.1133 90.2762 85.636C87.7282 80.928 81.2002 75.132 81.2002 75.132C91.5082 73.932 116.1 74.38 118.892 74.488C119.758 74.5322 120.62 74.6364 121.472 74.8C124.452 75.328 128.34 76.5 130.596 78.032C130.996 78.304 131.64 78.732 132.448 79.272C134.336 80.532 137.136 82.388 139.948 84.252L144.852 87.496L150 90.916Z" fill="white" stroke="#263238" stroke-miterlimit="10"/>
<path d="M130.576 78.032C130.976 78.304 131.62 78.732 132.428 79.272L116.084 92.072C107.492 92.252 100.3 92.3441 99.2204 92.1841C97.0499 91.9049 95.0108 90.989 93.3604 89.5521L121.452 74.8C124.432 75.328 128.32 76.5 130.576 78.032Z" fill="#263238" stroke="#263238" stroke-miterlimit="10"/>
<path d="M144.832 87.496L143.76 91.388C141.028 91.468 137.42 91.5679 133.432 91.6719L139.928 84.252L144.832 87.496Z" fill="#263238" stroke="#263238" stroke-miterlimit="10"/>
<path d="M126.868 103.416C127.52 104.08 128.152 104.78 128.752 105.524" stroke="#263238" stroke-miterlimit="10"/>
<path d="M111.032 93.924C111.032 93.924 119.16 96.324 125.74 102.324" stroke="#263238" stroke-miterlimit="10"/>
<path d="M163.092 105.332C163.951 106.945 164.573 108.674 164.94 110.464" stroke="#263238" stroke-miterlimit="10"/>
<path d="M150.66 94.356C150.66 94.356 157.86 97.156 162.176 103.78" stroke="#263238" stroke-miterlimit="10"/>
<path d="M117.475 123.24C117.475 124.488 116.275 125.496 114.791 125.496C113.307 125.496 112.107 124.488 112.107 123.24C112.107 121.992 113.307 120.984 114.791 120.984C116.275 120.984 117.475 122 117.475 123.24Z" fill="white" stroke="#263238" stroke-miterlimit="10"/>
<path d="M173.076 119.576C172.848 120.652 172.124 121.408 171.456 121.264C170.788 121.12 170.432 120.14 170.656 119.064C170.88 117.988 171.608 117.236 172.256 117.376C172.904 117.516 173.304 118.504 173.076 119.576Z" fill="white" stroke="#263238" stroke-miterlimit="10"/>
<path d="M80.8202 92.4C80.8202 92.4 78.5922 88.644 77.1842 88.4C75.7762 88.156 69.7882 87.932 68.4962 88.756C67.2042 89.58 67.5602 92.276 68.0282 92.98C68.4962 93.684 70.3762 94.036 72.0282 93.92C73.6802 93.804 79.1882 94.272 79.1882 94.272C79.1882 94.272 82.4722 96.62 83.6482 96.384C84.8242 96.148 86.3482 93.584 85.2882 92.156C84.2282 90.728 82.5842 91.12 80.8202 92.4Z" fill="#263238" stroke="#263238" stroke-miterlimit="10"/>
<path d="M80.8203 92.412L84.6963 93.236" stroke="#263238" stroke-miterlimit="10"/>
<path d="M52.5361 74.688C52.5361 74.688 49.7361 75.512 49.3641 76.332C48.9921 77.152 48.7801 77.74 48.7801 77.74L40.3281 90.064C40.3281 90.064 37.2761 89.832 36.3281 92.412C35.3801 94.992 35.7441 98.516 35.7441 98.516C35.7441 98.516 33.5121 104.032 33.3961 108.14C33.3166 110.532 33.4343 112.927 33.7481 115.3C33.7481 115.3 33.1601 107.788 34.9201 105.44C36.6801 103.092 40.3201 104.856 41.7201 109.08C43.1201 113.304 44.8001 121.168 44.8001 121.168L82.0001 128.8C82.0001 128.8 80.1201 118.94 82.5881 113.304C85.0561 107.668 96.5521 108.024 98.6681 118.236C100.784 128.448 100.076 130.324 100.076 130.324C100.076 130.324 107.94 131.968 131.884 131.616C155.828 131.264 168.972 128.448 172.496 127.508C172.496 127.508 173.296 123.164 173.552 120.584C173.708 119.099 173.465 117.6 172.848 116.24C172.848 116.24 172.612 111.544 172.024 109.9C171.436 108.256 169.676 105.792 169.676 105.792C169.676 105.792 167.916 101.684 164.984 99.104C162.052 96.524 157.236 93.94 156.06 93.352C154.884 92.764 153.364 92.412 151.132 90.888C148.9 89.364 135.052 79.736 130.708 77.156C126.364 74.576 116.976 73.28 115.108 72.928C113.24 72.576 91.6321 71.052 84.1201 71.052C76.6081 71.052 61.1041 71.404 52.5361 74.688Z" stroke="#263238" stroke-miterlimit="10"/>
<path d="M160.752 96.072C160.752 96.072 158.392 96.932 159.036 97.792C159.68 98.652 163.224 100.904 164.832 103.696C166.44 106.488 166.768 107.884 167.516 107.884C168.264 107.884 169.896 106.492 169.672 105.792C169.448 105.092 168.268 98.756 160.752 96.072Z" fill="white" stroke="#263238" stroke-miterlimit="10"/>
<path d="M42.5962 117.6C42.5753 116.509 42.4629 115.421 42.2602 114.348L40.6602 116.284C40.7393 116.719 40.7861 117.158 40.8002 117.6C40.8002 117.668 40.8002 117.732 40.8002 117.796L42.6042 118.368C42.6002 118.1 42.6002 117.844 42.5962 117.6Z" fill="#263238" stroke="#263238" stroke-miterlimit="10"/>
<path d="M39.7803 114.04C39.9665 114.251 40.119 114.49 40.2323 114.748L41.3483 111.4C41.0538 110.698 40.5908 110.08 40.0003 109.6L39.7803 114.04Z" fill="#263238" stroke="#263238" stroke-miterlimit="10"/>
<path d="M40.5636 119.76C40.4932 120.048 40.394 120.328 40.2676 120.596L41.1876 124.596C41.6923 123.709 42.0452 122.744 42.2316 121.74L40.5636 119.76Z" fill="#263238" stroke="#263238" stroke-miterlimit="10"/>
<path d="M37.8643 115.5L36.2643 113.308C36.0074 114.502 35.8734 115.719 35.8643 116.94L37.6723 117.04C37.6862 116.522 37.7505 116.006 37.8643 115.5Z" fill="#263238" stroke="#263238" stroke-miterlimit="10"/>
<path d="M38.3999 114.168C38.5084 114.001 38.6569 113.863 38.8319 113.768L38.5678 109.328C37.9958 109.524 37.4759 110.084 37.0479 110.908L38.3999 114.168Z" fill="#263238" stroke="#263238" stroke-miterlimit="10"/>
<path d="M39.4803 121.416C39.4244 121.432 39.3665 121.44 39.3083 121.44C39.1333 121.435 38.9654 121.37 38.8323 121.256L37.9443 125.088C38.116 125.318 38.3352 125.509 38.5871 125.647C38.8391 125.785 39.1178 125.867 39.4043 125.888C39.54 125.885 39.6746 125.864 39.8043 125.824L39.4803 121.416Z" fill="#263238" stroke="#263238" stroke-miterlimit="10"/>
<path d="M37.8516 119.228L36.0596 120C36.2148 121.147 36.5089 122.272 36.9356 123.348L38.0836 120.048C37.9869 119.781 37.9094 119.507 37.8516 119.228Z" fill="#263238" stroke="#263238" stroke-miterlimit="10"/>
<path d="M148.612 39.0321L141.116 42.9561L131.54 44.3401C131.54 44.3401 128.544 47.2241 132.696 52.5281C136.848 57.8321 139.96 59.5641 141.348 59.5641C142.736 59.5641 148.948 57.3721 149.996 56.6801C151.044 55.9881 158.532 50.4521 158.532 50.4521C158.532 50.4521 162 52.7601 167.2 48.9521C172.4 45.1441 186 33.8441 186 33.8441C186 33.8441 187.96 32.5721 186.692 30.0361C185.424 27.5001 181.844 24.9601 179.308 24.0361C176.772 23.1121 173.424 24.2681 172.508 24.7281C171.592 25.1881 151.512 34.5361 151.512 34.5361C151.512 34.5361 147.92 35.8041 148.612 39.0321Z" fill="white" stroke="#263238" stroke-miterlimit="10"/>
<path d="M165.94 47.2561C165.926 47.9178 165.729 48.5628 165.372 49.1201" stroke="#263238" stroke-miterlimit="10"/>
<path d="M152.444 34.8C152.444 34.8 158.208 34.992 162.14 39.552C164.028 41.748 165.128 43.62 165.624 45.176" stroke="#263238" stroke-miterlimit="10"/>
<path d="M149.528 38.5401L152.572 37.4601C152.572 37.4601 156.752 37.7161 159.476 40.3761C162.2 43.0361 162.328 46.2081 162.076 47.2201L159.224 49.6921" stroke="#263238" stroke-miterlimit="10"/>
<path d="M143.064 43.42C143.064 43.42 148.148 46.672 149.844 48.172C151.068 49.252 150.924 53.176 150.924 53.176" stroke="#263238" stroke-miterlimit="10"/>
<path d="M131.661 45.66C131.519 45.7851 131.405 45.9381 131.325 46.1095C131.245 46.2809 131.201 46.467 131.197 46.656C131.182 48.1471 131.527 49.6196 132.205 50.948C133.553 53.688 139.513 58.04 140.429 58.388C141.345 58.736 141.953 58.172 142.213 56.736C142.473 55.3 141.153 51.36 139.865 50.164C139.285 49.628 135.225 46.776 133.365 45.536C133.107 45.365 132.8 45.2845 132.492 45.3069C132.183 45.3293 131.891 45.4536 131.661 45.66Z" fill="#263238" stroke="#263238" stroke-miterlimit="10"/>
<path d="M141.489 50.7281L149.385 48.9361L160.441 42.4001C160.441 42.4001 161.241 41.7041 159.477 40.3681C158.698 39.7332 157.856 39.1796 156.965 38.7161L145.913 45.2441L148.545 47.0361L139.593 49.0361C140.264 49.5542 140.898 50.1196 141.489 50.7281Z" fill="#263238"/>
<path d="M186.681 30.036C185.949 28.576 184.457 27.12 182.837 25.968C182.573 25.9112 182.3 25.9112 182.037 25.968C181.301 26.18 159.717 37.236 159.717 37.236C162.769 39.236 165.189 43.972 165.189 43.972C165.189 43.972 186.237 29.776 186.681 30.036Z" fill="#263238"/>
<path d="M110.336 50.6961C108.812 50.1081 108.456 48.0001 108.456 48.0001C108.456 48.0001 109.044 44.364 111.152 42.8361C113.26 41.308 114.908 41.1961 115.844 41.1961C116.276 41.1961 116.924 41.7601 117.504 42.3961C117.86 40.3066 117.871 38.173 117.536 36.08C112.704 36.236 108.764 33.9121 100.736 33.5921C94.052 33.3321 87.76 35.9041 85.036 37.1921C84.957 37.841 84.9183 38.4943 84.92 39.1481C84.9201 40.2782 85.0353 41.4053 85.264 42.5121C85.7119 42.2361 86.1799 41.9941 86.664 41.7881C88.072 41.2001 91.464 43.0761 91.94 43.4321C92.416 43.7881 93.7 46.4801 93.7 46.4801C93.7 46.4801 92.412 48.9401 90.416 49.4121C89.8389 49.5517 89.2453 49.6109 88.652 49.5881C89.9321 51.1495 91.4887 52.462 93.244 53.4601L93.584 53.06C94.636 51.772 96.384 49.6601 96.384 49.6601C96.384 49.6601 103.184 50.0121 104.124 50.0121C105.064 50.0121 105.884 51.3041 106.236 52.9441C106.4 53.7081 106.564 54.312 106.692 54.7481C108.896 53.9802 110.915 52.7609 112.62 51.1681C111.84 51.1219 111.07 50.963 110.336 50.6961Z" fill="#263238" stroke="#263238" stroke-miterlimit="10"/>
<path d="M101.36 18.328C97.2457 18.328 93.2243 19.5479 89.8037 21.8334C86.3832 24.119 83.7172 27.3675 82.1429 31.1682C80.5686 34.9689 80.1567 39.1511 80.9592 43.1859C81.7618 47.2207 83.7428 50.9269 86.6518 53.8358C89.5607 56.7448 93.2669 58.7258 97.3017 59.5283C101.337 60.3309 105.519 59.919 109.319 58.3447C113.12 56.7704 116.369 54.1044 118.654 50.6839C120.94 47.2633 122.16 43.2419 122.16 39.128C122.16 33.6115 119.968 28.3209 116.067 24.4202C112.167 20.5194 106.876 18.328 101.36 18.328ZM112.628 51.152C110.495 53.1519 107.868 54.5479 105.017 55.1966C102.166 55.8453 99.1942 55.7233 96.4061 54.8432C93.618 53.9632 91.1145 52.3567 89.1527 50.1888C87.191 48.0209 85.8417 45.3699 85.2436 42.508C85.0149 41.4013 84.8997 40.2741 84.8996 39.144C84.8979 38.4902 84.9366 37.837 85.0156 37.188C85.3283 34.5584 86.2707 32.0431 87.7628 29.8554C89.2549 27.6677 91.2527 25.8722 93.5867 24.6212C95.9207 23.3703 98.522 22.7007 101.17 22.6694C103.818 22.6381 106.434 23.246 108.797 24.4415C111.16 25.637 113.2 27.3848 114.743 29.5366C116.286 31.6885 117.288 34.1808 117.663 36.8023C118.037 39.4237 117.774 42.0969 116.896 44.595C116.017 47.0931 114.549 49.3423 112.616 51.152H112.628Z" fill="#3498DB" stroke="#263238" stroke-miterlimit="10"/>
<path d="M115.259 39.908C115.453 38.5353 115.239 37.136 114.643 35.884C110.923 35.352 107.123 33.824 100.715 33.572C95.7194 33.376 90.9474 34.772 87.7154 36.02C87.2326 36.5084 86.8278 37.0683 86.5154 37.68C86.0434 38.736 86.6315 40.376 86.6315 40.376L99.8835 40.612L115.259 39.908Z" fill="white" stroke="#263238" stroke-miterlimit="10"/>
<path d="M93.7954 35.1C93.7954 35.1 92.3873 35.568 92.6233 38.852C92.8593 42.136 94.8513 46.124 96.2593 47.06C97.6673 47.996 102.591 48.468 104.115 47.412C105.639 46.356 107.635 38.736 107.399 36.976C107.163 35.216 106.227 34.976 105.055 34.748C101.68 34.1892 98.239 34.1487 94.8514 34.628C94.4642 34.6904 94.1001 34.8531 93.7954 35.1Z" fill="#CFCFCF" stroke="#263238" stroke-miterlimit="10"/>
<path d="M113.599 37.56C113.599 38.404 112.735 39.084 111.663 39.084C110.591 39.084 109.731 38.404 109.731 37.56C109.731 36.716 110.595 36.036 111.663 36.036C112.731 36.036 113.599 36.72 113.599 37.56Z" fill="white" stroke="#263238" stroke-miterlimit="10"/>
<path d="M91.316 37.4241C91.428 38.2561 90.66 39.0481 89.6 39.1881C88.54 39.3281 87.6 38.7881 87.48 37.9361C87.36 37.0841 88.14 36.3081 89.196 36.1681C90.252 36.0281 91.2 36.5881 91.316 37.4241Z" fill="white" stroke="#263238" stroke-miterlimit="10"/>
<path d="M46.3274 18.624H38.1554V20.224C34.2335 21.8432 30.8805 24.5902 28.5211 28.1168C26.1618 31.6434 24.9023 35.791 24.9023 40.034C24.9023 44.2771 26.1618 48.4246 28.5211 51.9512C30.8805 55.4778 34.2335 58.2248 38.1554 59.844V61.444H46.3274C52.0105 61.444 57.4608 59.1864 61.4793 55.1679C65.4979 51.1494 67.7554 45.6991 67.7554 40.016C67.7554 34.333 65.4979 28.8827 61.4793 24.8641C57.4608 20.8456 52.0105 18.588 46.3274 18.588V18.624Z" fill="#263238" stroke="#263238" stroke-miterlimit="10"/>
<path d="M38.1555 61.48C49.9899 61.48 59.5835 51.8864 59.5835 40.052C59.5835 28.2177 49.9899 18.624 38.1555 18.624C26.3212 18.624 16.7275 28.2177 16.7275 40.052C16.7275 51.8864 26.3212 61.48 38.1555 61.48Z" fill="#878787" stroke="#263238" stroke-miterlimit="10"/>
<path d="M38.1551 58.5441C48.3679 58.5441 56.6471 50.2649 56.6471 40.0521C56.6471 29.8392 48.3679 21.5601 38.1551 21.5601C27.9422 21.5601 19.6631 29.8392 19.6631 40.0521C19.6631 50.2649 27.9422 58.5441 38.1551 58.5441Z" fill="#3498DB" stroke="#263238" stroke-miterlimit="10"/>
<path d="M43.7716 24.56L41.9996 32.888C41.9672 33.0384 41.9808 33.1951 42.0386 33.3378C42.0964 33.4804 42.1957 33.6024 42.3236 33.688C42.4512 33.7776 42.6037 33.8252 42.7596 33.824C42.9196 33.8231 43.0756 33.7744 43.2076 33.684L50.1836 28.8C48.4093 26.9022 46.2125 25.4496 43.7716 24.56ZM53.7716 34.784L46.1716 38.588C46.0317 38.6574 45.9161 38.7675 45.8398 38.9037C45.7634 39.04 45.73 39.1961 45.7438 39.3517C45.7577 39.5072 45.8181 39.655 45.9173 39.7757C46.0164 39.8963 46.1497 39.9843 46.2996 40.028L54.4716 42.428C54.59 41.6335 54.6488 40.8312 54.6476 40.028C54.6395 38.2495 54.3437 36.484 53.7716 34.8V34.784ZM44.2876 45.392C44.1686 45.3429 44.0395 45.3234 43.9112 45.3349C43.783 45.3465 43.6595 45.3888 43.5511 45.4583C43.4428 45.5278 43.3528 45.6224 43.2888 45.7341C43.2248 45.8458 43.1887 45.9713 43.1836 46.1C43.1838 46.199 43.2042 46.297 43.2436 46.388L46.4436 54.284C48.6869 52.9722 50.5901 51.1512 51.9996 48.968L44.2876 45.392ZM37.8036 48.192C37.7643 48.0434 37.683 47.9094 37.5695 47.8058C37.456 47.7023 37.3151 47.6336 37.1636 47.608H37.0476C36.9095 47.6085 36.7741 47.6458 36.6553 47.7161C36.5364 47.7864 36.4385 47.8872 36.3716 48.008L32.2036 55.412C34.621 56.3471 37.2247 56.6993 39.8036 56.44L37.8036 48.192ZM31.6436 43.992C31.5774 43.8715 31.4802 43.7709 31.362 43.7006C31.2439 43.6302 31.1091 43.5928 30.9716 43.592C30.9304 43.588 30.8889 43.588 30.8476 43.592L22.4476 44.968C23.2256 47.449 24.5798 49.7107 26.3996 51.568L31.5996 44.84C31.689 44.7153 31.7407 44.5676 31.7485 44.4144C31.7563 44.2612 31.7199 44.109 31.6436 43.976V43.992ZM30.8436 36.564L24.5076 30.832C23.0489 32.9836 22.1234 35.4517 21.8076 38.032L30.3196 37.908C30.4723 37.9021 30.6201 37.8527 30.7456 37.7655C30.871 37.6783 30.9689 37.557 31.0276 37.416C31.0639 37.3242 31.0829 37.2266 31.0836 37.128C31.0844 37.0187 31.062 36.9104 31.0179 36.8105C30.9738 36.7105 30.9089 36.621 30.8276 36.548L30.8436 36.564ZM29.5476 26L34.9516 32.576C35.0251 32.6642 35.1167 32.7356 35.2202 32.7853C35.3238 32.835 35.4368 32.8618 35.5516 32.864C35.629 32.8638 35.7059 32.8516 35.7796 32.828C35.9288 32.7791 36.0603 32.6874 36.1577 32.5644C36.2551 32.4413 36.3142 32.2923 36.3276 32.136L36.8516 23.632C34.2632 23.829 31.7592 24.6408 29.5476 26Z" fill="#263238" stroke="#263238" stroke-miterlimit="10"/>
<path d="M38.1555 42.772C39.6578 42.772 40.8755 41.5542 40.8755 40.052C40.8755 38.5498 39.6578 37.332 38.1555 37.332C36.6533 37.332 35.4355 38.5498 35.4355 40.052C35.4355 41.5542 36.6533 42.772 38.1555 42.772Z" fill="#3498DB" stroke="#263238" stroke-miterlimit="10"/>
<path d="M34.4793 40.516C34.4793 40.1996 34.3855 39.8902 34.2097 39.6271C34.0338 39.364 33.784 39.1589 33.4916 39.0378C33.1992 38.9167 32.8775 38.885 32.5672 38.9468C32.2568 39.0085 31.9717 39.1609 31.7479 39.3846C31.5242 39.6084 31.3718 39.8935 31.31 40.2039C31.2483 40.5142 31.28 40.8359 31.4011 41.1283C31.5222 41.4207 31.7273 41.6706 31.9904 41.8464C32.2535 42.0222 32.5628 42.116 32.8793 42.116C33.3036 42.116 33.7106 41.9474 34.0107 41.6474C34.3107 41.3473 34.4793 40.9404 34.4793 40.516Z" fill="#263238" stroke="#263238" stroke-miterlimit="10"/>
<path d="M37.6639 35.544C37.6639 35.2275 37.57 34.9182 37.3942 34.6551C37.2184 34.3919 36.9685 34.1869 36.6762 34.0658C36.3838 33.9447 36.0621 33.913 35.7517 33.9747C35.4414 34.0365 35.1563 34.1888 34.9325 34.4126C34.7087 34.6364 34.5563 34.9215 34.4946 35.2318C34.4329 35.5422 34.4646 35.8639 34.5857 36.1563C34.7068 36.4486 34.9118 36.6985 35.175 36.8743C35.4381 37.0501 35.7474 37.144 36.0639 37.144C36.4882 37.144 36.8952 36.9754 37.1952 36.6753C37.4953 36.3753 37.6639 35.9683 37.6639 35.544Z" fill="#263238" stroke="#263238" stroke-miterlimit="10"/>
<path d="M43.9998 36.7121C43.9998 36.3956 43.906 36.0863 43.7302 35.8231C43.5543 35.56 43.3045 35.355 43.0121 35.2339C42.7197 35.1128 42.398 35.0811 42.0877 35.1428C41.7773 35.2045 41.4922 35.3569 41.2684 35.5807C41.0447 35.8045 40.8923 36.0895 40.8305 36.3999C40.7688 36.7103 40.8005 37.032 40.9216 37.3244C41.0427 37.6167 41.2478 37.8666 41.5109 38.0424C41.774 38.2182 42.0834 38.3121 42.3998 38.3121C42.8242 38.3121 43.2311 38.1435 43.5312 37.8434C43.8312 37.5434 43.9998 37.1364 43.9998 36.7121Z" fill="#263238" stroke="#263238" stroke-miterlimit="10"/>
<path d="M44.2195 42.616C44.2195 42.2995 44.1257 41.9902 43.9499 41.7271C43.7741 41.464 43.5242 41.2589 43.2318 41.1378C42.9395 41.0167 42.6178 40.985 42.3074 41.0467C41.997 41.1085 41.7119 41.2609 41.4882 41.4846C41.2644 41.7084 41.112 41.9935 41.0503 42.3038C40.9885 42.6142 41.0202 42.9359 41.1413 43.2283C41.2624 43.5206 41.4675 43.7705 41.7306 43.9463C41.9937 44.1222 42.3031 44.216 42.6195 44.216C43.0439 44.216 43.4508 44.0474 43.7509 43.7474C44.051 43.4473 44.2195 43.0403 44.2195 42.616Z" fill="#263238" stroke="#263238" stroke-miterlimit="10"/>
<path d="M38.8553 44.948C38.8553 44.6316 38.7614 44.3222 38.5856 44.0591C38.4098 43.796 38.1599 43.5909 37.8676 43.4698C37.5752 43.3487 37.2535 43.317 36.9431 43.3788C36.6328 43.4405 36.3477 43.5929 36.1239 43.8167C35.9001 44.0404 35.7478 44.3255 35.686 44.6359C35.6243 44.9462 35.656 45.268 35.7771 45.5603C35.8982 45.8527 36.1032 46.1026 36.3664 46.2784C36.6295 46.4542 36.9388 46.548 37.2553 46.548C37.6796 46.548 38.0866 46.3795 38.3866 46.0794C38.6867 45.7793 38.8553 45.3724 38.8553 44.948Z" fill="#263238" stroke="#263238" stroke-miterlimit="10"/>
</svg>
