<svg width="60" height="60" viewBox="0 0 60 60" fill="none" xmlns="http://www.w3.org/2000/svg">
<path d="M50.625 13.125H43.125V11.25C43.125 9.75816 42.5324 8.32742 41.4775 7.27252C40.4226 6.21763 38.9918 5.625 37.5 5.625H22.5C21.0082 5.625 19.5774 6.21763 18.5225 7.27252C17.4676 8.32742 16.875 9.75816 16.875 11.25V13.125H9.375C7.88316 13.125 6.45242 13.7176 5.39752 14.7725C4.34263 15.8274 3.75 17.2582 3.75 18.75V48.75C3.75 50.2418 4.34263 51.6726 5.39752 52.7275C6.45242 53.7824 7.88316 54.375 9.375 54.375H50.625C52.1168 54.375 53.5476 53.7824 54.6025 52.7275C55.6574 51.6726 56.25 50.2418 56.25 48.75V18.75C56.25 17.2582 55.6574 15.8274 54.6025 14.7725C53.5476 13.7176 52.1168 13.125 50.625 13.125ZM20.625 11.25C20.625 10.7527 20.8225 10.2758 21.1742 9.92418C21.5258 9.57254 22.0027 9.375 22.5 9.375H37.5C37.9973 9.375 38.4742 9.57254 38.8258 9.92418C39.1775 10.2758 39.375 10.7527 39.375 11.25V13.125H20.625V11.25ZM52.5 26.7375L33.2062 32.6813C32.7713 32.808 32.397 33.0879 32.1525 33.4693C31.908 33.8507 31.8098 34.3076 31.8761 34.7558C31.9424 35.2039 32.1687 35.6129 32.5132 35.9071C32.8577 36.2013 33.297 36.3609 33.75 36.3562C33.9341 36.3603 34.1176 36.335 34.2938 36.2812L52.5 30.6712V48.75C52.5 49.2473 52.3025 49.7242 51.9508 50.0758C51.5992 50.4275 51.1223 50.625 50.625 50.625H9.375C8.87772 50.625 8.40081 50.4275 8.04918 50.0758C7.69754 49.7242 7.5 49.2473 7.5 48.75V30.6712L25.7062 36.2812C26.1836 36.4255 26.6988 36.3741 27.1383 36.1385C27.5778 35.9029 27.9058 35.5024 28.05 35.025C28.1942 34.5476 28.1429 34.0325 27.9073 33.5929C27.6717 33.1534 27.2711 32.8255 26.7938 32.6813L7.5 26.7375V18.75C7.5 18.2527 7.69754 17.7758 8.04918 17.4242C8.40081 17.0725 8.87772 16.875 9.375 16.875H50.625C51.1223 16.875 51.5992 17.0725 51.9508 17.4242C52.3025 17.7758 52.5 18.2527 52.5 18.75V26.7375Z" fill="#C12026"/>
<path d="M30 41.25C28.5082 41.25 27.0774 40.6574 26.0225 39.6025C24.9676 38.5476 24.375 37.1168 24.375 35.625V30C24.375 29.5027 24.5725 29.0258 24.9242 28.6742C25.2758 28.3225 25.7527 28.125 26.25 28.125H33.75C34.2473 28.125 34.7242 28.3225 35.0758 28.6742C35.4275 29.0258 35.625 29.5027 35.625 30V35.625C35.625 37.1168 35.0324 38.5476 33.9775 39.6025C32.9226 40.6574 31.4918 41.25 30 41.25ZM28.125 31.875V35.625C28.125 36.1223 28.3225 36.5992 28.6742 36.9508C29.0258 37.3025 29.5027 37.5 30 37.5C30.4973 37.5 30.9742 37.3025 31.3258 36.9508C31.6775 36.5992 31.875 36.1223 31.875 35.625V31.875H28.125Z" fill="#C12026"/>
</svg>
