<svg width="60" height="60" viewBox="0 0 60 60" fill="none" xmlns="http://www.w3.org/2000/svg">
<g clip-path="url(#clip0_20_1011)">
<path d="M59.373 25.6569C59.373 25.6569 54.0851 21.6015 54.0851 21.5843C54.0851 21.5843 53.6437 21.1546 53.6437 20.2864C53.6437 18.0635 53.6437 11.3949 53.6437 11.3949C53.6437 10.3939 52.8293 9.57945 51.8283 9.57945H45.3008C44.2998 9.57945 43.4854 10.3939 43.4854 11.3949C43.4854 11.3949 43.4854 12.5137 43.4854 12.8865C43.4854 13.3009 43.2595 13.1105 43.2595 13.1105L31.2254 3.74041C30.9141 3.49809 30.5467 3.3699 30.1631 3.3699C29.5347 3.3699 28.958 3.72431 28.6582 4.29467L25.8408 9.65349C25.4978 10.3059 25.4965 11.2179 25.8377 11.871L29.4771 18.841C29.4771 18.841 29.7435 19.2007 29.3814 19.8377C28.4274 21.5152 24.8256 26.0689 24.8256 26.0689C24.3866 26.6692 24.2575 27.5766 24.5116 28.2757L25.4782 30.9339C25.4782 30.9339 25.7903 31.7838 25.1876 31.2882C24.0142 30.3233 21.9696 28.778 20.9185 27.9145C20.344 27.4426 20.7894 26.874 20.7894 26.874L24.383 20.586C24.8037 19.8492 24.7091 18.8465 24.1583 18.2015L19.7292 13.0155C19.3798 12.6065 18.8675 12.3717 18.3239 12.3717C17.9147 12.3717 17.5132 12.5089 17.1933 12.758L0.627089 25.6567C-0.0163613 26.1574 -0.083611 26.8078 0.0680955 27.2494C0.219644 27.6909 0.67208 28.1629 1.48744 28.1629H5.13645C5.13645 28.1629 5.50995 28.1268 5.50995 28.5083C5.50995 35.0849 5.50995 54.8148 5.50995 54.8148C5.50995 55.8158 6.32437 56.6302 7.32538 56.6302H23.5258C24.5268 56.6302 25.3412 55.8158 25.3412 54.8148V47.0611C25.3412 46.6994 25.3313 46.1147 25.3188 45.7622C25.3182 45.7383 25.2706 43.3503 26.6767 41.9062C27.4261 41.1363 28.4538 40.7622 29.8184 40.7622C31.2661 40.7622 32.4076 41.1713 33.2113 41.9783C34.6594 43.4326 34.6665 45.7647 34.6665 45.7832C34.6621 46.1347 34.6584 46.7095 34.6584 47.0609V54.8147C34.6584 55.8157 35.4729 56.6301 36.4739 56.6301H52.6743C53.6753 56.6301 54.4897 55.8157 54.4897 54.8147C54.4897 54.8147 54.4897 35.2231 54.4897 28.6924C54.4897 28.1202 54.981 28.1629 54.981 28.1629H58.5122C59.3276 28.1629 59.78 27.6911 59.9315 27.2494C60.0836 26.8078 60.0163 26.1574 59.373 25.6569ZM45.8535 12.2746C45.8535 11.9589 46.1689 11.9472 46.1689 11.9472H50.865C50.865 11.9472 51.2759 11.9327 51.2759 12.3668C51.2759 13.9357 51.2759 16.9682 51.2759 18.6419C51.2759 19.3392 50.8753 19.0399 50.8753 19.0399L45.9157 15.1784C45.8923 15.1479 45.8535 15.0867 45.8535 14.8696C45.8535 14.8696 45.8535 12.9688 45.8535 12.2746ZM53.9375 25.795C52.9365 25.795 52.1221 26.6094 52.1221 27.6104V53.6743C52.1221 53.6743 52.1996 54.2621 51.5484 54.2621C48.0902 54.2621 41.3173 54.2621 37.7156 54.2621C37.025 54.2621 37.0267 53.6151 37.0267 53.6151V47.0607C37.0267 46.7174 37.0303 46.1559 37.0344 45.8125C37.0362 45.678 37.0505 42.4952 34.9074 40.3254C33.6416 39.0438 31.9295 38.3941 29.8187 38.3941C27.8007 38.3941 26.1675 39.0253 24.9645 40.2704C22.8607 42.4481 22.9478 45.7017 22.9526 45.8394C22.9639 46.1682 22.9736 46.7275 22.9736 47.0607V53.8124C22.9736 53.8124 23.0148 54.2621 22.2847 54.2621C18.683 54.2621 11.9989 54.2621 8.57029 54.2621C7.78097 54.2621 7.87822 53.6151 7.87822 53.6151V27.6104C7.87822 26.6094 7.0638 25.795 6.06279 25.795C6.06279 25.795 5.17102 25.795 4.87361 25.795C4.40002 25.795 4.79925 25.4095 4.79925 25.4095L17.9527 15.168C17.9527 15.168 18.2393 14.929 18.4334 15.1449C19.0511 15.8323 20.9665 18.1131 21.6894 18.9568C22.0281 19.3524 21.6281 19.6336 21.6281 19.6336L11.4762 26.1428C11.0358 26.425 10.9076 27.011 11.19 27.4515C11.3709 27.7336 11.6762 27.8875 11.9883 27.8875C12.1633 27.8875 12.3404 27.8389 12.4986 27.7375C12.4986 27.7375 18.0301 24.2479 19.8386 23.0311C20.2518 22.7531 20.2184 23.1004 20.2184 23.1004L18.1688 26.6868C17.7098 27.4906 17.9193 28.5694 18.6459 29.1428L27.0824 35.8004C27.3945 36.0463 27.7205 36.1712 28.0516 36.1712C28.4658 36.1712 28.8538 35.9705 29.0893 35.6344C29.2747 35.3697 29.446 34.9171 29.2084 34.2637L26.7503 27.504C26.7508 27.4833 26.7547 27.4551 26.7602 27.4352L31.7144 20.6592C32.182 20.0194 32.2551 19.0454 31.8884 18.3431C31.8884 18.3431 30.6212 15.8771 30.1775 15.0666C29.7369 14.2615 30.4421 14.725 30.4421 14.725L47.8239 27.6995C47.9939 27.8264 48.1927 27.8876 48.3897 27.8876C48.6784 27.8876 48.9635 27.7561 49.1497 27.507C49.4625 27.0879 49.3763 26.4943 48.9571 26.1814L28.294 10.7573C28.294 10.7573 28.017 10.5833 28.1963 10.2578C28.6202 9.48899 29.7236 7.32422 30.166 6.51548C30.3617 6.15745 30.7258 6.35225 30.7258 6.35225L55.0163 25.2655C55.0163 25.2655 55.495 25.795 54.8109 25.795C54.5925 25.795 53.9375 25.795 53.9375 25.795Z" fill="#C12026" stroke="#C12026" stroke-width="0.5"/>
</g>
<defs>
<clipPath id="clip0_20_1011">
<rect width="60" height="60" fill="white"/>
</clipPath>
</defs>
</svg>
