<svg width="60" height="60" viewBox="0 0 60 60" fill="none" xmlns="http://www.w3.org/2000/svg">
<g clip-path="url(#clip0_13_697)">
<path d="M50 18.5V42.5H19C19 40.9087 18.3679 39.3826 17.2426 38.2574C16.1174 37.1321 14.5913 36.5 13 36.5C11.4087 36.5 9.88258 37.1321 8.75736 38.2574C7.63214 39.3826 7 40.9087 7 42.5H4C3.20435 42.5 2.44129 42.1839 1.87868 41.6213C1.31607 41.0587 1 40.2956 1 39.5V18.5C1 16.9087 1.63214 15.3826 2.75736 14.2574C3.88258 13.1321 5.4087 12.5 7 12.5H44C45.5913 12.5 47.1174 13.1321 48.2426 14.2574C49.3679 15.3826 50 16.9087 50 18.5Z" stroke="#C12026" stroke-width="0.8"/>
<path d="M13 48.5C16.3137 48.5 19 45.8137 19 42.5C19 39.1863 16.3137 36.5 13 36.5C9.68629 36.5 7 39.1863 7 42.5C7 45.8137 9.68629 48.5 13 48.5Z" stroke="#C12026" stroke-width="0.8"/>
<path d="M37 18.5H41C42.0609 18.5 43.0783 18.9214 43.8284 19.6716C44.5786 20.4217 45 21.4391 45 22.5V42.5H33V22.5C33 21.4391 33.4214 20.4217 34.1716 19.6716C34.9217 18.9214 35.9391 18.5 37 18.5ZM9 18.5H25C25.7956 18.5 26.5587 18.8161 27.1213 19.3787C27.6839 19.9413 28 20.7044 28 21.5V29.5H6V21.5C6 20.7044 6.31607 19.9413 6.87868 19.3787C7.44129 18.8161 8.20435 18.5 9 18.5Z" stroke="#C12026" stroke-width="0.8"/>
<path d="M25 17.5H9C7.93913 17.5 6.92172 17.9214 6.17157 18.6716C5.42143 19.4217 5 20.4391 5 21.5V29.5C5 29.7652 5.10536 30.0196 5.29289 30.2071C5.48043 30.3946 5.73478 30.5 6 30.5H28C28.2652 30.5 28.5196 30.3946 28.7071 30.2071C28.8946 30.0196 29 29.7652 29 29.5V21.5C29 20.4391 28.5786 19.4217 27.8284 18.6716C27.0783 17.9214 26.0609 17.5 25 17.5ZM7 21.5C7 20.9696 7.21071 20.4609 7.58579 20.0858C7.96086 19.7107 8.46957 19.5 9 19.5H16V28.5H7V21.5ZM27 28.5H18V19.5H25C25.5304 19.5 26.0391 19.7107 26.4142 20.0858C26.7893 20.4609 27 20.9696 27 21.5V28.5Z" fill="#C12026" stroke="#C12026" stroke-width="0.8"/>
<path d="M57.9828 45.5495C57.713 45.5495 57.4542 45.444 57.2635 45.2562C57.0727 45.0684 56.9655 44.8137 56.9655 44.5481V43.5466H57.9828C58.2525 43.5466 58.5113 43.4411 58.7021 43.2533C58.8928 43.0655 59 42.8108 59 42.5452C59 42.2796 58.8928 42.0248 58.7021 41.837C58.5113 41.6492 58.2525 41.5437 57.9828 41.5437H51.8793V18.5102C51.8793 16.651 51.1291 14.8679 49.7937 13.5532C48.4583 12.2386 46.6471 11.5 44.7586 11.5H7.12069C5.23217 11.5 3.42099 12.2386 2.0856 13.5532C0.750213 14.8679 0 16.651 0 18.5102V39.5408C0 40.6032 0.428693 41.6221 1.19177 42.3733C1.95485 43.1246 2.98981 43.5466 4.06897 43.5466H6.18483C6.44148 45.2035 7.29267 46.7151 8.58407 47.8073C9.87548 48.8995 11.5216 49.5 13.2241 49.5C14.9266 49.5 16.5728 48.8995 17.8642 47.8073C19.1556 46.7151 20.0068 45.2035 20.2634 43.5466H54.931V44.5481C54.931 45.3449 55.2526 46.109 55.8249 46.6725C56.3972 47.2359 57.1734 47.5524 57.9828 47.5524C58.2525 47.5524 58.5113 47.4469 58.7021 47.2591C58.8928 47.0713 59 46.8166 59 46.551C59 46.2854 58.8928 46.0307 58.7021 45.8428C58.5113 45.655 58.2525 45.5495 57.9828 45.5495ZM13.2241 47.5524C12.2182 47.5524 11.2348 47.2588 10.3984 46.7086C9.56197 46.1584 8.91006 45.3763 8.52509 44.4614C8.14013 43.5464 8.03941 42.5396 8.23566 41.5683C8.43191 40.597 8.91633 39.7048 9.62765 39.0045C10.339 38.3042 11.2452 37.8273 12.2319 37.6341C13.2185 37.4409 14.2412 37.54 15.1705 37.919C16.0999 38.298 16.8943 38.9398 17.4532 39.7633C18.012 40.5867 18.3103 41.5548 18.3103 42.5452C18.3103 43.8732 17.7745 45.1468 16.8206 46.0858C15.8668 47.0249 14.5731 47.5524 13.2241 47.5524ZM44.7586 41.5437H34.5862V22.516C34.5862 21.7192 34.9077 20.955 35.48 20.3916C36.0523 19.8282 36.8286 19.5117 37.6379 19.5117H41.7069C42.5163 19.5117 43.2925 19.8282 43.8648 20.3916C44.4371 20.955 44.7586 21.7192 44.7586 22.516V41.5437ZM46.7931 41.5437V22.516C46.7931 21.188 46.2572 19.9144 45.3034 18.9753C44.3495 18.0363 43.0558 17.5087 41.7069 17.5087H37.6379C36.289 17.5087 34.9953 18.0363 34.0414 18.9753C33.0876 19.9144 32.5517 21.188 32.5517 22.516V41.5437H20.2736C20.2736 41.4636 20.2736 41.3935 20.2736 41.3134C20.2736 41.2332 20.2736 41.1231 20.2228 41.033C20.1719 40.9428 20.1617 40.7726 20.121 40.6524C20.0803 40.5322 20.121 40.4822 20.0498 40.392C19.9786 40.3019 19.9583 40.1316 19.9074 40.0015L19.8159 39.7811C19.7447 39.6309 19.6734 39.4807 19.5921 39.3305L19.5209 39.1903C19.4124 38.9967 19.2971 38.8097 19.175 38.6295L19.0733 38.5393C18.9716 38.3891 18.8597 38.2389 18.7376 38.0987L18.5952 37.9385L18.3103 37.638L18.1272 37.4678L17.8221 37.1974L17.6186 37.0371L17.2931 36.8068L17.0693 36.6566L16.7438 36.4563L16.4997 36.3261L16.1538 36.1559L15.8995 36.0457L15.5333 35.9155L15.2586 35.8254L14.8619 35.7252L14.6076 35.6651L14.1498 35.595H13.926C13.6921 35.595 13.4683 35.595 13.2241 35.595C12.98 35.595 12.7562 35.595 12.5222 35.595H12.2984L11.8407 35.6651L11.5864 35.7252L11.1897 35.8254L10.9252 35.9155L10.559 36.0457L10.3047 36.1559L9.95879 36.3261L9.71465 36.4563L9.38914 36.6566L9.16535 36.8068L8.85 37.0371L8.64655 37.1974L8.34138 37.4678L8.13793 37.638L7.84293 37.9585L7.70052 38.1187C7.57845 38.2589 7.46655 38.4091 7.36483 38.5594L7.30379 38.6395C7.18172 38.8197 7.06644 39.0067 6.95793 39.2003L6.88672 39.3405C6.80535 39.4907 6.73414 39.6309 6.66293 39.7911L6.57138 40.0115C6.52052 40.1417 6.46965 40.2718 6.42897 40.402C6.38828 40.5322 6.42897 40.5723 6.35776 40.6624C6.28655 40.7525 6.28655 40.9128 6.25603 41.043C6.22552 41.1732 6.25603 41.2332 6.20517 41.3234C6.15431 41.4135 6.20517 41.4736 6.20517 41.5537H4.06897C3.52939 41.5537 3.01191 41.3427 2.63037 40.9671C2.24883 40.5915 2.03448 40.082 2.03448 39.5508V18.5102C2.03448 17.1822 2.57035 15.9086 3.5242 14.9695C4.47805 14.0305 5.77174 13.5029 7.12069 13.5029H44.7586C46.1076 13.5029 47.4013 14.0305 48.3551 14.9695C49.309 15.9086 49.8448 17.1822 49.8448 18.5102V41.5437H46.7931Z" fill="#C12026" stroke="#C12026" stroke-width="0.8"/>
<path d="M36 31.5C36.5523 31.5 37 31.0523 37 30.5C37 29.9477 36.5523 29.5 36 29.5C35.4477 29.5 35 29.9477 35 30.5C35 31.0523 35.4477 31.5 36 31.5Z" fill="#C12026"/>
<path d="M13 44.5C14.1046 44.5 15 43.6046 15 42.5C15 41.3954 14.1046 40.5 13 40.5C11.8954 40.5 11 41.3954 11 42.5C11 43.6046 11.8954 44.5 13 44.5Z" fill="#C12026"/>
</g>
<defs>
<clipPath id="clip0_13_697">
<rect width="60" height="60" fill="white"/>
</clipPath>
</defs>
</svg>
