<svg width="60" height="60" viewBox="0 0 60 60" fill="none" xmlns="http://www.w3.org/2000/svg">
<path d="M51.8018 37.8894C49.2211 37.8894 46.7462 38.9145 44.9214 40.7393C43.0966 42.5641 42.0715 45.039 42.0715 47.6197M42.0715 18.742C42.0715 21.3227 43.0966 23.7976 44.9214 25.6224C46.7462 27.4472 49.2211 28.4723 51.8018 28.4723M2 28.4723C4.58063 28.4723 7.05557 27.4472 8.88035 25.6224C10.7051 23.7976 11.7303 21.3227 11.7303 18.742M11.7303 47.6197C11.7303 46.3419 11.4786 45.0766 10.9896 43.896C10.5006 42.7155 9.78389 41.6428 8.88035 40.7393C7.97681 39.8358 6.90415 39.119 5.72362 38.63C4.54308 38.1411 3.2778 37.8894 2 37.8894" stroke="#C12026" stroke-width="2" stroke-miterlimit="10" stroke-linecap="round" stroke-linejoin="round"/>
<path d="M2 18.742H51.8018V47.6197H2V18.742Z" stroke="#C12026" stroke-width="2.5" stroke-miterlimit="10" stroke-linecap="round" stroke-linejoin="round"/>
<path d="M30.619 29.4632C30.619 28.728 30.401 28.0092 29.9925 27.3979C29.5841 26.7866 29.0036 26.3101 28.3243 26.0287C27.6451 25.7473 26.8976 25.6736 26.1765 25.8169C25.4554 25.9603 24.793 26.3142 24.273 26.834C23.7531 27.3538 23.3989 28.0161 23.2553 28.7372C23.1118 29.4583 23.1852 30.2057 23.4664 30.8851C23.7476 31.5644 24.2239 32.1451 24.8351 32.5537C25.4464 32.9624 26.165 33.1806 26.9002 33.1808C27.6355 33.1808 28.3543 33.3988 28.9656 33.8073C29.577 34.2158 30.0535 34.7965 30.3349 35.4758C30.6162 36.1551 30.6899 36.9026 30.5464 37.6237C30.403 38.3448 30.0489 39.0073 29.529 39.5272C29.0091 40.0471 28.3467 40.4012 27.6255 40.5446C26.9044 40.6881 26.1569 40.6144 25.4776 40.3331C24.7983 40.0517 24.2176 39.5752 23.8091 38.9638C23.4007 38.3525 23.1826 37.6337 23.1826 36.8984M26.9002 24.2535V42.1081" stroke="#C12026" stroke-width="2.5" stroke-miterlimit="10" stroke-linecap="round" stroke-linejoin="round"/>
<path d="M52.2126 43.5H57V13.5H8V18.5554" stroke="#C12026" stroke-width="2" stroke-miterlimit="10" stroke-linecap="round" stroke-linejoin="round"/>
<path d="M51.8018 37.8894C49.2211 37.8894 46.7462 38.9145 44.9214 40.7393C43.0966 42.5641 42.0715 45.039 42.0715 47.6197M42.0715 18.742C42.0715 21.3227 43.0966 23.7976 44.9214 25.6224C46.7462 27.4472 49.2211 28.4723 51.8018 28.4723M2 28.4723C4.58063 28.4723 7.05557 27.4472 8.88035 25.6224C10.7051 23.7976 11.7303 21.3227 11.7303 18.742M11.7303 47.6197C11.7303 46.3419 11.4786 45.0766 10.9896 43.896C10.5006 42.7155 9.78389 41.6428 8.88035 40.7393C7.97681 39.8358 6.90415 39.119 5.72362 38.63C4.54308 38.1411 3.2778 37.8894 2 37.8894" stroke="#C12026" stroke-width="2.5" stroke-miterlimit="10" stroke-linecap="round" stroke-linejoin="round"/>
<path d="M2 18.742H51.8018V47.6197H2V18.742Z" stroke="#C12026" stroke-width="2.5" stroke-miterlimit="10" stroke-linecap="round" stroke-linejoin="round"/>
<path d="M30.619 29.4632C30.619 28.728 30.401 28.0092 29.9925 27.3979C29.5841 26.7866 29.0036 26.3101 28.3243 26.0287C27.6451 25.7473 26.8976 25.6736 26.1765 25.8169C25.4554 25.9603 24.793 26.3142 24.273 26.834C23.7531 27.3538 23.3989 28.0161 23.2553 28.7372C23.1118 29.4583 23.1852 30.2057 23.4664 30.8851C23.7476 31.5644 24.2239 32.1451 24.8351 32.5537C25.4464 32.9624 26.165 33.1806 26.9002 33.1808C27.6355 33.1808 28.3543 33.3988 28.9656 33.8073C29.577 34.2158 30.0535 34.7965 30.3349 35.4758C30.6162 36.1551 30.6899 36.9026 30.5464 37.6237C30.403 38.3448 30.0489 39.0073 29.529 39.5272C29.0091 40.0471 28.3467 40.4012 27.6255 40.5446C26.9044 40.6881 26.1569 40.6144 25.4776 40.3331C24.7983 40.0517 24.2176 39.5752 23.8091 38.9638C23.4007 38.3525 23.1826 37.6337 23.1826 36.8984M26.9002 24.2535V42.1081" stroke="#C12026" stroke-width="2.5" stroke-miterlimit="10" stroke-linecap="round" stroke-linejoin="round"/>
<path d="M51.8042 42.7505H56.6699V13.8763H6.86816V18.7421" stroke="#C12026" stroke-width="2.5" stroke-miterlimit="10" stroke-linecap="round" stroke-linejoin="round"/>
</svg>
