<svg width="60" height="60" viewBox="0 0 60 60" fill="none" xmlns="http://www.w3.org/2000/svg">
<g clip-path="url(#clip0_40_126)">
<path d="M25.8188 48.2906H6.28135C4.28447 48.2906 2.6626 46.6594 2.6626 44.6625V7.06877C2.6626 5.06252 4.28447 3.43127 6.28135 3.43127H43.8751C45.872 3.43127 47.4938 5.06252 47.4938 7.06877V29.0532C47.4938 29.5594 47.0907 29.9625 46.5845 29.9625C46.0782 29.9625 45.6751 29.5594 45.6751 29.0532V7.06877C45.6751 6.06565 44.8688 5.25002 43.8751 5.25002H6.28135C5.2876 5.25002 4.48135 6.06565 4.48135 7.06877V44.6532C4.48135 45.6563 5.2876 46.4625 6.28135 46.4625H25.8188C26.3251 46.4625 26.7282 46.8657 26.7282 47.3719C26.7282 47.8782 26.3157 48.2906 25.8188 48.2906Z" fill="#C12026" stroke="#C12026" stroke-width="0.5"/>
<path d="M46.5938 14.8969H3.57197C3.06572 14.8969 2.6626 14.4938 2.6626 13.9875C2.6626 13.4813 3.06572 13.0781 3.57197 13.0781H46.5938C47.1001 13.0781 47.5032 13.4813 47.5032 13.9875C47.5032 14.4844 47.0907 14.8969 46.5938 14.8969ZM11.4751 12.2719C9.75947 12.2719 8.3626 10.875 8.3626 9.15938C8.3626 7.44375 9.75947 6.04688 11.4751 6.04688C13.1907 6.04688 14.5876 7.44375 14.5876 9.15938C14.5876 10.875 13.1907 12.2719 11.4751 12.2719ZM11.4751 7.875C10.7626 7.875 10.1813 8.45625 10.1813 9.16875C10.1813 9.88125 10.7626 10.4625 11.4751 10.4625C12.1876 10.4625 12.7688 9.88125 12.7688 9.16875C12.7688 8.45625 12.1876 7.875 11.4751 7.875ZM38.6813 12.2719C36.9657 12.2719 35.5688 10.875 35.5688 9.15938C35.5688 7.44375 36.9657 6.04688 38.6813 6.04688C40.397 6.04688 41.7938 7.44375 41.7938 9.15938C41.7938 10.875 40.397 12.2719 38.6813 12.2719ZM38.6813 7.875C37.9688 7.875 37.3876 8.45625 37.3876 9.16875C37.3876 9.88125 37.9688 10.4625 38.6813 10.4625C39.3938 10.4625 39.9751 9.88125 39.9751 9.16875C39.9751 8.45625 39.3938 7.875 38.6813 7.875Z" fill="#C12026" stroke="#C12026" stroke-width="0.5"/>
<path d="M40.8844 59.9719C31.8094 59.9719 24.4219 52.5844 24.4219 43.5187C24.4219 34.4531 31.8094 27.0656 40.8844 27.0656C49.9594 27.0656 57.3375 34.4437 57.3375 43.5187C57.3375 52.5937 49.9594 59.9719 40.8844 59.9719ZM40.8844 28.875C32.8125 28.875 26.2406 35.4469 26.2406 43.5187C26.2406 51.5906 32.8125 58.1625 40.8844 58.1625C48.9563 58.1625 55.5281 51.5906 55.5281 43.5187C55.5188 35.4375 48.9563 28.875 40.8844 28.875Z" fill="#C12026" stroke="#C12026" stroke-width="0.5"/>
<path d="M40.9127 35.0156C40.4064 35.0156 40.0033 34.6125 40.0033 34.1063V30.5344C40.0033 30.0281 40.4064 29.625 40.9127 29.625C41.4189 29.625 41.8221 30.0281 41.8221 30.5344V34.1063C41.8221 34.6125 41.4189 35.0156 40.9127 35.0156ZM40.9127 57.3938C40.4064 57.3938 40.0033 56.9906 40.0033 56.4844V52.9125C40.0033 52.4062 40.4064 52.0031 40.9127 52.0031C41.4189 52.0031 41.8221 52.4062 41.8221 52.9125V56.4844C41.8221 56.9906 41.4189 57.3938 40.9127 57.3938ZM53.8877 44.4188H50.3158C49.8096 44.4188 49.4064 44.0156 49.4064 43.5094C49.4064 43.0031 49.8096 42.6 50.3158 42.6H53.8877C54.3939 42.6 54.7971 43.0031 54.7971 43.5094C54.7971 44.0156 54.3939 44.4188 53.8877 44.4188ZM31.5096 44.4188H27.9377C27.4314 44.4188 27.0283 44.0156 27.0283 43.5094C27.0283 43.0031 27.4314 42.6 27.9377 42.6H31.5096C32.0158 42.6 32.4189 43.0031 32.4189 43.5094C32.4189 44.0156 32.0158 44.4188 31.5096 44.4188Z" fill="#C12026" stroke="#C12026" stroke-width="0.5"/>
<path d="M11.4752 9.44999C10.9689 9.44999 10.5658 9.04686 10.5658 8.54061V0.881238C10.5658 0.374988 10.9689 -0.0281372 11.4752 -0.0281372C11.9814 -0.0281372 12.3846 0.374988 12.3846 0.881238V8.54061C12.3846 9.04686 11.9814 9.44999 11.4752 9.44999ZM38.6814 9.44999C38.1752 9.44999 37.7721 9.04686 37.7721 8.54061V0.881238C37.7721 0.374988 38.1752 -0.0281372 38.6814 -0.0281372C39.1877 -0.0281372 39.5908 0.374988 39.5908 0.881238V8.54061C39.5908 9.04686 39.1877 9.44999 38.6814 9.44999ZM21.8533 20.7469H18.3283C17.8221 20.7469 17.4189 20.3437 17.4189 19.8375C17.4189 19.3312 17.8221 18.9281 18.3283 18.9281H21.8533C22.3596 18.9281 22.7627 19.3312 22.7627 19.8375C22.7627 20.3437 22.3596 20.7469 21.8533 20.7469ZM31.8377 20.7469H28.3127C27.8064 20.7469 27.4033 20.3437 27.4033 19.8375C27.4033 19.3312 27.8064 18.9281 28.3127 18.9281H31.8377C32.3439 18.9281 32.7471 19.3312 32.7471 19.8375C32.7471 20.3437 32.3346 20.7469 31.8377 20.7469ZM21.8533 27.975H18.3283C17.8221 27.975 17.4189 27.5719 17.4189 27.0656C17.4189 26.5594 17.8221 26.1562 18.3283 26.1562H21.8533C22.3596 26.1562 22.7627 26.5594 22.7627 27.0656C22.7627 27.5719 22.3596 27.975 21.8533 27.975ZM31.8377 27.975H28.3127C27.8064 27.975 27.4033 27.5719 27.4033 27.0656C27.4033 26.5594 27.8064 26.1562 28.3127 26.1562H31.8377C32.3439 26.1562 32.7471 26.5594 32.7471 27.0656C32.7471 27.5719 32.3346 27.975 31.8377 27.975ZM21.8533 35.2031H18.3283C17.8221 35.2031 17.4189 34.8 17.4189 34.2937C17.4189 33.7875 17.8221 33.3844 18.3283 33.3844H21.8533C22.3596 33.3844 22.7627 33.7875 22.7627 34.2937C22.7627 34.8 22.3596 35.2031 21.8533 35.2031ZM21.8533 42.4312H18.3283C17.8221 42.4312 17.4189 42.0281 17.4189 41.5219C17.4189 41.0156 17.8221 40.6125 18.3283 40.6125H21.8533C22.3596 40.6125 22.7627 41.0156 22.7627 41.5219C22.7627 42.0281 22.3596 42.4312 21.8533 42.4312ZM11.8689 27.975H8.34395C7.8377 27.975 7.43457 27.5719 7.43457 27.0656C7.43457 26.5594 7.8377 26.1562 8.34395 26.1562H11.8689C12.3752 26.1562 12.7783 26.5594 12.7783 27.0656C12.7783 27.5719 12.3752 27.975 11.8689 27.975ZM11.8689 35.2031H8.34395C7.8377 35.2031 7.43457 34.8 7.43457 34.2937C7.43457 33.7875 7.8377 33.3844 8.34395 33.3844H11.8689C12.3752 33.3844 12.7783 33.7875 12.7783 34.2937C12.7783 34.8 12.3752 35.2031 11.8689 35.2031ZM11.8689 42.4312H8.34395C7.8377 42.4312 7.43457 42.0281 7.43457 41.5219C7.43457 41.0156 7.8377 40.6125 8.34395 40.6125H11.8689C12.3752 40.6125 12.7783 41.0156 12.7783 41.5219C12.7783 42.0281 12.3752 42.4312 11.8689 42.4312Z" fill="#C12026" stroke="#C12026" stroke-width="0.5"/>
<path d="M41.8123 20.7468H38.2873C37.7811 20.7468 37.3779 20.3437 37.3779 19.8375C37.3779 19.3312 37.7811 18.9281 38.2873 18.9281H41.8123C42.3186 18.9281 42.7217 19.3312 42.7217 19.8375C42.7217 20.3437 42.3186 20.7468 41.8123 20.7468Z" fill="#C12026" stroke="#C12026" stroke-width="0.5"/>
<path d="M40.8846 45.9843C39.5252 45.9843 38.4189 44.8781 38.4189 43.5187C38.4189 42.1593 39.5252 41.0531 40.8846 41.0531C42.2439 41.0531 43.3502 42.1593 43.3502 43.5187C43.3502 44.8781 42.2439 45.9843 40.8846 45.9843ZM40.8846 42.8625C40.5283 42.8625 40.2377 43.1531 40.2377 43.5093C40.2377 43.8656 40.5283 44.1562 40.8846 44.1562C41.2408 44.1562 41.5314 43.8656 41.5314 43.5093C41.5314 43.1531 41.2408 42.8625 40.8846 42.8625Z" fill="#C12026" stroke="#C12026" stroke-width="0.5"/>
<path d="M40.8845 42.8625C40.3782 42.8625 39.9751 42.4594 39.9751 41.9531V36.9469C39.9751 36.4406 40.3782 36.0375 40.8845 36.0375C41.3907 36.0375 41.7938 36.4406 41.7938 36.9469V41.9531C41.7938 42.4594 41.3813 42.8625 40.8845 42.8625Z" fill="#C12026" stroke="#C12026" stroke-width="0.5"/>
<path d="M47.6813 49.1531C47.5219 49.1531 47.3625 49.1156 47.2125 49.0219L41.3719 45.5156C40.9407 45.2531 40.8 44.7 41.0625 44.2688C41.325 43.8375 41.8782 43.6969 42.3094 43.9594L48.15 47.4656C48.5813 47.7281 48.7219 48.2813 48.4594 48.7125C48.2907 48.9938 47.9907 49.1531 47.6813 49.1531Z" fill="#C12026" stroke="#C12026" stroke-width="0.5"/>
</g>
<defs>
<clipPath id="clip0_40_126">
<rect width="60" height="60" fill="white"/>
</clipPath>
</defs>
</svg>
