<svg width="60" height="60" viewBox="0 0 60 60" fill="none" xmlns="http://www.w3.org/2000/svg">
<g clip-path="url(#clip0_31_102)">
<path d="M30.4153 43.0434C42.1633 43.0434 51.687 33.5198 51.687 21.7717C51.687 10.0237 42.1633 0.5 30.4153 0.5C18.6672 0.5 9.14355 10.0237 9.14355 21.7717C9.14355 33.5198 18.6672 43.0434 30.4153 43.0434Z" fill="#C12026"/>
<path d="M30.4154 39.357C40.1274 39.357 48.0006 31.4838 48.0006 21.7717C48.0006 12.0596 40.1274 4.18643 30.4154 4.18643C20.7033 4.18643 12.8301 12.0596 12.8301 21.7717C12.8301 31.4838 20.7033 39.357 30.4154 39.357Z" fill="white"/>
<path d="M14.5737 23.0669H10.6382V20.4765H14.5737C15.2836 20.4765 15.8689 21.0494 15.8689 21.7717C15.8689 22.494 15.296 23.0669 14.5737 23.0669ZM46.2571 23.0669H50.1926V20.4765H46.2571C45.5472 20.4765 44.9619 21.0494 44.9619 21.7717C44.9619 22.494 45.5347 23.0669 46.2571 23.0669Z" fill="#C12026"/>
<path d="M29.1201 5.94248V1.99451H31.7106V5.93002C31.7106 6.63991 31.1377 7.22526 30.4153 7.22526C29.7055 7.22526 29.1201 6.65236 29.1201 5.94248ZM29.1201 37.6134V41.5489H31.7106V37.6134C31.7106 36.9035 31.1377 36.3182 30.4153 36.3182C29.7055 36.3182 29.1201 36.9035 29.1201 37.6134Z" fill="#C12026"/>
<path d="M18.2975 11.497L15.5078 8.70729L17.3386 6.87653L20.1283 9.66626C20.6389 10.1769 20.6389 10.9864 20.1283 11.497C19.6301 11.9952 18.8082 11.9952 18.2975 11.497ZM40.7026 33.8896L43.4923 36.6793L45.3231 34.8486L42.5333 32.0588C42.0227 31.5482 41.2132 31.5482 40.7026 32.0588C40.192 32.5695 40.192 33.3914 40.7026 33.8896Z" fill="#C12026"/>
<path d="M42.5333 11.497L45.3231 8.70729L43.4923 6.87653L40.7026 9.66626C40.192 10.1769 40.192 10.9864 40.7026 11.497C41.2008 11.9952 42.0227 11.9952 42.5333 11.497ZM20.1283 33.8896L17.3386 36.6793L15.5078 34.8486L18.2975 32.0588C18.8082 31.5482 19.6177 31.5482 20.1283 32.0588C20.6389 32.5695 20.6389 33.3914 20.1283 33.8896Z" fill="#C12026"/>
<path d="M36.7172 29.5929L29.4813 22.3571C29.2322 22.108 29.0952 21.7717 29.0952 21.423V14.9219C29.0952 14.1871 29.6806 13.6018 30.4154 13.6018C31.1502 13.6018 31.7355 14.1871 31.7355 14.9219V20.875L38.5853 27.7248C39.0959 28.2354 39.0959 29.0698 38.5853 29.5929C38.0622 30.1035 37.2278 30.1035 36.7172 29.5929Z" fill="#C12026"/>
<path d="M13.104 53.0441C12.7055 52.7826 12.2571 52.5709 11.7589 52.4214C11.2732 52.272 10.7751 52.135 10.2894 52.0353C9.80364 51.9357 9.34284 51.8236 8.9443 51.7364C8.53332 51.6368 8.20951 51.5123 7.96042 51.3504C7.71134 51.2009 7.5868 50.9892 7.5868 50.7152C7.5868 50.5035 7.64907 50.3167 7.77361 50.1672C7.89815 50.0053 8.10987 49.8808 8.39632 49.7811C8.68277 49.6815 9.06884 49.6317 9.5421 49.6317C10.0776 49.6317 10.6256 49.7064 11.1861 49.8683C11.7465 50.0178 12.3194 50.2544 12.9047 50.5657L13.9633 48.0251C13.3655 47.6764 12.6806 47.4148 11.9084 47.2405C11.1362 47.0661 10.3641 46.9665 9.56701 46.9665C8.38386 46.9665 7.38753 47.1409 6.59047 47.502C5.7934 47.8632 5.1956 48.3365 4.79707 48.9218C4.39853 49.5071 4.19927 50.1672 4.19927 50.8896C4.19927 51.5372 4.32381 52.0727 4.58535 52.4961C4.83443 52.9196 5.17069 53.2558 5.56922 53.5174C5.96776 53.7789 6.41611 53.9906 6.91427 54.1525C7.39999 54.3145 7.89815 54.4514 8.38386 54.5511C8.86958 54.6507 9.31793 54.7628 9.72892 54.8624C10.1274 54.9621 10.4637 55.0991 10.7128 55.261C10.9619 55.4229 11.0989 55.647 11.0989 55.921C11.0989 56.1203 11.0366 56.2822 10.8996 56.4317C10.7626 56.5811 10.5509 56.6932 10.2644 56.7804C9.978 56.8676 9.59192 56.9049 9.11866 56.9049C8.40877 56.9049 7.71134 56.7928 7.00145 56.5687C6.29157 56.3445 5.66886 56.058 5.12087 55.7093L4 58.2375C4.57289 58.6236 5.32014 58.9474 6.24175 59.1965C7.16336 59.4456 8.10987 59.5701 9.10621 59.5701C10.3018 59.5701 11.2981 59.3958 12.0952 59.0346C12.8798 58.6734 13.4776 58.2001 13.8762 57.6024C14.2747 57.0045 14.474 56.3569 14.474 55.6595C14.474 55.0243 14.3494 54.5013 14.1003 54.0778C13.8263 53.6419 13.5025 53.2932 13.104 53.0441ZM26.953 48.7474C26.3552 48.1745 25.6453 47.7387 24.8358 47.4273C24.0263 47.1159 23.1296 46.954 22.1457 46.954C21.1743 46.954 20.2776 47.1159 19.4556 47.4273C18.6336 47.7387 17.9238 48.187 17.3135 48.7474C16.7032 49.3203 16.2424 49.9804 15.9062 50.7526C15.5699 51.5123 15.408 52.3467 15.408 53.2683C15.408 54.1899 15.5699 55.0119 15.9062 55.784C16.2424 56.5437 16.7157 57.2163 17.3135 57.7892C17.9238 58.3621 18.6336 58.798 19.4556 59.1093C20.2776 59.4207 21.1743 59.5826 22.1457 59.5826C23.1296 59.5826 24.0263 59.4207 24.8358 59.1093C25.6453 58.798 26.3552 58.3621 26.953 57.7892C27.5508 57.2287 28.0241 56.5562 28.3603 55.784C28.6966 55.0119 28.871 54.1775 28.871 53.2683C28.871 52.3591 28.6966 51.5247 28.3603 50.7526C28.0241 49.9804 27.5508 49.3203 26.953 48.7474ZM25.1596 54.6756C24.9977 55.0991 24.7611 55.4727 24.4622 55.7716C24.1633 56.0829 23.827 56.3071 23.4285 56.469C23.03 56.6309 22.5941 56.7057 22.1333 56.7057C21.6725 56.7057 21.2366 56.6309 20.838 56.469C20.4395 56.3071 20.0908 56.0705 19.8043 55.7716C19.5054 55.4602 19.2813 55.0991 19.1069 54.6756C18.945 54.2522 18.8578 53.7789 18.8578 53.2558C18.8578 52.7203 18.945 52.2471 19.1069 51.8236C19.2688 51.4002 19.5054 51.039 19.8043 50.7277C20.1032 50.4163 20.4395 50.1921 20.838 50.0302C21.2366 49.8683 21.66 49.7936 22.1333 49.7936C22.5941 49.7936 23.03 49.8683 23.4285 50.0302C23.827 50.1921 24.1757 50.4288 24.4622 50.7277C24.7486 51.0266 24.9853 51.4002 25.1596 51.8236C25.3215 52.2471 25.4087 52.7203 25.4087 53.2558C25.4087 53.7789 25.3215 54.2522 25.1596 54.6756ZM41.5991 48.7474C41.0013 48.1745 40.2914 47.7387 39.4819 47.4273C38.6724 47.1159 37.7757 46.954 36.7918 46.954C35.8204 46.954 34.9237 47.1159 34.1017 47.4273C33.2797 47.7387 32.5699 48.187 31.9596 48.7474C31.3493 49.3203 30.8885 49.9804 30.5523 50.7526C30.216 51.5123 30.0541 52.3467 30.0541 53.2683C30.0541 54.1899 30.216 55.0119 30.5523 55.784C30.8885 56.5437 31.3618 57.2163 31.9596 57.7892C32.5699 58.3621 33.2797 58.798 34.1017 59.1093C34.9237 59.4207 35.8204 59.5826 36.7918 59.5826C37.7757 59.5826 38.6724 59.4207 39.4819 59.1093C40.2914 58.798 41.0013 58.3621 41.5991 57.7892C42.1969 57.2287 42.6702 56.5562 43.0064 55.784C43.3427 55.0119 43.5171 54.1775 43.5171 53.2683C43.5171 52.3591 43.3427 51.5247 43.0064 50.7526C42.6702 49.9804 42.1969 49.3203 41.5991 48.7474ZM39.8057 54.6756C39.6438 55.0991 39.4072 55.4727 39.1083 55.7716C38.8094 56.0829 38.4731 56.3071 38.0746 56.469C37.6761 56.6309 37.2402 56.7057 36.7794 56.7057C36.3186 56.7057 35.8827 56.6309 35.4841 56.469C35.0856 56.3071 34.7369 56.0705 34.4504 55.7716C34.1515 55.4602 33.9274 55.0991 33.753 54.6756C33.5911 54.2522 33.5039 53.7789 33.5039 53.2558C33.5039 52.7203 33.5911 52.2471 33.753 51.8236C33.9149 51.4002 34.1515 51.039 34.4504 50.7277C34.7493 50.4163 35.0856 50.1921 35.4841 50.0302C35.8827 49.8683 36.3061 49.7936 36.7794 49.7936C37.2402 49.7936 37.6761 49.8683 38.0746 50.0302C38.4731 50.1921 38.8218 50.4288 39.1083 50.7277C39.4072 51.039 39.6314 51.4002 39.8057 51.8236C39.9676 52.2471 40.0548 52.7203 40.0548 53.2558C40.0548 53.7789 39.9801 54.2522 39.8057 54.6756Z" fill="#C12026"/>
<path d="M53.4927 47.1906V53.6544L48.1498 47.1906H45.3228V59.3085H48.6854V52.8573L54.0282 59.3085H56.8553V47.1906H53.4927Z" fill="#C12026"/>
</g>
<defs>
<clipPath id="clip0_31_102">
<rect width="60" height="60" fill="white"/>
</clipPath>
</defs>
</svg>
