<svg width="64" height="64" viewBox="0 0 64 64" fill="none" xmlns="http://www.w3.org/2000/svg">
<path d="M61.487 33.0701C59.056 27.3271 55.0016 22.4461 49.8952 18.9965C44.7889 15.5459 38.62 13.5267 32 13.5267C27.5887 13.5267 23.375 14.4229 19.5459 16.0429C13.8 18.4732 8.91887 22.5287 5.46875 27.6345C2.01925 32.7374 0 38.9109 0 45.5267C0 46.0801 0.013625 46.6285 0.041375 47.1749H10.0666V43.8785H4.72188C4.91088 40.7041 5.63912 37.6799 6.81763 34.8916C7.982 32.1366 9.58937 29.6104 11.545 27.4037L15.3243 31.184L17.6562 28.8514L13.8795 25.0741C14.7778 24.2787 15.7252 23.5357 16.7227 22.8645C20.6612 20.2052 25.317 18.5519 30.3519 18.2525V23.5942H33.6481V18.2485C36.826 18.439 39.8503 19.1657 42.6381 20.3452C45.3936 21.5096 47.9204 23.1165 50.126 25.072L46.3467 28.8512L48.6758 31.1839L52.4555 27.4066C53.2519 28.3049 53.9904 29.2524 54.6668 30.2504C57.325 34.189 58.9793 38.8451 59.2781 43.8784H53.9359V47.1747H63.9561C63.9864 46.6284 63.9999 46.08 63.9999 45.5266C64.0031 41.1164 63.1047 36.9027 61.487 33.0701Z" fill="#102E50"/>
<path d="M53.0364 36.7567C52.978 36.5725 52.7681 36.4651 52.5402 36.5048L34.6694 39.6598C32.8311 38.1276 30.1025 38.1143 28.2484 39.7429C26.1966 41.545 25.994 44.6687 27.7962 46.7205C29.5979 48.7719 32.7221 48.9744 34.7739 47.1722C35.4684 46.5622 35.9449 45.8003 36.2098 44.9805L52.7748 37.2468C52.9841 37.1495 53.0948 36.9409 53.0364 36.7567ZM29.6539 45.0888C28.7528 44.0628 28.8533 42.5015 29.8795 41.6001C30.9058 40.6988 32.4678 40.7999 33.3689 41.8258C34.2697 42.8514 34.1684 44.4134 33.1422 45.3147C32.116 46.2161 30.5547 46.1144 29.6539 45.0888Z" fill="#102E50"/>
</svg>
