<svg width="64" height="64" viewBox="0 0 64 64" fill="none" xmlns="http://www.w3.org/2000/svg">
<path d="M61.487 33.0701C59.056 27.3271 55.0016 22.4461 49.8952 18.9965C44.7889 15.5459 38.62 13.5268 32 13.5268C27.5887 13.5268 23.375 14.4229 19.5459 16.0429C13.8 18.4733 8.91887 22.5288 5.46875 27.6345C2.01925 32.7374 0 38.9109 0 45.5268C0 46.0801 0.013625 46.6285 0.041375 47.1749H10.0666V43.8785H4.72188C4.91088 40.7041 5.63912 37.6799 6.81763 34.8916C7.982 32.1366 9.58937 29.6104 11.545 27.4038L15.3243 31.184L17.6562 28.8514L13.8795 25.0741C14.7778 24.2788 15.7252 23.5358 16.7227 22.8645C20.6612 20.2053 25.317 18.5519 30.3519 18.2525V23.5943H33.6481V18.2485C36.826 18.439 39.8503 19.1658 42.6381 20.3453C45.3936 21.5096 47.9204 23.1165 50.126 25.072L46.3467 28.8513L48.6758 31.1839L52.4555 27.4066C53.2519 28.3049 53.9904 29.2524 54.6668 30.2504C57.325 34.189 58.9793 38.8451 59.2781 43.8784H53.9359V47.1748H63.9561C63.9864 46.6284 63.9999 46.08 63.9999 45.5266C64.0031 41.1164 63.1047 36.9028 61.487 33.0701Z" fill="#FB9E2C"/>
<path d="M32.1392 25.1799C31.9461 25.1798 31.7801 25.3472 31.749 25.5765L29.3433 43.5635C27.3262 44.8514 26.4872 47.4478 27.4777 49.7081C28.5738 52.2093 31.4894 53.3485 33.9907 52.2524C36.4914 51.1565 37.6306 48.2405 36.5345 45.7392C36.1635 44.8926 35.5816 44.2076 34.8806 43.7069L32.5271 25.5776C32.4977 25.3487 32.3325 25.18 32.1392 25.1799ZM32.9982 49.9877C31.7476 50.5358 30.29 49.9671 29.7418 48.7161C29.1936 47.465 29.763 46.007 31.0137 45.4589C32.2639 44.9111 33.7218 45.4806 34.2701 46.7317C34.8183 47.9827 34.2485 49.4398 32.9982 49.9877Z" fill="#FB9E2C"/>
</svg>
