<svg width="60" height="60" viewBox="0 0 60 60" fill="none" xmlns="http://www.w3.org/2000/svg">
<g clip-path="url(#clip0_147_2)">
<path d="M29.1196 20.9453C29.6058 21.4313 30.3941 21.4314 30.8804 20.9453C31.1968 20.6267 29.5564 22.2693 35.0154 16.8103C35.5016 16.3241 35.5016 15.5357 35.0154 15.0495C34.5291 14.5634 33.7409 14.5634 33.2545 15.0495L30 18.3039L22.3587 10.6626C20.5164 8.82142 20.5146 5.83513 22.3591 3.99048C24.2024 2.14619 27.1875 2.14584 29.0323 3.99072L29.1194 4.07791C29.6058 4.564 30.394 4.564 30.8803 4.07791L30.9675 3.99072C32.8075 2.15064 35.801 2.15087 37.6409 3.99072C39.4803 5.83009 39.4803 8.8233 37.6409 10.6628L36.7743 11.5294C36.288 12.0156 36.288 12.804 36.7743 13.2902C37.2606 13.7763 38.0488 13.7763 38.5351 13.2902L39.4017 12.4236C42.2119 9.61314 42.2119 5.04025 39.4017 2.22986C36.8421 -0.329633 32.8211 -0.558618 30.0006 1.54326C27.2171 -0.537758 23.195 -0.368422 20.5979 2.22986C17.782 5.04599 17.7806 9.60752 20.5979 12.4236L29.1196 20.9453Z" fill="#C12026"/>
<path d="M20.0647 44.5351H16.6344V42.6066C20.3244 40.9098 22.4787 37.0718 22.4787 34.0916C22.4787 33.1446 22.4787 26.5686 22.4787 25.6461C22.4787 23.1713 20.4653 21.1579 17.9904 21.1579C17.4297 21.1579 16.8913 20.9202 16.5137 20.5059L16.3126 20.2853C15.4642 19.3542 14.2551 18.8202 12.9953 18.8202H9.80791C5.75381 18.8202 2.45557 22.1184 2.45557 26.1725C2.45557 29.1724 2.45557 31.3468 2.45557 34.0916C2.45557 37.0391 4.57889 40.8956 8.29983 42.6066V44.5351H4.86952C2.24944 44.5351 0.117798 46.6668 0.117798 49.2867V58.6377C0.117798 59.3254 0.675259 59.8828 1.36291 59.8828H23.5712C24.2588 59.8828 24.8164 59.3254 24.8164 58.6377C24.8164 57.9502 24.2589 57.3926 23.5712 57.3926H8.45229V51.6246C8.45229 50.9371 7.89483 50.3795 7.20717 50.3795C6.51952 50.3795 5.96206 50.937 5.96206 51.6246V52.7173H2.60803V49.2867C2.60803 48.0397 3.62252 47.0252 4.86952 47.0252H8.78979C9.49174 48.336 10.87 49.2286 12.4671 49.2286C14.0553 49.2286 15.4382 48.3354 16.1414 47.0252H20.0647C21.3117 47.0252 22.3262 48.0397 22.3262 49.2867V49.3113C22.3262 49.999 22.8837 50.5564 23.5714 50.5564C24.2589 50.5564 24.8165 49.999 24.8165 49.3113V49.2867C24.8164 46.6668 22.6847 44.5351 20.0647 44.5351ZM5.96206 55.2074V57.3926H2.60803V55.2074H5.96206ZM9.80791 21.3103H12.9952C13.5559 21.3103 14.0943 21.5481 14.4719 21.9623L14.6731 22.1831C15.5215 23.1141 16.7306 23.648 17.9903 23.648C19.0921 23.648 19.9883 24.5443 19.9883 25.646V28.6741H16.9881C15.1542 28.6741 13.4025 27.7983 12.3022 26.3312C11.8041 25.6669 10.8074 25.6684 10.3101 26.3312C9.20979 27.7983 7.45819 28.6741 5.62432 28.6741H4.94557V26.1724C4.94569 23.4916 7.1269 21.3103 9.80791 21.3103ZM4.94569 33.5072V31.1645H5.62444C7.73803 31.1645 9.77499 30.3482 11.3063 28.93C12.8377 30.348 14.8748 31.1645 16.9882 31.1645H19.9885V33.5072C19.9885 37.6546 16.6144 41.0285 12.4671 41.0285C8.31987 41.0285 4.94569 37.6546 4.94569 33.5072ZM12.4671 46.7385C11.533 46.7385 10.7901 45.9817 10.7901 45.0614V43.3755C11.9162 43.5663 13.0171 43.5666 14.1443 43.3755V45.0614C14.1442 45.986 13.3917 46.7385 12.4671 46.7385ZM55.1305 44.5351H51.7002V42.6066C55.1453 41.0224 57.5445 37.5408 57.5445 33.5071C57.5445 31.7539 57.5445 30.5682 57.5445 28.8316C57.5445 27.7016 57.3536 26.616 57.0068 25.6018C58.7057 24.8752 59.8821 23.1926 59.8821 21.234C59.8821 18.6139 57.7505 16.4824 55.1304 16.4824C53.1717 16.4824 51.4892 17.659 50.7625 19.3577C49.7485 19.0111 48.6628 18.8201 47.5328 18.8201C42.0124 18.8201 37.5212 23.3113 37.5212 28.8316C37.5212 30.5681 37.5212 31.7538 37.5212 33.5071C37.5212 37.5407 39.9204 41.0224 43.3655 42.6066V44.5351H39.9352C37.3151 44.5351 35.1836 46.6668 35.1836 49.2867V49.3113C35.1836 49.999 35.741 50.5564 36.4287 50.5564C37.1163 50.5564 37.6738 49.999 37.6738 49.3113V49.2867C37.6738 48.0397 38.6883 47.0252 39.9353 47.0252H43.8556C44.5575 48.336 45.9356 49.2286 47.5329 49.2286C49.1209 49.2286 50.504 48.3354 51.2071 47.0252H55.1304C56.3774 47.0252 57.3919 48.0397 57.3919 49.2867V52.7171H54.0378V51.6245C54.0378 50.937 53.4803 50.3794 52.7926 50.3794C52.1051 50.3794 51.5475 50.9368 51.5475 51.6245V57.3926H36.4288C35.7413 57.3926 35.1837 57.95 35.1837 58.6377C35.1837 59.3254 35.7412 59.8828 36.4288 59.8828H58.6371C59.3248 59.8828 59.8822 59.3254 59.8822 58.6377V49.2867C59.8822 46.6668 57.7506 44.5351 55.1305 44.5351ZM55.1305 18.9727C56.3775 18.9727 57.392 19.9871 57.392 21.2341C57.392 22.21 56.7787 23.0412 55.9091 23.3578C55.1515 22.2025 54.1621 21.213 53.0067 20.4554C53.3235 19.586 54.1548 18.9727 55.1305 18.9727ZM47.5329 21.3103C51.6263 21.3103 54.9638 24.5975 55.0503 28.6705C53.262 28.6316 51.5645 27.765 50.4893 26.3313C49.9919 25.6682 48.9953 25.6675 48.4971 26.3313C47.3969 27.7984 45.6451 28.6743 43.8113 28.6743H40.0156C40.0999 24.5996 43.4384 21.3103 47.5329 21.3103ZM40.0116 33.5072V31.1645H43.8113C45.9247 31.1645 47.9618 30.3482 49.4932 28.93C50.9952 30.321 52.9841 31.1331 55.0544 31.1636V33.5071C55.0544 37.6545 51.6803 41.0284 47.533 41.0284C43.3858 41.0284 40.0116 37.6546 40.0116 33.5072ZM47.5329 46.7385C46.5988 46.7385 45.8558 45.9817 45.8558 45.0614V43.3755C46.982 43.5663 48.0829 43.5666 49.2101 43.3755V45.0614C49.2101 45.986 48.4576 46.7385 47.5329 46.7385ZM54.038 57.3926V55.2074H57.3921V57.3926H54.038Z" fill="#C12026"/>
<path d="M33.9633 46.4268C34.8161 45.4806 35.3361 44.2291 35.3361 42.8582C35.3361 39.9158 32.9424 37.522 30 37.522C27.0577 37.522 24.6639 39.9158 24.6639 42.8582C24.6639 44.2303 25.1848 45.4829 26.039 46.4293C21.8233 48.0319 18.8192 52.1138 18.8192 56.8847V58.6378C18.8192 59.3255 19.3766 59.8829 20.0643 59.8829H25.0197C25.7072 59.8829 26.2648 59.3255 26.2648 58.6378C26.2648 57.9503 25.7073 57.3927 25.0197 57.3927H21.3093V56.8847C21.3093 52.115 25.184 48.1941 30.0049 48.1941C34.806 48.1966 38.6908 52.0823 38.6908 56.8847V57.3927H30C29.3125 57.3927 28.7549 57.9502 28.7549 58.6378C28.7549 59.3255 29.3124 59.8829 30 59.8829H39.9359C40.6234 59.8829 41.181 59.3255 41.181 58.6378V56.8847C41.1809 52.077 38.1611 48.0156 33.9633 46.4268ZM27.154 42.8582C27.154 41.2889 28.4308 40.0122 30 40.0122C31.5693 40.0122 32.8459 41.2889 32.8459 42.8582C32.8459 44.4161 31.5832 45.7038 29.9936 45.7038C28.4274 45.7003 27.154 44.4252 27.154 42.8582Z" fill="#C12026"/>
</g>
<defs>
<clipPath id="clip0_147_2">
<rect width="60" height="60" fill="white"/>
</clipPath>
</defs>
</svg>
