<svg width="64" height="64" viewBox="0 0 64 64" fill="none" xmlns="http://www.w3.org/2000/svg">
<path d="M61.487 33.0701C59.056 27.3271 55.0016 22.4461 49.8952 18.9965C44.7889 15.5459 38.62 13.5267 32 13.5267C27.5887 13.5267 23.375 14.4229 19.5459 16.0429C13.8 18.4732 8.91887 22.5287 5.46875 27.6345C2.01925 32.7374 0 38.9109 0 45.5267C0 46.0801 0.013625 46.6285 0.041375 47.1749H10.0666V43.8785H4.72188C4.91088 40.7041 5.63912 37.6799 6.81763 34.8916C7.982 32.1366 9.58937 29.6104 11.545 27.4037L15.3243 31.184L17.6562 28.8514L13.8795 25.0741C14.7778 24.2787 15.7252 23.5357 16.7227 22.8645C20.6612 20.2052 25.317 18.5519 30.3519 18.2525V23.5942H33.6481V18.2485C36.826 18.439 39.8503 19.1657 42.6381 20.3452C45.3936 21.5096 47.9204 23.1165 50.126 25.072L46.3467 28.8512L48.6758 31.1839L52.4555 27.4066C53.2519 28.3049 53.9904 29.2524 54.6668 30.2504C57.325 34.189 58.9793 38.8451 59.2781 43.8784H53.9359V47.1747H63.9561C63.9864 46.6284 63.9999 46.08 63.9999 45.5266C64.0031 41.1164 63.1047 36.9027 61.487 33.0701Z" fill="#028F3D"/>
<path d="M45.0842 28.9475C44.9352 28.8245 44.7006 28.8481 44.5308 29.0052L31.2316 41.3522C28.856 41.0626 26.5568 42.5321 25.883 44.9061C25.1374 47.5332 26.6622 50.267 29.2893 51.0126C31.9159 51.7581 34.65 50.233 35.3956 47.6059C35.648 46.7166 35.6348 45.818 35.4125 44.9857L45.1304 29.5011C45.2534 29.3058 45.2332 29.0706 45.0842 28.9475ZM29.9644 48.6339C28.6508 48.2611 27.888 46.8951 28.261 45.5811C28.6339 44.2671 30.0008 43.5045 31.3144 43.8773C32.6276 44.25 33.3901 45.617 33.0171 46.931C32.6442 48.2449 31.2776 49.0066 29.9644 48.6339Z" fill="#028F3D"/>
</svg>
