<svg width="60" height="60" viewBox="0 0 60 60" fill="none" xmlns="http://www.w3.org/2000/svg">
<g clip-path="url(#clip0_20_962)">
<path d="M29.5108 54.5C27.2359 54.5021 25.0114 53.8295 23.1188 52.5672C21.2262 51.3048 19.7506 49.5095 18.8785 47.4084C18.0064 45.3072 17.7771 42.9946 18.2197 40.7631C18.6622 38.5316 19.7566 36.4815 21.3644 34.8721C22.9723 33.2627 25.0214 32.1664 27.2525 31.7218C29.4836 31.2772 31.7964 31.5043 33.8984 32.3744C36.0003 33.2444 37.797 34.7184 39.0611 36.6098C40.3253 38.5012 41 40.7251 41 43C41 46.0481 39.7899 48.9715 37.6356 51.1279C35.4812 53.2843 32.5589 54.4971 29.5108 54.5ZM29.5108 33.6766C27.6638 33.6744 25.8576 34.2203 24.3209 35.2451C22.7842 36.27 21.5862 37.7277 20.8783 39.4338C20.1705 41.1398 19.9847 43.0175 20.3446 44.8292C20.7044 46.6409 21.5936 48.3051 22.8997 49.6112C24.2058 50.9172 25.87 51.8064 27.6816 52.1663C29.4933 52.5261 31.371 52.3403 33.0771 51.6325C34.7831 50.9247 36.2408 49.7266 37.2657 48.1899C38.2905 46.6532 38.8364 44.8471 38.8343 43C38.8314 40.5281 37.8482 38.1584 36.1003 36.4105C34.3525 34.6626 31.9827 33.6794 29.5108 33.6766Z" fill="#C12026" stroke="#C12026" stroke-width="0.5"/>
<path d="M29.5 50.5C28.072 50.5 26.6824 50.0368 25.54 49.18C25.3066 49.005 25.1523 48.7444 25.1111 48.4556C25.0698 48.1668 25.145 47.8734 25.32 47.64C25.495 47.4066 25.7556 47.2523 26.0444 47.2111C26.3332 47.1698 26.6266 47.245 26.86 47.42C27.6216 47.9912 28.548 48.3 29.5 48.3C30.452 48.3 31.3784 47.9912 32.14 47.42C32.3734 47.245 32.6668 47.1698 32.9556 47.2111C33.2444 47.2523 33.505 47.4066 33.68 47.64C33.855 47.8734 33.9302 48.1668 33.8889 48.4556C33.8477 48.7444 33.6934 49.005 33.46 49.18C32.315 50.0319 30.9271 50.4945 29.5 50.5ZM25.1 42.8C24.8083 42.8 24.5285 42.6841 24.3222 42.4778C24.1159 42.2715 24 41.9917 24 41.7V40.6C24 40.3083 24.1159 40.0285 24.3222 39.8222C24.5285 39.6159 24.8083 39.5 25.1 39.5C25.3917 39.5 25.6715 39.6159 25.8778 39.8222C26.0841 40.0285 26.2 40.3083 26.2 40.6V41.7C26.2 41.9917 26.0841 42.2715 25.8778 42.4778C25.6715 42.6841 25.3917 42.8 25.1 42.8ZM33.9 42.8C33.6083 42.8 33.3285 42.6841 33.1222 42.4778C32.9159 42.2715 32.8 41.9917 32.8 41.7V40.6C32.8 40.3083 32.9159 40.0285 33.1222 39.8222C33.3285 39.6159 33.6083 39.5 33.9 39.5C34.1917 39.5 34.4715 39.6159 34.6778 39.8222C34.8841 40.0285 35 40.3083 35 40.6V41.7C35 41.9917 34.8841 42.2715 34.6778 42.4778C34.4715 42.6841 34.1917 42.8 33.9 42.8Z" fill="#C12026" stroke="#C12026" stroke-width="0.5"/>
<path d="M50.9286 59.5H8.07143C7.78727 59.5 7.51475 59.3913 7.31381 59.198C7.11288 59.0046 7 58.7423 7 58.4688V27.5312C7 27.2577 7.11288 26.9954 7.31381 26.802C7.51475 26.6086 7.78727 26.5 8.07143 26.5H50.9286C51.2127 26.5 51.4853 26.6086 51.6862 26.802C51.8871 26.9954 52 27.2577 52 27.5312V58.4688C52 58.7423 51.8871 59.0046 51.6862 59.198C51.4853 59.3913 51.2127 59.5 50.9286 59.5ZM9.14286 57.4375H49.8571V28.5625H9.14286V57.4375Z" fill="#C12026" stroke="#C12026" stroke-width="0.5"/>
<path d="M57.9387 28.5H1.05078C0.838562 28.4993 0.631485 28.4332 0.456666 28.3102C0.281846 28.1873 0.147436 28.0132 0.07104 27.8108C-0.00662697 27.6057 -0.0210023 27.3813 0.0298477 27.1676C0.0806977 26.9539 0.194335 26.7613 0.35548 26.6156L28.7994 0.772597C28.9924 0.597012 29.2417 0.5 29.5 0.5C29.7583 0.5 30.0076 0.597012 30.2006 0.772597L58.6445 26.6156C58.8057 26.7613 58.9193 26.9539 58.9701 27.1676C59.021 27.3813 59.0066 27.6057 58.929 27.8108C58.8519 28.0149 58.7159 28.1902 58.539 28.3133C58.3621 28.4364 58.1527 28.5015 57.9387 28.5ZM3.82143 26.3464H55.168L29.4947 3.02309L3.82143 26.3464Z" fill="#C12026" stroke="#C12026" stroke-width="0.5"/>
<path d="M50.9 21.5C50.6312 21.4967 50.3729 21.3985 50.174 21.224L41.374 13.6754C41.2567 13.5759 41.1626 13.4535 41.0981 13.3162C41.0337 13.1789 41.0002 13.0299 41 12.8792V1.56168C41 1.2801 41.1159 1.01006 41.3222 0.810959C41.5285 0.611855 41.8083 0.5 42.1 0.5H50.9C51.1917 0.5 51.4715 0.611855 51.6778 0.810959C51.8841 1.01006 52 1.2801 52 1.56168V20.4383C51.9996 20.6425 51.9381 20.8423 51.823 21.0137C51.7079 21.185 51.544 21.3207 51.351 21.4044C51.2094 21.4667 51.0556 21.4993 50.9 21.5ZM43.2 12.4014L49.8 18.0708V2.62336H43.2V12.4014Z" fill="#C12026" stroke="#C12026" stroke-width="0.5"/>
</g>
<defs>
<clipPath id="clip0_20_962">
<rect width="60" height="60" fill="white"/>
</clipPath>
</defs>
</svg>
