<svg width="60" height="60" viewBox="0 0 60 60" fill="none" xmlns="http://www.w3.org/2000/svg">
<g clip-path="url(#clip0_20_1014)">
<path d="M37.286 38.6604C37.0257 38.6604 36.776 38.7633 36.592 38.9466C36.4079 39.1299 36.3045 39.3784 36.3045 39.6376L36.383 43.5465H5.87868V25.0056C5.92971 25.0007 21.0352 15.7405 21.0911 15.7151C21.1873 15.7679 36.2162 24.9743 36.3035 25.0085V25.9564C36.3035 26.2156 36.407 26.4642 36.591 26.6474C36.7751 26.8307 37.0247 26.9337 37.285 26.9337C37.5453 26.9337 37.7949 26.8307 37.979 26.6474C38.163 26.4642 38.2664 26.2156 38.2664 25.9564V25.5489C39.119 25.545 39.9472 25.2656 40.6265 24.7527C41.3059 24.2398 41.7997 23.5212 42.0336 22.7049C42.2676 21.8886 42.229 21.0188 41.9238 20.2261C41.6186 19.4335 41.0633 18.761 40.3412 18.3096L30.0066 11.9919L31.9067 10.8319C32.0028 10.8866 47.0327 20.0862 47.1191 20.1253V25.9555C47.1191 26.2146 47.2225 26.4632 47.4066 26.6465C47.5906 26.8297 47.8403 26.9327 48.1005 26.9327C48.3608 26.9327 48.6105 26.8297 48.7945 26.6465C48.9786 26.4632 49.082 26.2146 49.082 25.9555V20.6687C49.9347 20.6644 50.7629 20.3847 51.4422 19.8716C52.1216 19.3585 52.6152 18.6397 52.8491 17.8232C53.0829 17.0067 53.0442 16.1368 52.7389 15.3441C52.4335 14.5514 51.878 13.8788 51.1558 13.4274L34.4712 3.22319C33.6999 2.7502 32.8119 2.49983 31.906 2.5C31.0002 2.50017 30.1122 2.75088 29.3412 3.22417L22.2895 7.54058C21.6558 7.37928 20.996 7.34659 20.3494 7.44447C19.7027 7.54235 19.0825 7.76879 18.5256 8.11031L1.841 18.3096C1.11975 18.7601 0.564993 19.4317 0.26026 20.2233C-0.0444736 21.0149 -0.0826929 21.8837 0.151356 22.6988C0.385404 23.5139 0.879053 24.2312 1.55798 24.7428C2.23691 25.2543 3.06437 25.5324 3.91578 25.5352V43.5455C3.90605 44.0533 4.09895 44.5443 4.4522 44.9106C4.80545 45.277 5.2902 45.489 5.80016 45.5H36.3821C36.892 45.489 37.3768 45.277 37.73 44.9106C38.0833 44.5443 38.2762 44.0533 38.2664 43.5455V39.6366C38.2664 39.3775 38.163 39.1289 37.979 38.9456C37.7949 38.7624 37.5453 38.6594 37.285 38.6594L37.286 38.6604ZM30.3687 4.89034C30.8313 4.60667 31.3639 4.45646 31.9072 4.45646C32.4504 4.45646 32.983 4.60667 33.4456 4.89034L50.1282 15.0906C50.5541 15.3698 50.8542 15.803 50.9649 16.2986C51.0757 16.7941 50.9884 17.3132 50.7216 17.7458C50.4548 18.1784 50.0294 18.4907 49.5355 18.6166C49.0415 18.7424 48.5177 18.6719 48.075 18.4201L32.4209 8.853C32.2666 8.75883 32.0891 8.70899 31.9081 8.70899C31.7271 8.70899 31.5497 8.75883 31.3953 8.853L28.131 10.8446L24.3848 8.55397L30.3687 4.89034ZM2.22278 22.6632C1.95336 22.2207 1.87017 21.6903 1.99127 21.1871C2.11237 20.6839 2.42799 20.2486 2.86956 19.9758L19.5542 9.7755C20.0166 9.49099 20.5495 9.34029 21.0931 9.34029C21.6367 9.34029 22.1695 9.49099 22.632 9.7755L39.3156 19.9748C39.7573 20.2478 40.0729 20.6833 40.1938 21.1867C40.3147 21.6902 40.2312 22.2207 39.9614 22.6632C39.6823 23.097 39.2453 23.4063 38.7422 23.5264C38.239 23.6464 37.7087 23.5679 37.2624 23.3072L21.6064 13.7362C21.4518 13.6417 21.274 13.5916 21.0926 13.5916C20.9112 13.5916 20.7333 13.6417 20.5788 13.7362L4.92274 23.3072C4.47897 23.5778 3.94548 23.6619 3.43944 23.5412C2.93339 23.4204 2.49517 23.1047 2.22278 22.6632Z" fill="#C12026" stroke="#C12026" stroke-width="0.5"/>
<path d="M55.9986 32.3667H54.913C54.6315 30.9099 53.8076 29.6032 52.5969 28.6933C52.4237 28.5678 52.2131 28.5 51.9966 28.5H28.9856C28.7692 28.5001 28.5585 28.5679 28.3853 28.6933C24.1563 31.9056 26.3153 37.4252 28.9856 38.1667H51.9966C53.8565 37.6959 54.7329 35.2406 54.893 34.3H55.9986C56.2638 34.3003 56.5181 34.4022 56.7057 34.5834C56.8933 34.7646 56.9988 35.0104 56.999 35.2667V39.1333C56.9988 39.3896 56.8933 39.6354 56.7057 39.8166C56.5181 39.9978 56.2638 40.0997 55.9986 40.1H42.9923C42.727 40.1 42.4725 40.2018 42.2849 40.3831C42.0973 40.5644 41.9918 40.8103 41.9918 41.0667V43.9667C41.1961 43.9674 40.4331 44.2732 39.8704 44.8169C39.3077 45.3606 38.9912 46.0978 38.9904 46.8667V54.6C38.9912 55.3689 39.3077 56.1061 39.8704 56.6498C40.4331 57.1935 41.1961 57.4992 41.9918 57.5H43.9928C44.7886 57.4992 45.5516 57.1935 46.1143 56.6498C46.677 56.1061 46.9934 55.3689 46.9942 54.6V46.8667C46.9934 46.0978 46.677 45.3606 46.1143 44.8169C45.5516 44.2732 44.7886 43.9674 43.9928 43.9667V42.0333H55.9986C56.7943 42.0326 57.5573 41.7268 58.12 41.1831C58.6827 40.6394 58.9992 39.9022 59 39.1333V35.2667C58.9992 34.4978 58.6827 33.7606 58.12 33.2169C57.5573 32.6732 56.7943 32.3674 55.9986 32.3667ZM51.6425 36.2333H29.3498C28.9196 35.8734 28.5743 35.4285 28.3374 34.9285C28.1005 34.4286 27.9774 33.8854 27.9764 33.3355C27.9755 32.7857 28.0967 32.2421 28.3319 31.7414C28.5671 31.2407 28.9108 30.7946 29.3398 30.4333H51.6335C52.0635 30.7934 52.4085 31.2384 52.6453 31.7384C52.882 32.2383 53.005 32.7816 53.0058 33.3314C53.0067 33.8811 52.8854 34.4247 52.6502 34.9253C52.415 35.426 52.0714 35.872 51.6425 36.2333ZM44.9933 46.8667V54.6C44.993 54.8563 44.8875 55.102 44.7 55.2833C44.5124 55.4645 44.2581 55.5664 43.9928 55.5667H41.9918C41.7266 55.5664 41.4723 55.4645 41.2847 55.2833C41.0971 55.102 40.9916 54.8563 40.9914 54.6V46.8667C40.9916 46.6104 41.0971 46.3646 41.2847 46.1834C41.4723 46.0022 41.7266 45.9003 41.9918 45.9H43.9928C44.2581 45.9003 44.5124 46.0022 44.7 46.1834C44.8875 46.3646 44.993 46.6104 44.9933 46.8667Z" fill="#C12026" stroke="#C12026" stroke-width="0.5"/>
</g>
<defs>
<clipPath id="clip0_20_1014">
<rect width="60" height="60" fill="white"/>
</clipPath>
</defs>
</svg>
