<svg width="60" height="60" viewBox="0 0 60 60" fill="none" xmlns="http://www.w3.org/2000/svg">
<g clip-path="url(#clip0_29_1192)">
<path d="M52.2799 32.4978C51.7783 32.4978 51.3717 32.9044 51.3717 33.406V57.6836H25.1567C24.6551 57.6836 24.2485 58.0902 24.2485 58.5918C24.2485 59.0934 24.655 59.5 25.1567 59.5H52.2799C52.7815 59.5 53.188 59.0934 53.188 58.5918V33.4059C53.188 32.9044 52.7814 32.4978 52.2799 32.4978Z" fill="#C12026" stroke="#C12026" stroke-width="0.5"/>
<path d="M58.6407 22.9957L30.5489 1.68465C30.2244 1.43849 29.7755 1.43849 29.4511 1.68465L18.3152 10.1325V7.19114H19.3445C19.8461 7.19114 20.2527 6.78457 20.2527 6.28296V2.40818C20.2527 1.90668 19.8462 1.5 19.3445 1.5H5.78303C5.28142 1.5 4.87485 1.90657 4.87485 2.40818V6.28296C4.87485 6.78446 5.2813 7.19114 5.78303 7.19114H6.8123V18.8591L1.35928 22.9957C1.04866 23.2313 0.923035 23.6391 1.04753 24.0086C1.1718 24.3783 1.51833 24.6273 1.90824 24.6273H6.81219V58.5917C6.81219 59.0932 7.21864 59.4999 7.72036 59.4999H19.3446C19.8462 59.4999 20.2528 59.0933 20.2528 58.5917C20.2528 58.0901 19.8463 57.6835 19.3446 57.6835H8.62842V23.7191C8.62842 23.2176 8.22197 22.8109 7.72025 22.8109H4.60785L30.0001 3.54812L55.3922 22.8111H52.2798C51.7781 22.8111 51.3716 23.2177 51.3716 23.7193V28.5628C51.3716 29.0643 51.778 29.4709 52.2798 29.4709C52.7814 29.4709 53.1879 29.0644 53.1879 28.5628V24.6274H58.0919C58.4819 24.6274 58.8283 24.3784 58.9526 24.0088C59.0769 23.6391 58.9513 23.2314 58.6407 22.9957ZM6.69109 5.37478V3.31635H18.4363V5.37478H6.69109ZM16.4991 11.5104L8.62854 17.4811V7.19114H16.4991V11.5104Z" fill="#C12026" stroke="#C12026" stroke-width="0.5"/>
<path d="M49.3632 47.5688L41.1279 37.8823C40.972 37.6988 40.7495 37.5848 40.5094 37.5653L37.7785 37.3442C37.772 37.3438 37.7656 37.344 37.7591 37.3437L35.9663 35.2349L40.0331 31.168L40.7608 31.8957C41.1106 32.2454 41.6955 32.2454 42.0452 31.8957L44.785 29.1559C44.8376 29.1034 44.8833 29.0447 44.9216 28.981L46.9765 25.5561C47.191 25.1988 47.1346 24.7412 46.8399 24.4467L45.4701 23.0769C45.1755 22.7823 44.7181 22.7257 44.3608 22.9403L40.9359 24.9952C40.8723 25.0334 40.8134 25.0793 40.7609 25.1318L38.021 27.8718C37.6714 28.2213 37.6714 28.8064 38.021 29.156L38.7487 29.8838L34.7859 33.8467L30.4924 28.7967L32.1433 27.3933L39.8086 24.6762C40.3978 24.4673 40.6025 23.7077 40.1962 23.231L37.3371 19.8784C35.9229 18.2151 33.9459 17.202 31.7697 17.0258C29.593 16.8495 27.4793 17.5315 25.8161 18.9454L17.2827 26.2004L17.1473 26.0411C16.6761 25.4867 16.017 25.1489 15.2917 25.0903C14.5677 25.0318 13.8615 25.2587 13.307 25.7302L11.6465 27.1419C10.5153 28.1036 10.3732 29.8503 11.3356 30.9822L18.3943 39.2848C19.3556 40.4161 21.1029 40.558 22.2347 39.5958L23.8952 38.1841C24.4807 37.6863 24.8306 36.9556 24.8537 36.1875C24.8763 35.4391 24.583 34.787 24.1062 34.2262L26.1567 32.4829L30.7484 37.884L29.0152 39.6172L28.2876 38.8896C28.1173 38.7192 27.8864 38.6236 27.6454 38.6236H24.9056C24.6648 38.6236 24.4339 38.7192 24.2634 38.8896L15.2735 47.8795C14.2233 48.9297 14.2232 50.6822 15.2734 51.7324L18.1844 54.6435C19.2347 55.6906 20.9877 55.6932 22.0375 54.6435L31.0276 45.6533C31.1978 45.483 31.2934 45.252 31.2934 45.0112V42.2714C31.2934 42.0306 31.1978 41.7996 31.0276 41.6293L30.2998 40.9016L31.9291 39.2724L33.7855 41.456L33.6268 43.4168C33.6074 43.6569 33.6842 43.8948 33.8401 44.0782L42.0753 53.7647C43.0356 54.8942 44.7855 55.0366 45.9156 54.0756L49.0522 51.4091C50.1834 50.4475 50.3256 48.7008 49.3632 47.5688ZM41.9663 26.4953L44.6874 24.8627L45.0544 25.2298L43.4219 27.9508L41.4032 29.9695L39.9477 28.514L41.9663 26.4953ZM20.7533 53.3592C20.3988 53.7134 19.8229 53.7131 19.4688 53.3592H19.4689L16.5578 50.4481C16.2079 50.0981 16.208 49.5138 16.5579 49.1639L24.2208 41.5009L28.4162 45.6962L20.7533 53.3592ZM29.4775 44.1889L25.7285 40.4399H27.2697L28.3733 41.5433C28.3734 41.5434 28.3735 41.5436 28.3735 41.5437C28.3735 41.5438 28.3737 41.5438 28.3738 41.5439L29.4775 42.6476V44.1889ZM31.6237 18.8361C33.3162 18.9732 34.854 19.7611 35.9546 21.0559L37.9582 23.4053L31.9693 25.5281L27.325 20.0653C28.5621 19.1453 30.0729 18.7104 31.6237 18.8361ZM23.036 36.1815C23.0164 36.4234 22.9038 36.643 22.7192 36.8C22.7192 36.8 22.7192 36.8 22.7191 36.8L21.0585 38.2117C20.6813 38.5324 20.0988 38.4849 19.7785 38.1081L12.7197 29.8055C12.3989 29.4281 12.4464 28.8459 12.8234 28.5254L14.484 27.1137C14.8613 26.7928 15.4435 26.8404 15.7639 27.2173L22.8227 35.5199C22.9798 35.7047 23.0555 35.9398 23.036 36.1815ZM22.9301 32.8423L18.4595 27.5839L25.9317 21.2311L30.4024 26.4895L22.9301 32.8423ZM27.5409 31.3063L29.109 29.973L36.2117 38.3272L34.6434 39.6606L27.5409 31.3063ZM47.876 50.0252C47.876 50.0252 47.876 50.0252 47.8759 50.0252L44.7392 52.6918C44.362 53.0125 43.7797 52.9653 43.4593 52.5881L35.4677 43.1883L35.628 41.2072L38.0068 39.1847L39.9878 39.3451L47.9794 48.7451C48.3003 49.1223 48.2529 49.7047 47.876 50.0252Z" fill="#C12026" stroke="#C12026" stroke-width="0.5"/>
</g>
<defs>
<clipPath id="clip0_29_1192">
<rect width="60" height="60" fill="white"/>
</clipPath>
</defs>
</svg>
