<svg width="60" height="60" viewBox="0 0 60 60" fill="none" xmlns="http://www.w3.org/2000/svg">
<g clip-path="url(#clip0_20_998)">
<path d="M29.5108 54.5C27.2359 54.5021 25.0115 53.8295 23.1189 52.5671C21.2262 51.3048 19.7506 49.5095 18.8785 47.4083C18.0064 45.3072 17.7772 42.9946 18.2197 40.7631C18.6622 38.5316 19.7566 36.4815 21.3645 34.872C22.9723 33.2627 25.0214 32.1663 27.2525 31.7218C29.4836 31.2772 31.7963 31.5043 33.8983 32.3744C36.0004 33.2443 37.797 34.7184 39.0611 36.6098C40.3252 38.5012 41 40.7251 41 42.9999C41 46.0481 39.7899 48.9716 37.6356 51.1278C35.4812 53.2842 32.5589 54.4971 29.5108 54.5ZM29.5108 33.6766C27.6638 33.6744 25.8576 34.2203 24.321 35.2451C22.7843 36.2699 21.5862 37.7277 20.8783 39.4337C20.1705 41.1397 19.9848 43.0175 20.3446 44.8292C20.7044 46.6409 21.5937 48.3051 22.8997 49.6111C24.2058 50.9172 25.87 51.8064 27.6817 52.1662C29.4933 52.526 31.371 52.3403 33.0771 51.6325C34.7832 50.9246 36.2408 49.7265 37.2656 48.1899C38.2905 46.6533 38.8364 44.847 38.8343 42.9999C38.8314 40.5281 37.8482 38.1583 36.1003 36.4105C34.3525 34.6626 31.9826 33.6793 29.5108 33.6766Z" fill="#C12026" stroke="#C12026" stroke-width="0.5"/>
<path d="M25.54 48.5588C25.3066 48.7304 25.1523 48.9859 25.111 49.269C25.0698 49.5522 25.1449 49.8398 25.32 50.0686C25.4951 50.2974 25.7557 50.4487 26.0444 50.4892C26.3333 50.5296 26.6266 50.4559 26.86 50.2843C27.6216 49.7243 28.548 49.4216 29.5 49.4216C30.452 49.4216 31.3784 49.7243 32.14 50.2843C32.3734 50.4559 32.6667 50.5296 32.9556 50.4892C33.2443 50.4487 33.5049 50.2974 33.68 50.0686C33.8551 49.8398 33.9302 49.5522 33.889 49.269C33.8477 48.9859 33.6934 48.7304 33.46 48.5588C32.3149 47.7236 30.9271 47.2701 29.5 47.2647C28.0719 47.2647 26.6825 47.7189 25.54 48.5588ZM25.1 42.7353C24.8083 42.7353 24.5285 42.6216 24.3222 42.4194C24.1159 42.2172 24 41.9428 24 41.6569V40.5784C24 40.2925 24.1159 40.0181 24.3222 39.8159C24.5285 39.6137 24.8083 39.5 25.1 39.5C25.3917 39.5 25.6715 39.6137 25.8778 39.8159C26.0841 40.0181 26.2 40.2925 26.2 40.5784V41.6569C26.2 41.9428 26.0841 42.2172 25.8778 42.4194C25.6715 42.6216 25.3917 42.7353 25.1 42.7353ZM33.9 42.7353C33.6083 42.7353 33.3285 42.6216 33.1222 42.4194C32.9159 42.2172 32.8 41.9428 32.8 41.6569V40.5784C32.8 40.2925 32.9159 40.0181 33.1222 39.8159C33.3285 39.6137 33.6083 39.5 33.9 39.5C34.1917 39.5 34.4715 39.6137 34.6778 39.8159C34.8841 40.0181 35 40.2925 35 40.5784V41.6569C35 41.9428 34.8841 42.2172 34.6778 42.4194C34.4715 42.6216 34.1917 42.7353 33.9 42.7353Z" fill="#C12026" stroke="#C12026" stroke-width="0.5"/>
<path d="M50.9286 59.5H8.07143C7.78731 59.5 7.51474 59.3913 7.31383 59.1979C7.11291 59.0046 7 58.7422 7 58.4688V27.5312C7 27.2578 7.11291 26.9954 7.31383 26.8021C7.51474 26.6087 7.78731 26.5 8.07143 26.5H50.9286C51.2127 26.5 51.4853 26.6087 51.6862 26.8021C51.8871 26.9954 52 27.2578 52 27.5312V58.4688C52 58.7422 51.8871 59.0046 51.6862 59.1979C51.4853 59.3913 51.2127 59.5 50.9286 59.5ZM9.14286 57.4375H49.8571V28.5625H9.14286V57.4375Z" fill="#C12026" stroke="#C12026" stroke-width="0.5"/>
<path d="M57.9387 28.5H1.05077C0.83856 28.4993 0.631483 28.4332 0.456667 28.3102C0.28184 28.1872 0.147433 28.0132 0.0710316 27.8108C-0.00662811 27.6058 -0.0210003 27.3813 0.0298476 27.1676C0.0806956 26.954 0.194336 26.7613 0.355477 26.6156L28.7994 0.772603C28.9923 0.597009 29.2417 0.5 29.5 0.5C29.7583 0.5 30.0076 0.597009 30.2005 0.772603L58.6445 26.6156C58.8056 26.7613 58.9193 26.954 58.9701 27.1676C59.021 27.3813 59.0066 27.6058 58.9289 27.8108C58.8519 28.0149 58.7158 28.1902 58.539 28.3133C58.3621 28.4363 58.1526 28.5015 57.9387 28.5ZM3.82142 26.3464H55.168L29.4947 3.02309L3.82142 26.3464Z" fill="#C12026" stroke="#C12026" stroke-width="0.5"/>
<path d="M50.9 21.5C50.6312 21.4966 50.3729 21.3984 50.1741 21.2239L41.3741 13.6754C41.2566 13.5759 41.1626 13.4535 41.0981 13.3161C41.0337 13.1788 41.0002 13.0299 41 12.8791V1.56168C41 1.2801 41.1159 1.01006 41.3222 0.810961C41.5285 0.611852 41.8083 0.5 42.1 0.5H50.9C51.1917 0.5 51.4715 0.611852 51.6778 0.810961C51.8841 1.01006 52 1.2801 52 1.56168V20.4383C51.9995 20.6425 51.938 20.8423 51.8229 21.0136C51.7078 21.1849 51.544 21.3206 51.351 21.4044C51.2094 21.4667 51.0557 21.4992 50.9 21.5ZM43.2 12.4014L49.8 18.0707V2.62335H43.2V12.4014Z" fill="#C12026" stroke="#C12026" stroke-width="0.5"/>
</g>
<defs>
<clipPath id="clip0_20_998">
<rect width="60" height="60" fill="white"/>
</clipPath>
</defs>
</svg>
