<svg width="64" height="64" viewBox="0 0 64 64" fill="none" xmlns="http://www.w3.org/2000/svg">
<path d="M56.28 24.42C56.929 24.42 57.46 23.889 57.46 23.24V20.1602L59.4424 20.821C59.8082 20.939 60.1976 20.88 60.5044 20.6558C60.823 20.4316 61 20.0776 61 19.7V14.98C61 14.4726 60.6696 14.0242 60.1976 13.859L55.1 12.1598V3.18C55.1 2.531 54.569 2 53.92 2H46.84C46.191 2 45.66 2.531 45.66 3.18V9.021L31.8776 4.419C31.6298 4.3364 31.3702 4.3364 31.1224 4.419L2.8024 13.859C2.3304 14.0242 2 14.4726 2 14.98V19.7C2 20.3266 2.55578 20.88 3.18 20.88C3.3098 20.88 3.4278 20.8564 3.5576 20.821L5.54 20.1602V49.6484C4.9146 50.3564 4.5016 51.2414 4.3954 52.1972C2.9322 53.0232 2 54.5808 2 56.28C2 58.8878 4.1122 61 6.72 61H56.28C58.8878 61 61 58.8878 61 56.28C61 54.5808 60.0678 53.0232 58.6046 52.1972C58.4984 51.2296 58.0854 50.3446 57.46 49.6366V27.96C57.46 27.311 56.929 26.78 56.28 26.78C55.631 26.78 55.1 27.311 55.1 27.96V48.197C53.92 47.8902 52.622 48.0436 51.56 48.669C50.8402 48.2442 50.0378 48.02 49.2 48.02C47.4772 48.02 45.9196 48.964 45.1054 50.4272C43.6304 50.2148 42.1554 50.7458 41.1406 51.7724C40.6922 51.6308 40.232 51.56 39.76 51.56C37.1522 51.56 35.04 53.6722 35.04 56.28C35.04 57.1414 35.2878 57.9438 35.7008 58.64H27.2992C27.7122 57.9438 27.96 57.1414 27.96 56.28C27.96 53.6722 25.8478 51.56 23.24 51.56C22.768 51.56 22.3078 51.6308 21.8594 51.7724C20.8446 50.7458 19.3696 50.2148 17.8946 50.4272C17.0804 48.964 15.5228 48.02 13.8 48.02C12.9622 48.02 12.1598 48.2442 11.44 48.669C10.378 48.0436 9.08 47.902 7.9 48.197V19.3696L12.9976 17.6704C13.6112 17.458 13.9416 16.7972 13.741 16.1718C13.5286 15.5582 12.8678 15.2278 12.2424 15.4284L4.36 18.0598V15.8296L31.5 6.779L58.64 15.8296V18.0598L31.8776 9.139C31.6298 9.0564 31.3702 9.0564 31.1224 9.139L16.9624 13.859C16.3488 14.0714 16.0184 14.7322 16.219 15.3576C16.4314 15.9712 17.0922 16.3016 17.7176 16.101L31.5 11.499L55.1 19.3696V23.24C55.1 23.889 55.631 24.42 56.28 24.42ZM40.9164 54.2386C41.4592 54.5572 42.1554 54.3802 42.4976 53.8374C43.0876 52.8934 44.2676 52.4804 45.365 52.917C45.6836 53.035 46.0258 53.0232 46.3326 52.8698C46.6394 52.7164 46.8518 52.445 46.9462 52.1264C47.2176 51.0998 48.138 50.38 49.2 50.38C49.7782 50.38 50.3328 50.6042 50.7694 50.9936C51.2178 51.4066 51.9022 51.4066 52.3506 50.9936C53.2356 50.203 54.6162 50.1912 55.5012 50.9936C55.9968 51.4302 56.28 52.0556 56.2682 52.7636C56.1856 53.33 56.5042 53.8728 57.047 54.0616C58.0028 54.4038 58.64 55.2888 58.64 56.28C58.64 57.578 57.578 58.64 56.28 58.64H39.76C38.462 58.64 37.4 57.578 37.4 56.28C37.4 54.5808 39.2998 53.3182 40.9164 54.2386ZM6.72 52.74C6.72 52.0556 7.0032 51.4302 7.5106 50.9818C8.3602 50.2148 9.7644 50.1912 10.6494 50.9936C11.0978 51.4066 11.7822 51.4066 12.2306 50.9936C12.6672 50.6042 13.2218 50.38 13.8 50.38C14.862 50.38 15.7824 51.0998 16.0538 52.1264C16.1482 52.445 16.3606 52.7164 16.6674 52.8698C16.9742 53.0232 17.3164 53.035 17.635 52.917C18.7324 52.4804 19.9124 52.8934 20.5024 53.8374C20.8446 54.3802 21.5408 54.5454 22.0836 54.2386C23.7002 53.3182 25.6 54.5808 25.6 56.28C25.6 57.578 24.538 58.64 23.24 58.64H6.72C5.422 58.64 4.36 57.578 4.36 56.28C4.36 55.2888 4.9972 54.4038 5.953 54.0616C6.4958 53.8728 6.8144 53.3064 6.72 52.74ZM52.74 11.381L48.02 9.7998V4.36H52.74V11.381Z" fill="#C12026"/>
<path d="M29 48H34C34.6912 48 35.25 47.467 35.25 46.8077V45.6154C40.0737 45.6154 44 41.8703 44 37.2692C44 32.6681 40.0737 28.9231 35.25 28.9231H27.75C27.06 28.9231 26.5 28.3889 26.5 27.7308C26.5 27.0726 27.06 26.5385 27.75 26.5385H40.25C40.9412 26.5385 41.5 26.0055 41.5 25.3462V20.5769C41.5 19.9176 40.9412 19.3846 40.25 19.3846H35.25V18.1923C35.25 17.533 34.6912 17 34 17H29C28.3088 17 27.75 17.533 27.75 18.1923V19.3846C22.9262 19.3846 19 23.1297 19 27.7308C19 32.3319 22.9262 36.0769 27.75 36.0769H35.25C35.94 36.0769 36.5 36.6111 36.5 37.2692C36.5 37.9274 35.94 38.4615 35.25 38.4615H22.75C22.0588 38.4615 21.5 38.9945 21.5 39.6538V44.4231C21.5 45.0824 22.0588 45.6154 22.75 45.6154H27.75V46.8077C27.75 47.467 28.3088 48 29 48ZM24 43.2308V40.8462H35.25C37.3175 40.8462 39 39.2413 39 37.2692C39 35.2972 37.3175 33.6923 35.25 33.6923H27.75C24.3038 33.6923 21.5 31.018 21.5 27.7308C21.5 24.4436 24.3038 21.7692 27.75 21.7692H29C29.6912 21.7692 30.25 21.2363 30.25 20.5769V19.3846H32.75V20.5769C32.75 21.2363 33.3088 21.7692 34 21.7692H39V24.1538H27.75C25.6825 24.1538 24 25.7587 24 27.7308C24 29.7028 25.6825 31.3077 27.75 31.3077H35.25C38.6963 31.3077 41.5 33.982 41.5 37.2692C41.5 40.5564 38.6963 43.2308 35.25 43.2308H34C33.3088 43.2308 32.75 43.7637 32.75 44.4231V45.6154H30.25V44.4231C30.25 43.7637 29.6912 43.2308 29 43.2308H24Z" fill="#C12026"/>
</svg>
