<svg width="60" height="60" viewBox="0 0 60 60" fill="none" xmlns="http://www.w3.org/2000/svg">
<g clip-path="url(#clip0_13_706)">
<path d="M37.981 36.8633C37.3727 37.0854 36.7057 37.0873 36.096 36.8686L38.4426 59.1607C38.4669 59.3909 38.5755 59.6039 38.7474 59.7589C38.9194 59.9138 39.1426 59.9997 39.3741 60C39.4071 60 39.4401 59.9983 39.473 59.995C39.7203 59.9689 39.9471 59.8457 40.1036 59.6524C40.2601 59.4591 40.3334 59.2116 40.3075 58.9643L37.981 36.8633ZM1.30134e-05 11.3541C0.00511854 12.2917 0.247597 13.2126 0.704831 14.0311C1.16207 14.8496 1.81916 15.539 2.61481 16.0349C3.41047 16.5308 4.31877 16.8171 5.25498 16.8671C6.19119 16.9171 7.12481 16.7292 7.96876 16.3208V22.5H0.937513C0.689096 22.5007 0.451061 22.5997 0.275402 22.7754C0.0997441 22.951 0.000738927 23.1891 1.30134e-05 23.4375V27.1875H17.0025L16.6078 29.0625H1.30134e-05V31.875H16.0157L15.6209 33.75H1.30134e-05V36.5625H15.0288L14.6341 38.4375H1.30134e-05V41.25H14.042L13.6472 43.125H1.30134e-05V45.9375H13.0552L12.6604 47.8125H1.30134e-05V50.625H12.0683L11.6736 52.5H1.30134e-05V55.3125H11.0815L10.6867 57.1875H1.30134e-05V60H11.2488L11.2509 60.0002C11.4654 59.9972 11.6727 59.922 11.8392 59.7867C12.0057 59.6514 12.1218 59.464 12.1688 59.2547L12.6047 57.1875H12.6028L12.9975 55.3125H12.9985L13.3697 53.5446L14.2672 49.2819L14.5781 47.8125H14.5765L14.9712 45.9375H14.9719L15.2485 44.6202L16.2871 39.687L16.5516 38.4375H16.5501L16.9449 36.5625L17.1239 35.7123L18.3043 30.1053L18.525 29.0625H18.5238L18.9185 27.1875L18.9947 26.8259L19.5107 24.375H23.3335L19.6925 58.9643C19.6666 59.2116 19.7399 59.4591 19.8964 59.6524C20.0529 59.8457 20.2797 59.9689 20.5271 59.995C20.5599 59.9983 20.5929 60 20.6259 60C20.8574 59.9997 21.0806 59.9138 21.2526 59.7589C21.4246 59.604 21.5332 59.3909 21.5575 59.1607L25.2191 24.375H29.0625V59.0625C29.0625 59.3111 29.1613 59.5496 29.3371 59.7254C29.5129 59.9012 29.7514 60 30 60C30.2487 60 30.4871 59.9012 30.6629 59.7254C30.8387 59.5496 30.9375 59.3111 30.9375 59.0625V24.375H34.2188V22.5H18.7579C18.7556 22.5 18.7534 22.5 18.7511 22.5H9.84376V16.3208C10.5079 16.6483 11.2311 16.839 11.9704 16.8815C12.7096 16.924 13.4499 16.8174 14.1472 16.5682C14.8445 16.3189 15.4845 15.932 16.0293 15.4305C16.5741 14.9289 17.0125 14.323 17.3185 13.6487C17.6245 12.9743 17.7918 12.2454 17.8104 11.5051C17.8291 10.7649 17.6988 10.0284 17.4272 9.33951C17.1556 8.65062 16.7484 8.02334 16.2296 7.49497C15.7108 6.9666 15.091 6.54791 14.4072 6.26379C14.5131 5.47923 14.45 4.6811 14.222 3.92295C13.9941 3.1648 13.6066 2.46418 13.0856 1.86812C12.5646 1.27205 11.9221 0.794322 11.2013 0.467001C10.4804 0.13968 9.69794 -0.0296631 8.90626 -0.0296631C8.11459 -0.0296631 7.33208 0.13968 6.61124 0.467001C5.8904 0.794322 5.24792 1.27205 4.72691 1.86812C4.2059 2.46418 3.81843 3.1648 3.59048 3.92295C3.36254 4.6811 3.29941 5.47923 3.40532 6.26379C2.39619 6.67792 1.53332 7.3833 0.926806 8.28994C0.320292 9.19657 -0.00236159 10.2633 1.30134e-05 11.3541ZM4.71498 7.80739C4.84097 7.77824 4.95957 7.72336 5.06333 7.64617C5.16709 7.56899 5.25377 7.47118 5.31791 7.35889C5.38205 7.24659 5.42227 7.12225 5.43605 6.99367C5.44982 6.86508 5.43685 6.73504 5.39795 6.61171C5.28661 6.25881 5.23011 5.89091 5.2304 5.52086C5.23838 4.5512 5.62916 3.62397 6.31765 2.94111C7.00614 2.25826 7.93656 1.87511 8.90625 1.87511C9.87594 1.87511 10.8064 2.25826 11.4948 2.94111C12.1833 3.62397 12.5741 4.5512 12.5821 5.52086C12.5824 5.89091 12.5259 6.25881 12.4145 6.61171C12.3756 6.73504 12.3627 6.86508 12.3764 6.99367C12.3902 7.12225 12.4304 7.24659 12.4946 7.35889C12.5587 7.47118 12.6454 7.56899 12.7492 7.64617C12.8529 7.72336 12.9715 7.77824 13.0975 7.80739C13.6501 7.94007 14.1641 8.20006 14.5983 8.56663C15.0326 8.9332 15.3752 9.3962 15.5988 9.91868C15.8224 10.4412 15.9207 11.0087 15.8861 11.5759C15.8514 12.1432 15.6846 12.6944 15.399 13.1858C15.1134 13.6771 14.717 14.0949 14.2413 14.4059C13.7655 14.7168 13.2238 14.9122 12.6591 14.9766C12.0945 15.0409 11.5226 14.9724 10.9891 14.7765C10.4556 14.5806 9.97532 14.2628 9.5865 13.8483C9.49889 13.7559 9.3934 13.6824 9.27645 13.6322C9.1595 13.5819 9.03355 13.556 8.90626 13.556C8.77898 13.556 8.65303 13.5819 8.53608 13.6322C8.41913 13.6824 8.31364 13.7559 8.22603 13.8483C7.83812 14.2703 7.35648 14.5952 6.81993 14.7969C6.28339 14.9985 5.70696 15.0713 5.13713 15.0093C4.56731 14.9472 4.02003 14.7522 3.53944 14.4398C3.05884 14.1274 2.65838 13.7065 2.37035 13.2109C2.08232 12.7153 1.91478 12.159 1.88124 11.5868C1.8477 11.0146 1.9491 10.4425 2.17726 9.91669C2.40542 9.39087 2.75395 8.92602 3.19476 8.55963C3.63557 8.19324 4.1563 7.93556 4.71498 7.80739ZM59.0625 22.5H41.2487C41.2464 22.5 41.2441 22.5 41.2419 22.5H39.8438V24.375H40.4894L41.0053 26.8259L41.0813 27.1875L41.4762 29.0625H41.475L41.6957 30.1053L42.8762 35.7123L43.0547 36.5625L43.4499 38.4375H43.4485L43.713 39.687L44.7515 44.6202L45.0281 45.9375H45.0288L45.4236 47.8125H45.4219L45.7329 49.2819L47.3972 57.1875H47.3953L47.8313 59.2547C47.8782 59.464 47.9943 59.6515 48.1608 59.7867C48.3274 59.922 48.5346 59.9972 48.7491 60.0002L48.7513 60H60V57.1875H49.3133L48.9186 55.3125H60V52.5H48.3265L47.9317 50.625H60V47.8125H47.3396L46.9449 45.9375H60V43.125H46.3528L45.958 41.25H60V38.4375H45.3659L44.9712 36.5625H60V33.75H44.3791L43.9844 31.875H60V29.0625H43.3923L42.9975 27.1875H60V23.4375C59.9993 23.1891 59.9003 22.951 59.7246 22.7754C59.549 22.5997 59.3109 22.5007 59.0625 22.5Z" fill="#C12026"/>
<path d="M50.1562 15.9375V0.9375C50.1562 0.688863 50.0575 0.450414 49.8816 0.274601C49.7058 0.0987885 49.4674 1.24309e-05 49.2188 0L24.8438 0C24.5951 1.24309e-05 24.3567 0.0987885 24.1809 0.274601C24.005 0.450414 23.9063 0.688863 23.9062 0.9375V15.9375C23.9063 16.1861 24.005 16.4246 24.1809 16.6004C24.3567 16.7762 24.5951 16.875 24.8438 16.875H36.0938V34.2188C36.0938 34.4674 36.1925 34.7058 36.3683 34.8817C36.5442 35.0575 36.7826 35.1562 37.0312 35.1562C37.2799 35.1562 37.5183 35.0575 37.6942 34.8817C37.87 34.7058 37.9688 34.4674 37.9688 34.2188V16.875H49.2188C49.4674 16.875 49.7058 16.7762 49.8816 16.6004C50.0575 16.4246 50.1562 16.1861 50.1562 15.9375ZM28.5938 13.5938C28.4083 13.5938 28.2271 13.5388 28.0729 13.4358C27.9187 13.3327 27.7986 13.1863 27.7276 13.015C27.6567 12.8437 27.6381 12.6552 27.6743 12.4734C27.7104 12.2915 27.7997 12.1244 27.9308 11.9933C28.0619 11.8622 28.229 11.7729 28.4109 11.7368C28.5927 11.7006 28.7812 11.7192 28.9525 11.7901C29.1238 11.8611 29.2702 11.9812 29.3733 12.1354C29.4763 12.2896 29.5312 12.4708 29.5312 12.6562C29.5312 12.9049 29.4325 13.1433 29.2567 13.3192C29.0808 13.495 28.8424 13.5938 28.5938 13.5938ZM28.5938 5.15625C28.4083 5.15625 28.2271 5.10127 28.0729 4.99825C27.9187 4.89524 27.7986 4.74882 27.7276 4.57752C27.6567 4.40621 27.6381 4.21771 27.6743 4.03585C27.7104 3.854 27.7997 3.68695 27.9308 3.55584C28.0619 3.42473 28.229 3.33544 28.4109 3.29926C28.5927 3.26309 28.7812 3.28166 28.9525 3.35261C29.1238 3.42357 29.2702 3.54373 29.3733 3.6979C29.4763 3.85207 29.5312 4.03333 29.5312 4.21875C29.5312 4.46739 29.4325 4.70585 29.2567 4.88166C29.0808 5.05748 28.8424 5.15625 28.5938 5.15625ZM39.8438 11.25H34.2188C33.9701 11.25 33.7317 11.1512 33.5558 10.9754C33.38 10.7996 33.2812 10.5611 33.2812 10.3125C33.2812 10.0639 33.38 9.8254 33.5558 9.64959C33.7317 9.47377 33.9701 9.375 34.2188 9.375H39.8438C40.0924 9.375 40.3308 9.47377 40.5067 9.64959C40.6825 9.8254 40.7812 10.0639 40.7812 10.3125C40.7812 10.5611 40.6825 10.7996 40.5067 10.9754C40.3308 11.1512 40.0924 11.25 39.8438 11.25ZM41.25 7.5H32.8125C32.5639 7.5 32.3254 7.40123 32.1496 7.22541C31.9738 7.0496 31.875 6.81114 31.875 6.5625C31.875 6.31386 31.9738 6.0754 32.1496 5.89959C32.3254 5.72377 32.5639 5.625 32.8125 5.625H41.25C41.4986 5.625 41.7371 5.72377 41.9129 5.89959C42.0887 6.0754 42.1875 6.31386 42.1875 6.5625C42.1875 6.81114 42.0887 7.0496 41.9129 7.22541C41.7371 7.40123 41.4986 7.5 41.25 7.5ZM45.4688 13.5938C45.2833 13.5938 45.1021 13.5388 44.9479 13.4358C44.7937 13.3327 44.6736 13.1863 44.6026 13.015C44.5317 12.8437 44.5131 12.6552 44.5493 12.4734C44.5854 12.2915 44.6747 12.1244 44.8058 11.9933C44.9369 11.8622 45.104 11.7729 45.2859 11.7368C45.4677 11.7006 45.6562 11.7192 45.8275 11.7901C45.9988 11.8611 46.1452 11.9812 46.2483 12.1354C46.3513 12.2896 46.4062 12.4708 46.4062 12.6562C46.4062 12.9049 46.3075 13.1433 46.1317 13.3192C45.9558 13.495 45.7174 13.5938 45.4688 13.5938ZM45.4688 5.15625C45.2833 5.15625 45.1021 5.10127 44.9479 4.99825C44.7937 4.89524 44.6736 4.74882 44.6026 4.57752C44.5317 4.40621 44.5131 4.21771 44.5493 4.03585C44.5854 3.854 44.6747 3.68695 44.8058 3.55584C44.9369 3.42473 45.104 3.33544 45.2859 3.29926C45.4677 3.26309 45.6562 3.28166 45.8275 3.35261C45.9988 3.42357 46.1452 3.54373 46.2483 3.6979C46.3513 3.85207 46.4062 4.03333 46.4062 4.21875C46.4062 4.46739 46.3075 4.70585 46.1317 4.88166C45.9558 5.05748 45.7174 5.15625 45.4688 5.15625Z" fill="#C12026"/>
</g>
<defs>
<clipPath id="clip0_13_706">
<rect width="60" height="60" fill="white"/>
</clipPath>
</defs>
</svg>
