<svg width="185" height="56" viewBox="0 0 185 56" fill="none" xmlns="http://www.w3.org/2000/svg">
<g clip-path="url(#clip0_106_226)">
<path d="M27.2764 53.632C41.5797 53.632 53.1748 42.0016 53.1748 27.6548C53.1748 13.308 41.5797 1.67763 27.2764 1.67763C12.9731 1.67763 1.37805 13.308 1.37805 27.6548C1.37805 42.0016 12.9731 53.632 27.2764 53.632Z" fill="white"/>
<path d="M69.8539 26.7752C67.8946 26.7752 66.3682 26.2296 65.2637 25.1328C64.1591 24.0361 63.6096 22.4716 63.6096 20.4284V12.701H66.8178V20.3449C66.8178 21.6477 67.0842 22.5941 67.6281 23.1787C68.1665 23.7633 68.9158 24.0583 69.8761 24.0583C70.8363 24.0583 71.6023 23.7633 72.1407 23.1787C72.679 22.5941 72.951 21.6477 72.951 20.3449V12.701H76.0815V20.4284C76.0815 22.4716 75.532 24.0361 74.4274 25.1328C73.3229 26.2296 71.8021 26.7752 69.8594 26.7752H69.8539Z" fill="#102E50"/>
<path d="M79.2508 26.5358V12.7065H81.8928L90.0298 22.6665H88.7476V12.7065H91.9003V26.5358H89.2582L81.1213 16.5758H82.4034V26.5358H79.2508Z" fill="#102E50"/>
<path d="M101.763 26.7752C100.698 26.7752 99.7097 26.6026 98.7994 26.2519C97.8836 25.9011 97.0955 25.4056 96.4239 24.7598C95.7523 24.114 95.2305 23.3568 94.8586 22.4883C94.4867 21.6198 94.298 20.6622 94.298 19.6212C94.298 18.5801 94.4867 17.628 94.8586 16.754C95.2305 15.8799 95.7578 15.1283 96.435 14.4825C97.1121 13.8367 97.9058 13.3412 98.8161 12.9905C99.7264 12.6397 100.714 12.4671 101.78 12.4671C102.973 12.4671 104.056 12.6731 105.033 13.0907C106.004 13.5082 106.82 14.1151 107.475 14.9168L105.404 16.8152C104.944 16.2752 104.422 15.8688 103.839 15.5904C103.256 15.312 102.624 15.1729 101.941 15.1729C101.297 15.1729 100.709 15.2842 100.17 15.4958C99.632 15.7129 99.1658 16.0191 98.7717 16.4144C98.3776 16.8096 98.0723 17.2773 97.8559 17.8173C97.6394 18.3574 97.5284 18.9586 97.5284 19.6156C97.5284 20.2725 97.6394 20.8738 97.8559 21.4138C98.0723 21.9539 98.3776 22.4215 98.7717 22.8168C99.1658 23.2121 99.632 23.5183 100.17 23.7354C100.709 23.9525 101.297 24.0639 101.941 24.0639C102.624 24.0639 103.256 23.9247 103.839 23.6408C104.422 23.3568 104.944 22.9449 105.404 22.4048L107.475 24.3033C106.82 25.105 106.004 25.7174 105.033 26.1405C104.061 26.5636 102.973 26.7752 101.763 26.7752Z" fill="#102E50"/>
<path d="M109.423 26.5358V12.7065H112.631V23.9303H119.508V26.5358H109.423Z" fill="#102E50"/>
<path d="M121.323 26.5358V12.7065H131.741V15.2731H124.492V23.9637H131.997V26.5302H121.323V26.5358ZM124.259 20.768V18.2572H130.898V20.768H124.259Z" fill="#102E50"/>
<path d="M144.663 26.7752C143.558 26.7752 142.498 26.6249 141.482 26.3298C140.467 26.0347 139.645 25.6506 139.029 25.1718L140.111 22.7611C140.689 23.1842 141.382 23.5294 142.198 23.7967C143.014 24.0695 143.836 24.2031 144.663 24.2031C145.296 24.2031 145.801 24.1363 146.189 24.0082C146.578 23.8746 146.861 23.702 147.044 23.4849C147.227 23.2678 147.321 23.0117 147.321 22.7222C147.321 22.3547 147.177 22.0596 146.888 21.8425C146.6 21.6254 146.217 21.4472 145.734 21.3081C145.257 21.1689 144.735 21.0408 144.169 20.9128C143.603 20.7903 143.036 20.6344 142.465 20.4563C141.893 20.2781 141.366 20.0387 140.888 19.7436C140.411 19.4486 140.028 19.0589 139.745 18.5801C139.462 18.1013 139.323 17.4944 139.323 16.7707C139.323 15.9801 139.534 15.2619 139.956 14.605C140.378 13.9536 141.016 13.4303 141.876 13.0461C142.737 12.6564 143.819 12.4616 145.118 12.4616C145.984 12.4616 146.839 12.5673 147.688 12.7789C148.537 12.9905 149.275 13.2911 149.902 13.6864L148.898 16.097C148.282 15.7407 147.643 15.4735 146.988 15.2953C146.333 15.1172 145.701 15.0281 145.096 15.0281C144.491 15.0281 143.958 15.0949 143.58 15.2341C143.197 15.3733 142.92 15.5626 142.742 15.7964C142.565 16.0302 142.476 16.2975 142.476 16.587C142.476 16.9544 142.62 17.255 142.909 17.4777C143.197 17.7004 143.58 17.8786 144.052 18.0011C144.524 18.1235 145.051 18.2516 145.629 18.3741C146.206 18.5021 146.777 18.6524 147.344 18.8362C147.91 19.0199 148.426 19.2537 148.898 19.5376C149.37 19.8216 149.753 20.2057 150.052 20.6845C150.352 21.1633 150.496 21.759 150.496 22.4716C150.496 23.2511 150.285 23.9581 149.858 24.6039C149.431 25.2497 148.787 25.7675 147.915 26.1628C147.044 26.5581 145.967 26.7529 144.663 26.7529V26.7752Z" fill="#102E50"/>
<path d="M150.868 26.5358L156.996 12.7065H160.149L166.332 26.5358H162.985L157.923 14.3266H159.205L154.143 26.5358H150.874H150.868ZM153.96 23.574L154.77 21.141H161.902L162.729 23.574H153.965H153.96Z" fill="#102E50"/>
<path d="M167.769 26.5358V12.7065H170.411L176.284 22.4661H174.885L180.635 12.7065H183.294V26.5358H180.319L180.28 17.3107H180.868L176.217 25.0549H174.796L170.089 17.3107H170.739V26.5358H167.764H167.769Z" fill="#102E50"/>
<path d="M63.7595 44.496V33.3669H68.7382C70.0148 33.3669 70.9972 33.623 71.6855 34.1352C72.3737 34.6474 72.7179 35.3489 72.7179 36.2397C72.7179 36.8409 72.5847 37.3531 72.3127 37.7651C72.0407 38.1771 71.6799 38.4944 71.2248 38.7171C70.7697 38.9398 70.2812 39.0512 69.7484 39.0512L70.0315 38.5724C70.6642 38.5724 71.2248 38.6837 71.7132 38.9064C72.2017 39.1291 72.5847 39.452 72.8677 39.8863C73.1508 40.315 73.2951 40.8494 73.2951 41.4841C73.2951 42.4361 72.9399 43.1766 72.2239 43.6999C71.5134 44.2232 70.4533 44.4849 69.049 44.4849H63.7539L63.7595 44.496ZM65.3413 43.21H68.988C69.8649 43.21 70.5365 43.0597 71.0028 42.7646C71.469 42.4695 71.7021 42.0019 71.7021 41.3672C71.7021 40.7325 71.469 40.2481 71.0028 39.9531C70.5365 39.658 69.8649 39.5077 68.988 39.5077H65.2026V38.2216H68.5939C69.3987 38.2216 70.0204 38.0713 70.4644 37.7762C70.9084 37.4812 71.1304 37.0358 71.1304 36.4401C71.1304 35.8444 70.9084 35.399 70.4644 35.1039C70.0204 34.8089 69.3987 34.6585 68.5939 34.6585H65.3469V43.21H65.3413Z" fill="#C12026"/>
<path d="M80.3497 44.6241C78.89 44.6241 77.7466 44.2065 76.9085 43.3659C76.0759 42.5308 75.6541 41.3059 75.6541 39.6914V33.3669H77.2359V39.6302C77.2359 40.8717 77.5079 41.7736 78.0518 42.347C78.5958 42.9205 79.3617 43.2044 80.3553 43.2044C81.3488 43.2044 82.1314 42.9205 82.6754 42.347C83.2193 41.7736 83.4913 40.8661 83.4913 39.6302V33.3669H85.0288V39.6914C85.0288 41.3004 84.6125 42.5252 83.7855 43.3659C82.9584 44.201 81.8095 44.6241 80.3386 44.6241H80.3497Z" fill="#C12026"/>
<path d="M90.8068 44.496V40.237L91.1731 41.2224L86.4053 33.3725H88.1037L92.1111 40.0032H91.1898L95.2138 33.3725H96.7846L92.0279 41.2224L92.3775 40.237V44.496H90.8068Z" fill="#C12026"/>
<path d="M101.38 44.6241C100.537 44.6241 99.7263 44.496 98.9548 44.2344C98.1833 43.9727 97.5783 43.6387 97.1343 43.2267L97.7226 41.9852C98.1445 42.3582 98.6829 42.6644 99.3378 42.9093C99.9928 43.1543 100.675 43.2768 101.38 43.2768C102.024 43.2768 102.546 43.2044 102.951 43.0541C103.351 42.9038 103.65 42.7033 103.839 42.4417C104.028 42.18 104.122 41.8905 104.122 41.562C104.122 41.1779 104 40.8717 103.75 40.6379C103.501 40.404 103.179 40.2147 102.785 40.0756C102.391 39.9308 101.952 39.8083 101.475 39.7025C100.997 39.5968 100.52 39.4743 100.043 39.3295C99.5598 39.1848 99.1213 39.0066 98.7273 38.7839C98.3332 38.5612 98.0112 38.2606 97.767 37.8876C97.5228 37.5146 97.4007 37.0247 97.4007 36.4345C97.4007 35.8444 97.5506 35.3378 97.8503 34.8534C98.15 34.369 98.6162 33.9849 99.2434 33.6954C99.8706 33.4059 100.67 33.2556 101.647 33.2556C102.291 33.2556 102.929 33.3391 103.562 33.5117C104.194 33.6843 104.744 33.9236 105.21 34.241L104.688 35.5103C104.211 35.193 103.712 34.9592 103.184 34.82C102.657 34.6752 102.141 34.6029 101.647 34.6029C101.025 34.6029 100.509 34.6808 100.109 34.8423C99.7097 35.0037 99.4155 35.2153 99.2323 35.4769C99.0492 35.7442 98.9548 36.0392 98.9548 36.3677C98.9548 36.7574 99.0769 37.0748 99.3267 37.303C99.5765 37.5369 99.8984 37.7206 100.292 37.8598C100.687 37.9989 101.125 38.1214 101.602 38.2328C102.08 38.3441 102.557 38.4666 103.034 38.6058C103.517 38.745 103.956 38.9231 104.35 39.1458C104.744 39.3685 105.066 39.6636 105.31 40.0366C105.554 40.4096 105.676 40.8828 105.676 41.4674C105.676 42.052 105.521 42.553 105.216 43.0318C104.91 43.5106 104.439 43.9003 103.795 44.1898C103.157 44.4793 102.352 44.6296 101.38 44.6296V44.6241Z" fill="#C12026"/>
<path d="M112.248 44.496V33.3669H113.83V44.496H112.248ZM113.675 39.5411V38.1604H120.346V39.5411H113.675ZM120.207 44.496V33.3669H121.789V44.496H120.207Z" fill="#C12026"/>
<path d="M130.126 44.6241C129.282 44.6241 128.494 44.4793 127.773 44.1954C127.051 43.9115 126.424 43.5106 125.897 42.9928C125.369 42.4806 124.959 41.8794 124.659 41.189C124.365 40.4987 124.215 39.7471 124.215 38.9343C124.215 38.1214 124.365 37.3643 124.659 36.6795C124.953 35.9891 125.364 35.3879 125.897 34.8757C126.424 34.3635 127.046 33.9626 127.767 33.6731C128.483 33.3892 129.271 33.2444 130.126 33.2444C130.981 33.2444 131.752 33.3836 132.474 33.6676C133.19 33.9459 133.817 34.3468 134.344 34.859C134.872 35.3712 135.282 35.978 135.571 36.6683C135.86 37.3643 136.01 38.1159 136.01 38.9343C136.01 39.7527 135.865 40.5209 135.571 41.2057C135.282 41.8961 134.872 42.4974 134.344 43.0095C133.817 43.5217 133.196 43.9226 132.474 44.201C131.758 44.4793 130.975 44.6241 130.126 44.6241ZM130.109 43.21C130.731 43.21 131.308 43.1042 131.83 42.8926C132.352 42.6811 132.807 42.3804 133.196 41.9963C133.584 41.6121 133.884 41.1556 134.1 40.6379C134.317 40.1201 134.422 39.5522 134.422 38.9398C134.422 38.3274 134.311 37.7595 134.1 37.2474C133.884 36.7352 133.584 36.2786 133.196 35.8889C132.807 35.4992 132.357 35.193 131.83 34.9814C131.308 34.7699 130.731 34.6641 130.109 34.6641C129.488 34.6641 128.927 34.7699 128.405 34.9814C127.884 35.193 127.423 35.4936 127.035 35.8889C126.646 36.2842 126.341 36.7352 126.124 37.2474C125.908 37.7595 125.797 38.3274 125.797 38.9398C125.797 39.5522 125.902 40.1201 126.124 40.6379C126.341 41.1556 126.646 41.6121 127.035 41.9963C127.423 42.386 127.884 42.6811 128.405 42.8926C128.927 43.1042 129.499 43.21 130.109 43.21Z" fill="#C12026"/>
<path d="M138.43 44.496V33.3669H139.728L144.707 41.7736H144.008L148.92 33.3669H150.219L150.235 44.496H148.715L148.698 35.772H149.064L144.69 43.1487H143.963L139.556 35.772H139.95V44.496H138.43Z" fill="#C12026"/>
<path d="M153.566 44.496V33.3669H161.392V34.7476H155.147V43.1098H161.614V44.4905H153.566V44.496ZM155.009 39.5244V38.1715H160.715V39.5244H155.009Z" fill="#C12026"/>
<path d="M167.414 44.6241C166.57 44.6241 165.76 44.496 164.988 44.2344C164.217 43.9727 163.612 43.6387 163.168 43.2267L163.756 41.9852C164.178 42.3582 164.716 42.6644 165.371 42.9093C166.026 43.1543 166.709 43.2768 167.414 43.2768C168.058 43.2768 168.58 43.2044 168.985 43.0541C169.384 42.9038 169.684 42.7033 169.873 42.4417C170.062 42.18 170.156 41.8905 170.156 41.562C170.156 41.1779 170.034 40.8717 169.784 40.6379C169.534 40.404 169.212 40.2147 168.818 40.0756C168.424 39.9308 167.986 39.8083 167.508 39.7025C167.031 39.5968 166.554 39.4743 166.076 39.3295C165.593 39.1848 165.155 39.0066 164.761 38.7839C164.367 38.5612 164.045 38.2606 163.801 37.8876C163.556 37.5146 163.434 37.0247 163.434 36.4345C163.434 35.8444 163.584 35.3378 163.884 34.8534C164.184 34.369 164.65 33.9849 165.277 33.6954C165.904 33.4059 166.704 33.2556 167.68 33.2556C168.324 33.2556 168.963 33.3391 169.595 33.5117C170.228 33.6843 170.778 33.9236 171.244 34.241L170.722 35.5103C170.245 35.193 169.745 34.9592 169.218 34.82C168.691 34.6752 168.174 34.6029 167.68 34.6029C167.059 34.6029 166.543 34.6808 166.143 34.8423C165.743 35.0037 165.449 35.2153 165.266 35.4769C165.083 35.7442 164.988 36.0392 164.988 36.3677C164.988 36.7574 165.111 37.0748 165.36 37.303C165.61 37.5369 165.932 37.7206 166.326 37.8598C166.72 37.9989 167.159 38.1214 167.636 38.2328C168.113 38.3441 168.591 38.4666 169.068 38.6058C169.551 38.745 169.989 38.9231 170.383 39.1458C170.778 39.3685 171.099 39.6636 171.344 40.0366C171.588 40.4096 171.71 40.8828 171.71 41.4674C171.71 42.052 171.555 42.553 171.249 43.0318C170.944 43.5106 170.472 43.9003 169.828 44.1898C169.19 44.4793 168.385 44.6296 167.414 44.6296V44.6241Z" fill="#C12026"/>
<path d="M25.4503 30.6779C26.3607 30.6779 27.0988 29.9376 27.0988 29.0244C27.0988 28.1112 26.3607 27.3709 25.4503 27.3709C24.5399 27.3709 23.8018 28.1112 23.8018 29.0244C23.8018 29.9376 24.5399 30.6779 25.4503 30.6779Z" fill="#FDFDFC"/>
<path d="M36.2848 8.72588C36.257 9.05435 35.9517 9.69459 35.8407 10.0342C35.1192 12.2556 34.7528 14.4714 34.4864 16.7206C34.3032 16.6371 34.1145 16.5591 33.9203 16.4923L33.8981 16.5925C33.5484 16.3587 32.9045 16.2863 32.355 16.0803C32.4383 13.4191 33.3319 7.56787 33.4485 7.39528C34.4143 7.74603 35.5299 8.00212 36.2848 8.73144V8.72588Z" fill="#E71E26"/>
<path d="M28.936 15.8298C27.4429 15.7407 25.9332 15.969 24.4734 16.2919C24.1015 13.3579 23.5964 10.0064 23.0802 7.18929C23.0802 7.14475 23.0691 7.10578 23.058 7.06124C24.1681 6.48781 28.553 6.64369 28.553 6.64369L28.6806 6.59359C28.7417 6.66039 28.8028 12.9682 28.9415 15.8242L28.936 15.8298Z" fill="#E71E26"/>
<path d="M45.7649 44.6909C45.5429 43.8948 45.1488 43.2879 44.394 42.9928C42.196 42.1299 39.998 41.3004 37.9443 40.1479L35.5299 38.1047C37.5503 37.3921 38.7936 36.0225 38.2052 34.0183C38.455 33.5395 38.788 32.8269 38.8324 32.259C40.5808 30.5665 40.9416 28.2672 39.2598 26.469C39.7815 26.224 39.9758 25.7564 40.2977 25.4613C41.6798 24.1919 42.4624 21.9817 41.8796 20.2948C41.4023 18.9197 40.159 18.1514 38.7436 18.4353C38.011 18.5745 37.3671 18.8807 36.6622 19.1479C36.5623 16.1304 37.0507 13.2354 38.1442 10.5019C39.0378 8.26935 34.4143 6.44327 32.0054 5.97561C26.9045 4.99019 20.1441 5.84756 16.0978 9.19353C14.9267 10.1623 13.9442 11.2702 14.6658 12.5673C15.9757 14.939 16.9026 17.4332 17.2856 20.1946C16.6917 20.1278 16.1478 19.9719 15.5483 19.9552C13.9498 19.9107 12.6732 21.0074 12.3735 22.5607C11.9572 24.7264 13.2671 26.7418 15.1209 27.9499C13.6723 29.7593 13.7722 31.8526 15.5039 33.3502C16.12 33.8902 16.6862 34.4748 16.4031 35.0204C16.3365 35.1429 16.1589 35.2654 15.8869 35.3656C16.0257 36.891 17.2468 38.0045 18.6899 38.3553C18.1237 38.9064 17.774 39.6413 17.1191 40.0032C14.8101 41.2781 12.4512 42.2079 9.98122 43.2211C9.24301 43.5273 8.23283 44.4793 8.57141 45.359C9.40952 47.5525 15.0099 50.8317 17.7851 51.767L19.6612 52.4016L17.2134 48.9276L19.8777 46.9512L16.5807 45.8767C16.947 44.2288 17.2079 42.6477 17.9517 41.0777L17.3744 45.4369C18.3235 45.7988 19.2394 46.1551 20.1219 46.6506L20.516 46.7452C19.7444 47.6694 18.9063 48.3431 18.0793 49.1392L20.5049 52.6577C22.6973 53.2201 24.862 53.5986 27.1543 53.5764L26.1663 51.2715L24.5511 47.9199C24.8176 47.6861 24.973 47.4579 25.3004 47.3576C25.2338 48.3264 25.3615 49.2672 25.9165 50.0133C26.9933 51.4608 29.1302 50.1135 30.257 48.5379C30.6067 48.6493 30.9064 48.6771 31.2283 48.7216C31.5724 50.2694 31.7889 51.7503 32.0442 53.2924C32.0609 53.3871 32.3495 53.3592 32.3551 53.259L32.3773 52.964C32.2163 51.4886 31.8722 50.1135 31.5669 48.6715C31.8944 48.5435 32.1941 48.4488 32.516 48.2206C33.6039 49.1169 35.1303 50.0578 36.1738 49.2728L36.2015 52.6021C37.6169 52.307 38.9046 51.7948 40.159 51.188L40.714 48.0369C39.9425 47.4244 39.0933 47.0904 38.4439 46.2943C39.5096 46.5838 40.3865 47.2129 41.3468 47.675C41.2136 48.8553 40.9083 49.7739 40.6918 50.9708C42.2903 50.2192 45.6928 48.0424 46.1923 46.7508C46.4587 46.0772 45.937 45.3089 45.7594 44.6965L45.7649 44.6909ZM14.0663 43.3436L11.0858 44.9525C11.441 45.8099 12.1348 46.4891 12.2458 47.4133C11.4798 46.3444 10.7916 45.3534 9.60934 44.9748C9.75365 44.4682 10.1255 44.2956 10.5474 44.1119L16.6029 41.5175C15.8092 42.2635 14.9822 42.8425 14.0608 43.338L14.0663 43.3436ZM39.3264 28.6347C39.4818 29.8762 39.01 30.9451 38.0221 31.6856C37.8555 32.1031 38.0776 32.7155 37.8278 33.0886C37.4615 33.6397 37.1617 34.1686 37.4781 34.8256C37.689 35.2765 36.7899 36.9579 35.702 37.0247C36.1793 36.1395 36.2404 35.2876 36.4568 34.3579C36.5789 34.0851 37.0174 33.8346 37.0285 33.4337C37.0285 33.2834 37.3172 33.0997 37.3838 32.9716C38.2052 31.2736 38.1886 28.8741 37.2561 28.913C36.8842 28.9297 36.7011 29.2694 36.4513 29.4976C36.146 28.4343 35.9795 27.4043 36.0017 26.3521C36.0239 25.5003 35.8241 24.7041 35.5688 23.8857C37.5558 24.2142 37.1284 26.0236 38.3384 26.3409C38.1775 26.508 38.0276 26.4579 37.7834 26.4913C38.5771 27.0035 39.2154 27.6882 39.3264 28.6347ZM37.2283 29.6424C37.5447 30.8616 37.3005 32.0586 36.5623 33.1331C36.3791 32.4205 36.6955 31.7802 36.7233 31.101C36.7455 30.561 36.6067 29.9152 37.2283 29.6424ZM15.4651 11.6599C15.5206 11.5095 15.5872 11.3648 15.6649 11.2256C15.6649 11.2145 15.6538 11.1978 15.6482 11.1866C15.7315 11.0809 15.8147 10.9751 15.898 10.8749C15.898 10.8749 15.9091 10.8637 15.9146 10.8526C16.0756 10.6355 16.2643 10.4351 16.4752 10.2458C16.503 10.2179 16.5307 10.1901 16.5585 10.1678C17.0136 9.73357 17.4854 9.34942 17.985 8.98754C18.0738 8.9263 18.1626 8.74258 18.268 8.68134C19.7278 7.85181 21.3929 7.33961 23.0525 7.05568C24.7954 6.63813 28.5474 6.63813 28.5474 6.63813C28.9138 6.63813 29.2746 6.65483 29.6353 6.6938C31.0951 6.76617 32.5327 7.11692 33.8981 7.61241C34.8639 7.95758 35.8185 8.35843 36.5734 9.08776C36.7566 9.26591 37.0119 9.37169 37.1173 9.65006C37.2228 9.92842 37.1562 10.14 37.0452 10.4518C36.2626 12.5896 35.7852 14.7998 35.6409 17.0379L35.1358 16.9154L34.6807 16.7985C34.6196 16.7651 34.553 16.7373 34.4864 16.7094C34.3033 16.6259 34.1145 16.548 33.9203 16.4812C32.6992 16.0247 31.3227 15.7908 29.9129 15.7129C28.7639 15.6516 27.5983 15.6851 26.5049 15.7853C24.54 15.9634 22.7306 16.5146 20.9544 17.1994C20.6547 17.3163 20.3938 17.372 20.0608 17.5835L18.2902 18.4854L18.1015 18.5801C17.5909 16.175 16.6362 13.8701 15.4817 11.6487L15.4651 11.6599ZM29.8296 21.2524L29.2468 20.9852L27.9202 20.3783L27.7315 20.4841L25.9665 21.4695L26.022 21.1188L26.244 19.5878L24.6843 18.4353L26.6881 18.0512L27.2597 16.7039L27.4374 16.2863C27.8647 16.8319 28.1256 17.3441 28.4475 17.9009L30.0516 17.9899L30.0405 18.0011L30.5623 18.0289C30.0683 18.53 29.6131 18.8584 29.2135 19.3818L29.8352 21.2468L29.8296 21.2524ZM13.4891 22.9894C13.478 22.711 13.5224 22.4549 13.6057 22.2267C13.8943 21.4528 14.6547 20.9907 15.5539 20.9796C15.6649 20.9796 15.7759 20.9796 15.8813 20.9907H15.8924C16.8804 21.0408 17.8184 21.3025 18.8064 21.5308C20.2662 21.8592 21.7537 22.0986 23.2523 22.2378C27.837 22.6498 32.5105 22.1153 36.7122 20.2336C37.4115 19.9218 38.0831 19.6045 38.838 19.4597C38.9212 19.4486 39.0045 19.4319 39.0877 19.4263C40.0757 19.3706 40.8472 20.061 40.9638 21.0965C41.1026 22.3659 40.5753 23.7688 39.554 24.565C39.7427 24.0973 39.9314 23.663 40.0702 23.2288C40.2478 22.6888 40.3366 22.1487 40.2367 21.5586C40.1923 20.8348 39.6039 20.3895 38.8935 20.4618C38.8768 20.4618 38.8546 20.4618 38.838 20.4618C38.3107 20.5453 37.8167 20.7235 37.3282 20.9518C34.7084 22.1821 32.0054 22.9393 29.0969 23.1954C27.2875 23.3513 25.5058 23.3735 23.7352 23.2344C23.6797 23.2344 23.6298 23.2232 23.5743 23.2232C21.8869 23.084 20.2107 22.789 18.5178 22.3213C17.5298 22.1153 16.5862 21.8425 15.7537 21.8147C15.7426 21.8147 15.7259 21.8147 15.7204 21.8147C14.8212 21.7813 14.0497 22.043 13.478 22.9838L13.4891 22.9894ZM19.2782 37.4422C18.2569 37.4589 17.3966 36.7686 16.997 35.8889C17.6242 34.9146 17.4466 33.8012 16.5807 33.0496C15.7426 32.3147 15.021 31.3794 15.1431 30.1713C15.2375 29.1803 15.8647 28.3396 16.725 27.833L16.4974 27.6103C16.2643 27.382 17.2634 25.8955 18.2902 25.3667C19.0173 24.9936 19.7778 24.8155 20.6103 24.7375C19.9443 26.2407 20.8323 27.0257 20.405 28.6347L19.9887 30.1991C19.8832 30.5888 20.0608 30.934 20.0941 31.3905C19.3448 30.7002 19.195 29.4419 17.9295 29.7147C16.3587 30.0543 16.7805 33.4059 18.812 35.36C19.1617 35.6941 19.5835 35.7943 20.0164 35.8277C20.3328 36.518 19.9831 37.4311 19.2782 37.4478V37.4422ZM20.3994 34.1853C20.4216 34.5862 20.2828 34.8089 20.0608 34.8979C18.4789 35.5103 16.7361 30.4441 18.1459 30.3828C18.4512 30.3717 18.7454 30.5164 18.7953 30.8171C18.4623 30.767 18.2181 30.8727 18.2347 31.2124C18.4512 31.2458 18.6677 31.2513 18.9507 31.3738C18.8508 31.7914 18.7065 32.1532 18.8786 32.5652C19.0062 32.8714 19.2338 33.2611 19.7722 33.211C19.4669 32.6988 19.2616 32.2479 19.6223 31.7691C19.8055 31.9083 19.8999 32.0586 20.2495 32.0753C20.0997 31.7023 20.2662 31.5297 20.3328 31.268L20.9267 28.9409C21.3818 27.1705 20.577 26.0848 21.1765 24.6596C22.5252 24.5316 23.8018 24.6039 25.1672 24.6262C27.4207 24.6707 29.5798 24.5204 31.7889 24.1418C32.7991 23.9637 33.7427 23.8022 34.8028 23.7855C35.5632 25.5615 35.0304 27.4321 35.6964 29.3696C36.0905 30.5331 35.8629 31.6021 35.8074 32.7823C35.6909 35.0872 35.0526 37.2418 33.5151 39.0567C33.3541 38.8452 33.121 38.7505 32.8934 38.8173C33.4429 40.4875 33.2986 42.2635 32.0942 43.6776C31.961 43.6554 31.8777 43.5217 31.8222 43.4104C31.5225 44.1007 31.245 44.7076 30.6289 45.153C30.0905 44.7243 29.5798 44.1453 28.9637 43.8279C28.714 43.7945 28.5197 43.7611 28.2699 43.583C26.9045 42.631 26.0387 41.2391 26.1386 39.5801C25.8721 39.6135 25.75 39.8417 25.7334 40.2593C24.7843 39.9753 24.0016 39.3796 23.2079 38.7561C21.9036 37.7261 21.0599 36.3343 20.7824 34.6752C20.7435 34.4358 20.6825 34.241 20.3994 34.1853ZM35.3856 42.553C34.6418 42.553 34.1534 42.9149 33.3486 43.3269C33.6372 42.6755 33.9092 42.0074 33.998 41.2391L34.492 39.2961C34.9027 40.3372 35.1303 41.3505 35.3856 42.5475V42.553ZM25.4781 42.0575C24.7676 41.7625 24.1515 41.356 23.5576 40.855C22.8693 40.2481 22.12 39.658 21.8592 38.6782C23.0359 39.6469 23.9739 40.5711 25.1506 41.3449C25.2838 41.5342 25.3948 41.7959 25.4781 42.0575ZM24.862 46.5448L24.2348 47.2853C23.2246 45.4035 22.2199 43.6387 21.4595 41.6845C21.0044 40.5042 20.6214 39.3407 20.7713 38.0379C21.8925 40.3595 23.6853 41.6623 25.8999 42.9093C26.1941 43.0708 26.4938 43.2211 26.6603 43.5384C25.8888 43.4438 25.0063 43.5718 24.6344 44.3568C24.2847 45.0917 24.5733 45.8656 24.8564 46.5448H24.862ZM27.6927 49.5679C27.343 49.7516 26.8102 49.824 26.5604 49.4899C25.9942 48.755 26.0831 47.8197 25.8999 46.9791C25.75 46.3221 24.862 45.1363 25.4448 44.4626C26.0442 43.7723 27.6871 44.4849 28.7417 44.9637C29.2135 45.1752 29.7463 45.6318 29.4022 46.2442C29.0137 46.3333 28.2422 46.066 27.8925 46.7675C28.4975 46.7675 29.0581 46.7397 29.6631 46.8566C30.2847 48.0035 28.9582 48.8887 27.6982 49.5679H27.6927ZM32.2551 47.4244C31.9832 47.8476 30.8675 48.1593 30.529 47.6805C30.1127 47.1015 30.1349 46.2664 29.9684 45.6262C30.2792 45.693 30.4679 46.105 30.6788 46.0604C31.2117 45.8378 31.5391 45.4035 31.9887 45.0305C32.5715 45.6652 32.7325 46.6617 32.2551 47.4244ZM36.5179 47.8309C36.4124 48.3653 36.1016 48.7606 35.4689 48.7105C34.5086 48.6381 33.6483 48.1426 32.9323 47.508C33.0267 47.1349 33.0711 46.8454 33.0766 46.439L34.5308 45.9769C34.0535 45.6429 33.5762 45.732 33.06 45.8545L32.6548 45.0027C33.4263 44.0952 35.0082 42.9038 35.7686 43.299C36.6511 43.7611 36.1516 45.3144 36.2459 45.9435C36.3403 46.6005 36.6566 47.1461 36.5234 47.8309H36.5179ZM38.6049 46.144C38.8491 45.5371 39.2876 45.2309 39.7205 44.78C38.6493 43.1766 37.4837 41.6957 36.1904 40.276L36.1183 40.1758C36.0461 40.0756 35.924 39.9976 35.8574 39.8306C36.1072 39.8028 36.146 39.9475 36.1849 40.0533C36.2071 40.109 36.257 40.109 36.2792 40.0867L37.689 41.3282C38.7103 42.4807 39.6483 43.5997 40.5642 44.9024C39.9592 45.3423 39.3986 45.9046 38.6049 46.144ZM44.0887 47.7418C44.0887 46.7341 44.0776 45.8322 43.7668 44.8913L40.3532 43.2155L39.4152 42.0854L44.3329 44.084C44.7991 44.9024 45.0378 45.7542 45.2543 46.6729L44.0831 47.7418H44.0887Z" fill="#162849"/>
<path d="M29.2079 19.3818L29.8296 21.2468L29.2468 20.9796L27.9202 20.3727L27.7315 20.4785L25.9665 21.4639L26.022 21.1132L26.244 19.5822L24.6843 18.4297L26.688 18.0456L27.2597 16.6983L27.4373 16.2808C27.8647 16.8264 28.1256 17.3385 28.4475 17.8953C28.4475 17.8953 28.4475 17.9064 28.4586 17.9064L30.0405 17.9955L30.5622 18.0233C30.0683 18.5244 29.6131 18.8529 29.2135 19.3762L29.2079 19.3818Z" fill="#F3F2F3"/>
<path d="M18.2958 18.5244C17.7851 16.0581 16.7805 13.5416 15.6704 11.2256C15.6704 11.2145 15.6593 11.1978 15.6537 11.1866C15.9923 10.6299 17.3633 9.33828 17.8573 8.97641C17.9461 8.91517 18.1681 8.74258 18.2736 8.68134C18.3679 8.78155 18.4345 8.89846 18.49 9.02095C18.5566 9.17126 18.601 9.33272 18.6565 9.51644C19.4502 11.9605 20.4937 14.733 20.9933 17.2216C20.8545 17.2773 18.2958 18.5244 18.2958 18.5244Z" fill="#E71E26"/>
<path d="M30.0461 17.9955L30.035 18.0066L28.4531 17.9176C28.4531 17.9176 28.4531 17.9064 28.442 17.9064L30.0461 17.9955Z" fill="#F3F2F3"/>
<path d="M32.0886 43.6721C31.9554 43.6498 31.8722 43.5162 31.8167 43.4048C31.5169 44.0952 31.2394 44.702 30.6233 45.1474C30.0849 44.7187 29.5743 44.1397 28.9582 43.8224C28.7084 43.789 28.5141 43.7556 28.2644 43.5774C26.899 42.6254 26.0331 41.2336 26.133 39.5745C26.4383 39.5411 26.4549 39.0957 26.5271 38.6837C27.1099 39.1013 27.5983 39.4632 28.2366 39.5745L29.1469 38.5445L30.1626 38.4109L31.6168 39.285C31.9887 38.9955 32.1552 38.7004 32.4716 38.3163C32.627 38.5501 32.7269 38.7116 32.8823 38.8062C33.4318 40.4764 33.2875 42.2524 32.0831 43.6665L32.0886 43.6721Z" fill="#F3F2F3"/>
<path d="M20.3994 28.6347L19.9831 30.1991C19.8776 30.5888 20.0553 30.934 20.0886 31.3905C19.3393 30.7002 19.1894 29.4419 17.9239 29.7147C16.3531 30.0544 16.7749 33.4059 18.8064 35.36C19.1561 35.6941 19.5779 35.7943 20.0109 35.8277C20.3272 36.518 19.9776 37.4311 19.2726 37.4478C18.2514 37.4645 17.391 36.7741 16.9914 35.8945C17.6186 34.9202 17.441 33.8067 16.5751 33.0551C15.737 32.3203 15.0155 31.3849 15.1376 30.1768C15.2319 29.1858 15.8591 28.3452 16.7194 27.8386L16.4919 27.6159C16.2588 27.3876 17.2578 25.9011 18.2847 25.3722C19.0118 24.9992 19.7722 24.8211 20.6048 24.7431C19.9387 26.2463 20.8268 27.0313 20.3994 28.6402V28.6347Z" fill="#F3F2F3"/>
<path d="M38.022 31.68C37.8555 32.0976 38.0775 32.71 37.8278 33.083C37.4614 33.6341 37.1617 34.163 37.4781 34.82C37.689 35.2709 36.7898 36.9523 35.7019 37.0191C36.1793 36.1339 36.2403 35.2821 36.4568 34.3523C36.5789 34.0795 37.0174 33.829 37.0285 33.4282C37.0285 33.2778 37.3171 33.0941 37.3837 32.9661C38.2052 31.268 38.1885 28.8685 37.2561 28.9075C36.8842 28.9242 36.701 29.2638 36.4512 29.4921C36.146 28.4287 35.9795 27.3987 36.0017 26.3465C36.0239 25.4947 35.824 24.6986 35.5687 23.8802C37.5558 24.2086 37.1284 26.018 38.3384 26.3354C38.1774 26.5024 38.0276 26.4523 37.7834 26.4857C38.5771 26.9979 39.2154 27.6827 39.3264 28.6291C39.4818 29.8706 39.01 30.9396 38.022 31.68Z" fill="#F3F2F3"/>
<path d="M33.1266 51.6501C33.3503 51.6501 33.5317 51.4681 33.5317 51.2436C33.5317 51.0192 33.3503 50.8372 33.1266 50.8372C32.9028 50.8372 32.7214 51.0192 32.7214 51.2436C32.7214 51.4681 32.9028 51.6501 33.1266 51.6501Z" fill="#162849"/>
<path d="M27.6926 49.5679C27.343 49.7516 26.8101 49.824 26.5604 49.4899C25.9942 48.755 26.083 47.8197 25.8999 46.9791C25.75 46.3221 24.8619 45.1363 25.4447 44.4626C26.0442 43.7723 27.6871 44.4849 28.7417 44.9637C29.2135 45.1752 29.7463 45.6318 29.4022 46.2442C29.0137 46.3332 28.2421 46.066 27.8925 46.7675C28.4975 46.7675 29.0581 46.7397 29.6631 46.8566C30.2847 48.0034 28.9581 48.8887 27.6982 49.5679H27.6926Z" fill="#E71E26"/>
<path d="M26.6658 43.5384C25.8943 43.4438 25.0118 43.5719 24.6399 44.3568C24.2902 45.0917 24.5788 45.8656 24.8619 46.5448L24.2347 47.2853C23.2245 45.4035 22.2199 43.6387 21.4595 41.6845C21.0044 40.5042 20.6214 39.3407 20.7712 38.0379C21.8924 40.3595 23.6852 41.6623 25.8999 42.9093C26.194 43.0708 26.4938 43.2211 26.6603 43.5384H26.6658Z" fill="#F3F2F3"/>
<path d="M36.5179 47.8309C36.4124 48.3653 36.1016 48.7606 35.4689 48.7105C34.5086 48.6381 33.6483 48.1426 32.9323 47.508C33.0267 47.135 33.0711 46.8454 33.0766 46.439L34.5308 45.9769C34.0535 45.6429 33.5762 45.732 33.06 45.8545L32.6548 45.0027C33.4263 44.0952 35.0082 42.9038 35.7686 43.2991C36.6511 43.7611 36.1516 45.3144 36.2459 45.9435C36.3403 46.6005 36.6567 47.1461 36.5234 47.8309H36.5179Z" fill="#E71E26"/>
<path d="M45.2598 46.6729L44.0887 47.7418C44.0887 46.7341 44.0776 45.8322 43.7668 44.8913L40.3532 43.2155L39.4152 42.0854L44.3329 44.084C44.7992 44.9024 45.0378 45.7543 45.2543 46.6729H45.2598Z" fill="#F3F2F3"/>
<path d="M14.0663 43.3436L11.0857 44.9526C11.441 45.8099 12.1348 46.4891 12.2458 47.4133C11.4798 46.3444 10.7916 45.3534 9.60931 44.9748C9.75363 44.4682 10.1255 44.2956 10.5473 44.1119L16.6029 41.5175C15.8092 42.2635 14.9821 42.8425 14.0608 43.338L14.0663 43.3436Z" fill="#F3F2F3"/>
<path d="M32.2551 47.4245C31.9831 47.8476 30.8675 48.1593 30.5289 47.6805C30.1126 47.1015 30.1348 46.2664 29.9683 45.6262C30.2791 45.693 30.4679 46.105 30.6788 46.0605C31.2116 45.8378 31.5391 45.4035 31.9887 45.0305C32.5715 45.6652 32.7324 46.6617 32.2551 47.4245Z" fill="#E71E26"/>
<path d="M39.7205 44.78C38.6492 43.1766 37.4836 41.6957 36.1904 40.276L36.1182 40.1758C36.0461 40.0756 35.924 39.9976 35.8574 39.8306C36.1071 39.8028 36.146 39.9475 36.1848 40.0533C36.207 40.109 36.257 40.109 36.2792 40.0867L37.689 41.3282C38.7103 42.4807 39.6483 43.5997 40.5641 44.9024C39.9591 45.3423 39.3985 45.9046 38.6048 46.144C38.849 45.5371 39.2875 45.2309 39.7205 44.78Z" fill="#F3F2F3"/>
<path d="M35.3856 42.553C34.6418 42.553 34.1534 42.9149 33.3486 43.3269C33.6372 42.6755 33.9092 42.0074 33.998 41.2391L34.492 39.2961C34.9027 40.3372 35.1303 41.3505 35.3856 42.5475V42.553Z" fill="#F3F2F3"/>
<path d="M25.478 42.0575C24.7676 41.7625 24.1515 41.356 23.5576 40.855C22.8693 40.2481 22.12 39.658 21.8591 38.6782C23.0358 39.6469 23.9738 40.5711 25.1505 41.3449C25.2838 41.5342 25.3948 41.7959 25.478 42.0575Z" fill="#EB9454"/>
<path d="M35.6909 29.364C35.0248 27.421 35.5577 25.5504 34.7973 23.78C33.7371 23.7967 32.7935 23.9581 31.7834 24.1363C29.5743 24.5148 27.4152 24.6652 25.1617 24.6206C23.7963 24.5984 22.5197 24.526 21.1709 24.654C20.5659 26.0793 21.3707 27.1649 20.9211 28.9353L20.3272 31.2625C20.2606 31.5241 20.0941 31.6967 20.244 32.0697C19.8943 32.0586 19.8055 31.9083 19.6168 31.7635C19.256 32.2423 19.4614 32.6933 19.7667 33.2055C19.2283 33.2611 19.0007 32.8659 18.873 32.5597C18.6954 32.1477 18.8397 31.7858 18.9452 31.3682C18.6566 31.2458 18.4456 31.2402 18.2292 31.2068C18.2181 30.8672 18.4568 30.7614 18.7898 30.8115C18.7398 30.5109 18.4456 30.3661 18.1404 30.3773C16.7306 30.4329 18.4734 35.5048 20.0553 34.8924C20.2773 34.8033 20.4161 34.5862 20.3939 34.1797C20.6769 34.2354 20.738 34.4303 20.7768 34.6697C21.0544 36.3287 21.898 37.7206 23.2024 38.7505C23.9961 39.3796 24.7787 39.9753 25.7278 40.2537C25.7445 39.8362 25.8666 39.6023 26.133 39.5745C26.4383 39.5411 26.4549 39.0957 26.5271 38.6837C27.1099 39.1013 27.5983 39.4632 28.2366 39.5745L29.158 38.5334C28.775 38.3998 28.331 38.3497 28.0479 37.8765C29.1525 38.1326 30.1238 38.0435 31.2172 37.5424C31.023 38.0936 30.418 38.0936 30.1238 38.4443L31.6168 39.2906C31.9887 39.0011 32.1552 38.706 32.4716 38.3218C32.627 38.5557 32.7269 38.7171 32.8824 38.8118C33.1099 38.745 33.3375 38.8396 33.504 39.0512C35.0415 37.2362 35.6798 35.0817 35.7963 32.7768C35.8518 31.5965 36.085 30.5331 35.6853 29.364H35.6909ZM27.5706 32.7267C28.1534 32.6376 28.5808 32.5764 29.0692 32.8826C29.5798 33.2055 30.1293 33.083 30.5845 32.7434C30.9563 32.465 31.2505 31.8526 30.9563 31.3293C30.1682 29.9374 29.3134 28.2505 30.3569 27.1037C30.0905 28.3897 30.8342 30.2993 31.6224 31.2402C32.0054 31.6967 32.3218 32.4093 31.7223 32.7935L30.4679 33.6063C29.43 34.2744 28.7029 33.1888 27.9314 33.2277C27.5373 33.25 27.232 33.0997 27.0433 32.7545C26.9267 32.5318 26.8213 32.0196 27.2875 31.8804C27.2598 32.1254 27.3097 32.7601 27.565 32.7211L27.5706 32.7267ZM25.9776 27.9276C26.4771 28.0445 26.6548 28.4677 26.6936 28.8908C26.7047 28.9465 26.8268 28.9854 26.8601 28.9966C26.8934 29.0077 26.899 29.119 26.7991 29.0968C26.4993 29.3974 26.1885 29.531 25.8499 29.5756C25.3393 29.6424 25.145 29.6535 24.6344 29.4141C24.4734 29.3362 24.2514 29.0968 24.0516 29.0968C24.0238 29.0968 24.0072 29.0968 23.9961 29.0968C23.9739 29.1079 23.935 29.119 23.8684 29.1357C24.146 28.1058 24.8509 27.666 25.972 27.9276H25.9776ZM24.2015 35.5159C23.8518 35.0148 23.7297 34.241 24.2681 33.8123C24.6621 33.495 25.1284 33.2834 25.6446 33.1609L24.59 34.2855C24.2459 34.653 24.1404 35.0594 24.2015 35.5159ZM33.8537 34.6363C33.7593 34.2688 33.7593 34.0072 33.5595 33.7177C33.4762 33.9459 33.4707 34.0962 33.3597 34.1964C32.1608 35.2264 32.1053 36.8855 29.5243 37.0581C27.7315 37.175 26.3106 36.5347 25.2782 35.1373C25.1284 34.9313 24.6732 34.8478 24.6788 34.4971C24.862 34.4024 25.0285 34.3579 25.1506 34.2855C25.2671 34.2132 25.3893 34.4191 25.4836 34.5249C27.6316 35.154 29.9406 35.1485 32.0664 34.4303L33.554 33.7121L32.6936 32.6153C33.232 32.6877 33.7427 33.0273 33.998 33.5061C34.1756 33.829 34.059 34.2967 33.8537 34.6363Z" fill="#FCBC7D"/>
<path d="M36.5623 33.1331C36.3791 32.4205 36.6955 31.7802 36.7233 31.101C36.7455 30.561 36.6067 29.9152 37.2284 29.6424C37.5447 30.8616 37.3005 32.0586 36.5623 33.1331Z" fill="#EB9454"/>
<path d="M29.5244 37.0525C27.7316 37.1694 26.3162 36.5292 25.2838 35.1318C25.1284 34.9258 24.6733 34.8478 24.6788 34.4915C24.8675 34.3913 25.0285 34.3523 25.1506 34.28C25.2727 34.2076 25.3893 34.4136 25.4836 34.5194C27.6317 35.1429 29.9406 35.1429 32.072 34.4247L33.5595 33.7065L32.6992 32.6098C33.2432 32.6766 33.7538 33.0217 34.0036 33.5005C34.1756 33.8234 34.0646 34.2911 33.8593 34.6307C33.7593 34.2633 33.7649 34.0016 33.5651 33.7121C33.4818 33.9404 33.4763 34.0907 33.3653 34.1853C32.1664 35.2153 32.1109 36.8799 29.5299 37.0469L29.5244 37.0525ZM30.8787 36.2341C31.3616 36.0003 31.7501 35.5716 31.9222 35.0594C29.9628 35.6106 28.0812 35.6384 26.0609 35.2375C27.0766 36.6962 29.5022 36.9022 30.8787 36.2341Z" fill="#162849"/>
<path d="M30.4679 33.6063C29.43 34.2744 28.7028 33.1888 27.9369 33.2277C27.5484 33.25 27.232 33.0997 27.0488 32.7545C26.9267 32.5318 26.8268 32.0196 27.293 31.8804C27.2653 32.1254 27.3152 32.7601 27.5706 32.7211C28.1534 32.632 28.5863 32.5708 29.0692 32.877C29.5521 33.1832 30.1238 33.0774 30.5844 32.7378C30.9563 32.4594 31.2505 31.847 30.9563 31.3237C30.1682 29.9319 29.3134 28.245 30.3569 27.0981C30.096 28.3842 30.8342 30.2937 31.6279 31.2402C32.0109 31.6967 32.3273 32.4093 31.7278 32.7935L30.4734 33.6007L30.4679 33.6063Z" fill="#162849"/>
<path d="M27.1432 26.096C27.1876 26.2797 27.2931 26.4746 27.1765 26.6694C26.8379 27.2484 25.6668 26.6137 24.4734 26.6972C23.6686 26.7529 23.0914 27.2707 22.4142 27.6771C22.3421 27.2428 22.5918 26.9756 22.6196 26.6471C23.3633 25.8009 24.429 25.4557 25.6002 25.7452L27.1376 26.096H27.1432Z" fill="#162849"/>
<path d="M34.6474 26.1349C34.6752 26.3632 34.8139 26.5191 34.5586 26.7418C32.9823 25.0604 30.7954 27.5268 30.7399 26.0403C30.7343 25.8566 30.8398 25.7452 30.9231 25.5615C30.9453 25.7118 31.0452 25.7619 31.1451 25.7118C32.5882 24.9658 33.8592 24.7654 34.6474 26.1405V26.1349Z" fill="#162849"/>
<path d="M24.59 34.2855C24.2459 34.6474 24.1404 35.0594 24.2015 35.5159C23.8518 35.0149 23.7297 34.2354 24.2681 33.8123C24.6677 33.495 25.1284 33.2834 25.6446 33.1609L24.59 34.2855Z" fill="#162849"/>
<path d="M30.8786 36.2341C29.5021 36.9077 27.071 36.6962 26.0609 35.2375C28.0812 35.6384 29.9628 35.605 31.9221 35.0594C31.7501 35.5716 31.3615 36.0003 30.8786 36.2341Z" fill="#F3F2F3"/>
<path d="M26.7602 29.0856C26.6103 28.8295 26.4161 28.6235 26.1163 28.4788C26.1441 28.8462 26.083 29.0968 25.8999 29.3584C25.5668 29.6591 24.9285 29.531 24.812 29.3863C24.6177 29.1803 24.54 28.9409 24.5511 28.579C24.2791 28.7015 24.0294 28.913 23.9461 29.1803C23.6686 29.2192 23.3744 29.3195 23.0636 29.1357C23.4355 29.0856 23.6297 29.0355 23.8074 28.746C24.2458 28.0167 25.1672 27.5992 25.9942 27.8441C26.6214 28.0334 27.1487 29.2415 26.7602 29.0801V29.0856Z" fill="#182542"/>
<path d="M33.8091 28.5512C33.687 28.2561 33.4595 28.0668 33.1542 27.9165C33.2319 28.2617 33.1653 28.5122 33.0321 28.7961C32.6713 28.9687 32.3993 29.03 32.0052 28.8852C31.8498 28.6792 31.7166 28.4398 31.7388 28.0557L31.0062 28.5679C31.1671 28.2283 31.3281 27.666 31.7499 27.4544C32.5714 27.0424 33.5594 27.4377 34.009 28.1949C34.1089 28.3619 34.2421 28.412 34.4641 28.4287C34.3253 28.6625 33.9979 28.4955 33.8202 28.5512H33.8091Z" fill="#182542"/>
<path d="M33.8092 28.5512C33.5262 28.6402 33.2375 28.7015 33.0266 28.8017C33.1598 28.5122 33.2264 28.2672 33.1487 27.9221C33.454 28.0724 33.6816 28.2617 33.8037 28.5567L33.8092 28.5512Z" fill="#FDFDFC"/>
<path d="M31.9998 28.8908C31.7001 28.7794 31.3671 28.8073 31.0007 28.5734L31.7334 28.0612C31.7112 28.451 31.8444 28.6848 31.9998 28.8908Z" fill="#FDFDFC"/>
<path d="M25.4503 28.6569C25.5944 28.6569 25.7112 28.5398 25.7112 28.3953C25.7112 28.2508 25.5944 28.1336 25.4503 28.1336C25.3062 28.1336 25.1895 28.2508 25.1895 28.3953C25.1895 28.5398 25.3062 28.6569 25.4503 28.6569Z" fill="white"/>
<path d="M32.4993 28.206C32.6373 28.206 32.7491 28.0938 32.7491 27.9555C32.7491 27.8171 32.6373 27.7049 32.4993 27.7049C32.3614 27.7049 32.2496 27.8171 32.2496 27.9555C32.2496 28.0938 32.3614 28.206 32.4993 28.206Z" fill="white"/>
<path d="M28.0201 37.8542C28.0201 37.8542 29.3911 38.3998 31.2283 37.5591C31.2283 37.5591 30.9952 38.4165 29.7574 38.5835C28.5197 38.7505 28.0146 37.8542 28.0146 37.8542H28.0201Z" fill="#162849"/>
<path d="M27.3819 54.701C12.4345 54.701 0.273499 42.5029 0.273499 27.5101C0.273499 12.5172 12.4345 0.319195 27.3819 0.319195C42.3292 0.319195 54.4902 12.5172 54.4902 27.5101C54.4902 42.5029 42.3292 54.701 27.3819 54.701ZM27.3819 1.67763C13.1838 1.67763 1.62781 13.2633 1.62781 27.5101C1.62781 41.7569 13.1783 53.3425 27.3819 53.3425C41.5854 53.3425 53.1359 41.7569 53.1359 27.5101C53.1359 13.2633 41.5854 1.67763 27.3819 1.67763Z" fill="#162849"/>
</g>
<defs>
<clipPath id="clip0_106_226">
<rect width="185" height="56" fill="white"/>
</clipPath>
</defs>
</svg>
