<svg width="60" height="60" viewBox="0 0 60 60" fill="none" xmlns="http://www.w3.org/2000/svg">
<path d="M17.2361 43.1897V54.5507H19.3698V44.5536H26.2042V54.5507H28.3379V43.1897C28.3379 42.4445 27.86 41.8399 27.271 41.8399H18.2918C17.7028 41.8399 17.225 42.4445 17.225 43.1897H17.2361Z" fill="#C12026"/>
<path d="M54.3309 56.8004V23.533C54.3309 22.7878 53.853 22.1832 53.264 22.1832H40.0175V24.8828H52.1972V56.8004H37.6504V8.31939C37.6504 7.57418 37.1726 6.96958 36.5836 6.96958H33.1497V4.19964H35.1278V1.5H10.7017V4.19964H12.6687V6.96958H9.2348C8.64582 6.96958 8.16797 7.57418 8.16797 8.31939V39.4496H10.3016V9.66921H35.5168V56.8004H10.3016V44.6942H8.16797V56.8004H0V59.5H59.2539V56.8004H54.3309ZM18.7808 6.96958H14.8024V4.19964H18.7808V6.96958ZM24.8929 6.96958H20.9144V4.19964H24.8929V6.96958ZM31.0049 6.96958H27.0265V4.19964H31.0049V6.96958Z" fill="#C12026"/>
<path d="M31.4495 15.7293H27.6155V18.4289H31.4495V15.7293Z" fill="#C12026"/>
<path d="M24.7039 15.7293H20.87V18.4289H24.7039V15.7293Z" fill="#C12026"/>
<path d="M17.9696 15.7293H14.1245V18.4289H17.9696V15.7293Z" fill="#C12026"/>
<path d="M31.4495 22.1269H27.6155V24.8265H31.4495V22.1269Z" fill="#C12026"/>
<path d="M24.7039 22.1269H20.87V24.8265H24.7039V22.1269Z" fill="#C12026"/>
<path d="M17.9696 22.1269H14.1245V24.8265H17.9696V22.1269Z" fill="#C12026"/>
<path d="M31.4495 28.5245H27.6155V31.2241H31.4495V28.5245Z" fill="#C12026"/>
<path d="M24.7039 28.5245H20.87V31.2241H24.7039V28.5245Z" fill="#C12026"/>
<path d="M17.9696 28.5245H14.1245V31.2241H17.9696V28.5245Z" fill="#C12026"/>
<path d="M31.4495 34.9362H27.6155V37.6358H31.4495V34.9362Z" fill="#C12026"/>
<path d="M24.7039 34.9362H20.87V37.6358H24.7039V34.9362Z" fill="#C12026"/>
<path d="M17.9696 34.9362H14.1245V37.6358H17.9696V34.9362Z" fill="#C12026"/>
<path d="M49.9191 28.4261H46.4296V31.1257H49.9191V28.4261Z" fill="#C12026"/>
<path d="M43.7958 28.4261H40.3064V31.1257H43.7958V28.4261Z" fill="#C12026"/>
<path d="M49.9191 34.8376H46.4296V37.5373H49.9191V34.8376Z" fill="#C12026"/>
<path d="M43.7958 34.8376H40.3064V37.5373H43.7958V34.8376Z" fill="#C12026"/>
<path d="M49.9191 41.2353H46.4296V43.9349H49.9191V41.2353Z" fill="#C12026"/>
<path d="M43.7958 41.2353H40.3064V43.9349H43.7958V41.2353Z" fill="#C12026"/>
<path d="M49.9191 47.6469H46.4296V50.3466H49.9191V47.6469Z" fill="#C12026"/>
<path d="M43.7958 47.6469H40.3064V50.3466H43.7958V47.6469Z" fill="#C12026"/>
</svg>
