<svg width="60" height="60" viewBox="0 0 60 60" fill="none" xmlns="http://www.w3.org/2000/svg">
<path d="M53.8333 27.5H35.1667C34.8572 27.5 34.5605 27.3796 34.3417 27.1653C34.1229 26.951 34 26.6603 34 26.3572V12.6429C34 12.3398 34.1229 12.0491 34.3417 11.8348C34.5605 11.6204 34.8572 11.5 35.1667 11.5H53.8333C54.1428 11.5 54.4395 11.6204 54.6583 11.8348C54.8771 12.0491 55 12.3398 55 12.6429V26.3572C55 26.6603 54.8771 26.951 54.6583 27.1653C54.4395 27.3796 54.1428 27.5 53.8333 27.5ZM36.3333 25.2143H52.6667V13.7857H36.3333V25.2143Z" fill="#C12026"/>
<path d="M56.8356 13.409H31.1644C30.9245 13.4089 30.6906 13.3344 30.4943 13.1958C30.2981 13.0571 30.149 12.8609 30.0675 12.634C29.9868 12.4057 29.9782 12.1579 30.043 11.9246C30.1078 11.6912 30.2427 11.4837 30.4292 11.3306L43.2649 0.762333C43.4728 0.592622 43.7323 0.5 44 0.5C44.2677 0.5 44.5272 0.592622 44.7351 0.762333L57.5708 11.3306C57.7573 11.4837 57.8922 11.6912 57.957 11.9246C58.0218 12.1579 58.0132 12.4057 57.9325 12.634C57.851 12.8609 57.7019 13.0571 57.5057 13.1958C57.3094 13.3344 57.0755 13.4089 56.8356 13.409ZM34.4316 11.0605H53.5684L44 3.18129L34.4316 11.0605ZM46.3338 27.5H41.6662C41.3568 27.5 41.06 27.3763 40.8411 27.1561C40.6223 26.9359 40.4994 26.6372 40.4994 26.3258V18.106C40.4994 17.7946 40.6223 17.4959 40.8411 17.2757C41.06 17.0555 41.3568 16.9318 41.6662 16.9318H46.3338C46.6432 16.9318 46.94 17.0555 47.1589 17.2757C47.3777 17.4959 47.5006 17.7946 47.5006 18.106V26.3258C47.5006 26.6372 47.3777 26.9359 47.1589 27.1561C46.94 27.3763 46.6432 27.5 46.3338 27.5ZM42.8331 25.1515H45.1669V19.2803H42.8331V25.1515Z" fill="#C12026"/>
<path d="M55.8542 26.8334H32.9375C32.6336 26.8334 32.3422 26.7104 32.1273 26.4917C31.9124 26.2729 31.7917 25.9761 31.7917 25.6667C31.7917 25.3573 31.9124 25.0605 32.1273 24.8417C32.3422 24.6229 32.6336 24.5 32.9375 24.5H55.8542C56.1581 24.5 56.4495 24.6229 56.6644 24.8417C56.8793 25.0605 57 25.3573 57 25.6667C57 25.9761 56.8793 26.2729 56.6644 26.4917C56.4495 26.7104 56.1581 26.8334 55.8542 26.8334ZM30.6458 59.5H3.14583C2.84194 59.5 2.55049 59.3771 2.33561 59.1583C2.12072 58.9395 2 58.6428 2 58.3334V42C2 41.6906 2.12072 41.3939 2.33561 41.1751C2.55049 40.9563 2.84194 40.8334 3.14583 40.8334H30.6458C30.9497 40.8334 31.2412 40.9563 31.4561 41.1751C31.6709 41.3939 31.7917 41.6906 31.7917 42V58.3334C31.7917 58.6428 31.6709 58.9395 31.4561 59.1583C31.2412 59.3771 30.9497 59.5 30.6458 59.5ZM4.29167 57.1667H29.5V43.1667H4.29167V57.1667Z" fill="#C12026"/>
<path d="M16.4 56.5C15.2133 56.5 14.0533 56.1565 13.0666 55.5129C12.0799 54.8693 11.3108 53.9546 10.8567 52.8843C10.4026 51.8141 10.2838 50.6364 10.5153 49.5002C10.7468 48.364 11.3182 47.3204 12.1574 46.5013C12.9965 45.6821 14.0656 45.1243 15.2295 44.8983C16.3933 44.6723 17.5997 44.7883 18.6961 45.2316C19.7925 45.6749 20.7295 46.4256 21.3888 47.3888C22.0481 48.352 22.4 49.4845 22.4 50.6429C22.4 52.1963 21.7679 53.6861 20.6426 54.7845C19.5174 55.8829 17.9913 56.5 16.4 56.5ZM16.4 47.1286C15.688 47.1286 14.992 47.3347 14.3999 47.7209C13.8079 48.107 13.3465 48.6559 13.074 49.298C12.8016 49.9402 12.7303 50.6468 12.8692 51.3285C13.0081 52.0102 13.3509 52.6364 13.8544 53.1279C14.3579 53.6193 14.9993 53.954 15.6977 54.0896C16.396 54.2252 17.1198 54.1557 17.7777 53.8897C18.4355 53.6237 18.9977 53.1732 19.3933 52.5953C19.7889 52.0174 20 51.3379 20 50.6429C20 49.7108 19.6207 48.817 18.9456 48.1579C18.2705 47.4989 17.3548 47.1286 16.4 47.1286ZM9.2 38.9286C8.88174 38.9286 8.57652 38.8052 8.35147 38.5855C8.12643 38.3658 8 38.0679 8 37.7572V31.9C8 27.5505 9.77 23.3791 12.9206 20.3035C16.0712 17.2279 20.3444 15.5 24.8 15.5H30.8C31.1183 15.5 31.4235 15.6234 31.6485 15.8431C31.8736 16.0628 32 16.3608 32 16.6715C32 16.9821 31.8736 17.2801 31.6485 17.4998C31.4235 17.7195 31.1183 17.8429 30.8 17.8429H24.8C20.9809 17.8429 17.3182 19.3239 14.6177 21.9601C11.9171 24.5964 10.4 28.1718 10.4 31.9V37.7572C10.4 38.0679 10.2736 38.3658 10.0485 38.5855C9.82348 38.8052 9.51826 38.9286 9.2 38.9286Z" fill="#C12026"/>
<path d="M9.99159 38.7C9.84167 38.7009 9.69306 38.6719 9.55427 38.6147C9.41549 38.5574 9.28925 38.4731 9.18281 38.3665L6.33501 35.4915C6.1205 35.275 6 34.9813 6 34.675C6 34.3688 6.1205 34.0751 6.33501 33.8585C6.54951 33.642 6.84043 33.5203 7.14378 33.5203C7.44713 33.5203 7.73806 33.642 7.95256 33.8585L9.99159 35.9285L12.0306 33.8585C12.1368 33.7513 12.2629 33.6663 12.4017 33.6082C12.5405 33.5502 12.6892 33.5203 12.8394 33.5203C12.9896 33.5203 13.1383 33.5502 13.2771 33.6082C13.4159 33.6663 13.542 33.7513 13.6482 33.8585C13.7544 33.9658 13.8386 34.093 13.8961 34.2331C13.9536 34.3732 13.9832 34.5234 13.9832 34.675C13.9832 34.8267 13.9536 34.9768 13.8961 35.1169C13.8386 35.257 13.7544 35.3843 13.6482 35.4915L10.8004 38.3665C10.6939 38.4731 10.5677 38.5574 10.4289 38.6147C10.2901 38.6719 10.1415 38.7009 9.99159 38.7ZM35.0523 52.5C34.7502 52.5 34.4604 52.3789 34.2468 52.1632C34.0332 51.9475 33.9132 51.655 33.9132 51.35C33.9132 51.045 34.0332 50.7525 34.2468 50.5369C34.4604 50.3212 34.7502 50.2 35.0523 50.2C38.6777 50.2 42.1545 48.7461 44.7181 46.1581C47.2816 43.5701 48.7218 40.06 48.7218 36.4V30.65C48.7218 30.345 48.8418 30.0525 49.0554 29.8369C49.269 29.6212 49.5588 29.5 49.8609 29.5C50.163 29.5 50.4527 29.6212 50.6664 29.8369C50.88 30.0525 51 30.345 51 30.65V36.4C51 40.67 49.3198 44.7651 46.329 47.7844C43.3382 50.8038 39.2819 52.5 35.0523 52.5Z" fill="#C12026"/>
<path d="M52.8521 34.4955C52.7019 34.4963 52.5531 34.4684 52.414 34.4132C52.275 34.358 52.1485 34.2767 52.0419 34.174L49.999 32.1784L47.9562 34.174C47.8498 34.2773 47.7235 34.3593 47.5844 34.4153C47.4454 34.4712 47.2964 34.5 47.1459 34.5C46.9954 34.5 46.8464 34.4712 46.7074 34.4153C46.5684 34.3593 46.442 34.2773 46.3356 34.174C46.2292 34.0706 46.1448 33.9479 46.0872 33.8128C46.0296 33.6778 46 33.533 46 33.3868C46 33.2406 46.0296 33.0959 46.0872 32.9608C46.1448 32.8257 46.2292 32.703 46.3356 32.5997L49.1887 29.828C49.2948 29.7241 49.4211 29.6416 49.5601 29.5853C49.6992 29.529 49.8484 29.5 49.999 29.5C50.1497 29.5 50.2989 29.529 50.4379 29.5853C50.577 29.6416 50.7032 29.7241 50.8093 29.828L53.6624 32.5997C53.7694 32.7027 53.8543 32.8253 53.9122 32.9605C53.9702 33.0956 54 33.2405 54 33.3868C54 33.5332 53.9702 33.6781 53.9122 33.8132C53.8543 33.9483 53.7694 34.0709 53.6624 34.174C53.5558 34.2767 53.4293 34.358 53.2903 34.4132C53.1512 34.4684 53.0023 34.4963 52.8521 34.4955Z" fill="#C12026"/>
</svg>
