<svg width="64" height="64" viewBox="0 0 64 64" fill="none" xmlns="http://www.w3.org/2000/svg">
<path d="M61.487 33.0701C59.056 27.3271 55.0016 22.4461 49.8952 18.9965C44.7889 15.5459 38.62 13.5268 32 13.5268C27.5887 13.5268 23.375 14.4229 19.5459 16.0429C13.8 18.4733 8.91887 22.5288 5.46875 27.6345C2.01925 32.7374 0 38.9109 0 45.5268C0 46.0801 0.013625 46.6285 0.041375 47.1749H10.0666V43.8785H4.72188C4.91088 40.7041 5.63912 37.6799 6.81763 34.8916C7.982 32.1366 9.58937 29.6104 11.545 27.4038L15.3243 31.184L17.6562 28.8514L13.8795 25.0741C14.7778 24.2788 15.7252 23.5358 16.7227 22.8645C20.6612 20.2053 25.317 18.5519 30.3519 18.2525V23.5943H33.6481V18.2485C36.826 18.439 39.8503 19.1658 42.6381 20.3453C45.3936 21.5096 47.9204 23.1165 50.126 25.072L46.3467 28.8513L48.6758 31.1839L52.4555 27.4066C53.2519 28.3049 53.9904 29.2524 54.6668 30.2504C57.325 34.189 58.9793 38.8451 59.2781 43.8784H53.9359V47.1748H63.9561C63.9864 46.6284 63.9999 46.08 63.9999 45.5266C64.0031 41.1164 63.1047 36.9028 61.487 33.0701Z" fill="#FB2C36"/>
<path d="M10.3855 40.2835C10.344 40.4721 10.472 40.6701 10.6892 40.7497L27.742 46.9563C28.5674 49.2026 30.9236 50.5789 33.3436 50.0961C36.0217 49.5618 37.7596 46.9583 37.2253 44.2802C36.6912 41.6027 34.0872 39.8647 31.4091 40.3989C30.5026 40.5798 29.7088 41.0012 29.0694 41.5786L10.8572 39.9899C10.6273 39.9695 10.4271 40.0947 10.3855 40.2835ZM34.8005 44.7639C35.0676 46.103 34.1996 47.4048 32.8602 47.672C31.5207 47.9392 30.2187 47.0704 29.9515 45.7313C29.6845 44.3926 30.5534 43.0907 31.8929 42.8235C33.2324 42.5563 34.5334 43.4253 34.8005 44.7639Z" fill="#FB2C36"/>
</svg>
