<svg width="60" height="60" viewBox="0 0 60 60" fill="none" xmlns="http://www.w3.org/2000/svg">
<path d="M55.0767 31.5H31.9233C31.6785 31.5 31.4436 31.4048 31.2704 31.2354C31.0973 31.066 31 30.8363 31 30.5967V15.4033C31 15.1637 31.0973 14.934 31.2704 14.7646C31.4436 14.5952 31.6785 14.5 31.9233 14.5C32.1682 14.5 32.4031 14.5952 32.5762 14.7646C32.7494 14.934 32.8467 15.1637 32.8467 15.4033V29.6935H54.1533V15.4033C54.1533 15.1637 54.2506 14.934 54.4238 14.7646C54.5969 14.5952 54.8318 14.5 55.0767 14.5C55.3215 14.5 55.5564 14.5952 55.7296 14.7646C55.9027 14.934 56 15.1637 56 15.4033V30.5967C56 30.8363 55.9027 31.066 55.7296 31.2354C55.5564 31.4048 55.3215 31.5 55.0767 31.5Z" fill="#C12026"/>
<path d="M58.0628 18.5098C57.8507 18.5097 57.6449 18.4385 57.479 18.3078L43 6.91048L28.521 18.3078C28.3831 18.4165 28.2169 18.4844 28.0417 18.5038C27.8664 18.5233 27.6892 18.4934 27.5303 18.4177C27.3715 18.3419 27.2374 18.2234 27.1436 18.0756C27.0498 17.9279 27 17.757 27 17.5825V13.286C26.9995 13.1461 27.0311 13.0078 27.0923 12.8816C27.1535 12.7555 27.2428 12.6446 27.3535 12.5575L42.4162 0.701831C42.5821 0.571152 42.7879 0.5 43 0.5C43.2121 0.5 43.4179 0.571152 43.5838 0.701831L58.6465 12.5575C58.7572 12.6446 58.8465 12.7555 58.9077 12.8816C58.9689 13.0078 59.0005 13.1461 59 13.286V17.5806C59 17.8265 58.9012 18.0623 58.7255 18.2362C58.5497 18.4101 58.3113 18.5078 58.0628 18.5078V18.5098ZM43 4.79964C43.2117 4.79875 43.4174 4.86879 43.5838 4.99834L57.1255 15.6598V13.7351L43 2.61529L28.8745 13.7351V15.6598L42.4162 4.99967C42.5822 4.86916 42.788 4.79818 43 4.79832V4.79964ZM47.162 31.5H38.838C38.5894 31.5 38.351 31.4023 38.1753 31.2284C37.9995 31.0545 37.9008 30.8187 37.9008 30.5727V19.5947C37.9008 19.3488 37.9995 19.1129 38.1753 18.939C38.351 18.7651 38.5894 18.6674 38.838 18.6674H47.162C47.4106 18.6674 47.649 18.7651 47.8247 18.939C48.0005 19.1129 48.0992 19.3488 48.0992 19.5947V30.5727C48.0992 30.8187 48.0005 31.0545 47.8247 31.2284C47.649 31.4023 47.4106 31.5 47.162 31.5ZM39.7752 29.6455H46.2248V20.5219H39.7752V29.6455Z" fill="#C12026"/>
<path d="M42.8029 17.8993C42.6818 17.8995 42.5619 17.8753 42.4501 17.828C42.3382 17.7806 42.2367 17.7111 42.1513 17.6235L39.3177 14.7311C38.863 14.2665 38.6076 13.6363 38.6076 12.9792C38.6076 12.3221 38.863 11.6919 39.3177 11.2273C39.7724 10.7626 40.389 10.5016 41.032 10.5016C41.675 10.5016 42.2916 10.7626 42.7463 11.2273L42.8029 11.2851L42.8595 11.2273C43.3138 10.7622 43.9303 10.5006 44.5733 10.5C45.2164 10.4994 45.8333 10.7599 46.2884 11.2242C46.7435 11.6885 46.9994 12.3185 47 12.9757C47.0006 13.6328 46.7456 14.2633 46.2913 14.7284L43.4578 17.6208C43.3722 17.7093 43.2702 17.7796 43.1577 17.8274C43.0453 17.8752 42.9247 17.8996 42.8029 17.8993ZM41.0317 12.3835C40.9168 12.3838 40.8046 12.4189 40.7091 12.4842C40.6137 12.5496 40.5394 12.6423 40.4954 12.7508C40.4515 12.8593 40.44 12.9786 40.4623 13.0938C40.4847 13.2089 40.5398 13.3147 40.6209 13.3979L42.8029 15.6264L44.9848 13.3965C45.0938 13.2851 45.1551 13.134 45.1551 12.9765C45.1551 12.8189 45.0938 12.6678 44.9848 12.5564C44.8758 12.445 44.7279 12.3824 44.5738 12.3824C44.4196 12.3824 44.2717 12.445 44.1627 12.5564L43.4545 13.2802C43.3689 13.3676 43.2673 13.437 43.1555 13.4843C43.0437 13.5317 42.9239 13.556 42.8029 13.556C42.6819 13.556 42.562 13.5317 42.4502 13.4843C42.3384 13.437 42.2368 13.3676 42.1513 13.2802L41.443 12.5564C41.3891 12.501 41.325 12.4571 41.2544 12.4272C41.1838 12.3973 41.1081 12.382 41.0317 12.3822V12.3835ZM28.0283 59.5H4.92148C4.67709 59.5 4.44271 59.4008 4.2699 59.2242C4.09708 59.0476 4 58.808 4 58.5583V42.716C4 42.4663 4.09708 42.2267 4.2699 42.0501C4.44271 41.8735 4.67709 41.7743 4.92148 41.7743C5.16587 41.7743 5.40025 41.8735 5.57306 42.0501C5.74588 42.2267 5.84296 42.4663 5.84296 42.716V57.6166H27.1068V42.716C27.1068 42.4663 27.2039 42.2267 27.3767 42.0501C27.5495 41.8735 27.7839 41.7743 28.0283 41.7743C28.2726 41.7743 28.507 41.8735 28.6798 42.0501C28.8526 42.2267 28.9497 42.4663 28.9497 42.716V58.5583C28.9497 58.808 28.8526 59.0476 28.6798 59.2242C28.507 59.4008 28.2726 59.5 28.0283 59.5Z" fill="#C12026"/>
<path d="M31.092 46.0887C30.8866 46.0887 30.6872 46.0151 30.5265 45.8802L16.5 34.1152L2.47348 45.8802C2.33983 45.9923 2.17888 46.0625 2.00911 46.0826C1.83934 46.1026 1.66765 46.0718 1.51376 45.9936C1.35987 45.9154 1.23002 45.793 1.13914 45.6406C1.04826 45.4881 1.00004 45.3116 1.00001 45.1315V40.6985C0.999543 40.554 1.03011 40.4113 1.08941 40.2811C1.14872 40.1508 1.23522 40.0364 1.34243 39.9464L15.9345 27.7083C16.0952 27.5734 16.2946 27.5 16.5 27.5C16.7054 27.5 16.9048 27.5734 17.0655 27.7083L31.6576 39.9464C31.7648 40.0364 31.8513 40.1508 31.9106 40.2811C31.9699 40.4113 32.0005 40.554 32 40.6985V45.1315C32 45.3854 31.9043 45.6289 31.7341 45.8084C31.5638 45.9879 31.3328 46.0887 31.092 46.0887ZM16.5 31.9363C16.7051 31.9354 16.9044 32.0077 17.0655 32.1414L30.1841 43.1468V41.16L16.5 29.6815L2.8159 41.16V43.1468L15.9345 32.1428C16.0953 32.008 16.2946 31.9348 16.5 31.9349V31.9363ZM20.5319 59.5H12.4681C12.2273 59.5 11.9963 59.3992 11.826 59.2197C11.6558 59.0401 11.5601 58.7967 11.5601 58.5428V47.2086C11.5601 46.9547 11.6558 46.7113 11.826 46.5318C11.9963 46.3523 12.2273 46.2514 12.4681 46.2514H20.5319C20.7727 46.2514 21.0037 46.3523 21.174 46.5318C21.3442 46.7113 21.4399 46.9547 21.4399 47.2086V58.5428C21.4399 58.7967 21.3442 59.0401 21.174 59.2197C21.0037 59.3992 20.7727 59.5 20.5319 59.5ZM13.376 57.5857H19.624V48.1658H13.376V57.5857Z" fill="#C12026"/>
<path d="M16.2629 44.7885C16.1399 44.7885 16.0182 44.7645 15.9046 44.7179C15.7909 44.6713 15.6877 44.6029 15.6008 44.5168L12.7215 41.6678C12.2595 41.2101 12 40.5894 12 39.9421C12 39.2949 12.2595 38.6741 12.7215 38.2165C13.1835 37.7588 13.8101 37.5017 14.4634 37.5017C15.1168 37.5017 15.7434 37.7588 16.2054 38.2165L16.2629 38.2741L16.3204 38.2165C16.7819 37.7583 17.4083 37.5006 18.0616 37.5C18.715 37.4994 19.3418 37.7559 19.8043 38.2131C20.2667 38.6704 20.5268 39.2909 20.5274 39.9381C20.5281 40.5854 20.2691 41.2063 19.8076 41.6644L16.9284 44.5135C16.8413 44.6006 16.7376 44.6698 16.6234 44.717C16.5092 44.7642 16.3867 44.7885 16.2629 44.7885ZM14.4638 39.3554C14.347 39.3554 14.2328 39.3896 14.1357 39.4539C14.0386 39.5181 13.9628 39.6095 13.9181 39.7163C13.8734 39.8232 13.8616 39.9408 13.8843 40.0543C13.9071 40.1678 13.9632 40.272 14.0458 40.3539L16.2629 42.549L18.48 40.3526C18.5908 40.2428 18.653 40.094 18.653 39.9388C18.653 39.7836 18.5908 39.6348 18.48 39.525C18.3692 39.4153 18.219 39.3536 18.0623 39.3536C17.9057 39.3536 17.7554 39.4153 17.6447 39.525L16.925 40.2379C16.8381 40.3241 16.7348 40.3924 16.6212 40.439C16.5076 40.4857 16.3859 40.5097 16.2629 40.5097C16.1399 40.5097 16.0182 40.4857 15.9045 40.439C15.7909 40.3924 15.6877 40.3241 15.6008 40.2379L14.8811 39.525C14.8263 39.4707 14.7613 39.4276 14.6897 39.3983C14.618 39.369 14.5413 39.3539 14.4638 39.3541V39.3554ZM58.0637 56.5H47.8937C47.6454 56.5 47.4072 56.4023 47.2316 56.2283C47.056 56.0544 46.9574 55.8184 46.9574 55.5724V52.2596C46.9574 52.0136 47.056 51.7776 47.2316 51.6037C47.4072 51.4297 47.6454 51.332 47.8937 51.332H53.7833V40.7819C53.7833 40.5359 53.8819 40.3 54.0575 40.126C54.2331 39.952 54.4713 39.8543 54.7196 39.8543H58.0637C58.312 39.8543 58.5502 39.952 58.7257 40.126C58.9013 40.3 59 40.5359 59 40.7819V55.5724C59 55.8184 58.9013 56.0544 58.7257 56.2283C58.5502 56.4023 58.312 56.5 58.0637 56.5ZM48.83 54.6448H57.1273V41.7095H55.6559V52.2596C55.6559 52.5056 55.5573 52.7415 55.3817 52.9155C55.2061 53.0894 54.9679 53.1872 54.7196 53.1872H48.83V54.6448Z" fill="#C12026"/>
<path d="M48.0743 59.5C47.9117 59.5002 47.752 59.4565 47.6115 59.3734L41.1157 55.5537C40.975 55.471 40.8581 55.352 40.7768 55.2086C40.6956 55.0652 40.6528 54.9026 40.6528 54.7371C40.6528 54.5715 40.6956 54.4089 40.7768 54.2656C40.8581 54.1222 40.975 54.0032 41.1157 53.9204L47.6115 50.1001C47.7522 50.0174 47.9118 49.9738 48.0742 49.9738C48.2367 49.9738 48.3963 50.0173 48.537 50.1001C48.6777 50.1828 48.7946 50.3018 48.8759 50.4451C48.9571 50.5884 49 50.751 49 50.9165V58.557C49 58.8071 48.9025 59.047 48.7289 59.2238C48.5553 59.4006 48.3198 59.5 48.0743 59.5ZM43.43 54.7368L47.1486 56.9237V52.5498L43.43 54.7368ZM5.23175 19.4246H1.9257C1.68019 19.4246 1.44473 19.3253 1.27113 19.1484C1.09753 18.9716 1 18.7317 1 18.4817V3.44295C1 3.19286 1.09753 2.95302 1.27113 2.77618C1.44473 2.59935 1.68019 2.5 1.9257 2.5H11.9801C12.2256 2.5 12.461 2.59935 12.6346 2.77618C12.8082 2.95302 12.9058 3.19286 12.9058 3.44295V6.81063C12.9058 7.06072 12.8082 7.30056 12.6346 7.4774C12.461 7.65423 12.2256 7.75358 11.9801 7.75358H6.15745V18.4817C6.15745 18.7317 6.05992 18.9716 5.88632 19.1484C5.71272 19.3253 5.47726 19.4246 5.23175 19.4246ZM2.85139 17.5387H4.30606V6.81063C4.30606 6.56054 4.40359 6.3207 4.57719 6.14386C4.75079 5.96703 4.98624 5.86768 5.23175 5.86768H11.0544V4.3859H2.85139V17.5387Z" fill="#C12026"/>
<path d="M11.8872 10.5C11.6519 10.5 11.4262 10.3957 11.2599 10.2101C11.0935 10.0244 11 9.77267 11 9.51015V1.48954C11 1.31581 11.0411 1.14516 11.119 0.994725C11.1969 0.844291 11.3089 0.719379 11.4437 0.632538C11.5786 0.545697 11.7315 0.499986 11.8873 0.5C12.043 0.500014 12.1959 0.54575 12.3308 0.632615L18.5563 4.64221C18.6912 4.72908 18.8032 4.85404 18.8811 5.00453C18.959 5.15501 19 5.32572 19 5.49949C19 5.67326 18.959 5.84397 18.8811 5.99446C18.8032 6.14494 18.6912 6.2699 18.5563 6.35677L12.3308 10.3671C12.1959 10.4541 12.043 10.4999 11.8872 10.5ZM12.7744 3.2041V7.79559L16.3384 5.49985L12.7744 3.2041Z" fill="#C12026"/>
</svg>
